<svg class="main-svg" xmlns="http://www.w3.org/2000/svg" xmlns:xlink="http://www.w3.org/1999/xlink" width="1200" height="1440" style="" viewBox="0 0 600 720"><rect x="0" y="0" width="600" height="720" style="fill: rgb(255, 255, 255); fill-opacity: 1;"/><defs id="defs-997b6c"><g class="clips"><clipPath id="clip997b6cxyplot" class="plotclip"><rect width="520" height="259"/></clipPath><clipPath class="axesclip" id="clip997b6cx"><rect x="60" y="0" width="520" height="720"/></clipPath><clipPath class="axesclip" id="clip997b6cy"><rect x="0" y="50" width="600" height="259"/></clipPath><clipPath class="axesclip" id="clip997b6cxy"><rect x="60" y="50" width="520" height="259"/></clipPath></g><g class="gradients"/><g class="patterns"/></defs><g class="bglayer"/><g class="layer-below"><g class="imagelayer"/><g class="shapelayer"/></g><g class="cartesianlayer"><g class="subplot xy"><g class="layer-subplot"><g class="shapelayer"/><g class="imagelayer"/></g><g class="minor-gridlayer"><g class="x"/><g class="y"/></g><g class="gridlayer"><g class="x"><path class="xgrid crisp" transform="translate(113.78999999999999,0)" d="M0,50v259" style="stroke: rgb(0, 0, 0); stroke-opacity: 0.05; stroke-width: 1px;"/><path class="xgrid crisp" transform="translate(185.51999999999998,0)" d="M0,50v259" style="stroke: rgb(0, 0, 0); stroke-opacity: 0.05; stroke-width: 1px;"/><path class="xgrid crisp" transform="translate(257.24,0)" d="M0,50v259" style="stroke: rgb(0, 0, 0); stroke-opacity: 0.05; stroke-width: 1px;"/><path class="xgrid crisp" transform="translate(328.97,0)" d="M0,50v259" style="stroke: rgb(0, 0, 0); stroke-opacity: 0.05; stroke-width: 1px;"/><path class="xgrid crisp" transform="translate(400.69,0)" d="M0,50v259" style="stroke: rgb(0, 0, 0); stroke-opacity: 0.05; stroke-width: 1px;"/><path class="xgrid crisp" transform="translate(472.41,0)" d="M0,50v259" style="stroke: rgb(0, 0, 0); stroke-opacity: 0.05; stroke-width: 1px;"/><path class="xgrid crisp" transform="translate(544.14,0)" d="M0,50v259" style="stroke: rgb(0, 0, 0); stroke-opacity: 0.05; stroke-width: 1px;"/></g><g class="y"><path class="ygrid crisp" transform="translate(0,239.62)" d="M60,0h520" style="stroke: rgb(0, 0, 0); stroke-opacity: 0.05; stroke-width: 1px;"/><path class="ygrid crisp" transform="translate(0,170.24)" d="M60,0h520" style="stroke: rgb(0, 0, 0); stroke-opacity: 0.05; stroke-width: 1px;"/><path class="ygrid crisp" transform="translate(0,100.86)" d="M60,0h520" style="stroke: rgb(0, 0, 0); stroke-opacity: 0.05; stroke-width: 1px;"/></g></g><g class="zerolinelayer"><path class="yzl zl crisp" transform="translate(0,309)" d="M60,0h520" style="stroke: rgb(0, 0, 0); stroke-opacity: 0.05; stroke-width: 1px;"/></g><g class="layer-between"><g class="shapelayer"/><g class="imagelayer"/></g><path class="xlines-below"/><path class="ylines-below"/><g class="overlines-below"/><g class="xaxislayer-below"/><g class="yaxislayer-below"/><g class="overaxes-below"/><g class="overplot"><g class="xy" transform="translate(60,50)" clip-path="url(#clip997b6cxyplot)"><g class="scatterlayer mlayer"><g class="trace scatter trace67f701" style="stroke-miterlimit: 2; opacity: 1;"><g class="fills"/><g class="errorbars"/><g class="lines"><path class="js-line" d="M0,254.71L14.34,254.81L17.93,254.65L28.69,253.96L32.28,254.01L53.79,254.15L57.38,253.57L78.9,253.55L82.48,253.84L107.59,252.38L111.17,252.5L121.93,253.22L125.52,252.94L132.69,251.63L136.28,250.96L139.86,244.85L143.45,246.66L147.03,240.26L150.62,254.87L154.21,213.81L157.79,220.52L161.38,253.2L164.97,246.42L172.14,255.44L175.72,251.45L179.31,258.6L182.9,254.2L186.48,257.04L190.07,255.77L193.66,247.61L197.24,256.82L200.83,251.26L204.41,257.36L208,257.08L211.59,253.83L215.17,248.36L218.76,255.75L222.34,258.64L225.93,257.4L229.52,255.98L233.1,255.46L240.28,257.33L243.86,257.22L247.45,252.43L251.03,249.39L254.62,248.04L258.21,248.58L268.97,251.62L272.55,251.82L279.72,250.11L283.31,248.07L290.48,244.67L294.07,245.38L304.83,250.69L308.41,251.35L312,251.28L315.59,250.3L326.34,244.53L329.93,244.82L344.28,253.1L347.86,253.64L362.21,253.02L365.79,254.01L380.14,257.64L383.72,258.11L412.41,258.95L416,258.96L520,258.76" style="vector-effect: none; fill: none; stroke: rgb(124, 181, 236); stroke-opacity: 1; stroke-width: 2px; opacity: 1;"/></g><g class="points"/><g class="text"/></g><g class="trace scatter trace14300b" style="stroke-miterlimit: 2; opacity: 1;"><g class="fills"/><g class="errorbars"/><g class="lines"><path class="js-line" d="M0,254.71L14.34,254.85L17.93,254.62L28.69,254.02L32.28,253.98L50.21,254.31L53.79,254.13L68.14,253.17L71.72,253.27L86.07,253.78L89.66,253.59L104,252.29L107.59,252.4L121.93,253.41L125.52,253.25L139.86,251.59L143.45,251.37L161.38,252.68L164.97,252.66L172.14,250.49L175.72,251.41L179.31,250.43L182.9,250.65L193.66,252.27L197.24,252.46L204.41,251.55L208,250.32L215.17,248.21L218.76,248.27L222.34,247.07L225.93,255.4L229.52,251.87L233.1,252.17L240.28,251.39L243.86,250.26L251.03,247.67L254.62,246.88L268.97,251.4L272.55,251.58L279.72,249.91L283.31,247.82L290.48,244.28L294.07,245.13L304.83,250.55L308.41,251.2L312,251.12L315.59,250.17L326.34,244.33L329.93,244.6L344.28,253.02L347.86,253.57L362.21,252.95L365.79,253.95L380.14,257.63L383.72,258.1L412.41,258.95L416,258.96L520,258.76" style="vector-effect: none; fill: none; stroke: rgb(67, 67, 72); stroke-opacity: 1; stroke-width: 2px; opacity: 1;"/></g><g class="points"/><g class="text"/></g><g class="trace scatter trace53644c" style="stroke-miterlimit: 2; opacity: 1;"><g class="fills"/><g class="errorbars"/><g class="lines"><path class="js-line" d="M0,255.07L10.76,255.47L14.34,255.29L32.28,254.29L35.86,254.49L50.21,254.78L53.79,254.56L60.97,253.56L64.55,253.22L89.66,254.04L93.24,253.34L104,252.17L107.59,252.25L121.93,253.83L125.52,253.41L129.1,252.92L132.69,251.53L136.28,250.8L139.86,245.65L143.45,247.59L147.03,242.35L150.62,255.14L154.21,226.53L157.79,220.91L161.38,253.6L164.97,245.87L168.55,251.51L172.14,255.07L175.72,249.35L179.31,258.48L182.9,253.23L186.48,256.49L190.07,255.59L193.66,247.6L197.24,256.48L200.83,250.38L204.41,257.61L208,256.72L211.59,253.12L215.17,246.19L218.76,256.06L222.34,258.63L225.93,256.74L229.52,255.7L233.1,255.45L240.28,257.36L243.86,257.23L247.45,252.29L251.03,248.74L254.62,247.17L258.21,248.54L265.38,252.55L268.97,253.69L276.14,253.46L279.72,251.98L290.48,243.78L294.07,245.63L301.24,252.03L304.83,253.81L312,254.62L315.59,253.73L326.34,247.04L329.93,247.21L340.69,255.28L344.28,256.39L351.45,256.73L355.03,256.38L362.21,256L365.79,256.38L380.14,258.56L383.72,258.74L441.1,259L444.69,258.99L520,258.99" style="vector-effect: none; fill: none; stroke: rgb(144, 237, 125); stroke-opacity: 1; stroke-width: 2px; opacity: 1;"/></g><g class="points"/><g class="text"/></g><g class="trace scatter trace1cbcc0" style="stroke-miterlimit: 2; opacity: 1;"><g class="fills"/><g class="errorbars"/><g class="lines"><path class="js-line" d="M0,255.07L10.76,255.49L14.34,255.34L32.28,254.27L35.86,254.57L50.21,254.8L53.79,254.54L64.55,253.23L68.14,253.27L86.07,254.38L89.66,254.06L104,252.13L107.59,252.3L118.34,253.83L121.93,253.95L129.1,253.08L132.69,252.1L136.28,251.16L139.86,251.09L143.45,250.69L147.03,251.47L154.21,253.23L157.79,253.59L168.55,252L172.14,250L175.72,250.81L179.31,249.64L186.48,251.47L190.07,252.5L197.24,253.45L200.83,252.95L204.41,252.06L208,250.24L215.17,247.36L218.76,247.73L222.34,247.48L225.93,255.77L229.52,253.04L233.1,253.56L240.28,252.51L243.86,250.8L251.03,246.99L254.62,245.93L268.97,253.54L272.55,253.78L276.14,253.33L279.72,251.85L290.48,243.4L294.07,245.41L301.24,251.9L304.83,253.73L312,254.54L315.59,253.66L326.34,246.88L329.93,247.04L340.69,255.23L344.28,256.36L351.45,256.71L355.03,256.35L362.21,255.97L365.79,256.35L380.14,258.55L383.72,258.74L441.1,259L444.69,258.99L520,258.99" style="vector-effect: none; fill: none; stroke: rgb(247, 163, 92); stroke-opacity: 1; stroke-width: 2px; opacity: 1;"/></g><g class="points"/><g class="text"/></g><g class="trace scatter trace6230e5" style="stroke-miterlimit: 2; opacity: 1;"><g class="fills"/><g class="errorbars"/><g class="lines"><path class="js-line" d="M0,247.69L10.76,248.4L14.34,247.84L25.1,246.39L28.69,245.95L50.21,245.95L53.79,245.83L57.38,244.3L60.97,244.1L68.14,242.99L71.72,243.11L78.9,243.35L82.48,243.97L93.24,241.93L96.83,240.82L100.41,239.41L104,239.72L111.17,239.52L114.76,240.19L121.93,240.66L125.52,240.47L129.1,238.06L132.69,234.32L136.28,235.03L139.86,215.95L143.45,222.33L147.03,204.1L150.62,236.76L154.21,12.95L157.79,147.46L161.38,220.08L164.97,221.36L168.55,235.91L172.14,245.57L175.72,239.28L179.31,257.96L182.9,247.59L186.48,254.78L190.07,250L193.66,227.15L197.24,252.66L200.83,243.11L204.41,245.63L208,252.8L211.59,243.51L215.17,223.12L218.76,222.81L222.34,256.06L225.93,256.8L233.1,244.21L236.69,244.62L243.86,254.61L247.45,238.24L251.03,223.89L254.62,217.45L258.21,217.44L261.79,219.5L268.97,225.24L272.55,225.7L276.14,224.75L279.72,222.2L286.9,211.99L290.48,207.41L294.07,208.8L297.66,212.49L301.24,218.43L304.83,222.65L308.41,225.19L312,225.6L315.59,224.56L319.17,220.76L326.34,215.67L329.93,216.77L337.1,228.16L340.69,234.24L344.28,238.67L347.86,240.83L358.62,243.41L362.21,245.01L372.97,252.27L376.55,254.17L383.72,257.07L387.31,257.6L405.24,258.86L408.83,258.92L505.66,258.99L509.24,258.96L516.41,258.98L520,255.63" style="vector-effect: none; fill: none; stroke: rgb(128, 133, 233); stroke-opacity: 1; stroke-width: 2px; opacity: 1;"/></g><g class="points"/><g class="text"/></g><g class="trace scatter tracebbfe61" style="stroke-miterlimit: 2; opacity: 1;"><g class="fills"/><g class="errorbars"/><g class="lines"><path class="js-line" d="M0,247.7L3.59,247.83L7.17,248.89L32.28,246L35.86,245.95L50.21,246.07L53.79,245.77L64.55,243.23L68.14,242.86L78.9,243.75L82.48,244.08L89.66,243.57L93.24,242.38L104,239.51L107.59,239.45L121.93,241.14L125.52,240.83L143.45,234.42L147.03,235.07L157.79,237.72L161.38,236.87L164.97,236.48L168.55,234.84L172.14,230.15L175.72,233.46L179.31,229.55L182.9,229.05L190.07,232.02L193.66,233.14L197.24,233.72L200.83,232.86L204.41,230.85L208,226.71L215.17,219.37L218.76,218.08L222.34,212L225.93,243.97L229.52,229.13L233.1,229.64L236.69,229.06L240.28,227.41L247.45,220.13L251.03,215.91L254.62,212.65L258.21,214.88L268.97,224.22L272.55,224.65L276.14,223.72L279.72,221.25L290.48,206.03L294.07,207.86L297.66,211.54L301.24,217.6L304.83,221.97L308.41,224.48L312,224.91L315.59,223.96L319.17,220.16L322.76,217.9L326.34,215.04L329.93,216.07L337.1,227.69L340.69,233.88L344.28,238.38L347.86,240.59L358.62,243.2L362.21,244.84L372.97,252.2L376.55,254.13L383.72,257.06L387.31,257.59L405.24,258.86L408.83,258.92L505.66,259L509.24,258.95L516.41,258.97L520,255.64" style="vector-effect: none; fill: none; stroke: rgb(241, 92, 128); stroke-opacity: 1; stroke-width: 2px; opacity: 1;"/></g><g class="points"/><g class="text"/></g><g class="trace scatter trace4e43ce" style="stroke-miterlimit: 2; opacity: 1;"><g class="fills"/><g class="errorbars"/><g class="lines"><path class="js-line" d="M0,254.28L17.93,254.16L21.52,253.84L96.83,251.96L100.41,251.41L104,251.83L107.59,251.48L125.52,251.95L129.1,251.23L136.28,250.31L139.86,246.41L143.45,249.15L147.03,245.23L150.62,252.77L154.21,234.96L157.79,189.38L161.38,241.07L168.55,250.82L172.14,254.91L175.72,249.99L179.31,258.69L182.9,255.32L186.48,256.89L190.07,256.44L193.66,247.97L197.24,256.79L200.83,254.08L204.41,256.41L208,257.22L211.59,255.04L215.17,249.79L218.76,252.44L222.34,258.54L225.93,257.96L229.52,255.64L233.1,254.47L236.69,255.26L243.86,258L247.45,254.34L251.03,251.79L254.62,250.61L261.79,251.03L265.38,251.55L276.14,252.11L279.72,251.76L290.48,250.1L294.07,250.4L312,252.7L315.59,252.56L326.34,251.44L329.93,251.73L347.86,254.82L351.45,254.92L362.21,255.65L365.79,256.26L383.72,258.31L387.31,258.46L426.76,258.98L430.34,258.99L520,258.67" style="vector-effect: none; fill: none; stroke: rgb(228, 211, 84); stroke-opacity: 1; stroke-width: 2px; opacity: 1;"/></g><g class="points"/><g class="text"/></g><g class="trace scatter trace43c02f" style="stroke-miterlimit: 2; opacity: 1;"><g class="fills"/><g class="errorbars"/><g class="lines"><path class="js-line" d="M0,254.28L21.52,253.87L25.1,253.7L114.76,251.78L118.34,252L129.1,251.66L132.69,251.3L136.28,250.53L139.86,250.94L147.03,250.75L150.62,251L161.38,251.3L164.97,251.5L172.14,249.82L175.72,251.03L179.31,250.08L182.9,250.15L200.83,251.26L204.41,250.94L215.17,248.86L218.76,248.82L222.34,247.13L225.93,255.3L229.52,251.44L233.1,251.48L243.86,251L247.45,250.41L254.62,249.48L258.21,250.01L272.55,251.82L276.14,251.88L286.9,250.4L290.48,249.87L301.24,251.57L304.83,252.2L315.59,252.46L319.17,252.04L329.93,251.62L333.52,252.33L347.86,254.76L351.45,254.87L362.21,255.62L365.79,256.24L383.72,258.3L387.31,258.46L426.76,258.98L430.34,258.99L520,258.67" style="vector-effect: none; fill: none; stroke: rgb(43, 144, 143); stroke-opacity: 1; stroke-width: 2px; opacity: 1;"/></g><g class="points"/><g class="text"/></g><g class="trace scatter trace19dcbc" style="stroke-miterlimit: 2; opacity: 1;"><g class="fills"/><g class="errorbars"/><g class="lines"><path class="js-line" d="M0,254.11L14.34,254.19L17.93,254.09L28.69,253.28L32.28,253.23L53.79,253.41L57.38,252.79L78.9,252.43L82.48,252.79L93.24,252.28L96.83,251.74L104,251.11L107.59,251.02L125.52,252.01L129.1,251.26L136.28,249.76L139.86,244.56L143.45,245.4L147.03,237.72L150.62,253.87L154.21,210.85L157.79,230.25L161.38,210.09L164.97,244.62L168.55,239.12L172.14,251.47L175.72,255.76L179.31,258.34L182.9,258.08L186.48,258.37L190.07,256.86L193.66,251.92L197.24,255.83L200.83,252.95L204.41,254.54L208,256.7L211.59,254.05L215.17,248.4L218.76,249.11L222.34,257.34L225.93,258.64L236.69,257.39L240.28,257.78L243.86,257.51L247.45,253.88L251.03,249.93L254.62,247.95L261.79,248.94L265.38,249.99L272.55,251.06L276.14,251.06L286.9,248.06L290.48,247.06L297.66,248.81L301.24,250.08L308.41,251.98L312,252.23L319.17,251.33L322.76,250.67L326.34,250.13L329.93,250.52L344.28,255.26L347.86,255.7L369.38,257.38L372.97,257.82L390.9,258.82L394.48,258.9L469.79,259L473.38,258.99L520,258.69" style="vector-effect: none; fill: none; stroke: rgb(244, 91, 91); stroke-opacity: 1; stroke-width: 2px; opacity: 1;"/></g><g class="points"/><g class="text"/></g><g class="trace scatter trace97a16e" style="stroke-miterlimit: 2; opacity: 1;"><g class="fills"/><g class="errorbars"/><g class="lines"><path class="js-line" d="M0,254.11L17.93,254.06L21.52,253.69L39.45,253.35L43.03,253.59L53.79,253.38L57.38,252.99L71.72,252.22L75.31,252.41L89.66,252.72L93.24,252.37L104,250.97L107.59,251.05L125.52,252.18L129.1,251.68L139.86,250.2L143.45,249.71L161.38,251.26L164.97,251.23L168.55,250.6L172.14,248.91L175.72,250.06L179.31,248.71L186.48,249.45L190.07,250.19L200.83,250.82L204.41,250.22L215.17,246.76L218.76,246.61L222.34,244.91L225.93,254.56L229.52,250.42L233.1,250.8L240.28,250.38L243.86,249.47L254.62,246.59L258.21,247.36L268.97,250.53L272.55,250.8L276.14,250.82L279.72,250.04L290.48,246.68L294.07,247.32L308.41,251.83L312,252.08L319.17,251.19L322.76,250.54L326.34,249.98L329.93,250.37L344.28,255.21L347.86,255.65L369.38,257.36L372.97,257.81L390.9,258.82L394.48,258.9L469.79,259L473.38,258.99L520,258.69" style="vector-effect: none; fill: none; stroke: rgb(145, 232, 225); stroke-opacity: 1; stroke-width: 2px; opacity: 1;"/></g><g class="points"/><g class="text"/></g><g class="trace scatter trace5174f5" style="stroke-miterlimit: 2; opacity: 1;"><g class="fills"/><g class="errorbars"/><g class="lines"><path class="js-line" d="M0,255.72L14.34,255.54L17.93,255.44L28.69,255.2L32.28,255.29L53.79,255.74L57.38,255.09L82.48,255.16L86.07,255.77L100.41,254.14L104,253.86L118.34,254.67L121.93,255.13L129.1,254.59L132.69,253.87L136.28,253.15L139.86,249.41L143.45,251.44L147.03,248.26L150.62,255.85L154.21,245.75L157.79,244.53L161.38,255.02L164.97,249.93L168.55,253.1L172.14,254.77L175.72,249.29L179.31,257.41L182.9,251.4L186.48,254.22L190.07,254.68L193.66,249.27L197.24,254.38L200.83,248.47L204.41,258.01L208,254.83L211.59,252.95L215.17,240.37L218.76,257.6L222.34,257.94L225.93,254.24L233.1,253.39L236.69,254.18L240.28,256.62L243.86,256.73L247.45,252.51L251.03,249.97L254.62,248.58L258.21,249.3L268.97,253.1L272.55,253.24L276.14,253.2L279.72,252.13L290.48,246.41L294.07,247.24L304.83,252.92L308.41,253.62L312,253.8L315.59,253.16L326.34,248.84L329.93,249.16L344.28,255.8L347.86,256.31L365.79,256.31L369.38,256.92L383.72,258.67L387.31,258.74L455.45,259L459.03,259L520,258.87" style="vector-effect: none; fill: none; stroke: rgb(124, 181, 236); stroke-opacity: 1; stroke-width: 2px; opacity: 1;"/></g><g class="points"/><g class="text"/></g><g class="trace scatter traceaa8da5" style="stroke-miterlimit: 2; opacity: 1;"><g class="fills"/><g class="errorbars"/><g class="lines"><path class="js-line" d="M0,255.73L14.34,255.58L17.93,255.42L32.28,255.27L35.86,255.41L57.38,255.26L60.97,255.08L71.72,254.7L75.31,254.78L86.07,255.63L89.66,255.54L104,253.86L107.59,253.91L114.76,254.55L118.34,254.93L125.52,255.22L129.1,254.66L147.03,252.83L150.62,253.59L157.79,254.58L161.38,254.62L168.55,253.83L172.14,252.47L175.72,252.62L179.31,251.66L182.9,251.42L186.48,252.41L197.24,254.21L200.83,253.78L204.41,253.46L208,252.09L215.17,249.43L218.76,248.93L222.34,248.37L225.93,255.89L229.52,253.1L233.1,253.71L240.28,253.16L243.86,251.96L254.62,247.73L258.21,248.84L268.97,252.95L272.55,253.08L276.14,253.07L279.72,252.02L290.48,246.2L294.07,247.12L304.83,252.84L308.41,253.55L312,253.72L315.59,253.1L326.34,248.75L329.93,249.06L344.28,255.77L347.86,256.29L365.79,256.29L369.38,256.91L383.72,258.67L387.31,258.74L455.45,259L459.03,259L520,258.87" style="vector-effect: none; fill: none; stroke: rgb(67, 67, 72); stroke-opacity: 1; stroke-width: 2px; opacity: 1;"/></g><g class="points"/><g class="text"/></g><g class="trace scatter trace96c6bf" style="stroke-miterlimit: 2; opacity: 1;"><g class="fills"/><g class="errorbars"/><g class="lines"><path class="js-line" d="M0,255.58L21.52,254.35L25.1,254.98L35.86,254.84L39.45,254.74L46.62,254.99L50.21,254.82L53.79,254.72L57.38,253.85L64.55,253.72L68.14,253.63L86.07,253.99L89.66,253.97L96.83,252.91L100.41,252.27L107.59,252.36L111.17,252.27L118.34,253.31L121.93,253.17L125.52,253.33L129.1,251.79L136.28,250.79L139.86,244.74L143.45,246.33L147.03,238.43L150.62,253.41L154.21,190.08L157.79,230L161.38,235.4L164.97,246.36L168.55,249.09L172.14,254.39L175.72,254.68L179.31,258.66L182.9,257.28L186.48,258.18L190.07,256.94L193.66,251.64L197.24,256.86L200.83,254.35L204.41,255.7L208,257.22L211.59,254.21L215.17,248.04L218.76,248.71L222.34,257.88L225.93,258.6L233.1,256.36L236.69,256.1L243.86,257.65L247.45,253.19L251.03,248.63L254.62,246.04L265.38,250.61L268.97,251.8L272.55,251.31L276.14,251.59L279.72,250.46L283.31,248.24L290.48,243.44L294.07,245.52L301.24,250.72L304.83,252.33L312,252.98L315.59,252.49L326.34,247.94L329.93,248.66L340.69,254.91L344.28,255.8L351.45,256.45L355.03,256.31L365.79,256.91L369.38,257.37L383.72,258.77L387.31,258.84L466.21,259L469.79,259L520,258.99" style="vector-effect: none; fill: none; stroke: rgb(144, 237, 125); stroke-opacity: 1; stroke-width: 2px; opacity: 1;"/></g><g class="points"/><g class="text"/></g><g class="trace scatter tracec8a0b6" style="stroke-miterlimit: 2; opacity: 1;"><g class="fills"/><g class="errorbars"/><g class="lines"><path class="js-line" d="M0,255.59L21.52,254.39L25.1,254.94L39.45,254.75L43.03,255.14L75.31,253.67L78.9,254.22L89.66,254.05L93.24,253.31L111.17,252.4L114.76,253.15L125.52,253.43L129.1,252.35L132.69,252.22L136.28,251.16L147.03,250.69L150.62,251.84L157.79,252.48L161.38,252.42L168.55,251.45L172.14,249.7L175.72,250.33L179.31,249.2L182.9,249.03L186.48,250.38L193.66,251.64L197.24,252.02L200.83,251.01L204.41,250.92L215.17,246.53L218.76,245.81L222.34,245.8L225.93,255.01L229.52,251.34L233.1,251.74L236.69,250.83L240.28,250.92L254.62,244.44L258.21,246.92L265.38,250.29L268.97,251.57L272.55,251.04L276.14,251.36L279.72,250.23L283.31,247.97L290.48,242.93L294.07,245.18L301.24,250.52L304.83,252.19L312,252.85L315.59,252.37L326.34,247.75L329.93,248.46L340.69,254.84L344.28,255.75L351.45,256.41L355.03,256.27L365.79,256.88L369.38,257.35L383.72,258.76L387.31,258.84L466.21,259L469.79,259L520,258.99" style="vector-effect: none; fill: none; stroke: rgb(247, 163, 92); stroke-opacity: 1; stroke-width: 2px; opacity: 1;"/></g><g class="points"/><g class="text"/></g><g class="trace scatter trace84ec02" style="stroke-miterlimit: 2; opacity: 1;"><g class="fills"/><g class="errorbars"/><g class="lines"><path class="js-line" d="M0,255.88L10.76,256.17L14.34,255.79L35.86,255.15L39.45,255.43L46.62,255.97L50.21,255.98L71.72,254.19L75.31,254.19L82.48,254.64L86.07,255.91L104,252.82L107.59,252.9L111.17,252.98L114.76,253.92L121.93,254.73L125.52,254.51L129.1,254.07L132.69,252.74L136.28,251.94L139.86,246.75L143.45,249.48L147.03,245.72L150.62,254.77L154.21,243.33L157.79,241.7L161.38,254.4L164.97,248.35L168.55,253.11L172.14,253.77L175.72,245.67L179.31,256.93L182.9,249.29L190.07,254.07L193.66,248.83L197.24,252.36L200.83,247.86L204.41,257.75L208,253.17L211.59,251.46L215.17,235.95L218.76,256.98L222.34,256.92L225.93,252.62L229.52,252.49L233.1,252.07L236.69,252.72L240.28,255.76L243.86,256.08L247.45,250.62L251.03,246.91L254.62,244.61L258.21,245.68L268.97,252.06L272.55,252.23L276.14,252.3L279.72,250.5L290.48,240.69L294.07,242.15L304.83,251.32L308.41,252.52L312,252.87L315.59,251.77L326.34,243.63L329.93,243.62L340.69,252.85L344.28,254.7L347.86,255.4L351.45,255.2L358.62,253.76L362.21,253.64L369.38,255.22L372.97,256.22L383.72,258.37L387.31,258.51L462.62,258.98L466.21,259L520,258.9" style="vector-effect: none; fill: none; stroke: rgb(128, 133, 233); stroke-opacity: 1; stroke-width: 2px; opacity: 1;"/></g><g class="points"/><g class="text"/></g><g class="trace scatter tracea343fa" style="stroke-miterlimit: 2; opacity: 1;"><g class="fills"/><g class="errorbars"/><g class="lines"><path class="js-line" d="M0,255.89L10.76,256.18L14.34,255.85L32.28,255.13L35.86,255.25L50.21,255.99L53.79,255.69L68.14,253.99L71.72,254.14L78.9,254.98L82.48,255.41L89.66,255.38L93.24,254.64L107.59,252.93L111.17,253.12L118.34,254.53L121.93,254.79L129.1,254.16L132.69,253.4L139.86,251.6L143.45,250.93L147.03,251.19L150.62,252.48L157.79,254.05L161.38,254.11L168.55,252.89L172.14,251.15L182.9,248.99L186.48,250.63L197.24,253.65L200.83,253.13L204.41,252.49L208,250.44L215.17,246.42L218.76,245.56L222.34,245.02L225.93,255.04L229.52,251.95L233.1,253.02L240.28,252.17L243.86,250.3L254.62,243.29L258.21,244.99L268.97,251.88L272.55,252.02L276.14,252.14L279.72,250.35L290.48,240.37L294.07,241.94L304.83,251.2L308.41,252.43L312,252.77L315.59,251.7L326.34,243.47L329.93,243.44L340.69,252.79L344.28,254.65L347.86,255.36L351.45,255.16L358.62,253.71L362.21,253.6L369.38,255.19L372.97,256.2L383.72,258.37L387.31,258.5L451.86,259L455.45,258.99L520,258.9" style="vector-effect: none; fill: none; stroke: rgb(241, 92, 128); stroke-opacity: 1; stroke-width: 2px; opacity: 1;"/></g><g class="points"/><g class="text"/></g><g class="trace scatter trace141f0a" style="stroke-miterlimit: 2; opacity: 1;"><g class="fills"/><g class="errorbars"/><g class="lines"><path class="js-line" d="M0,255.78L14.34,255.28L17.93,254.55L21.52,254.33L25.1,255.05L39.45,255.12L43.03,255.78L53.79,255.56L57.38,254.37L64.55,254.22L68.14,254.21L71.72,254.55L75.31,254.03L82.48,255.5L86.07,255.23L89.66,255.33L93.24,254L100.41,253.45L104,253.18L107.59,253.43L111.17,252.77L114.76,254.23L118.34,254.7L125.52,254.97L129.1,253.33L136.28,252.38L139.86,247.32L143.45,250.64L147.03,246.09L150.62,256L154.21,246.98L157.79,240.43L161.38,254.06L164.97,246.9L168.55,252.38L172.14,253.96L175.72,245.85L179.31,257.48L182.9,248.62L186.48,253.56L190.07,254.59L193.66,246.87L197.24,253.16L200.83,245.93L204.41,257.79L208,253.92L211.59,252.07L215.17,237.15L218.76,257.2L222.34,257.81L225.93,253.65L233.1,252.84L236.69,252.32L240.28,256.17L243.86,256.42L247.45,250.69L251.03,247.96L254.62,243.69L258.21,247.08L268.97,253.11L272.55,251.47L276.14,253.05L279.72,251.28L290.48,241.42L294.07,244.16L304.83,252.85L308.41,253.41L312,254.12L315.59,253.15L326.34,245.29L329.93,245.44L340.69,254.06L344.28,255.69L347.86,256.46L351.45,256.24L362.21,254.46L365.79,254.98L383.72,258.62L387.31,258.71L516.41,259L520,258.67" style="vector-effect: none; fill: none; stroke: rgb(228, 211, 84); stroke-opacity: 1; stroke-width: 2px; opacity: 1;"/></g><g class="points"/><g class="text"/></g><g class="trace scatter trace35952d" style="stroke-miterlimit: 2; opacity: 1;"><g class="fills"/><g class="errorbars"/><g class="lines"><path class="js-line" d="M0,255.8L3.59,255.54L7.17,256.05L17.93,254.51L21.52,254.36L28.69,254.95L32.28,255.04L50.21,255.73L53.79,255.55L57.38,254.54L60.97,254.62L68.14,254.16L71.72,254.5L75.31,254.08L78.9,255.11L86.07,255.43L89.66,255.38L93.24,254.12L96.83,254.14L104,253.11L107.59,253.53L111.17,252.93L114.76,254.28L121.93,254.81L125.52,255.07L129.1,253.44L132.69,253.63L139.86,252.01L143.45,252L147.03,251.04L150.62,253.17L154.21,254.06L157.79,254.09L161.38,254.53L164.97,252.66L168.55,253.13L172.14,251.58L179.31,250.7L182.9,248.55L186.48,251.61L190.07,252.71L193.66,253.03L197.24,254.12L200.83,251.73L204.41,252.57L211.59,248.6L215.17,247.75L218.76,244.99L222.34,246.59L225.93,255.45L229.52,252.08L233.1,253.59L236.69,250.99L240.28,252.48L243.86,250.7L247.45,247.84L251.03,246.75L254.62,242.38L258.21,246.5L268.97,252.98L272.55,251.25L276.14,252.92L279.72,251.16L290.48,241.13L294.07,244L304.83,252.77L308.41,253.33L312,254.04L315.59,253.09L326.34,245.16L329.93,245.3L340.69,254L344.28,255.66L347.86,256.43L351.45,256.22L362.21,254.43L365.79,254.95L383.72,258.62L387.31,258.71L516.41,259L520,258.67" style="vector-effect: none; fill: none; stroke: rgb(43, 144, 143); stroke-opacity: 1; stroke-width: 2px; opacity: 1;"/></g><g class="points"/><g class="text"/></g><g class="trace scatter trace982db4" style="stroke-miterlimit: 2; opacity: 1;"><g class="fills"/><g class="errorbars"/><g class="lines"><path class="js-line" d="M0,256.24L21.52,254.77L25.1,255.69L39.45,255.49L43.03,256.12L53.79,255.98L57.38,254.91L60.97,255.3L64.55,254.93L75.31,254.52L78.9,255.38L86.07,255.51L89.66,255.71L93.24,254.44L96.83,254.72L100.41,253.93L104,254.09L107.59,254.2L111.17,253.3L114.76,254.67L118.34,255.08L125.52,255.25L129.1,253.65L136.28,253.06L139.86,247.12L143.45,250.97L147.03,245.95L150.62,255.91L154.21,236.84L157.79,214.44L161.38,251.79L164.97,245.77L168.55,252.76L172.14,255.54L175.72,250.06L179.31,258.67L182.9,252.91L186.48,256.98L190.07,256.27L193.66,248.29L197.24,256.85L200.83,252.17L204.41,257.02L208,257.07L211.59,254.58L215.17,248.78L218.76,253.23L222.34,258.67L225.93,257.22L229.52,255.31L233.1,255.3L236.69,254.66L240.28,257.01L243.86,257.63L247.45,252.31L251.03,249.45L254.62,244L258.21,247.85L261.79,249.25L265.38,250.41L268.97,252.71L272.55,249.77L276.14,252.57L279.72,250.97L283.31,247.8L286.9,246.21L290.48,239.94L294.07,244.46L297.66,246.78L304.83,252.23L308.41,251.14L312,253.35L315.59,252.47L326.34,244.65L329.93,245.57L337.1,250.8L340.69,253.59L347.86,255.8L351.45,255.64L362.21,254.08L365.79,254.71L383.72,258.51L387.31,258.63L459.03,259L462.62,258.99L520,258.88" style="vector-effect: none; fill: none; stroke: rgb(244, 91, 91); stroke-opacity: 1; stroke-width: 2px; opacity: 1;"/></g><g class="points"/><g class="text"/></g><g class="trace scatter trace4ba0f5" style="stroke-miterlimit: 2; opacity: 1;"><g class="fills"/><g class="errorbars"/><g class="lines"><path class="js-line" d="M0,256.25L3.59,255.88L7.17,256.37L17.93,254.98L21.52,254.8L25.1,255.66L28.69,255.56L53.79,255.97L57.38,255.06L64.55,254.94L68.14,254.78L71.72,255.07L75.31,254.57L82.48,255.8L86.07,255.69L89.66,255.77L93.24,254.54L100.41,254.34L104,253.84L107.59,254.19L111.17,253.42L114.76,254.72L118.34,255.13L125.52,255.37L129.1,253.82L132.69,254.25L136.28,253.39L147.03,251.74L150.62,253.62L157.79,254.34L161.38,254.77L164.97,253.12L168.55,253.71L172.14,252.2L175.72,252.25L179.31,251.77L182.9,249.45L186.48,252.25L190.07,253.13L193.66,253.27L197.24,254.29L200.83,252.04L204.41,253.07L215.17,249L218.76,245.95L222.34,247.62L225.93,255.55L229.52,252.27L233.1,253.64L236.69,250.8L240.28,252.76L243.86,251.17L247.45,248.67L251.03,247.9L254.62,242.59L258.21,247.25L261.79,248.88L265.38,250.13L268.97,252.58L272.55,249.46L276.14,252.41L279.72,250.83L283.31,247.58L286.9,245.95L290.48,239.49L294.07,244.24L297.66,246.57L304.83,252.13L308.41,251L312,253.24L315.59,252.4L326.34,244.48L329.93,245.39L337.1,250.7L340.69,253.52L347.86,255.76L351.45,255.6L362.21,254.03L365.79,254.67L383.72,258.51L387.31,258.62L448.28,259L451.86,258.99L520,258.88" style="vector-effect: none; fill: none; stroke: rgb(145, 232, 225); stroke-opacity: 1; stroke-width: 2px; opacity: 1;"/></g><g class="points"/><g class="text"/></g><g class="trace scatter trace93516a" style="stroke-miterlimit: 2; opacity: 1;"><g class="fills"/><g class="errorbars"/><g class="lines"><path class="js-line" d="M0,256.38L21.52,255.01L25.1,255.74L39.45,255.67L43.03,256.24L53.79,256.02L57.38,254.96L64.55,254.86L68.14,254.8L71.72,255.1L75.31,254.51L82.48,255.78L86.07,255.52L89.66,255.63L93.24,254.32L100.41,253.78L104,253.58L107.59,253.89L111.17,253.12L114.76,254.48L118.34,254.95L125.52,254.93L129.1,253.21L136.28,252.26L139.86,245.62L143.45,248.6L147.03,244.68L150.62,252.6L154.21,205.21L157.79,226.73L161.38,232.07L164.97,246.33L168.55,243.43L172.14,251.65L175.72,254.81L179.31,258.49L182.9,256.34L186.48,258.19L190.07,256.6L193.66,251.12L197.24,257.2L200.83,252.84L204.41,256.06L208,257.36L211.59,252.84L215.17,246.97L218.76,247.44L222.34,257.97L225.93,258.65L236.69,256.06L240.28,257.42L243.86,257.28L247.45,251.41L251.03,246.29L254.62,238.5L258.21,243.36L261.79,245.37L265.38,247.16L268.97,250.38L272.55,246.12L276.14,249.67L279.72,246.67L283.31,241.23L286.9,237.91L290.48,226.59L294.07,234.16L297.66,237.44L304.83,246.8L308.41,242.14L312,247.98L315.59,245.26L319.17,238.86L322.76,234.85L326.34,222.5L329.93,228.42L333.52,232.81L337.1,238.49L340.69,245.54L344.28,246.7L347.86,250.52L351.45,249.57L355.03,246.34L358.62,244.69L362.21,242.45L365.79,244.34L383.72,256.71L387.31,257.13L394.48,257.74L398.07,258.11L423.17,258.96L426.76,258.94L498.48,259L502.07,259L516.41,258.99L520,257.36" style="vector-effect: none; fill: none; stroke: rgb(124, 181, 236); stroke-opacity: 1; stroke-width: 2px; opacity: 1;"/></g><g class="points"/><g class="text"/></g><g class="trace scatter trace81aa5c" style="stroke-miterlimit: 2; opacity: 1;"><g class="fills"/><g class="errorbars"/><g class="lines"><path class="js-line" d="M0,256.39L21.52,255.04L25.1,255.72L39.45,255.69L43.03,256.25L53.79,256.02L57.38,255.14L71.72,255.04L75.31,254.58L82.48,255.85L86.07,255.76L89.66,255.76L93.24,254.5L100.41,254.08L104,253.57L107.59,253.95L111.17,253.27L114.76,254.56L118.34,255.04L125.52,255.22L129.1,253.56L132.69,253.82L136.28,252.93L139.86,252.1L143.45,252.17L147.03,250.96L150.62,253.17L157.79,253.98L161.38,254.28L164.97,252.41L168.55,252.97L172.14,251.07L175.72,251.13L179.31,250.37L182.9,247.8L186.48,251.08L190.07,252.21L193.66,252.45L197.24,253.58L200.83,250.87L204.41,251.8L211.59,247.25L215.17,246.26L218.76,242.68L222.34,244.64L225.93,254.64L229.52,250.66L233.1,252.43L236.69,248.88L240.28,250.95L243.86,248.6L247.45,245L251.03,243.51L254.62,236.38L258.21,242.39L265.38,246.72L268.97,250.17L272.55,245.67L276.14,249.45L279.72,246.43L283.31,240.86L286.9,237.49L290.48,225.59L294.07,233.63L297.66,236.94L304.83,246.61L308.41,241.72L312,247.77L315.59,245.04L319.17,238.55L322.76,234.5L326.34,221.93L329.93,227.87L333.52,232.35L337.1,238.15L340.69,245.33L344.28,246.51L347.86,250.41L351.45,249.44L355.03,246.17L358.62,244.5L362.21,242.25L365.79,244.17L383.72,256.69L387.31,257.12L394.48,257.73L398.07,258.1L423.17,258.96L426.76,258.94L498.48,259L502.07,259L516.41,258.98L520,257.37" style="vector-effect: none; fill: none; stroke: rgb(67, 67, 72); stroke-opacity: 1; stroke-width: 2px; opacity: 1;"/></g><g class="points"/><g class="text"/></g><g class="trace scatter trace79397e" style="stroke-miterlimit: 2; opacity: 1;"><g class="fills"/><g class="errorbars"/><g class="lines"><path class="js-line" d="M0,254.71L14.34,254.81L17.93,254.65L28.69,253.96L32.28,254.01L53.79,254.15L57.38,253.57L78.9,253.55L82.48,253.84L107.59,252.38L111.17,252.5L121.93,253.22L125.52,252.94L132.69,251.63L136.28,250.96L139.86,244.85L143.45,246.66L147.03,240.26L150.62,254.87L154.21,213.81L157.79,220.52L161.38,253.2L164.97,246.42L172.14,255.44L175.72,251.45L179.31,258.6L182.9,254.2L186.48,257.04L190.07,255.77L193.66,247.61L197.24,256.82L200.83,251.26L204.41,257.36L208,257.08L211.59,253.83L215.17,248.36L218.76,255.75L222.34,258.64L225.93,257.4L229.52,255.98L233.1,255.46L240.28,257.33L243.86,257.22L247.45,252.43L251.03,249.39L254.62,248.04L258.21,248.58L268.97,251.62L272.55,251.82L279.72,250.11L283.31,248.07L290.48,244.67L294.07,245.38L304.83,250.69L308.41,251.35L312,251.28L315.59,250.3L326.34,244.53L329.93,244.82L344.28,253.1L347.86,253.64L362.21,253.02L365.79,254.01L380.14,257.64L383.72,258.11L412.41,258.95L416,258.96L520,258.76" style="vector-effect: none; fill: none; stroke: rgb(124, 181, 236); stroke-opacity: 1; stroke-width: 2px; opacity: 1;"/></g><g class="points"/><g class="text"/></g><g class="trace scatter tracef85083" style="stroke-miterlimit: 2; opacity: 1;"><g class="fills"/><g class="errorbars"/><g class="lines"><path class="js-line" d="M0,254.71L14.34,254.85L17.93,254.62L28.69,254.02L32.28,253.98L50.21,254.31L53.79,254.13L68.14,253.17L71.72,253.27L86.07,253.78L89.66,253.59L104,252.29L107.59,252.4L121.93,253.41L125.52,253.25L139.86,251.59L143.45,251.37L161.38,252.68L164.97,252.66L172.14,250.49L175.72,251.41L179.31,250.43L182.9,250.65L193.66,252.27L197.24,252.46L204.41,251.55L208,250.32L215.17,248.21L218.76,248.27L222.34,247.07L225.93,255.4L229.52,251.87L233.1,252.17L240.28,251.39L243.86,250.26L251.03,247.67L254.62,246.88L268.97,251.4L272.55,251.58L279.72,249.91L283.31,247.82L290.48,244.28L294.07,245.13L304.83,250.55L308.41,251.2L312,251.12L315.59,250.17L326.34,244.33L329.93,244.6L344.28,253.02L347.86,253.57L362.21,252.95L365.79,253.95L380.14,257.63L383.72,258.1L412.41,258.95L416,258.96L520,258.76" style="vector-effect: none; fill: none; stroke: rgb(67, 67, 72); stroke-opacity: 1; stroke-width: 2px; opacity: 1;"/></g><g class="points"/><g class="text"/></g><g class="trace scatter tracea767b0" style="stroke-miterlimit: 2; opacity: 1;"><g class="fills"/><g class="errorbars"/><g class="lines"><path class="js-line" d="M0,255.07L10.76,255.47L14.34,255.29L32.28,254.29L35.86,254.49L50.21,254.78L53.79,254.56L60.97,253.56L64.55,253.22L89.66,254.04L93.24,253.34L104,252.17L107.59,252.25L121.93,253.83L125.52,253.41L129.1,252.92L132.69,251.53L136.28,250.8L139.86,245.65L143.45,247.59L147.03,242.35L150.62,255.14L154.21,226.53L157.79,220.91L161.38,253.6L164.97,245.87L168.55,251.51L172.14,255.07L175.72,249.35L179.31,258.48L182.9,253.23L186.48,256.49L190.07,255.59L193.66,247.6L197.24,256.48L200.83,250.38L204.41,257.61L208,256.72L211.59,253.12L215.17,246.19L218.76,256.06L222.34,258.63L225.93,256.74L229.52,255.7L233.1,255.45L240.28,257.36L243.86,257.23L247.45,252.29L251.03,248.74L254.62,247.17L258.21,248.54L265.38,252.55L268.97,253.69L276.14,253.46L279.72,251.98L290.48,243.78L294.07,245.63L301.24,252.03L304.83,253.81L312,254.62L315.59,253.73L326.34,247.04L329.93,247.21L340.69,255.28L344.28,256.39L351.45,256.73L355.03,256.38L362.21,256L365.79,256.38L380.14,258.56L383.72,258.74L441.1,259L444.69,258.99L520,258.99" style="vector-effect: none; fill: none; stroke: rgb(144, 237, 125); stroke-opacity: 1; stroke-width: 2px; opacity: 1;"/></g><g class="points"/><g class="text"/></g><g class="trace scatter trace2a5dca" style="stroke-miterlimit: 2; opacity: 1;"><g class="fills"/><g class="errorbars"/><g class="lines"><path class="js-line" d="M0,255.07L10.76,255.49L14.34,255.34L32.28,254.27L35.86,254.57L50.21,254.8L53.79,254.54L64.55,253.23L68.14,253.27L86.07,254.38L89.66,254.06L104,252.13L107.59,252.3L118.34,253.83L121.93,253.95L129.1,253.08L132.69,252.1L136.28,251.16L139.86,251.09L143.45,250.69L147.03,251.47L154.21,253.23L157.79,253.59L168.55,252L172.14,250L175.72,250.81L179.31,249.64L186.48,251.47L190.07,252.5L197.24,253.45L200.83,252.95L204.41,252.06L208,250.24L215.17,247.36L218.76,247.73L222.34,247.48L225.93,255.77L229.52,253.04L233.1,253.56L240.28,252.51L243.86,250.8L251.03,246.99L254.62,245.93L268.97,253.54L272.55,253.78L276.14,253.33L279.72,251.85L290.48,243.4L294.07,245.41L301.24,251.9L304.83,253.73L312,254.54L315.59,253.66L326.34,246.88L329.93,247.04L340.69,255.23L344.28,256.36L351.45,256.71L355.03,256.35L362.21,255.97L365.79,256.35L380.14,258.55L383.72,258.74L441.1,259L444.69,258.99L520,258.99" style="vector-effect: none; fill: none; stroke: rgb(247, 163, 92); stroke-opacity: 1; stroke-width: 2px; opacity: 1;"/></g><g class="points"/><g class="text"/></g><g class="trace scatter trace3b30c1" style="stroke-miterlimit: 2; opacity: 1;"><g class="fills"/><g class="errorbars"/><g class="lines"><path class="js-line" d="M0,247.69L10.76,248.4L14.34,247.84L25.1,246.39L28.69,245.95L50.21,245.95L53.79,245.83L57.38,244.3L60.97,244.1L68.14,242.99L71.72,243.11L78.9,243.35L82.48,243.97L93.24,241.93L96.83,240.82L100.41,239.41L104,239.72L111.17,239.52L114.76,240.19L121.93,240.66L125.52,240.47L129.1,238.06L132.69,234.32L136.28,235.03L139.86,215.95L143.45,222.33L147.03,204.1L150.62,236.76L154.21,12.95L157.79,147.46L161.38,220.08L164.97,221.36L168.55,235.91L172.14,245.57L175.72,239.28L179.31,257.96L182.9,247.59L186.48,254.78L190.07,250L193.66,227.15L197.24,252.66L200.83,243.11L204.41,245.63L208,252.8L211.59,243.51L215.17,223.12L218.76,222.81L222.34,256.06L225.93,256.8L233.1,244.21L236.69,244.62L243.86,254.61L247.45,238.24L251.03,223.89L254.62,217.45L258.21,217.44L261.79,219.5L268.97,225.24L272.55,225.7L276.14,224.75L279.72,222.2L286.9,211.99L290.48,207.41L294.07,208.8L297.66,212.49L301.24,218.43L304.83,222.65L308.41,225.19L312,225.6L315.59,224.56L319.17,220.76L326.34,215.67L329.93,216.77L337.1,228.16L340.69,234.24L344.28,238.67L347.86,240.83L358.62,243.41L362.21,245.01L372.97,252.27L376.55,254.17L383.72,257.07L387.31,257.6L405.24,258.86L408.83,258.92L505.66,258.99L509.24,258.96L516.41,258.98L520,255.63" style="vector-effect: none; fill: none; stroke: rgb(128, 133, 233); stroke-opacity: 1; stroke-width: 2px; opacity: 1;"/></g><g class="points"/><g class="text"/></g><g class="trace scatter trace61b504" style="stroke-miterlimit: 2; opacity: 1;"><g class="fills"/><g class="errorbars"/><g class="lines"><path class="js-line" d="M0,247.7L3.59,247.83L7.17,248.89L32.28,246L35.86,245.95L50.21,246.07L53.79,245.77L64.55,243.23L68.14,242.86L78.9,243.75L82.48,244.08L89.66,243.57L93.24,242.38L104,239.51L107.59,239.45L121.93,241.14L125.52,240.83L143.45,234.42L147.03,235.07L157.79,237.72L161.38,236.87L164.97,236.48L168.55,234.84L172.14,230.15L175.72,233.46L179.31,229.55L182.9,229.05L190.07,232.02L193.66,233.14L197.24,233.72L200.83,232.86L204.41,230.85L208,226.71L215.17,219.37L218.76,218.08L222.34,212L225.93,243.97L229.52,229.13L233.1,229.64L236.69,229.06L240.28,227.41L247.45,220.13L251.03,215.91L254.62,212.65L258.21,214.88L268.97,224.22L272.55,224.65L276.14,223.72L279.72,221.25L290.48,206.03L294.07,207.86L297.66,211.54L301.24,217.6L304.83,221.97L308.41,224.48L312,224.91L315.59,223.96L319.17,220.16L322.76,217.9L326.34,215.04L329.93,216.07L337.1,227.69L340.69,233.88L344.28,238.38L347.86,240.59L358.62,243.2L362.21,244.84L372.97,252.2L376.55,254.13L383.72,257.06L387.31,257.59L405.24,258.86L408.83,258.92L505.66,259L509.24,258.95L516.41,258.97L520,255.64" style="vector-effect: none; fill: none; stroke: rgb(241, 92, 128); stroke-opacity: 1; stroke-width: 2px; opacity: 1;"/></g><g class="points"/><g class="text"/></g><g class="trace scatter trace49029d" style="stroke-miterlimit: 2; opacity: 1;"><g class="fills"/><g class="errorbars"/><g class="lines"><path class="js-line" d="M0,254.28L17.93,254.16L21.52,253.84L96.83,251.96L100.41,251.41L104,251.83L107.59,251.48L125.52,251.95L129.1,251.23L136.28,250.31L139.86,246.41L143.45,249.15L147.03,245.23L150.62,252.77L154.21,234.96L157.79,189.38L161.38,241.07L168.55,250.82L172.14,254.91L175.72,249.99L179.31,258.69L182.9,255.32L186.48,256.89L190.07,256.44L193.66,247.97L197.24,256.79L200.83,254.08L204.41,256.41L208,257.22L211.59,255.04L215.17,249.79L218.76,252.44L222.34,258.54L225.93,257.96L229.52,255.64L233.1,254.47L236.69,255.26L243.86,258L247.45,254.34L251.03,251.79L254.62,250.61L261.79,251.03L265.38,251.55L276.14,252.11L279.72,251.76L290.48,250.1L294.07,250.4L312,252.7L315.59,252.56L326.34,251.44L329.93,251.73L347.86,254.82L351.45,254.92L362.21,255.65L365.79,256.26L383.72,258.31L387.31,258.46L426.76,258.98L430.34,258.99L520,258.67" style="vector-effect: none; fill: none; stroke: rgb(228, 211, 84); stroke-opacity: 1; stroke-width: 2px; opacity: 1;"/></g><g class="points"/><g class="text"/></g><g class="trace scatter trace085ad6" style="stroke-miterlimit: 2; opacity: 1;"><g class="fills"/><g class="errorbars"/><g class="lines"><path class="js-line" d="M0,254.28L21.52,253.87L25.1,253.7L114.76,251.78L118.34,252L129.1,251.66L132.69,251.3L136.28,250.53L139.86,250.94L147.03,250.75L150.62,251L161.38,251.3L164.97,251.5L172.14,249.82L175.72,251.03L179.31,250.08L182.9,250.15L200.83,251.26L204.41,250.94L215.17,248.86L218.76,248.82L222.34,247.13L225.93,255.3L229.52,251.44L233.1,251.48L243.86,251L247.45,250.41L254.62,249.48L258.21,250.01L272.55,251.82L276.14,251.88L286.9,250.4L290.48,249.87L301.24,251.57L304.83,252.2L315.59,252.46L319.17,252.04L329.93,251.62L333.52,252.33L347.86,254.76L351.45,254.87L362.21,255.62L365.79,256.24L383.72,258.3L387.31,258.46L426.76,258.98L430.34,258.99L520,258.67" style="vector-effect: none; fill: none; stroke: rgb(43, 144, 143); stroke-opacity: 1; stroke-width: 2px; opacity: 1;"/></g><g class="points"/><g class="text"/></g><g class="trace scatter trace50a185" style="stroke-miterlimit: 2; opacity: 1;"><g class="fills"/><g class="errorbars"/><g class="lines"><path class="js-line" d="M0,254.11L14.34,254.19L17.93,254.09L28.69,253.28L32.28,253.23L53.79,253.41L57.38,252.79L78.9,252.43L82.48,252.79L93.24,252.28L96.83,251.74L104,251.11L107.59,251.02L125.52,252.01L129.1,251.26L136.28,249.76L139.86,244.56L143.45,245.4L147.03,237.72L150.62,253.87L154.21,210.85L157.79,230.25L161.38,210.09L164.97,244.62L168.55,239.12L172.14,251.47L175.72,255.76L179.31,258.34L182.9,258.08L186.48,258.37L190.07,256.86L193.66,251.92L197.24,255.83L200.83,252.95L204.41,254.54L208,256.7L211.59,254.05L215.17,248.4L218.76,249.11L222.34,257.34L225.93,258.64L236.69,257.39L240.28,257.78L243.86,257.51L247.45,253.88L251.03,249.93L254.62,247.95L261.79,248.94L265.38,249.99L272.55,251.06L276.14,251.06L286.9,248.06L290.48,247.06L297.66,248.81L301.24,250.08L308.41,251.98L312,252.23L319.17,251.33L322.76,250.67L326.34,250.13L329.93,250.52L344.28,255.26L347.86,255.7L369.38,257.38L372.97,257.82L390.9,258.82L394.48,258.9L469.79,259L473.38,258.99L520,258.69" style="vector-effect: none; fill: none; stroke: rgb(244, 91, 91); stroke-opacity: 1; stroke-width: 2px; opacity: 1;"/></g><g class="points"/><g class="text"/></g><g class="trace scatter trace979602" style="stroke-miterlimit: 2; opacity: 1;"><g class="fills"/><g class="errorbars"/><g class="lines"><path class="js-line" d="M0,254.11L17.93,254.06L21.52,253.69L39.45,253.35L43.03,253.59L53.79,253.38L57.38,252.99L71.72,252.22L75.31,252.41L89.66,252.72L93.24,252.37L104,250.97L107.59,251.05L125.52,252.18L129.1,251.68L139.86,250.2L143.45,249.71L161.38,251.26L164.97,251.23L168.55,250.6L172.14,248.91L175.72,250.06L179.31,248.71L186.48,249.45L190.07,250.19L200.83,250.82L204.41,250.22L215.17,246.76L218.76,246.61L222.34,244.91L225.93,254.56L229.52,250.42L233.1,250.8L240.28,250.38L243.86,249.47L254.62,246.59L258.21,247.36L268.97,250.53L272.55,250.8L276.14,250.82L279.72,250.04L290.48,246.68L294.07,247.32L308.41,251.83L312,252.08L319.17,251.19L322.76,250.54L326.34,249.98L329.93,250.37L344.28,255.21L347.86,255.65L369.38,257.36L372.97,257.81L390.9,258.82L394.48,258.9L469.79,259L473.38,258.99L520,258.69" style="vector-effect: none; fill: none; stroke: rgb(145, 232, 225); stroke-opacity: 1; stroke-width: 2px; opacity: 1;"/></g><g class="points"/><g class="text"/></g><g class="trace scatter trace97256a" style="stroke-miterlimit: 2; opacity: 1;"><g class="fills"/><g class="errorbars"/><g class="lines"><path class="js-line" d="M0,255.72L14.34,255.54L17.93,255.44L28.69,255.2L32.28,255.29L53.79,255.74L57.38,255.09L82.48,255.16L86.07,255.77L100.41,254.14L104,253.86L118.34,254.67L121.93,255.13L129.1,254.59L132.69,253.87L136.28,253.15L139.86,249.41L143.45,251.44L147.03,248.26L150.62,255.85L154.21,245.75L157.79,244.53L161.38,255.02L164.97,249.93L168.55,253.1L172.14,254.77L175.72,249.29L179.31,257.41L182.9,251.4L186.48,254.22L190.07,254.68L193.66,249.27L197.24,254.38L200.83,248.47L204.41,258.01L208,254.83L211.59,252.95L215.17,240.37L218.76,257.6L222.34,257.94L225.93,254.24L233.1,253.39L236.69,254.18L240.28,256.62L243.86,256.73L247.45,252.51L251.03,249.97L254.62,248.58L258.21,249.3L268.97,253.1L272.55,253.24L276.14,253.2L279.72,252.13L290.48,246.41L294.07,247.24L304.83,252.92L308.41,253.62L312,253.8L315.59,253.16L326.34,248.84L329.93,249.16L344.28,255.8L347.86,256.31L365.79,256.31L369.38,256.92L383.72,258.67L387.31,258.74L455.45,259L459.03,259L520,258.87" style="vector-effect: none; fill: none; stroke: rgb(124, 181, 236); stroke-opacity: 1; stroke-width: 2px; opacity: 1;"/></g><g class="points"/><g class="text"/></g><g class="trace scatter tracee28116" style="stroke-miterlimit: 2; opacity: 1;"><g class="fills"/><g class="errorbars"/><g class="lines"><path class="js-line" d="M0,255.73L14.34,255.58L17.93,255.42L32.28,255.27L35.86,255.41L57.38,255.26L60.97,255.08L71.72,254.7L75.31,254.78L86.07,255.63L89.66,255.54L104,253.86L107.59,253.91L114.76,254.55L118.34,254.93L125.52,255.22L129.1,254.66L147.03,252.83L150.62,253.59L157.79,254.58L161.38,254.62L168.55,253.83L172.14,252.47L175.72,252.62L179.31,251.66L182.9,251.42L186.48,252.41L197.24,254.21L200.83,253.78L204.41,253.46L208,252.09L215.17,249.43L218.76,248.93L222.34,248.37L225.93,255.89L229.52,253.1L233.1,253.71L240.28,253.16L243.86,251.96L254.62,247.73L258.21,248.84L268.97,252.95L272.55,253.08L276.14,253.07L279.72,252.02L290.48,246.2L294.07,247.12L304.83,252.84L308.41,253.55L312,253.72L315.59,253.1L326.34,248.75L329.93,249.06L344.28,255.77L347.86,256.29L365.79,256.29L369.38,256.91L383.72,258.67L387.31,258.74L455.45,259L459.03,259L520,258.87" style="vector-effect: none; fill: none; stroke: rgb(67, 67, 72); stroke-opacity: 1; stroke-width: 2px; opacity: 1;"/></g><g class="points"/><g class="text"/></g><g class="trace scatter trace995bf7" style="stroke-miterlimit: 2; opacity: 1;"><g class="fills"/><g class="errorbars"/><g class="lines"><path class="js-line" d="M0,255.58L21.52,254.35L25.1,254.98L35.86,254.84L39.45,254.74L46.62,254.99L50.21,254.82L53.79,254.72L57.38,253.85L64.55,253.72L68.14,253.63L86.07,253.99L89.66,253.97L96.83,252.91L100.41,252.27L107.59,252.36L111.17,252.27L118.34,253.31L121.93,253.17L125.52,253.33L129.1,251.79L136.28,250.79L139.86,244.74L143.45,246.33L147.03,238.43L150.62,253.41L154.21,190.08L157.79,230L161.38,235.4L164.97,246.36L168.55,249.09L172.14,254.39L175.72,254.68L179.31,258.66L182.9,257.28L186.48,258.18L190.07,256.94L193.66,251.64L197.24,256.86L200.83,254.35L204.41,255.7L208,257.22L211.59,254.21L215.17,248.04L218.76,248.71L222.34,257.88L225.93,258.6L233.1,256.36L236.69,256.1L243.86,257.65L247.45,253.19L251.03,248.63L254.62,246.04L265.38,250.61L268.97,251.8L272.55,251.31L276.14,251.59L279.72,250.46L283.31,248.24L290.48,243.44L294.07,245.52L301.24,250.72L304.83,252.33L312,252.98L315.59,252.49L326.34,247.94L329.93,248.66L340.69,254.91L344.28,255.8L351.45,256.45L355.03,256.31L365.79,256.91L369.38,257.37L383.72,258.77L387.31,258.84L466.21,259L469.79,259L520,258.99" style="vector-effect: none; fill: none; stroke: rgb(144, 237, 125); stroke-opacity: 1; stroke-width: 2px; opacity: 1;"/></g><g class="points"/><g class="text"/></g><g class="trace scatter traceabd14f" style="stroke-miterlimit: 2; opacity: 1;"><g class="fills"/><g class="errorbars"/><g class="lines"><path class="js-line" d="M0,255.59L21.52,254.39L25.1,254.94L39.45,254.75L43.03,255.14L75.31,253.67L78.9,254.22L89.66,254.05L93.24,253.31L111.17,252.4L114.76,253.15L125.52,253.43L129.1,252.35L132.69,252.22L136.28,251.16L147.03,250.69L150.62,251.84L157.79,252.48L161.38,252.42L168.55,251.45L172.14,249.7L175.72,250.33L179.31,249.2L182.9,249.03L186.48,250.38L193.66,251.64L197.24,252.02L200.83,251.01L204.41,250.92L215.17,246.53L218.76,245.81L222.34,245.8L225.93,255.01L229.52,251.34L233.1,251.74L236.69,250.83L240.28,250.92L254.62,244.44L258.21,246.92L265.38,250.29L268.97,251.57L272.55,251.04L276.14,251.36L279.72,250.23L283.31,247.97L290.48,242.93L294.07,245.18L301.24,250.52L304.83,252.19L312,252.85L315.59,252.37L326.34,247.75L329.93,248.46L340.69,254.84L344.28,255.75L351.45,256.41L355.03,256.27L365.79,256.88L369.38,257.35L383.72,258.76L387.31,258.84L466.21,259L469.79,259L520,258.99" style="vector-effect: none; fill: none; stroke: rgb(247, 163, 92); stroke-opacity: 1; stroke-width: 2px; opacity: 1;"/></g><g class="points"/><g class="text"/></g><g class="trace scatter trace755be9" style="stroke-miterlimit: 2; opacity: 1;"><g class="fills"/><g class="errorbars"/><g class="lines"><path class="js-line" d="M0,255.88L10.76,256.17L14.34,255.79L35.86,255.15L39.45,255.43L46.62,255.97L50.21,255.98L71.72,254.19L75.31,254.19L82.48,254.64L86.07,255.91L104,252.82L107.59,252.9L111.17,252.98L114.76,253.92L121.93,254.73L125.52,254.51L129.1,254.07L132.69,252.74L136.28,251.94L139.86,246.75L143.45,249.48L147.03,245.72L150.62,254.77L154.21,243.33L157.79,241.7L161.38,254.4L164.97,248.35L168.55,253.11L172.14,253.77L175.72,245.67L179.31,256.93L182.9,249.29L190.07,254.07L193.66,248.83L197.24,252.36L200.83,247.86L204.41,257.75L208,253.17L211.59,251.46L215.17,235.95L218.76,256.98L222.34,256.92L225.93,252.62L229.52,252.49L233.1,252.07L236.69,252.72L240.28,255.76L243.86,256.08L247.45,250.62L251.03,246.91L254.62,244.61L258.21,245.68L268.97,252.06L272.55,252.23L276.14,252.3L279.72,250.5L290.48,240.69L294.07,242.15L304.83,251.32L308.41,252.52L312,252.87L315.59,251.77L326.34,243.63L329.93,243.62L340.69,252.85L344.28,254.7L347.86,255.4L351.45,255.2L358.62,253.76L362.21,253.64L369.38,255.22L372.97,256.22L383.72,258.37L387.31,258.51L462.62,258.98L466.21,259L520,258.9" style="vector-effect: none; fill: none; stroke: rgb(128, 133, 233); stroke-opacity: 1; stroke-width: 2px; opacity: 1;"/></g><g class="points"/><g class="text"/></g><g class="trace scatter tracea1aeda" style="stroke-miterlimit: 2; opacity: 1;"><g class="fills"/><g class="errorbars"/><g class="lines"><path class="js-line" d="M0,255.89L10.76,256.18L14.34,255.85L32.28,255.13L35.86,255.25L50.21,255.99L53.79,255.69L68.14,253.99L71.72,254.14L78.9,254.98L82.48,255.41L89.66,255.38L93.24,254.64L107.59,252.93L111.17,253.12L118.34,254.53L121.93,254.79L129.1,254.16L132.69,253.4L139.86,251.6L143.45,250.93L147.03,251.19L150.62,252.48L157.79,254.05L161.38,254.11L168.55,252.89L172.14,251.15L182.9,248.99L186.48,250.63L197.24,253.65L200.83,253.13L204.41,252.49L208,250.44L215.17,246.42L218.76,245.56L222.34,245.02L225.93,255.04L229.52,251.95L233.1,253.02L240.28,252.17L243.86,250.3L254.62,243.29L258.21,244.99L268.97,251.88L272.55,252.02L276.14,252.14L279.72,250.35L290.48,240.37L294.07,241.94L304.83,251.2L308.41,252.43L312,252.77L315.59,251.7L326.34,243.47L329.93,243.44L340.69,252.79L344.28,254.65L347.86,255.36L351.45,255.16L358.62,253.71L362.21,253.6L369.38,255.19L372.97,256.2L383.72,258.37L387.31,258.5L451.86,259L455.45,258.99L520,258.9" style="vector-effect: none; fill: none; stroke: rgb(241, 92, 128); stroke-opacity: 1; stroke-width: 2px; opacity: 1;"/></g><g class="points"/><g class="text"/></g><g class="trace scatter trace2d70b9" style="stroke-miterlimit: 2; opacity: 1;"><g class="fills"/><g class="errorbars"/><g class="lines"><path class="js-line" d="M0,255.78L14.34,255.28L17.93,254.55L21.52,254.33L25.1,255.05L39.45,255.12L43.03,255.78L53.79,255.56L57.38,254.37L64.55,254.22L68.14,254.21L71.72,254.55L75.31,254.03L82.48,255.5L86.07,255.23L89.66,255.33L93.24,254L100.41,253.45L104,253.18L107.59,253.43L111.17,252.77L114.76,254.23L118.34,254.7L125.52,254.97L129.1,253.33L136.28,252.38L139.86,247.32L143.45,250.64L147.03,246.09L150.62,256L154.21,246.98L157.79,240.43L161.38,254.06L164.97,246.9L168.55,252.38L172.14,253.96L175.72,245.85L179.31,257.48L182.9,248.62L186.48,253.56L190.07,254.59L193.66,246.87L197.24,253.16L200.83,245.93L204.41,257.79L208,253.92L211.59,252.07L215.17,237.15L218.76,257.2L222.34,257.81L225.93,253.65L233.1,252.84L236.69,252.32L240.28,256.17L243.86,256.42L247.45,250.69L251.03,247.96L254.62,243.69L258.21,247.08L268.97,253.11L272.55,251.47L276.14,253.05L279.72,251.28L290.48,241.42L294.07,244.16L304.83,252.85L308.41,253.41L312,254.12L315.59,253.15L326.34,245.29L329.93,245.44L340.69,254.06L344.28,255.69L347.86,256.46L351.45,256.24L362.21,254.46L365.79,254.98L383.72,258.62L387.31,258.71L516.41,259L520,258.67" style="vector-effect: none; fill: none; stroke: rgb(228, 211, 84); stroke-opacity: 1; stroke-width: 2px; opacity: 1;"/></g><g class="points"/><g class="text"/></g><g class="trace scatter traceeb3109" style="stroke-miterlimit: 2; opacity: 1;"><g class="fills"/><g class="errorbars"/><g class="lines"><path class="js-line" d="M0,255.8L3.59,255.54L7.17,256.05L17.93,254.51L21.52,254.36L28.69,254.95L32.28,255.04L50.21,255.73L53.79,255.55L57.38,254.54L60.97,254.62L68.14,254.16L71.72,254.5L75.31,254.08L78.9,255.11L86.07,255.43L89.66,255.38L93.24,254.12L96.83,254.14L104,253.11L107.59,253.53L111.17,252.93L114.76,254.28L121.93,254.81L125.52,255.07L129.1,253.44L132.69,253.63L139.86,252.01L143.45,252L147.03,251.04L150.62,253.17L154.21,254.06L157.79,254.09L161.38,254.53L164.97,252.66L168.55,253.13L172.14,251.58L179.31,250.7L182.9,248.55L186.48,251.61L190.07,252.71L193.66,253.03L197.24,254.12L200.83,251.73L204.41,252.57L211.59,248.6L215.17,247.75L218.76,244.99L222.34,246.59L225.93,255.45L229.52,252.08L233.1,253.59L236.69,250.99L240.28,252.48L243.86,250.7L247.45,247.84L251.03,246.75L254.62,242.38L258.21,246.5L268.97,252.98L272.55,251.25L276.14,252.92L279.72,251.16L290.48,241.13L294.07,244L304.83,252.77L308.41,253.33L312,254.04L315.59,253.09L326.34,245.16L329.93,245.3L340.69,254L344.28,255.66L347.86,256.43L351.45,256.22L362.21,254.43L365.79,254.95L383.72,258.62L387.31,258.71L516.41,259L520,258.67" style="vector-effect: none; fill: none; stroke: rgb(43, 144, 143); stroke-opacity: 1; stroke-width: 2px; opacity: 1;"/></g><g class="points"/><g class="text"/></g><g class="trace scatter trace670131" style="stroke-miterlimit: 2; opacity: 1;"><g class="fills"/><g class="errorbars"/><g class="lines"><path class="js-line" d="M0,256.24L21.52,254.77L25.1,255.69L39.45,255.49L43.03,256.12L53.79,255.98L57.38,254.91L60.97,255.3L64.55,254.93L75.31,254.52L78.9,255.38L86.07,255.51L89.66,255.71L93.24,254.44L96.83,254.72L100.41,253.93L104,254.09L107.59,254.2L111.17,253.3L114.76,254.67L118.34,255.08L125.52,255.25L129.1,253.65L136.28,253.06L139.86,247.12L143.45,250.97L147.03,245.95L150.62,255.91L154.21,236.84L157.79,214.44L161.38,251.79L164.97,245.77L168.55,252.76L172.14,255.54L175.72,250.06L179.31,258.67L182.9,252.91L186.48,256.98L190.07,256.27L193.66,248.29L197.24,256.85L200.83,252.17L204.41,257.02L208,257.07L211.59,254.58L215.17,248.78L218.76,253.23L222.34,258.67L225.93,257.22L229.52,255.31L233.1,255.3L236.69,254.66L240.28,257.01L243.86,257.63L247.45,252.31L251.03,249.45L254.62,244L258.21,247.85L261.79,249.25L265.38,250.41L268.97,252.71L272.55,249.77L276.14,252.57L279.72,250.97L283.31,247.8L286.9,246.21L290.48,239.94L294.07,244.46L297.66,246.78L304.83,252.23L308.41,251.14L312,253.35L315.59,252.47L326.34,244.65L329.93,245.57L337.1,250.8L340.69,253.59L347.86,255.8L351.45,255.64L362.21,254.08L365.79,254.71L383.72,258.51L387.31,258.63L459.03,259L462.62,258.99L520,258.88" style="vector-effect: none; fill: none; stroke: rgb(244, 91, 91); stroke-opacity: 1; stroke-width: 2px; opacity: 1;"/></g><g class="points"/><g class="text"/></g><g class="trace scatter trace73b478" style="stroke-miterlimit: 2; opacity: 1;"><g class="fills"/><g class="errorbars"/><g class="lines"><path class="js-line" d="M0,256.25L3.59,255.88L7.17,256.37L17.93,254.98L21.52,254.8L25.1,255.66L28.69,255.56L53.79,255.97L57.38,255.06L64.55,254.94L68.14,254.78L71.72,255.07L75.31,254.57L82.48,255.8L86.07,255.69L89.66,255.77L93.24,254.54L100.41,254.34L104,253.84L107.59,254.19L111.17,253.42L114.76,254.72L118.34,255.13L125.52,255.37L129.1,253.82L132.69,254.25L136.28,253.39L147.03,251.74L150.62,253.62L157.79,254.34L161.38,254.77L164.97,253.12L168.55,253.71L172.14,252.2L175.72,252.25L179.31,251.77L182.9,249.45L186.48,252.25L190.07,253.13L193.66,253.27L197.24,254.29L200.83,252.04L204.41,253.07L215.17,249L218.76,245.95L222.34,247.62L225.93,255.55L229.52,252.27L233.1,253.64L236.69,250.8L240.28,252.76L243.86,251.17L247.45,248.67L251.03,247.9L254.62,242.59L258.21,247.25L261.79,248.88L265.38,250.13L268.97,252.58L272.55,249.46L276.14,252.41L279.72,250.83L283.31,247.58L286.9,245.95L290.48,239.49L294.07,244.24L297.66,246.57L304.83,252.13L308.41,251L312,253.24L315.59,252.4L326.34,244.48L329.93,245.39L337.1,250.7L340.69,253.52L347.86,255.76L351.45,255.6L362.21,254.03L365.79,254.67L383.72,258.51L387.31,258.62L448.28,259L451.86,258.99L520,258.88" style="vector-effect: none; fill: none; stroke: rgb(145, 232, 225); stroke-opacity: 1; stroke-width: 2px; opacity: 1;"/></g><g class="points"/><g class="text"/></g><g class="trace scatter trace239a8f" style="stroke-miterlimit: 2; opacity: 1;"><g class="fills"/><g class="errorbars"/><g class="lines"><path class="js-line" d="M0,256.38L21.52,255.01L25.1,255.74L39.45,255.67L43.03,256.24L53.79,256.02L57.38,254.96L64.55,254.86L68.14,254.8L71.72,255.1L75.31,254.51L82.48,255.78L86.07,255.52L89.66,255.63L93.24,254.32L100.41,253.78L104,253.58L107.59,253.89L111.17,253.12L114.76,254.48L118.34,254.95L125.52,254.93L129.1,253.21L136.28,252.26L139.86,245.62L143.45,248.6L147.03,244.68L150.62,252.6L154.21,205.21L157.79,226.73L161.38,232.07L164.97,246.33L168.55,243.43L172.14,251.65L175.72,254.81L179.31,258.49L182.9,256.34L186.48,258.19L190.07,256.6L193.66,251.12L197.24,257.2L200.83,252.84L204.41,256.06L208,257.36L211.59,252.84L215.17,246.97L218.76,247.44L222.34,257.97L225.93,258.65L236.69,256.06L240.28,257.42L243.86,257.28L247.45,251.41L251.03,246.29L254.62,238.5L258.21,243.36L261.79,245.37L265.38,247.16L268.97,250.38L272.55,246.12L276.14,249.67L279.72,246.67L283.31,241.23L286.9,237.91L290.48,226.59L294.07,234.16L297.66,237.44L304.83,246.8L308.41,242.14L312,247.98L315.59,245.26L319.17,238.86L322.76,234.85L326.34,222.5L329.93,228.42L333.52,232.81L337.1,238.49L340.69,245.54L344.28,246.7L347.86,250.52L351.45,249.57L355.03,246.34L358.62,244.69L362.21,242.45L365.79,244.34L383.72,256.71L387.31,257.13L394.48,257.74L398.07,258.11L423.17,258.96L426.76,258.94L498.48,259L502.07,259L516.41,258.99L520,257.36" style="vector-effect: none; fill: none; stroke: rgb(124, 181, 236); stroke-opacity: 1; stroke-width: 2px; opacity: 1;"/></g><g class="points"/><g class="text"/></g><g class="trace scatter tracec42029" style="stroke-miterlimit: 2; opacity: 1;"><g class="fills"/><g class="errorbars"/><g class="lines"><path class="js-line" d="M0,256.39L21.52,255.04L25.1,255.72L39.45,255.69L43.03,256.25L53.79,256.02L57.38,255.14L71.72,255.04L75.31,254.58L82.48,255.85L86.07,255.76L89.66,255.76L93.24,254.5L100.41,254.08L104,253.57L107.59,253.95L111.17,253.27L114.76,254.56L118.34,255.04L125.52,255.22L129.1,253.56L132.69,253.82L136.28,252.93L139.86,252.1L143.45,252.17L147.03,250.96L150.62,253.17L157.79,253.98L161.38,254.28L164.97,252.41L168.55,252.97L172.14,251.07L175.72,251.13L179.31,250.37L182.9,247.8L186.48,251.08L190.07,252.21L193.66,252.45L197.24,253.58L200.83,250.87L204.41,251.8L211.59,247.25L215.17,246.26L218.76,242.68L222.34,244.64L225.93,254.64L229.52,250.66L233.1,252.43L236.69,248.88L240.28,250.95L243.86,248.6L247.45,245L251.03,243.51L254.62,236.38L258.21,242.39L265.38,246.72L268.97,250.17L272.55,245.67L276.14,249.45L279.72,246.43L283.31,240.86L286.9,237.49L290.48,225.59L294.07,233.63L297.66,236.94L304.83,246.61L308.41,241.72L312,247.77L315.59,245.04L319.17,238.55L322.76,234.5L326.34,221.93L329.93,227.87L333.52,232.35L337.1,238.15L340.69,245.33L344.28,246.51L347.86,250.41L351.45,249.44L355.03,246.17L358.62,244.5L362.21,242.25L365.79,244.17L383.72,256.69L387.31,257.12L394.48,257.73L398.07,258.1L423.17,258.96L426.76,258.94L498.48,259L502.07,259L516.41,258.98L520,257.37" style="vector-effect: none; fill: none; stroke: rgb(67, 67, 72); stroke-opacity: 1; stroke-width: 2px; opacity: 1;"/></g><g class="points"/><g class="text"/></g></g></g></g><g class="zerolinelayer-above"/><path class="xlines-above crisp" d="M0,0" style="fill: none;"/><path class="ylines-above crisp" d="M0,0" style="fill: none;"/><g class="overlines-above"/><g class="xaxislayer-above"><g class="xtick"><text text-anchor="middle" x="0" y="325" transform="translate(113.78999999999999,0)" style="font-family: 'Lucida Grande', 'Open Sans', verdana, arial, sans-serif; font-size: 10px; fill: rgb(0, 0, 0); fill-opacity: 1; white-space: pre;">20 bp</text></g><g class="xtick"><text text-anchor="middle" x="0" y="325" style="font-family: 'Lucida Grande', 'Open Sans', verdana, arial, sans-serif; font-size: 10px; fill: rgb(0, 0, 0); fill-opacity: 1; white-space: pre;" transform="translate(185.51999999999998,0)">40 bp</text></g><g class="xtick"><text text-anchor="middle" x="0" y="325" style="font-family: 'Lucida Grande', 'Open Sans', verdana, arial, sans-serif; font-size: 10px; fill: rgb(0, 0, 0); fill-opacity: 1; white-space: pre;" transform="translate(257.24,0)">60 bp</text></g><g class="xtick"><text text-anchor="middle" x="0" y="325" style="font-family: 'Lucida Grande', 'Open Sans', verdana, arial, sans-serif; font-size: 10px; fill: rgb(0, 0, 0); fill-opacity: 1; white-space: pre;" transform="translate(328.97,0)">80 bp</text></g><g class="xtick"><text text-anchor="middle" x="0" y="325" style="font-family: 'Lucida Grande', 'Open Sans', verdana, arial, sans-serif; font-size: 10px; fill: rgb(0, 0, 0); fill-opacity: 1; white-space: pre;" transform="translate(400.69,0)">100 bp</text></g><g class="xtick"><text text-anchor="middle" x="0" y="325" style="font-family: 'Lucida Grande', 'Open Sans', verdana, arial, sans-serif; font-size: 10px; fill: rgb(0, 0, 0); fill-opacity: 1; white-space: pre;" transform="translate(472.41,0)">120 bp</text></g><g class="xtick"><text text-anchor="middle" x="0" y="325" style="font-family: 'Lucida Grande', 'Open Sans', verdana, arial, sans-serif; font-size: 10px; fill: rgb(0, 0, 0); fill-opacity: 1; white-space: pre;" transform="translate(544.14,0)">140 bp</text></g></g><g class="yaxislayer-above"><g class="ytick"><text text-anchor="end" x="54" y="3.5" transform="translate(0,309)" style="font-family: 'Lucida Grande', 'Open Sans', verdana, arial, sans-serif; font-size: 10px; fill: rgb(0, 0, 0); fill-opacity: 1; white-space: pre;">0</text></g><g class="ytick"><text text-anchor="end" x="54" y="3.5" style="font-family: 'Lucida Grande', 'Open Sans', verdana, arial, sans-serif; font-size: 10px; fill: rgb(0, 0, 0); fill-opacity: 1; white-space: pre;" transform="translate(0,239.62)">5M</text></g><g class="ytick"><text text-anchor="end" x="54" y="3.5" style="font-family: 'Lucida Grande', 'Open Sans', verdana, arial, sans-serif; font-size: 10px; fill: rgb(0, 0, 0); fill-opacity: 1; white-space: pre;" transform="translate(0,170.24)">10M</text></g><g class="ytick"><text text-anchor="end" x="54" y="3.5" style="font-family: 'Lucida Grande', 'Open Sans', verdana, arial, sans-serif; font-size: 10px; fill: rgb(0, 0, 0); fill-opacity: 1; white-space: pre;" transform="translate(0,100.86)">15M</text></g></g><g class="overaxes-above"/></g></g><g class="polarlayer"/><g class="smithlayer"/><g class="ternarylayer"/><g class="geolayer"/><g class="funnelarealayer"/><g class="pielayer"/><g class="iciclelayer"/><g class="treemaplayer"/><g class="sunburstlayer"/><g class="glimages"/><defs id="topdefs-997b6c"><g class="clips"/><clipPath id="legend997b6c"><rect width="853" height="360" x="0" y="0"/></clipPath></defs><g class="layer-above"><g class="imagelayer"/><g class="shapelayer"/></g><g class="infolayer"><g class="legend" pointer-events="all" transform="translate(-106.5,347.84999999999997)"><rect class="bg" shape-rendering="crispEdges" style="stroke: rgb(68, 68, 68); stroke-opacity: 1; fill: rgb(255, 255, 255); fill-opacity: 1; stroke-width: 0px;" width="853" height="360" x="0" y="0"/><g class="scrollbox" transform="" clip-path="url(#legend997b6c)"><g class="groups"><g class="traces" transform="translate(0,14.5)" style="opacity: 1;"><text class="legendtext" text-anchor="start" x="40" y="4.680000000000001" style="font-family: 'Lucida Grande', 'Open Sans', verdana, arial, sans-serif; font-size: 12px; fill: rgb(68, 68, 68); fill-opacity: 1; white-space: pre;">/ | beegfs | scratch | ric.sessa | kubacki.michal | SRF_Eva_top | SRF_Eva | results | 02_trimmed | IggMs_R1_001.fastq.gz - Adapter 1</text><g class="layers" style="opacity: 1;"><g class="legendfill"/><g class="legendlines"><path class="js-line" d="M5,0h30" style="fill: none; stroke: rgb(124, 181, 236); stroke-opacity: 1; stroke-width: 2px;"/></g><g class="legendsymbols"><g class="legendpoints"/></g></g><rect class="legendtoggle" x="0" y="-9.5" width="827.296875" height="19" style="fill: rgb(0, 0, 0); fill-opacity: 0;"/></g><g class="traces" transform="translate(0,33.5)" style="opacity: 1;"><text class="legendtext" text-anchor="start" x="40" y="4.680000000000001" style="font-family: 'Lucida Grande', 'Open Sans', verdana, arial, sans-serif; font-size: 12px; fill: rgb(68, 68, 68); fill-opacity: 1; white-space: pre;">/ | beegfs | scratch | ric.sessa | kubacki.michal | SRF_Eva_top | SRF_Eva | results | 02_trimmed | IggMs_R2_001.fastq.gz - Adapter 1</text><g class="layers" style="opacity: 1;"><g class="legendfill"/><g class="legendlines"><path class="js-line" d="M5,0h30" style="fill: none; stroke: rgb(67, 67, 72); stroke-opacity: 1; stroke-width: 2px;"/></g><g class="legendsymbols"><g class="legendpoints"/></g></g><rect class="legendtoggle" x="0" y="-9.5" width="827.296875" height="19" style="fill: rgb(0, 0, 0); fill-opacity: 0;"/></g><g class="traces" transform="translate(0,52.5)" style="opacity: 1;"><text class="legendtext" text-anchor="start" x="40" y="4.680000000000001" style="font-family: 'Lucida Grande', 'Open Sans', verdana, arial, sans-serif; font-size: 12px; fill: rgb(68, 68, 68); fill-opacity: 1; white-space: pre;">/ | beegfs | scratch | ric.sessa | kubacki.michal | SRF_Eva_top | SRF_Eva | results | 02_trimmed | IggRb_R1_001.fastq.gz - Adapter 1</text><g class="layers" style="opacity: 1;"><g class="legendfill"/><g class="legendlines"><path class="js-line" d="M5,0h30" style="fill: none; stroke: rgb(144, 237, 125); stroke-opacity: 1; stroke-width: 2px;"/></g><g class="legendsymbols"><g class="legendpoints"/></g></g><rect class="legendtoggle" x="0" y="-9.5" width="826.65625" height="19" style="fill: rgb(0, 0, 0); fill-opacity: 0;"/></g><g class="traces" transform="translate(0,71.5)" style="opacity: 1;"><text class="legendtext" text-anchor="start" x="40" y="4.680000000000001" style="font-family: 'Lucida Grande', 'Open Sans', verdana, arial, sans-serif; font-size: 12px; fill: rgb(68, 68, 68); fill-opacity: 1; white-space: pre;">/ | beegfs | scratch | ric.sessa | kubacki.michal | SRF_Eva_top | SRF_Eva | results | 02_trimmed | IggRb_R2_001.fastq.gz - Adapter 1</text><g class="layers" style="opacity: 1;"><g class="legendfill"/><g class="legendlines"><path class="js-line" d="M5,0h30" style="fill: none; stroke: rgb(247, 163, 92); stroke-opacity: 1; stroke-width: 2px;"/></g><g class="legendsymbols"><g class="legendpoints"/></g></g><rect class="legendtoggle" x="0" y="-9.5" width="826.65625" height="19" style="fill: rgb(0, 0, 0); fill-opacity: 0;"/></g><g class="traces" transform="translate(0,90.5)" style="opacity: 1;"><text class="legendtext" text-anchor="start" x="40" y="4.680000000000001" style="font-family: 'Lucida Grande', 'Open Sans', verdana, arial, sans-serif; font-size: 12px; fill: rgb(68, 68, 68); fill-opacity: 1; white-space: pre;">/ | beegfs | scratch | ric.sessa | kubacki.michal | SRF_Eva_top | SRF_Eva | results | 02_trimmed | TEAD1-1_R1_001.fastq.gz - Adapter 1</text><g class="layers" style="opacity: 1;"><g class="legendfill"/><g class="legendlines"><path class="js-line" d="M5,0h30" style="fill: none; stroke: rgb(128, 133, 233); stroke-opacity: 1; stroke-width: 2px;"/></g><g class="legendsymbols"><g class="legendpoints"/></g></g><rect class="legendtoggle" x="0" y="-9.5" width="843.875" height="19" style="fill: rgb(0, 0, 0); fill-opacity: 0;"/></g><g class="traces" transform="translate(0,109.5)" style="opacity: 1;"><text class="legendtext" text-anchor="start" x="40" y="4.680000000000001" style="font-family: 'Lucida Grande', 'Open Sans', verdana, arial, sans-serif; font-size: 12px; fill: rgb(68, 68, 68); fill-opacity: 1; white-space: pre;">/ | beegfs | scratch | ric.sessa | kubacki.michal | SRF_Eva_top | SRF_Eva | results | 02_trimmed | TEAD1-1_R2_001.fastq.gz - Adapter 1</text><g class="layers" style="opacity: 1;"><g class="legendfill"/><g class="legendlines"><path class="js-line" d="M5,0h30" style="fill: none; stroke: rgb(241, 92, 128); stroke-opacity: 1; stroke-width: 2px;"/></g><g class="legendsymbols"><g class="legendpoints"/></g></g><rect class="legendtoggle" x="0" y="-9.5" width="843.875" height="19" style="fill: rgb(0, 0, 0); fill-opacity: 0;"/></g><g class="traces" transform="translate(0,128.5)" style="opacity: 1;"><text class="legendtext" text-anchor="start" x="40" y="4.680000000000001" style="font-family: 'Lucida Grande', 'Open Sans', verdana, arial, sans-serif; font-size: 12px; fill: rgb(68, 68, 68); fill-opacity: 1; white-space: pre;">/ | beegfs | scratch | ric.sessa | kubacki.michal | SRF_Eva_top | SRF_Eva | results | 02_trimmed | TEAD1-2_R1_001.fastq.gz - Adapter 1</text><g class="layers" style="opacity: 1;"><g class="legendfill"/><g class="legendlines"><path class="js-line" d="M5,0h30" style="fill: none; stroke: rgb(228, 211, 84); stroke-opacity: 1; stroke-width: 2px;"/></g><g class="legendsymbols"><g class="legendpoints"/></g></g><rect class="legendtoggle" x="0" y="-9.5" width="843.875" height="19" style="fill: rgb(0, 0, 0); fill-opacity: 0;"/></g><g class="traces" transform="translate(0,147.5)" style="opacity: 1;"><text class="legendtext" text-anchor="start" x="40" y="4.680000000000001" style="font-family: 'Lucida Grande', 'Open Sans', verdana, arial, sans-serif; font-size: 12px; fill: rgb(68, 68, 68); fill-opacity: 1; white-space: pre;">/ | beegfs | scratch | ric.sessa | kubacki.michal | SRF_Eva_top | SRF_Eva | results | 02_trimmed | TEAD1-2_R2_001.fastq.gz - Adapter 1</text><g class="layers" style="opacity: 1;"><g class="legendfill"/><g class="legendlines"><path class="js-line" d="M5,0h30" style="fill: none; stroke: rgb(43, 144, 143); stroke-opacity: 1; stroke-width: 2px;"/></g><g class="legendsymbols"><g class="legendpoints"/></g></g><rect class="legendtoggle" x="0" y="-9.5" width="843.875" height="19" style="fill: rgb(0, 0, 0); fill-opacity: 0;"/></g><g class="traces" transform="translate(0,166.5)" style="opacity: 1;"><text class="legendtext" text-anchor="start" x="40" y="4.680000000000001" style="font-family: 'Lucida Grande', 'Open Sans', verdana, arial, sans-serif; font-size: 12px; fill: rgb(68, 68, 68); fill-opacity: 1; white-space: pre;">/ | beegfs | scratch | ric.sessa | kubacki.michal | SRF_Eva_top | SRF_Eva | results | 02_trimmed | TEAD1-3_R1_001.fastq.gz - Adapter 1</text><g class="layers" style="opacity: 1;"><g class="legendfill"/><g class="legendlines"><path class="js-line" d="M5,0h30" style="fill: none; stroke: rgb(244, 91, 91); stroke-opacity: 1; stroke-width: 2px;"/></g><g class="legendsymbols"><g class="legendpoints"/></g></g><rect class="legendtoggle" x="0" y="-9.5" width="843.875" height="19" style="fill: rgb(0, 0, 0); fill-opacity: 0;"/></g><g class="traces" transform="translate(0,185.5)" style="opacity: 1;"><text class="legendtext" text-anchor="start" x="40" y="4.680000000000001" style="font-family: 'Lucida Grande', 'Open Sans', verdana, arial, sans-serif; font-size: 12px; fill: rgb(68, 68, 68); fill-opacity: 1; white-space: pre;">/ | beegfs | scratch | ric.sessa | kubacki.michal | SRF_Eva_top | SRF_Eva | results | 02_trimmed | TEAD1-3_R2_001.fastq.gz - Adapter 1</text><g class="layers" style="opacity: 1;"><g class="legendfill"/><g class="legendlines"><path class="js-line" d="M5,0h30" style="fill: none; stroke: rgb(145, 232, 225); stroke-opacity: 1; stroke-width: 2px;"/></g><g class="legendsymbols"><g class="legendpoints"/></g></g><rect class="legendtoggle" x="0" y="-9.5" width="843.875" height="19" style="fill: rgb(0, 0, 0); fill-opacity: 0;"/></g><g class="traces" transform="translate(0,204.5)" style="opacity: 1;"><text class="legendtext" text-anchor="start" x="40" y="4.680000000000001" style="font-family: 'Lucida Grande', 'Open Sans', verdana, arial, sans-serif; font-size: 12px; fill: rgb(68, 68, 68); fill-opacity: 1; white-space: pre;">/ | beegfs | scratch | ric.sessa | kubacki.michal | SRF_Eva_top | SRF_Eva | results | 02_trimmed | TES-1_R1_001.fastq.gz - Adapter 1</text><g class="layers" style="opacity: 1;"><g class="legendfill"/><g class="legendlines"><path class="js-line" d="M5,0h30" style="fill: none; stroke: rgb(124, 181, 236); stroke-opacity: 1; stroke-width: 2px;"/></g><g class="legendsymbols"><g class="legendpoints"/></g></g><rect class="legendtoggle" x="0" y="-9.5" width="826.421875" height="19" style="fill: rgb(0, 0, 0); fill-opacity: 0;"/></g><g class="traces" transform="translate(0,223.5)" style="opacity: 1;"><text class="legendtext" text-anchor="start" x="40" y="4.680000000000001" style="font-family: 'Lucida Grande', 'Open Sans', verdana, arial, sans-serif; font-size: 12px; fill: rgb(68, 68, 68); fill-opacity: 1; white-space: pre;">/ | beegfs | scratch | ric.sessa | kubacki.michal | SRF_Eva_top | SRF_Eva | results | 02_trimmed | TES-1_R2_001.fastq.gz - Adapter 1</text><g class="layers" style="opacity: 1;"><g class="legendfill"/><g class="legendlines"><path class="js-line" d="M5,0h30" style="fill: none; stroke: rgb(67, 67, 72); stroke-opacity: 1; stroke-width: 2px;"/></g><g class="legendsymbols"><g class="legendpoints"/></g></g><rect class="legendtoggle" x="0" y="-9.5" width="826.421875" height="19" style="fill: rgb(0, 0, 0); fill-opacity: 0;"/></g><g class="traces" transform="translate(0,242.5)" style="opacity: 1;"><text class="legendtext" text-anchor="start" x="40" y="4.680000000000001" style="font-family: 'Lucida Grande', 'Open Sans', verdana, arial, sans-serif; font-size: 12px; fill: rgb(68, 68, 68); fill-opacity: 1; white-space: pre;">/ | beegfs | scratch | ric.sessa | kubacki.michal | SRF_Eva_top | SRF_Eva | results | 02_trimmed | TES-2_R1_001.fastq.gz - Adapter 1</text><g class="layers" style="opacity: 1;"><g class="legendfill"/><g class="legendlines"><path class="js-line" d="M5,0h30" style="fill: none; stroke: rgb(144, 237, 125); stroke-opacity: 1; stroke-width: 2px;"/></g><g class="legendsymbols"><g class="legendpoints"/></g></g><rect class="legendtoggle" x="0" y="-9.5" width="826.421875" height="19" style="fill: rgb(0, 0, 0); fill-opacity: 0;"/></g><g class="traces" transform="translate(0,261.5)" style="opacity: 1;"><text class="legendtext" text-anchor="start" x="40" y="4.680000000000001" style="font-family: 'Lucida Grande', 'Open Sans', verdana, arial, sans-serif; font-size: 12px; fill: rgb(68, 68, 68); fill-opacity: 1; white-space: pre;">/ | beegfs | scratch | ric.sessa | kubacki.michal | SRF_Eva_top | SRF_Eva | results | 02_trimmed | TES-2_R2_001.fastq.gz - Adapter 1</text><g class="layers" style="opacity: 1;"><g class="legendfill"/><g class="legendlines"><path class="js-line" d="M5,0h30" style="fill: none; stroke: rgb(247, 163, 92); stroke-opacity: 1; stroke-width: 2px;"/></g><g class="legendsymbols"><g class="legendpoints"/></g></g><rect class="legendtoggle" x="0" y="-9.5" width="826.421875" height="19" style="fill: rgb(0, 0, 0); fill-opacity: 0;"/></g><g class="traces" transform="translate(0,280.5)" style="opacity: 1;"><text class="legendtext" text-anchor="start" x="40" y="4.680000000000001" style="font-family: 'Lucida Grande', 'Open Sans', verdana, arial, sans-serif; font-size: 12px; fill: rgb(68, 68, 68); fill-opacity: 1; white-space: pre;">/ | beegfs | scratch | ric.sessa | kubacki.michal | SRF_Eva_top | SRF_Eva | results | 02_trimmed | TES-3_R1_001.fastq.gz - Adapter 1</text><g class="layers" style="opacity: 1;"><g class="legendfill"/><g class="legendlines"><path class="js-line" d="M5,0h30" style="fill: none; stroke: rgb(128, 133, 233); stroke-opacity: 1; stroke-width: 2px;"/></g><g class="legendsymbols"><g class="legendpoints"/></g></g><rect class="legendtoggle" x="0" y="-9.5" width="826.421875" height="19" style="fill: rgb(0, 0, 0); fill-opacity: 0;"/></g><g class="traces" transform="translate(0,299.5)" style="opacity: 1;"><text class="legendtext" text-anchor="start" x="40" y="4.680000000000001" style="font-family: 'Lucida Grande', 'Open Sans', verdana, arial, sans-serif; font-size: 12px; fill: rgb(68, 68, 68); fill-opacity: 1; white-space: pre;">/ | beegfs | scratch | ric.sessa | kubacki.michal | SRF_Eva_top | SRF_Eva | results | 02_trimmed | TES-3_R2_001.fastq.gz - Adapter 1</text><g class="layers" style="opacity: 1;"><g class="legendfill"/><g class="legendlines"><path class="js-line" d="M5,0h30" style="fill: none; stroke: rgb(241, 92, 128); stroke-opacity: 1; stroke-width: 2px;"/></g><g class="legendsymbols"><g class="legendpoints"/></g></g><rect class="legendtoggle" x="0" y="-9.5" width="826.421875" height="19" style="fill: rgb(0, 0, 0); fill-opacity: 0;"/></g><g class="traces" transform="translate(0,318.5)" style="opacity: 1;"><text class="legendtext" text-anchor="start" x="40" y="4.680000000000001" style="font-family: 'Lucida Grande', 'Open Sans', verdana, arial, sans-serif; font-size: 12px; fill: rgb(68, 68, 68); fill-opacity: 1; white-space: pre;">/ | beegfs | scratch | ric.sessa | kubacki.michal | SRF_Eva_top | SRF_Eva | results | 02_trimmed | TESmut-1_R1_001.fastq.gz - Adapter 1</text><g class="layers" style="opacity: 1;"><g class="legendfill"/><g class="legendlines"><path class="js-line" d="M5,0h30" style="fill: none; stroke: rgb(228, 211, 84); stroke-opacity: 1; stroke-width: 2px;"/></g><g class="legendsymbols"><g class="legendpoints"/></g></g><rect class="legendtoggle" x="0" y="-9.5" width="850.421875" height="19" style="fill: rgb(0, 0, 0); fill-opacity: 0;"/></g><g class="traces" transform="translate(0,337.5)" style="opacity: 1;"><text class="legendtext" text-anchor="start" x="40" y="4.680000000000001" style="font-family: 'Lucida Grande', 'Open Sans', verdana, arial, sans-serif; font-size: 12px; fill: rgb(68, 68, 68); fill-opacity: 1; white-space: pre;">/ | beegfs | scratch | ric.sessa | kubacki.michal | SRF_Eva_top | SRF_Eva | results | 02_trimmed | TESmut-1_R2_001.fastq.gz - Adapter 1</text><g class="layers" style="opacity: 1;"><g class="legendfill"/><g class="legendlines"><path class="js-line" d="M5,0h30" style="fill: none; stroke: rgb(43, 144, 143); stroke-opacity: 1; stroke-width: 2px;"/></g><g class="legendsymbols"><g class="legendpoints"/></g></g><rect class="legendtoggle" x="0" y="-9.5" width="850.421875" height="19" style="fill: rgb(0, 0, 0); fill-opacity: 0;"/></g><g class="traces" transform="translate(0,356.5)" style="opacity: 1;"><text class="legendtext" text-anchor="start" x="40" y="4.680000000000001" style="font-family: 'Lucida Grande', 'Open Sans', verdana, arial, sans-serif; font-size: 12px; fill: rgb(68, 68, 68); fill-opacity: 1; white-space: pre;">/ | beegfs | scratch | ric.sessa | kubacki.michal | SRF_Eva_top | SRF_Eva | results | 02_trimmed | TESmut-2_R1_001.fastq.gz - Adapter 1</text><g class="layers" style="opacity: 1;"><g class="legendfill"/><g class="legendlines"><path class="js-line" d="M5,0h30" style="fill: none; stroke: rgb(244, 91, 91); stroke-opacity: 1; stroke-width: 2px;"/></g><g class="legendsymbols"><g class="legendpoints"/></g></g><rect class="legendtoggle" x="0" y="-9.5" width="850.421875" height="19" style="fill: rgb(0, 0, 0); fill-opacity: 0;"/></g><g class="traces" transform="translate(0,375.5)" style="opacity: 1;"><text class="legendtext" text-anchor="start" x="40" y="4.680000000000001" style="font-family: 'Lucida Grande', 'Open Sans', verdana, arial, sans-serif; font-size: 12px; fill: rgb(68, 68, 68); fill-opacity: 1; white-space: pre;">/ | beegfs | scratch | ric.sessa | kubacki.michal | SRF_Eva_top | SRF_Eva | results | 02_trimmed | TESmut-2_R2_001.fastq.gz - Adapter 1</text><g class="layers" style="opacity: 1;"><g class="legendfill"/><g class="legendlines"><path class="js-line" d="M5,0h30" style="fill: none; stroke: rgb(145, 232, 225); stroke-opacity: 1; stroke-width: 2px;"/></g><g class="legendsymbols"><g class="legendpoints"/></g></g><rect class="legendtoggle" x="0" y="-9.5" width="850.421875" height="19" style="fill: rgb(0, 0, 0); fill-opacity: 0;"/></g><g class="traces" transform="translate(0,394.5)" style="opacity: 1;"><text class="legendtext" text-anchor="start" x="40" y="4.680000000000001" style="font-family: 'Lucida Grande', 'Open Sans', verdana, arial, sans-serif; font-size: 12px; fill: rgb(68, 68, 68); fill-opacity: 1; white-space: pre;">/ | beegfs | scratch | ric.sessa | kubacki.michal | SRF_Eva_top | SRF_Eva | results | 02_trimmed | TESmut-3_R1_001.fastq.gz - Adapter 1</text><g class="layers" style="opacity: 1;"><g class="legendfill"/><g class="legendlines"><path class="js-line" d="M5,0h30" style="fill: none; stroke: rgb(124, 181, 236); stroke-opacity: 1; stroke-width: 2px;"/></g><g class="legendsymbols"><g class="legendpoints"/></g></g><rect class="legendtoggle" x="0" y="-9.5" width="850.421875" height="19" style="fill: rgb(0, 0, 0); fill-opacity: 0;"/></g><g class="traces" transform="translate(0,413.5)" style="opacity: 1;"><text class="legendtext" text-anchor="start" x="40" y="4.680000000000001" style="font-family: 'Lucida Grande', 'Open Sans', verdana, arial, sans-serif; font-size: 12px; fill: rgb(68, 68, 68); fill-opacity: 1; white-space: pre;">/ | beegfs | scratch | ric.sessa | kubacki.michal | SRF_Eva_top | SRF_Eva | results | 02_trimmed | TESmut-3_R2_001.fastq.gz - Adapter 1</text><g class="layers" style="opacity: 1;"><g class="legendfill"/><g class="legendlines"><path class="js-line" d="M5,0h30" style="fill: none; stroke: rgb(67, 67, 72); stroke-opacity: 1; stroke-width: 2px;"/></g><g class="legendsymbols"><g class="legendpoints"/></g></g><rect class="legendtoggle" x="0" y="-9.5" width="850.421875" height="19" style="fill: rgb(0, 0, 0); fill-opacity: 0;"/></g><g class="traces" transform="translate(0,432.5)" style="opacity: 1;"><text class="legendtext" text-anchor="start" x="40" y="4.680000000000001" style="font-family: 'Lucida Grande', 'Open Sans', verdana, arial, sans-serif; font-size: 12px; fill: rgb(68, 68, 68); fill-opacity: 1; white-space: pre;">IggMs_R1_001 - Adapter 1</text><g class="layers" style="opacity: 1;"><g class="legendfill"/><g class="legendlines"><path class="js-line" d="M5,0h30" style="fill: none; stroke: rgb(124, 181, 236); stroke-opacity: 1; stroke-width: 2px;"/></g><g class="legendsymbols"><g class="legendpoints"/></g></g><rect class="legendtoggle" x="0" y="-9.5" width="199.78125" height="19" style="fill: rgb(0, 0, 0); fill-opacity: 0;"/></g><g class="traces" transform="translate(0,451.5)" style="opacity: 1;"><text class="legendtext" text-anchor="start" x="40" y="4.680000000000001" style="font-family: 'Lucida Grande', 'Open Sans', verdana, arial, sans-serif; font-size: 12px; fill: rgb(68, 68, 68); fill-opacity: 1; white-space: pre;">IggMs_R2_001 - Adapter 1</text><g class="layers" style="opacity: 1;"><g class="legendfill"/><g class="legendlines"><path class="js-line" d="M5,0h30" style="fill: none; stroke: rgb(67, 67, 72); stroke-opacity: 1; stroke-width: 2px;"/></g><g class="legendsymbols"><g class="legendpoints"/></g></g><rect class="legendtoggle" x="0" y="-9.5" width="199.78125" height="19" style="fill: rgb(0, 0, 0); fill-opacity: 0;"/></g><g class="traces" transform="translate(0,470.5)" style="opacity: 1;"><text class="legendtext" text-anchor="start" x="40" y="4.680000000000001" style="font-family: 'Lucida Grande', 'Open Sans', verdana, arial, sans-serif; font-size: 12px; fill: rgb(68, 68, 68); fill-opacity: 1; white-space: pre;">IggRb_R1_001 - Adapter 1</text><g class="layers" style="opacity: 1;"><g class="legendfill"/><g class="legendlines"><path class="js-line" d="M5,0h30" style="fill: none; stroke: rgb(144, 237, 125); stroke-opacity: 1; stroke-width: 2px;"/></g><g class="legendsymbols"><g class="legendpoints"/></g></g><rect class="legendtoggle" x="0" y="-9.5" width="199.125" height="19" style="fill: rgb(0, 0, 0); fill-opacity: 0;"/></g><g class="traces" transform="translate(0,489.5)" style="opacity: 1;"><text class="legendtext" text-anchor="start" x="40" y="4.680000000000001" style="font-family: 'Lucida Grande', 'Open Sans', verdana, arial, sans-serif; font-size: 12px; fill: rgb(68, 68, 68); fill-opacity: 1; white-space: pre;">IggRb_R2_001 - Adapter 1</text><g class="layers" style="opacity: 1;"><g class="legendfill"/><g class="legendlines"><path class="js-line" d="M5,0h30" style="fill: none; stroke: rgb(247, 163, 92); stroke-opacity: 1; stroke-width: 2px;"/></g><g class="legendsymbols"><g class="legendpoints"/></g></g><rect class="legendtoggle" x="0" y="-9.5" width="199.125" height="19" style="fill: rgb(0, 0, 0); fill-opacity: 0;"/></g><g class="traces" transform="translate(0,508.5)" style="opacity: 1;"><text class="legendtext" text-anchor="start" x="40" y="4.680000000000001" style="font-family: 'Lucida Grande', 'Open Sans', verdana, arial, sans-serif; font-size: 12px; fill: rgb(68, 68, 68); fill-opacity: 1; white-space: pre;">TEAD1-1_R1_001 - Adapter 1</text><g class="layers" style="opacity: 1;"><g class="legendfill"/><g class="legendlines"><path class="js-line" d="M5,0h30" style="fill: none; stroke: rgb(128, 133, 233); stroke-opacity: 1; stroke-width: 2px;"/></g><g class="legendsymbols"><g class="legendpoints"/></g></g><rect class="legendtoggle" x="0" y="-9.5" width="217.359375" height="19" style="fill: rgb(0, 0, 0); fill-opacity: 0;"/></g><g class="traces" transform="translate(0,527.5)" style="opacity: 1;"><text class="legendtext" text-anchor="start" x="40" y="4.680000000000001" style="font-family: 'Lucida Grande', 'Open Sans', verdana, arial, sans-serif; font-size: 12px; fill: rgb(68, 68, 68); fill-opacity: 1; white-space: pre;">TEAD1-1_R2_001 - Adapter 1</text><g class="layers" style="opacity: 1;"><g class="legendfill"/><g class="legendlines"><path class="js-line" d="M5,0h30" style="fill: none; stroke: rgb(241, 92, 128); stroke-opacity: 1; stroke-width: 2px;"/></g><g class="legendsymbols"><g class="legendpoints"/></g></g><rect class="legendtoggle" x="0" y="-9.5" width="217.359375" height="19" style="fill: rgb(0, 0, 0); fill-opacity: 0;"/></g><g class="traces" transform="translate(0,546.5)" style="opacity: 1;"><text class="legendtext" text-anchor="start" x="40" y="4.680000000000001" style="font-family: 'Lucida Grande', 'Open Sans', verdana, arial, sans-serif; font-size: 12px; fill: rgb(68, 68, 68); fill-opacity: 1; white-space: pre;">TEAD1-2_R1_001 - Adapter 1</text><g class="layers" style="opacity: 1;"><g class="legendfill"/><g class="legendlines"><path class="js-line" d="M5,0h30" style="fill: none; stroke: rgb(228, 211, 84); stroke-opacity: 1; stroke-width: 2px;"/></g><g class="legendsymbols"><g class="legendpoints"/></g></g><rect class="legendtoggle" x="0" y="-9.5" width="217.359375" height="19" style="fill: rgb(0, 0, 0); fill-opacity: 0;"/></g><g class="traces" transform="translate(0,565.5)" style="opacity: 1;"><text class="legendtext" text-anchor="start" x="40" y="4.680000000000001" style="font-family: 'Lucida Grande', 'Open Sans', verdana, arial, sans-serif; font-size: 12px; fill: rgb(68, 68, 68); fill-opacity: 1; white-space: pre;">TEAD1-2_R2_001 - Adapter 1</text><g class="layers" style="opacity: 1;"><g class="legendfill"/><g class="legendlines"><path class="js-line" d="M5,0h30" style="fill: none; stroke: rgb(43, 144, 143); stroke-opacity: 1; stroke-width: 2px;"/></g><g class="legendsymbols"><g class="legendpoints"/></g></g><rect class="legendtoggle" x="0" y="-9.5" width="217.359375" height="19" style="fill: rgb(0, 0, 0); fill-opacity: 0;"/></g><g class="traces" transform="translate(0,584.5)" style="opacity: 1;"><text class="legendtext" text-anchor="start" x="40" y="4.680000000000001" style="font-family: 'Lucida Grande', 'Open Sans', verdana, arial, sans-serif; font-size: 12px; fill: rgb(68, 68, 68); fill-opacity: 1; white-space: pre;">TEAD1-3_R1_001 - Adapter 1</text><g class="layers" style="opacity: 1;"><g class="legendfill"/><g class="legendlines"><path class="js-line" d="M5,0h30" style="fill: none; stroke: rgb(244, 91, 91); stroke-opacity: 1; stroke-width: 2px;"/></g><g class="legendsymbols"><g class="legendpoints"/></g></g><rect class="legendtoggle" x="0" y="-9.5" width="217.359375" height="19" style="fill: rgb(0, 0, 0); fill-opacity: 0;"/></g><g class="traces" transform="translate(0,603.5)" style="opacity: 1;"><text class="legendtext" text-anchor="start" x="40" y="4.680000000000001" style="font-family: 'Lucida Grande', 'Open Sans', verdana, arial, sans-serif; font-size: 12px; fill: rgb(68, 68, 68); fill-opacity: 1; white-space: pre;">TEAD1-3_R2_001 - Adapter 1</text><g class="layers" style="opacity: 1;"><g class="legendfill"/><g class="legendlines"><path class="js-line" d="M5,0h30" style="fill: none; stroke: rgb(145, 232, 225); stroke-opacity: 1; stroke-width: 2px;"/></g><g class="legendsymbols"><g class="legendpoints"/></g></g><rect class="legendtoggle" x="0" y="-9.5" width="217.359375" height="19" style="fill: rgb(0, 0, 0); fill-opacity: 0;"/></g><g class="traces" transform="translate(0,622.5)" style="opacity: 1;"><text class="legendtext" text-anchor="start" x="40" y="4.680000000000001" style="font-family: 'Lucida Grande', 'Open Sans', verdana, arial, sans-serif; font-size: 12px; fill: rgb(68, 68, 68); fill-opacity: 1; white-space: pre;">TES-1_R1_001 - Adapter 1</text><g class="layers" style="opacity: 1;"><g class="legendfill"/><g class="legendlines"><path class="js-line" d="M5,0h30" style="fill: none; stroke: rgb(124, 181, 236); stroke-opacity: 1; stroke-width: 2px;"/></g><g class="legendsymbols"><g class="legendpoints"/></g></g><rect class="legendtoggle" x="0" y="-9.5" width="199.890625" height="19" style="fill: rgb(0, 0, 0); fill-opacity: 0;"/></g><g class="traces" transform="translate(0,641.5)" style="opacity: 1;"><text class="legendtext" text-anchor="start" x="40" y="4.680000000000001" style="font-family: 'Lucida Grande', 'Open Sans', verdana, arial, sans-serif; font-size: 12px; fill: rgb(68, 68, 68); fill-opacity: 1; white-space: pre;">TES-1_R2_001 - Adapter 1</text><g class="layers" style="opacity: 1;"><g class="legendfill"/><g class="legendlines"><path class="js-line" d="M5,0h30" style="fill: none; stroke: rgb(67, 67, 72); stroke-opacity: 1; stroke-width: 2px;"/></g><g class="legendsymbols"><g class="legendpoints"/></g></g><rect class="legendtoggle" x="0" y="-9.5" width="199.890625" height="19" style="fill: rgb(0, 0, 0); fill-opacity: 0;"/></g><g class="traces" transform="translate(0,660.5)" style="opacity: 1;"><text class="legendtext" text-anchor="start" x="40" y="4.680000000000001" style="font-family: 'Lucida Grande', 'Open Sans', verdana, arial, sans-serif; font-size: 12px; fill: rgb(68, 68, 68); fill-opacity: 1; white-space: pre;">TES-2_R1_001 - Adapter 1</text><g class="layers" style="opacity: 1;"><g class="legendfill"/><g class="legendlines"><path class="js-line" d="M5,0h30" style="fill: none; stroke: rgb(144, 237, 125); stroke-opacity: 1; stroke-width: 2px;"/></g><g class="legendsymbols"><g class="legendpoints"/></g></g><rect class="legendtoggle" x="0" y="-9.5" width="199.890625" height="19" style="fill: rgb(0, 0, 0); fill-opacity: 0;"/></g><g class="traces" transform="translate(0,679.5)" style="opacity: 1;"><text class="legendtext" text-anchor="start" x="40" y="4.680000000000001" style="font-family: 'Lucida Grande', 'Open Sans', verdana, arial, sans-serif; font-size: 12px; fill: rgb(68, 68, 68); fill-opacity: 1; white-space: pre;">TES-2_R2_001 - Adapter 1</text><g class="layers" style="opacity: 1;"><g class="legendfill"/><g class="legendlines"><path class="js-line" d="M5,0h30" style="fill: none; stroke: rgb(247, 163, 92); stroke-opacity: 1; stroke-width: 2px;"/></g><g class="legendsymbols"><g class="legendpoints"/></g></g><rect class="legendtoggle" x="0" y="-9.5" width="199.890625" height="19" style="fill: rgb(0, 0, 0); fill-opacity: 0;"/></g><g class="traces" transform="translate(0,698.5)" style="opacity: 1;"><text class="legendtext" text-anchor="start" x="40" y="4.680000000000001" style="font-family: 'Lucida Grande', 'Open Sans', verdana, arial, sans-serif; font-size: 12px; fill: rgb(68, 68, 68); fill-opacity: 1; white-space: pre;">TES-3_R1_001 - Adapter 1</text><g class="layers" style="opacity: 1;"><g class="legendfill"/><g class="legendlines"><path class="js-line" d="M5,0h30" style="fill: none; stroke: rgb(128, 133, 233); stroke-opacity: 1; stroke-width: 2px;"/></g><g class="legendsymbols"><g class="legendpoints"/></g></g><rect class="legendtoggle" x="0" y="-9.5" width="199.890625" height="19" style="fill: rgb(0, 0, 0); fill-opacity: 0;"/></g><g class="traces" transform="translate(0,717.5)" style="opacity: 1;"><text class="legendtext" text-anchor="start" x="40" y="4.680000000000001" style="font-family: 'Lucida Grande', 'Open Sans', verdana, arial, sans-serif; font-size: 12px; fill: rgb(68, 68, 68); fill-opacity: 1; white-space: pre;">TES-3_R2_001 - Adapter 1</text><g class="layers" style="opacity: 1;"><g class="legendfill"/><g class="legendlines"><path class="js-line" d="M5,0h30" style="fill: none; stroke: rgb(241, 92, 128); stroke-opacity: 1; stroke-width: 2px;"/></g><g class="legendsymbols"><g class="legendpoints"/></g></g><rect class="legendtoggle" x="0" y="-9.5" width="199.890625" height="19" style="fill: rgb(0, 0, 0); fill-opacity: 0;"/></g><g class="traces" transform="translate(0,736.5)" style="opacity: 1;"><text class="legendtext" text-anchor="start" x="40" y="4.680000000000001" style="font-family: 'Lucida Grande', 'Open Sans', verdana, arial, sans-serif; font-size: 12px; fill: rgb(68, 68, 68); fill-opacity: 1; white-space: pre;">TESmut-1_R1_001 - Adapter 1</text><g class="layers" style="opacity: 1;"><g class="legendfill"/><g class="legendlines"><path class="js-line" d="M5,0h30" style="fill: none; stroke: rgb(228, 211, 84); stroke-opacity: 1; stroke-width: 2px;"/></g><g class="legendsymbols"><g class="legendpoints"/></g></g><rect class="legendtoggle" x="0" y="-9.5" width="223.890625" height="19" style="fill: rgb(0, 0, 0); fill-opacity: 0;"/></g><g class="traces" transform="translate(0,755.5)" style="opacity: 1;"><text class="legendtext" text-anchor="start" x="40" y="4.680000000000001" style="font-family: 'Lucida Grande', 'Open Sans', verdana, arial, sans-serif; font-size: 12px; fill: rgb(68, 68, 68); fill-opacity: 1; white-space: pre;">TESmut-1_R2_001 - Adapter 1</text><g class="layers" style="opacity: 1;"><g class="legendfill"/><g class="legendlines"><path class="js-line" d="M5,0h30" style="fill: none; stroke: rgb(43, 144, 143); stroke-opacity: 1; stroke-width: 2px;"/></g><g class="legendsymbols"><g class="legendpoints"/></g></g><rect class="legendtoggle" x="0" y="-9.5" width="223.890625" height="19" style="fill: rgb(0, 0, 0); fill-opacity: 0;"/></g><g class="traces" transform="translate(0,774.5)" style="opacity: 1;"><text class="legendtext" text-anchor="start" x="40" y="4.680000000000001" style="font-family: 'Lucida Grande', 'Open Sans', verdana, arial, sans-serif; font-size: 12px; fill: rgb(68, 68, 68); fill-opacity: 1; white-space: pre;">TESmut-2_R1_001 - Adapter 1</text><g class="layers" style="opacity: 1;"><g class="legendfill"/><g class="legendlines"><path class="js-line" d="M5,0h30" style="fill: none; stroke: rgb(244, 91, 91); stroke-opacity: 1; stroke-width: 2px;"/></g><g class="legendsymbols"><g class="legendpoints"/></g></g><rect class="legendtoggle" x="0" y="-9.5" width="223.890625" height="19" style="fill: rgb(0, 0, 0); fill-opacity: 0;"/></g><g class="traces" transform="translate(0,793.5)" style="opacity: 1;"><text class="legendtext" text-anchor="start" x="40" y="4.680000000000001" style="font-family: 'Lucida Grande', 'Open Sans', verdana, arial, sans-serif; font-size: 12px; fill: rgb(68, 68, 68); fill-opacity: 1; white-space: pre;">TESmut-2_R2_001 - Adapter 1</text><g class="layers" style="opacity: 1;"><g class="legendfill"/><g class="legendlines"><path class="js-line" d="M5,0h30" style="fill: none; stroke: rgb(145, 232, 225); stroke-opacity: 1; stroke-width: 2px;"/></g><g class="legendsymbols"><g class="legendpoints"/></g></g><rect class="legendtoggle" x="0" y="-9.5" width="223.890625" height="19" style="fill: rgb(0, 0, 0); fill-opacity: 0;"/></g><g class="traces" transform="translate(0,812.5)" style="opacity: 1;"><text class="legendtext" text-anchor="start" x="40" y="4.680000000000001" style="font-family: 'Lucida Grande', 'Open Sans', verdana, arial, sans-serif; font-size: 12px; fill: rgb(68, 68, 68); fill-opacity: 1; white-space: pre;">TESmut-3_R1_001 - Adapter 1</text><g class="layers" style="opacity: 1;"><g class="legendfill"/><g class="legendlines"><path class="js-line" d="M5,0h30" style="fill: none; stroke: rgb(124, 181, 236); stroke-opacity: 1; stroke-width: 2px;"/></g><g class="legendsymbols"><g class="legendpoints"/></g></g><rect class="legendtoggle" x="0" y="-9.5" width="223.890625" height="19" style="fill: rgb(0, 0, 0); fill-opacity: 0;"/></g><g class="traces" transform="translate(0,831.5)" style="opacity: 1;"><text class="legendtext" text-anchor="start" x="40" y="4.680000000000001" style="font-family: 'Lucida Grande', 'Open Sans', verdana, arial, sans-serif; font-size: 12px; fill: rgb(68, 68, 68); fill-opacity: 1; white-space: pre;">TESmut-3_R2_001 - Adapter 1</text><g class="layers" style="opacity: 1;"><g class="legendfill"/><g class="legendlines"><path class="js-line" d="M5,0h30" style="fill: none; stroke: rgb(67, 67, 72); stroke-opacity: 1; stroke-width: 2px;"/></g><g class="legendsymbols"><g class="legendpoints"/></g></g><rect class="legendtoggle" x="0" y="-9.5" width="223.890625" height="19" style="fill: rgb(0, 0, 0); fill-opacity: 0;"/></g></g></g><rect class="scrollbar" rx="20" ry="3" width="0" height="0" style="fill: rgb(128, 139, 164); fill-opacity: 1;" x="0" y="0"/></g><g class="g-gtitle"><text class="gtitle" x="300" y="25" text-anchor="middle" dy="0em" style="opacity: 1; font-family: 'Lucida Grande', 'Open Sans', verdana, arial, sans-serif; font-size: 20px; fill: rgb(68, 68, 68); fill-opacity: 1; white-space: pre;"><tspan class="line" dy="0em" x="300" y="25">Cutadapt: Lengths of Trimmed Sequences (3' end)</tspan><tspan class="line" dy="1.3em" x="300" y="25">​<tspan style="font-size:70%" dy="-0.6em">Counts, 44 samples</tspan><tspan dy="0.42em">​</tspan></tspan></text></g><g class="g-xtitle"><text class="xtitle" x="320" y="361" text-anchor="middle" style="opacity: 0.3; font-family: 'Lucida Grande', 'Open Sans', verdana, arial, sans-serif; font-size: 14px; fill: rgb(0, 0, 0); fill-opacity: 1; white-space: pre;">Length Trimmed (bp)</text></g><g class="g-ytitle"><text class="ytitle" transform="rotate(-90,22,179.5)" x="22" y="179.5" text-anchor="middle" style="opacity: 0.3; font-family: 'Lucida Grande', 'Open Sans', verdana, arial, sans-serif; font-size: 14px; fill: rgb(0, 0, 0); fill-opacity: 1; white-space: pre;">Count</text></g></g></svg>