<svg class="main-svg" xmlns="http://www.w3.org/2000/svg" xmlns:xlink="http://www.w3.org/1999/xlink" width="1200" height="546" style="" viewBox="0 0 600 273"><rect x="0" y="0" width="600" height="273" style="fill: rgb(255, 255, 255); fill-opacity: 1;"/><defs id="defs-eb48a9"><g class="clips"><clipPath id="clipeb48a9xyplot" class="plotclip"><rect width="505" height="42.230769230769226"/></clipPath><clipPath id="clipeb48a9x2y2plot" class="plotclip"><rect width="505" height="42.230769230769226"/></clipPath><clipPath id="clipeb48a9x3y3plot" class="plotclip"><rect width="505" height="42.230769230769226"/></clipPath><clipPath class="axesclip" id="clipeb48a9x"><rect x="80" y="0" width="505" height="273"/></clipPath><clipPath class="axesclip" id="clipeb48a9y"><rect x="0" y="50.00000000000002" width="600" height="42.230769230769226"/></clipPath><clipPath class="axesclip" id="clipeb48a9xy"><rect x="80" y="50.00000000000002" width="505" height="42.230769230769226"/></clipPath><clipPath class="axesclip" id="clipeb48a9y2"><rect x="0" y="120.3846153846154" width="600" height="42.230769230769226"/></clipPath><clipPath class="axesclip" id="clipeb48a9xy2"><rect x="80" y="120.3846153846154" width="505" height="42.230769230769226"/></clipPath><clipPath class="axesclip" id="clipeb48a9y3"><rect x="0" y="190.76923076923077" width="600" height="42.230769230769226"/></clipPath><clipPath class="axesclip" id="clipeb48a9xy3"><rect x="80" y="190.76923076923077" width="505" height="42.230769230769226"/></clipPath><clipPath class="axesclip" id="clipeb48a9x2"><rect x="80" y="0" width="505" height="273"/></clipPath><clipPath class="axesclip" id="clipeb48a9x2y"><rect x="80" y="50.00000000000002" width="505" height="42.230769230769226"/></clipPath><clipPath class="axesclip" id="clipeb48a9x2y2"><rect x="80" y="120.3846153846154" width="505" height="42.230769230769226"/></clipPath><clipPath class="axesclip" id="clipeb48a9x2y3"><rect x="80" y="190.76923076923077" width="505" height="42.230769230769226"/></clipPath><clipPath class="axesclip" id="clipeb48a9x3"><rect x="80" y="0" width="505" height="273"/></clipPath><clipPath class="axesclip" id="clipeb48a9x3y"><rect x="80" y="50.00000000000002" width="505" height="42.230769230769226"/></clipPath><clipPath class="axesclip" id="clipeb48a9x3y2"><rect x="80" y="120.3846153846154" width="505" height="42.230769230769226"/></clipPath><clipPath class="axesclip" id="clipeb48a9x3y3"><rect x="80" y="190.76923076923077" width="505" height="42.230769230769226"/></clipPath></g><g class="gradients"/><g class="patterns"/></defs><g class="bglayer"/><g class="layer-below"><g class="imagelayer"/><g class="shapelayer"/></g><g class="cartesianlayer"><g class="subplot xy"><g class="layer-subplot"><g class="shapelayer"/><g class="imagelayer"/></g><g class="minor-gridlayer"><g class="x"/><g class="y"/></g><g class="gridlayer"><g class="x"><path class="xgrid crisp" transform="translate(207.5,0)" d="M0,50.00000000000002v42.230769230769226" style="stroke: rgb(0, 0, 0); stroke-opacity: 0.1; stroke-width: 1px;"/><path class="xgrid crisp" transform="translate(332.49,0)" d="M0,50.00000000000002v42.230769230769226" style="stroke: rgb(0, 0, 0); stroke-opacity: 0.1; stroke-width: 1px;"/><path class="xgrid crisp" transform="translate(457.49,0)" d="M0,50.00000000000002v42.230769230769226" style="stroke: rgb(0, 0, 0); stroke-opacity: 0.1; stroke-width: 1px;"/><path class="xgrid crisp" transform="translate(582.49,0)" d="M0,50.00000000000002v42.230769230769226" style="stroke: rgb(0, 0, 0); stroke-opacity: 0.1; stroke-width: 1px;"/></g><g class="y"/></g><g class="zerolinelayer"><path class="xzl zl crisp" transform="translate(82.5,0)" d="M0,50.00000000000002v42.230769230769226" style="stroke: rgb(0, 0, 0); stroke-opacity: 0.1; stroke-width: 1px;"/><path class="yzl zl crisp" transform="translate(0,71.12000000000002)" d="M80,0h505" style="stroke: rgb(0, 0, 0); stroke-opacity: 0.1; stroke-width: 1px;"/></g><g class="layer-between"><g class="shapelayer"/><g class="imagelayer"/></g><path class="xlines-below"/><path class="ylines-below"/><g class="overlines-below"/><g class="xaxislayer-below"/><g class="yaxislayer-below"/><g class="overaxes-below"/><g class="overplot"><g class="xy" transform="translate(80,50.00000000000002)" clip-path="url(#clipeb48a9xyplot)"><g class="violinlayer mlayer"><g class="trace violins" style="opacity: 0.5;"><path class="violin" d="M-226.97,19.22Q-188.93,18.31 -169.92,17.69C-150.9,17.07 -131.88,16.32 -112.87,15.52C-93.85,14.72 -74.84,13.77 -55.82,12.87C-36.8,11.97 -17.79,10.97 1.23,10.13C20.24,9.29 39.25,8.45 58.27,7.85C77.28,7.25 96.3,6.77 115.32,6.52C134.34,6.27 153.35,6.23 172.37,6.33C191.39,6.43 210.4,6.78 229.42,7.13C248.44,7.48 267.45,7.99 286.47,8.43C305.49,8.87 324.5,9.36 343.52,9.78C362.53,10.19 381.55,10.57 400.56,10.92C419.58,11.27 438.59,11.55 457.61,11.87C476.63,12.19 495.64,12.49 514.66,12.85C533.68,13.21 552.69,13.6 571.71,14.03C590.73,14.46 609.74,14.95 628.76,15.43C647.78,15.91 666.79,16.44 685.81,16.92C704.82,17.4 723.84,17.88 742.85,18.29C761.87,18.7 780.88,19.08 799.9,19.39Q818.92,19.7 856.95,20.17L856.95,22.06Q818.92,22.53 799.9,22.84C780.88,23.15 761.87,23.53 742.85,23.94C723.84,24.35 704.82,24.83 685.81,25.31C666.79,25.79 647.78,26.32 628.76,26.8C609.74,27.28 590.73,27.77 571.71,28.2C552.69,28.63 533.68,29.02 514.66,29.38C495.64,29.74 476.63,30.04 457.61,30.36C438.59,30.68 419.58,30.96 400.56,31.31C381.55,31.66 362.53,32.04 343.52,32.45C324.5,32.87 305.49,33.36 286.47,33.8C267.45,34.24 248.44,34.76 229.42,35.11C210.4,35.46 191.39,35.8 172.37,35.9C153.35,36 134.34,35.96 115.32,35.71C96.3,35.46 77.28,34.98 58.27,34.38C39.25,33.78 20.24,32.94 1.23,32.1C-17.79,31.26 -36.8,30.26 -55.82,29.36C-74.84,28.46 -93.85,27.51 -112.87,26.71C-131.88,25.91 -150.9,25.16 -169.92,24.54Q-188.93,23.92 -226.97,23.01Z" style="vector-effect: none; stroke-width: 2px; stroke: rgb(181, 181, 181); stroke-opacity: 1; fill: rgb(181, 181, 181); fill-opacity: 1;"/><path class="box" d="M128.5,24.81V17.42M127.5,24.81V17.42H408.74V24.81ZM127.5,21.12H127.5M408.74,21.12H502.49" style="vector-effect: non-scaling-stroke; stroke-width: 2px; stroke: rgb(181, 181, 181); stroke-opacity: 1; fill: rgb(181, 181, 181); fill-opacity: 1;"/><path class="mean" d="M252.49,24.81V17.42" style="fill: none; vector-effect: non-scaling-stroke; stroke-width: 2px; stroke-dasharray: 4px, 2px; stroke: rgb(181, 181, 181); stroke-opacity: 1;"/></g></g><g class="scatterlayer mlayer"><g class="trace scatter trace543c6c" style="stroke-miterlimit: 2; opacity: 1;"><g class="fills"/><g class="errorbars"/><g class="lines"/><g class="points"><path class="point" transform="translate(127.5,21.12)" d="M2,0A2,2 0 1,1 0,-2A2,2 0 0,1 2,0Z" style="opacity: 1; stroke-width: 0px; fill: rgb(11, 121, 230); fill-opacity: 1;"/></g><g class="text"/></g><g class="trace scatter trace43095a" style="stroke-miterlimit: 2; opacity: 1;"><g class="fills"/><g class="errorbars"/><g class="lines"/><g class="points"><path class="point" transform="translate(127.5,21.12)" d="M2,0A2,2 0 1,1 0,-2A2,2 0 0,1 2,0Z" style="opacity: 1; stroke-width: 0px; fill: rgb(11, 121, 230); fill-opacity: 1;"/></g><g class="text"/></g><g class="trace scatter trace074f09" style="stroke-miterlimit: 2; opacity: 1;"><g class="fills"/><g class="errorbars"/><g class="lines"/><g class="points"><path class="point" transform="translate(502.49,21.12)" d="M2,0A2,2 0 1,1 0,-2A2,2 0 0,1 2,0Z" style="opacity: 1; stroke-width: 0px; fill: rgb(11, 121, 230); fill-opacity: 1;"/></g><g class="text"/></g></g></g></g><g class="zerolinelayer-above"/><path class="xlines-above crisp" d="M0,0" style="fill: none;"/><path class="ylines-above crisp" d="M0,0" style="fill: none;"/><g class="overlines-above"/><g class="xaxislayer-above"><g class="xtick"><text text-anchor="middle" x="0" y="102.23076923076925" transform="translate(82.5,0)" style="font-family: 'Lucida Grande', 'Open Sans', verdana, arial, sans-serif; font-size: 9px; fill: rgb(0, 0, 0); fill-opacity: 0.5; white-space: pre;">0</text></g><g class="xtick"><text text-anchor="middle" x="0" y="102.23076923076925" style="font-family: 'Lucida Grande', 'Open Sans', verdana, arial, sans-serif; font-size: 9px; fill: rgb(0, 0, 0); fill-opacity: 0.5; white-space: pre;" transform="translate(207.5,0)">1</text></g><g class="xtick"><text text-anchor="middle" x="0" y="102.23076923076925" style="font-family: 'Lucida Grande', 'Open Sans', verdana, arial, sans-serif; font-size: 9px; fill: rgb(0, 0, 0); fill-opacity: 0.5; white-space: pre;" transform="translate(332.49,0)">2</text></g><g class="xtick"><text text-anchor="middle" x="0" y="102.23076923076925" style="font-family: 'Lucida Grande', 'Open Sans', verdana, arial, sans-serif; font-size: 9px; fill: rgb(0, 0, 0); fill-opacity: 0.5; white-space: pre;" transform="translate(457.49,0)">3</text></g><g class="xtick"><text text-anchor="middle" x="0" y="102.23076923076925" style="font-family: 'Lucida Grande', 'Open Sans', verdana, arial, sans-serif; font-size: 9px; fill: rgb(0, 0, 0); fill-opacity: 0.5; white-space: pre;" transform="translate(582.49,0)">4</text></g></g><g class="yaxislayer-above"><g class="ytick"><text text-anchor="end" x="79" y="3.15" transform="translate(0,71.12000000000002)" style="font-family: 'Lucida Grande', 'Open Sans', verdana, arial, sans-serif; font-size: 9px; fill: rgb(0, 0, 0); fill-opacity: 0.5; white-space: pre;">Reports  </text></g></g><g class="overaxes-above"/></g><g class="subplot x2y2"><g class="layer-subplot"><g class="shapelayer"/><g class="imagelayer"/></g><g class="minor-gridlayer"><g class="x2"/><g class="y2"/></g><g class="gridlayer"><g class="x2"><path class="x2grid crisp" transform="translate(160.94,0)" d="M0,120.3846153846154v42.230769230769226" style="stroke: rgb(0, 0, 0); stroke-opacity: 0.1; stroke-width: 1px;"/><path class="x2grid crisp" transform="translate(239.37,0)" d="M0,120.3846153846154v42.230769230769226" style="stroke: rgb(0, 0, 0); stroke-opacity: 0.1; stroke-width: 1px;"/><path class="x2grid crisp" transform="translate(317.81,0)" d="M0,120.3846153846154v42.230769230769226" style="stroke: rgb(0, 0, 0); stroke-opacity: 0.1; stroke-width: 1px;"/><path class="x2grid crisp" transform="translate(396.25,0)" d="M0,120.3846153846154v42.230769230769226" style="stroke: rgb(0, 0, 0); stroke-opacity: 0.1; stroke-width: 1px;"/><path class="x2grid crisp" transform="translate(474.69,0)" d="M0,120.3846153846154v42.230769230769226" style="stroke: rgb(0, 0, 0); stroke-opacity: 0.1; stroke-width: 1px;"/><path class="x2grid crisp" transform="translate(553.12,0)" d="M0,120.3846153846154v42.230769230769226" style="stroke: rgb(0, 0, 0); stroke-opacity: 0.1; stroke-width: 1px;"/></g><g class="y2"><path class="y2grid crisp" transform="translate(0,141.5046153846154)" d="M80,0h505" style="stroke: rgb(0, 0, 0); stroke-opacity: 0.1; stroke-width: 1px;"/></g></g><g class="zerolinelayer"><path class="x2zl zl crisp" transform="translate(82.5,0)" d="M0,120.3846153846154v42.230769230769226" style="stroke: rgb(0, 0, 0); stroke-opacity: 0.1; stroke-width: 1px;"/></g><g class="layer-between"><g class="shapelayer"/><g class="imagelayer"/></g><path class="xlines-below"/><path class="ylines-below"/><g class="overlines-below"/><g class="xaxislayer-below"/><g class="yaxislayer-below"/><g class="overaxes-below"/><g class="overplot"><g class="x2y2" transform="translate(80,120.3846153846154)" clip-path="url(#clipeb48a9x2y2plot)"><g class="violinlayer mlayer"><g class="trace violins" style="opacity: 0.5;"><path class="violin" d="M-321.97,19.33Q-278.99,18.46 -257.5,17.86C-236.01,17.26 -214.51,16.53 -193.02,15.75C-171.53,14.96 -150.03,14.04 -128.54,13.15C-107.05,12.26 -85.55,11.26 -64.06,10.41C-42.57,9.56 -21.08,8.7 0.42,8.07C21.91,7.44 43.41,6.92 64.9,6.63C86.39,6.34 107.89,6.26 129.38,6.33C150.87,6.4 172.36,6.71 193.85,7.03C215.34,7.36 236.84,7.85 258.33,8.28C279.82,8.71 301.32,9.21 322.81,9.63C344.3,10.05 365.8,10.44 387.29,10.8C408.78,11.16 430.28,11.46 451.77,11.8C473.26,12.14 494.76,12.45 516.25,12.82C537.74,13.19 559.24,13.59 580.73,14.03C602.22,14.47 623.71,14.96 645.2,15.44C666.69,15.93 688.19,16.46 709.68,16.94C731.17,17.42 752.67,17.9 774.16,18.31C795.65,18.72 817.15,19.09 838.64,19.4Q860.13,19.71 903.12,20.17L903.12,22.06Q860.13,22.52 838.64,22.83C817.15,23.14 795.65,23.51 774.16,23.92C752.67,24.33 731.17,24.82 709.68,25.3C688.19,25.78 666.69,26.31 645.2,26.79C623.71,27.27 602.22,27.76 580.73,28.2C559.24,28.64 537.74,29.04 516.25,29.41C494.76,29.78 473.26,30.09 451.77,30.43C430.28,30.77 408.78,31.08 387.29,31.44C365.8,31.8 344.3,32.18 322.81,32.6C301.32,33.02 279.82,33.52 258.33,33.95C236.84,34.38 215.34,34.87 193.85,35.2C172.36,35.52 150.87,35.83 129.38,35.9C107.89,35.97 86.39,35.89 64.9,35.6C43.41,35.31 21.91,34.79 0.42,34.16C-21.08,33.53 -42.57,32.67 -64.06,31.82C-85.55,30.97 -107.05,29.97 -128.54,29.08C-150.03,28.19 -171.53,27.27 -193.02,26.48C-214.51,25.7 -236.01,24.97 -257.5,24.37Q-278.99,23.77 -321.97,22.9Z" style="vector-effect: none; stroke-width: 2px; stroke: rgb(181, 181, 181); stroke-opacity: 1; fill: rgb(181, 181, 181); fill-opacity: 1;"/><path class="box" d="M89.44,24.81V17.42M81.35,24.81V17.42H399.23V24.81ZM81.35,21.12H78.66M399.23,21.12H502.49" style="vector-effect: non-scaling-stroke; stroke-width: 2px; stroke: rgb(181, 181, 181); stroke-opacity: 1; fill: rgb(181, 181, 181); fill-opacity: 1;"/><path class="mean" d="M223.53,24.81V17.42" style="fill: none; vector-effect: non-scaling-stroke; stroke-width: 2px; stroke-dasharray: 4px, 2px; stroke: rgb(181, 181, 181); stroke-opacity: 1;"/></g></g><g class="scatterlayer mlayer"><g class="trace scatter trace70c8ff" style="stroke-miterlimit: 2; opacity: 1;"><g class="fills"/><g class="errorbars"/><g class="lines"/><g class="points"><path class="point" transform="translate(89.44,21.12)" d="M2,0A2,2 0 1,1 0,-2A2,2 0 0,1 2,0Z" style="opacity: 1; stroke-width: 0px; fill: rgb(11, 121, 230); fill-opacity: 1;"/></g><g class="text"/></g><g class="trace scatter tracee8c438" style="stroke-miterlimit: 2; opacity: 1;"><g class="fills"/><g class="errorbars"/><g class="lines"/><g class="points"><path class="point" transform="translate(78.66,21.12)" d="M2,0A2,2 0 1,1 0,-2A2,2 0 0,1 2,0Z" style="opacity: 1; stroke-width: 0px; fill: rgb(11, 121, 230); fill-opacity: 1;"/></g><g class="text"/></g><g class="trace scatter tracef1bc75" style="stroke-miterlimit: 2; opacity: 1;"><g class="fills"/><g class="errorbars"/><g class="lines"/><g class="points"><path class="point" transform="translate(502.49,21.12)" d="M2,0A2,2 0 1,1 0,-2A2,2 0 0,1 2,0Z" style="opacity: 1; stroke-width: 0px; fill: rgb(11, 121, 230); fill-opacity: 1;"/></g><g class="text"/></g></g></g></g><g class="zerolinelayer-above"/><path class="xlines-above crisp" d="M0,0" style="fill: none;"/><path class="ylines-above crisp" d="M0,0" style="fill: none;"/><g class="overlines-above"/><g class="xaxislayer-above"><g class="x2tick"><text text-anchor="middle" x="0" y="172.61538461538464" transform="translate(82.5,0)" style="font-family: 'Lucida Grande', 'Open Sans', verdana, arial, sans-serif; font-size: 9px; fill: rgb(0, 0, 0); fill-opacity: 0.5; white-space: pre;">0</text></g><g class="x2tick"><text text-anchor="middle" x="0" y="172.61538461538464" style="font-family: 'Lucida Grande', 'Open Sans', verdana, arial, sans-serif; font-size: 9px; fill: rgb(0, 0, 0); fill-opacity: 0.5; white-space: pre;" transform="translate(160.94,0)">100k</text></g><g class="x2tick"><text text-anchor="middle" x="0" y="172.61538461538464" style="font-family: 'Lucida Grande', 'Open Sans', verdana, arial, sans-serif; font-size: 9px; fill: rgb(0, 0, 0); fill-opacity: 0.5; white-space: pre;" transform="translate(239.37,0)">200k</text></g><g class="x2tick"><text text-anchor="middle" x="0" y="172.61538461538464" style="font-family: 'Lucida Grande', 'Open Sans', verdana, arial, sans-serif; font-size: 9px; fill: rgb(0, 0, 0); fill-opacity: 0.5; white-space: pre;" transform="translate(317.81,0)">300k</text></g><g class="x2tick"><text text-anchor="middle" x="0" y="172.61538461538464" style="font-family: 'Lucida Grande', 'Open Sans', verdana, arial, sans-serif; font-size: 9px; fill: rgb(0, 0, 0); fill-opacity: 0.5; white-space: pre;" transform="translate(396.25,0)">400k</text></g><g class="x2tick"><text text-anchor="middle" x="0" y="172.61538461538464" style="font-family: 'Lucida Grande', 'Open Sans', verdana, arial, sans-serif; font-size: 9px; fill: rgb(0, 0, 0); fill-opacity: 0.5; white-space: pre;" transform="translate(474.69,0)">500k</text></g><g class="x2tick"><text text-anchor="middle" x="0" y="172.61538461538464" style="font-family: 'Lucida Grande', 'Open Sans', verdana, arial, sans-serif; font-size: 9px; fill: rgb(0, 0, 0); fill-opacity: 0.5; white-space: pre;" transform="translate(553.12,0)">600k</text></g></g><g class="yaxislayer-above"><g class="y2tick"><text text-anchor="end" x="79" y="3.15" transform="translate(0,141.5046153846154)" style="font-family: 'Lucida Grande', 'Open Sans', verdana, arial, sans-serif; font-size: 9px; fill: rgb(0, 0, 0); fill-opacity: 0.5; white-space: pre;">Occurrences  </text></g></g><g class="overaxes-above"/></g><g class="subplot x3y3"><g class="layer-subplot"><g class="shapelayer"/><g class="imagelayer"/></g><g class="minor-gridlayer"><g class="x3"/><g class="y3"/></g><g class="gridlayer"><g class="x3"><path class="x3grid crisp" transform="translate(182.5,0)" d="M0,190.76923076923077v42.230769230769226" style="stroke: rgb(0, 0, 0); stroke-opacity: 0.1; stroke-width: 1px;"/><path class="x3grid crisp" transform="translate(282.49,0)" d="M0,190.76923076923077v42.230769230769226" style="stroke: rgb(0, 0, 0); stroke-opacity: 0.1; stroke-width: 1px;"/><path class="x3grid crisp" transform="translate(382.49,0)" d="M0,190.76923076923077v42.230769230769226" style="stroke: rgb(0, 0, 0); stroke-opacity: 0.1; stroke-width: 1px;"/><path class="x3grid crisp" transform="translate(482.49,0)" d="M0,190.76923076923077v42.230769230769226" style="stroke: rgb(0, 0, 0); stroke-opacity: 0.1; stroke-width: 1px;"/><path class="x3grid crisp" transform="translate(582.49,0)" d="M0,190.76923076923077v42.230769230769226" style="stroke: rgb(0, 0, 0); stroke-opacity: 0.1; stroke-width: 1px;"/></g><g class="y3"><path class="y3grid crisp" transform="translate(0,211.88923076923078)" d="M80,0h505" style="stroke: rgb(0, 0, 0); stroke-opacity: 0.1; stroke-width: 1px;"/></g></g><g class="zerolinelayer"><path class="x3zl zl crisp" transform="translate(82.5,0)" d="M0,190.76923076923077v42.230769230769226" style="stroke: rgb(0, 0, 0); stroke-opacity: 0.1; stroke-width: 1px;"/></g><g class="layer-between"><g class="shapelayer"/><g class="imagelayer"/></g><path class="xlines-below"/><path class="ylines-below"/><g class="overlines-below"/><g class="xaxislayer-below"/><g class="yaxislayer-below"/><g class="overaxes-below"/><g class="overplot"><g class="x3y3" transform="translate(80,190.76923076923077)" clip-path="url(#clipeb48a9x3y3plot)"><g class="violinlayer mlayer"><g class="trace violins" style="opacity: 0.5;"><path class="violin" d="M2.44,19.33Q2.46,18.39 2.46,17.86C2.47,17.22 2.47,16.49 2.47,15.75C2.47,14.93 2.48,14.03 2.48,13.15C2.48,12.25 2.49,11.29 2.49,10.41C2.49,9.6 2.5,8.76 2.5,8.07C2.5,7.53 2.5,6.93 2.51,6.63C2.51,6.49 2.52,6.33 2.52,6.33C2.52,6.33 2.53,6.76 2.53,7.03C2.53,7.39 2.54,7.86 2.54,8.28C2.54,8.72 2.54,9.2 2.55,9.63C2.55,10.03 2.56,10.43 2.57,10.8C2.57,11.15 2.58,11.47 2.58,11.8C2.58,12.14 2.59,12.47 2.59,12.82C2.59,13.21 2.6,13.61 2.6,14.03C2.6,14.48 2.61,14.96 2.61,15.44C2.61,15.93 2.62,16.45 2.62,16.94C2.62,17.41 2.63,17.88 2.63,18.31C2.63,18.69 2.64,19.07 2.64,19.4Q2.64,19.68 2.65,20.17L2.65,22.06Q2.64,22.55 2.64,22.83C2.64,23.16 2.63,23.54 2.63,23.92C2.63,24.35 2.62,24.83 2.62,25.3C2.62,25.79 2.61,26.3 2.61,26.79C2.61,27.27 2.6,27.75 2.6,28.2C2.6,28.62 2.59,29.02 2.59,29.41C2.59,29.76 2.58,30.09 2.58,30.43C2.58,30.77 2.57,31.09 2.57,31.44C2.56,31.81 2.55,32.2 2.55,32.6C2.54,33.03 2.54,33.51 2.54,33.95C2.54,34.37 2.53,34.84 2.53,35.2C2.53,35.47 2.52,35.9 2.52,35.9C2.52,35.9 2.51,35.74 2.51,35.6C2.5,35.3 2.5,34.7 2.5,34.16C2.5,33.47 2.49,32.63 2.49,31.82C2.49,30.94 2.48,29.98 2.48,29.08C2.48,28.2 2.47,27.3 2.47,26.48C2.47,25.74 2.47,25.01 2.46,24.37Q2.46,23.84 2.44,22.9Z" style="vector-effect: none; stroke-width: 2px; stroke: rgb(181, 181, 181); stroke-opacity: 1; fill: rgb(181, 181, 181); fill-opacity: 1;"/><path class="box" d="M2.51,24.81V17.42M2.51,24.81V17.42H2.57V24.81ZM2.51,21.12H2.51M2.57,21.12H2.58" style="vector-effect: non-scaling-stroke; stroke-width: 2px; stroke: rgb(181, 181, 181); stroke-opacity: 1; fill: rgb(181, 181, 181); fill-opacity: 1;"/><path class="mean" d="M2.54,24.81V17.42" style="fill: none; vector-effect: non-scaling-stroke; stroke-width: 2px; stroke-dasharray: 4px, 2px; stroke: rgb(181, 181, 181); stroke-opacity: 1;"/></g></g><g class="scatterlayer mlayer"><g class="trace scatter trace87e15f" style="stroke-miterlimit: 2; opacity: 1;"><g class="fills"/><g class="errorbars"/><g class="lines"/><g class="points"><path class="point" transform="translate(2.51,21.12)" d="M2,0A2,2 0 1,1 0,-2A2,2 0 0,1 2,0Z" style="opacity: 1; stroke-width: 0px; fill: rgb(11, 121, 230); fill-opacity: 1;"/></g><g class="text"/></g><g class="trace scatter trace211910" style="stroke-miterlimit: 2; opacity: 1;"><g class="fills"/><g class="errorbars"/><g class="lines"/><g class="points"><path class="point" transform="translate(2.51,21.12)" d="M2,0A2,2 0 1,1 0,-2A2,2 0 0,1 2,0Z" style="opacity: 1; stroke-width: 0px; fill: rgb(11, 121, 230); fill-opacity: 1;"/></g><g class="text"/></g><g class="trace scatter trace45076c" style="stroke-miterlimit: 2; opacity: 1;"><g class="fills"/><g class="errorbars"/><g class="lines"/><g class="points"><path class="point" transform="translate(2.58,21.12)" d="M2,0A2,2 0 1,1 0,-2A2,2 0 0,1 2,0Z" style="opacity: 1; stroke-width: 0px; fill: rgb(11, 121, 230); fill-opacity: 1;"/></g><g class="text"/></g></g></g></g><g class="zerolinelayer-above"/><path class="xlines-above crisp" d="M0,0" style="fill: none;"/><path class="ylines-above crisp" d="M0,0" style="fill: none;"/><g class="overlines-above"/><g class="xaxislayer-above"><g class="x3tick"><text text-anchor="middle" x="0" y="243" transform="translate(82.5,0)" style="font-family: 'Lucida Grande', 'Open Sans', verdana, arial, sans-serif; font-size: 9px; fill: rgb(0, 0, 0); fill-opacity: 0.5; white-space: pre;">0%</text></g><g class="x3tick"><text text-anchor="middle" x="0" y="243" style="font-family: 'Lucida Grande', 'Open Sans', verdana, arial, sans-serif; font-size: 9px; fill: rgb(0, 0, 0); fill-opacity: 0.5; white-space: pre;" transform="translate(182.5,0)">20%</text></g><g class="x3tick"><text text-anchor="middle" x="0" y="243" style="font-family: 'Lucida Grande', 'Open Sans', verdana, arial, sans-serif; font-size: 9px; fill: rgb(0, 0, 0); fill-opacity: 0.5; white-space: pre;" transform="translate(282.49,0)">40%</text></g><g class="x3tick"><text text-anchor="middle" x="0" y="243" style="font-family: 'Lucida Grande', 'Open Sans', verdana, arial, sans-serif; font-size: 9px; fill: rgb(0, 0, 0); fill-opacity: 0.5; white-space: pre;" transform="translate(382.49,0)">60%</text></g><g class="x3tick"><text text-anchor="middle" x="0" y="243" style="font-family: 'Lucida Grande', 'Open Sans', verdana, arial, sans-serif; font-size: 9px; fill: rgb(0, 0, 0); fill-opacity: 0.5; white-space: pre;" transform="translate(482.49,0)">80%</text></g><g class="x3tick"><text text-anchor="middle" x="0" y="243" style="font-family: 'Lucida Grande', 'Open Sans', verdana, arial, sans-serif; font-size: 9px; fill: rgb(0, 0, 0); fill-opacity: 0.5; white-space: pre;" transform="translate(582.49,0)">100%</text></g></g><g class="yaxislayer-above"><g class="y3tick"><text text-anchor="end" x="79" y="3.15" transform="translate(0,211.88923076923078)" style="font-family: 'Lucida Grande', 'Open Sans', verdana, arial, sans-serif; font-size: 9px; fill: rgb(0, 0, 0); fill-opacity: 0.5; white-space: pre;">% of all reads  </text></g></g><g class="overaxes-above"/></g></g><g class="polarlayer"/><g class="smithlayer"/><g class="ternarylayer"/><g class="geolayer"/><g class="funnelarealayer"/><g class="pielayer"/><g class="iciclelayer"/><g class="treemaplayer"/><g class="sunburstlayer"/><g class="glimages"/><defs id="topdefs-eb48a9"><g class="clips"/></defs><g class="layer-above"><g class="imagelayer"/><g class="shapelayer"/></g><g class="infolayer"><g class="g-gtitle"><text class="gtitle" x="300" y="25" text-anchor="middle" dy="0em" style="opacity: 1; font-family: 'Lucida Grande', 'Open Sans', verdana, arial, sans-serif; font-size: 20px; fill: rgb(68, 68, 68); fill-opacity: 1; white-space: pre;"><tspan class="line" dy="0em" x="300" y="25">FastQC: Top overrepresented sequences</tspan><tspan class="line" dy="1.3em" x="300" y="25">​<tspan style="font-size:70%" dy="-0.6em">3 samples</tspan><tspan dy="0.42em">​</tspan></tspan></text></g><g class="g-xtitle"/><g class="g-x2title"/><g class="g-x3title"/><g class="g-ytitle"/><g class="g-y2title"/><g class="g-y3title"/></g></svg>