<svg class="main-svg" xmlns="http://www.w3.org/2000/svg" xmlns:xlink="http://www.w3.org/1999/xlink" width="1200" height="1000" style="" viewBox="0 0 600 500"><rect x="0" y="0" width="600" height="500" style="fill: rgb(255, 255, 255); fill-opacity: 1;"/><defs id="defs-49c79e"><g class="clips"><clipPath id="clip49c79exyplot" class="plotclip"><rect width="522" height="385"/></clipPath><clipPath class="axesclip" id="clip49c79ex"><rect x="60" y="0" width="522" height="500"/></clipPath><clipPath class="axesclip" id="clip49c79ey"><rect x="0" y="50" width="600" height="385"/></clipPath><clipPath class="axesclip" id="clip49c79exy"><rect x="60" y="50" width="522" height="385"/></clipPath></g><g class="gradients"/><g class="patterns"/></defs><g class="bglayer"/><g class="layer-below"><g class="imagelayer"/><g class="shapelayer"><g class="shape-group" data-index="0" clip-path="url(#clip49c79ex)"><path data-index="0" fill-rule="evenodd" d="M425.4,435H1365V50H425.4Z" style="opacity: 0.13; stroke: rgb(0, 0, 0); stroke-opacity: 0; fill: rgb(0, 149, 0); fill-opacity: 1; stroke-width: 0px;"/></g><g class="shape-group" data-index="1" clip-path="url(#clip49c79ex)"><path data-index="1" fill-rule="evenodd" d="M321,435H425.4V50H321Z" style="opacity: 0.13; stroke: rgb(0, 0, 0); stroke-opacity: 0; fill: rgb(160, 115, 0); fill-opacity: 1; stroke-width: 0px;"/></g><g class="shape-group" data-index="2" clip-path="url(#clip49c79ex)"><path data-index="2" fill-rule="evenodd" d="M60,435H321V50H60Z" style="opacity: 0.13; stroke: rgb(0, 0, 0); stroke-opacity: 0; fill: rgb(153, 1, 1); fill-opacity: 1; stroke-width: 0px;"/></g><g class="shape-group" data-index="3" clip-path="url(#clip49c79ex)"><path data-index="3" fill-rule="evenodd" d="M425.4,435H1365V50H425.4Z" style="opacity: 0.13; stroke: rgb(0, 0, 0); stroke-opacity: 0; fill: rgb(0, 149, 0); fill-opacity: 1; stroke-width: 0px;"/></g><g class="shape-group" data-index="4" clip-path="url(#clip49c79ex)"><path data-index="4" fill-rule="evenodd" d="M321,435H425.4V50H321Z" style="opacity: 0.13; stroke: rgb(0, 0, 0); stroke-opacity: 0; fill: rgb(160, 115, 0); fill-opacity: 1; stroke-width: 0px;"/></g><g class="shape-group" data-index="5" clip-path="url(#clip49c79ex)"><path data-index="5" fill-rule="evenodd" d="M60,435H321V50H60Z" style="opacity: 0.13; stroke: rgb(0, 0, 0); stroke-opacity: 0; fill: rgb(153, 1, 1); fill-opacity: 1; stroke-width: 0px;"/></g></g></g><g class="cartesianlayer"><g class="subplot xy"><g class="layer-subplot"><g class="shapelayer"/><g class="imagelayer"/></g><g class="minor-gridlayer"><g class="x"/><g class="y"/></g><g class="gridlayer"><g class="x"><path class="xgrid crisp" transform="translate(190.5,0)" d="M0,50v385" style="stroke: rgb(0, 0, 0); stroke-opacity: 0.05; stroke-width: 1px;"/><path class="xgrid crisp" transform="translate(321,0)" d="M0,50v385" style="stroke: rgb(0, 0, 0); stroke-opacity: 0.05; stroke-width: 1px;"/><path class="xgrid crisp" transform="translate(451.5,0)" d="M0,50v385" style="stroke: rgb(0, 0, 0); stroke-opacity: 0.05; stroke-width: 1px;"/></g><g class="y"><path class="ygrid crisp" transform="translate(0,389.83)" d="M60,0h522" style="stroke: rgb(0, 0, 0); stroke-opacity: 0.05; stroke-width: 1px;"/><path class="ygrid crisp" transform="translate(0,344.66)" d="M60,0h522" style="stroke: rgb(0, 0, 0); stroke-opacity: 0.05; stroke-width: 1px;"/><path class="ygrid crisp" transform="translate(0,299.49)" d="M60,0h522" style="stroke: rgb(0, 0, 0); stroke-opacity: 0.05; stroke-width: 1px;"/><path class="ygrid crisp" transform="translate(0,254.32)" d="M60,0h522" style="stroke: rgb(0, 0, 0); stroke-opacity: 0.05; stroke-width: 1px;"/><path class="ygrid crisp" transform="translate(0,209.15)" d="M60,0h522" style="stroke: rgb(0, 0, 0); stroke-opacity: 0.05; stroke-width: 1px;"/><path class="ygrid crisp" transform="translate(0,163.99)" d="M60,0h522" style="stroke: rgb(0, 0, 0); stroke-opacity: 0.05; stroke-width: 1px;"/><path class="ygrid crisp" transform="translate(0,118.82)" d="M60,0h522" style="stroke: rgb(0, 0, 0); stroke-opacity: 0.05; stroke-width: 1px;"/><path class="ygrid crisp" transform="translate(0,73.65)" d="M60,0h522" style="stroke: rgb(0, 0, 0); stroke-opacity: 0.05; stroke-width: 1px;"/></g></g><g class="zerolinelayer"><path class="xzl zl crisp" transform="translate(60,0)" d="M0,50v385" style="stroke: rgb(0, 0, 0); stroke-opacity: 0.05; stroke-width: 1px;"/><path class="yzl zl crisp" transform="translate(0,435)" d="M60,0h522" style="stroke: rgb(0, 0, 0); stroke-opacity: 0.05; stroke-width: 1px;"/></g><g class="layer-between"><g class="shapelayer"/><g class="imagelayer"/></g><path class="xlines-below"/><path class="ylines-below"/><g class="overlines-below"/><g class="xaxislayer-below"/><g class="yaxislayer-below"/><g class="overaxes-below"/><g class="overplot"><g class="xy" transform="translate(60,50)" clip-path="url(#clip49c79exyplot)"><g class="scatterlayer mlayer"><g class="trace scatter tracee40e5d" style="stroke-miterlimit: 2; opacity: 1;"><g class="fills"/><g class="errorbars"/><g class="lines"><path class="js-line" d="M169.65,385L352.35,384.37L365.4,384.18L391.5,383.25L404.55,381.73L417.6,375.64L430.65,366.75L443.7,367.6L456.75,373.69L469.8,375.52L482.85,376.06L495.9,373.38L508.95,337.35L522,367.55" style="vector-effect: none; fill: none; stroke: rgb(92, 184, 92); stroke-opacity: 1; stroke-width: 2px; opacity: 1;"/></g><g class="points"/><g class="text"/></g><g class="trace scatter traceee4ee0" style="stroke-miterlimit: 2; opacity: 1;"><g class="fills"/><g class="errorbars"/><g class="lines"><path class="js-line" d="M130.5,385L417.6,384.38L430.65,384.23L469.8,382.8L482.85,380.67L495.9,373.45L508.95,276.21L522,357.95" style="vector-effect: none; fill: none; stroke: rgb(92, 184, 92); stroke-opacity: 1; stroke-width: 2px; opacity: 1;"/></g><g class="points"/><g class="text"/></g><g class="trace scatter trace927171" style="stroke-miterlimit: 2; opacity: 1;"><g class="fills"/><g class="errorbars"/><g class="lines"><path class="js-line" d="M156.6,385L365.4,384.36L378.45,384.13L404.55,382.92L417.6,380.03L430.65,373.72L443.7,369.15L456.75,373.36L469.8,375.26L482.85,375.92L495.9,373L508.95,337.76L522,368.33" style="vector-effect: none; fill: none; stroke: rgb(92, 184, 92); stroke-opacity: 1; stroke-width: 2px; opacity: 1;"/></g><g class="points"/><g class="text"/></g><g class="trace scatter trace4c5c5f" style="stroke-miterlimit: 2; opacity: 1;"><g class="fills"/><g class="errorbars"/><g class="lines"><path class="js-line" d="M130.5,385L430.65,384.3L443.7,384.11L469.8,383.04L482.85,381.15L495.9,374.88L508.95,288.33L522,358.75" style="vector-effect: none; fill: none; stroke: rgb(92, 184, 92); stroke-opacity: 1; stroke-width: 2px; opacity: 1;"/></g><g class="points"/><g class="text"/></g><g class="trace scatter tracef2a18b" style="stroke-miterlimit: 2; opacity: 1;"><g class="fills"/><g class="errorbars"/><g class="lines"><path class="js-line" d="M156.6,385L287.1,384.36L300.15,384.19L352.35,382.85L365.4,382.22L378.45,380.98L391.5,378.95L404.55,373.05L417.6,347.25L430.65,315.65L443.7,328.07L456.75,341.31L469.8,350.25L482.85,353.35L495.9,347.36L508.95,239.77L522,339.21" style="vector-effect: none; fill: none; stroke: rgb(92, 184, 92); stroke-opacity: 1; stroke-width: 2px; opacity: 1;"/></g><g class="points"/><g class="text"/></g><g class="trace scatter trace384df8" style="stroke-miterlimit: 2; opacity: 1;"><g class="fills"/><g class="errorbars"/><g class="lines"><path class="js-line" d="M130.5,385L313.2,384.31L326.25,384.18L404.55,383.11L417.6,382.65L443.7,381.24L456.75,379.52L469.8,376.84L482.85,369.14L495.9,342.19L508.95,19.25L522,308.78" style="vector-effect: none; fill: none; stroke: rgb(92, 184, 92); stroke-opacity: 1; stroke-width: 2px; opacity: 1;"/></g><g class="points"/><g class="text"/></g><g class="trace scatter trace780e28" style="stroke-miterlimit: 2; opacity: 1;"><g class="fills"/><g class="errorbars"/><g class="lines"><path class="js-line" d="M156.6,385L365.4,384.36L378.45,384.13L404.55,382.8L417.6,379.28L430.65,372.41L443.7,371.13L456.75,374.6L469.8,375.48L482.85,375.2L495.9,372.24L508.95,329.24L522,366.9" style="vector-effect: none; fill: none; stroke: rgb(92, 184, 92); stroke-opacity: 1; stroke-width: 2px; opacity: 1;"/></g><g class="points"/><g class="text"/></g><g class="trace scatter trace368b06" style="stroke-miterlimit: 2; opacity: 1;"><g class="fills"/><g class="errorbars"/><g class="lines"><path class="js-line" d="M130.5,385L430.65,384.27L443.7,384.06L469.8,382.95L482.85,380.97L495.9,374.47L508.95,282.49L522,355.37" style="vector-effect: none; fill: none; stroke: rgb(92, 184, 92); stroke-opacity: 1; stroke-width: 2px; opacity: 1;"/></g><g class="points"/><g class="text"/></g><g class="trace scatter tracec5fb61" style="stroke-miterlimit: 2; opacity: 1;"><g class="fills"/><g class="errorbars"/><g class="lines"><path class="js-line" d="M156.6,385L365.4,384.29L378.45,384.01L391.5,383.55L404.55,382.22L430.65,370.56L443.7,372.36L456.75,372.05L469.8,373.69L482.85,375.31L495.9,370.92L508.95,327.29L522,366.13" style="vector-effect: none; fill: none; stroke: rgb(92, 184, 92); stroke-opacity: 1; stroke-width: 2px; opacity: 1;"/></g><g class="points"/><g class="text"/></g><g class="trace scatter trace645231" style="stroke-miterlimit: 2; opacity: 1;"><g class="fills"/><g class="errorbars"/><g class="lines"><path class="js-line" d="M130.5,385L417.6,384.34L430.65,384.17L456.75,383.44L469.8,382.68L482.85,380.43L495.9,372.92L508.95,272.78L522,355.21" style="vector-effect: none; fill: none; stroke: rgb(92, 184, 92); stroke-opacity: 1; stroke-width: 2px; opacity: 1;"/></g><g class="points"/><g class="text"/></g><g class="trace scatter tracef9adc6" style="stroke-miterlimit: 2; opacity: 1;"><g class="fills"/><g class="errorbars"/><g class="lines"><path class="js-line" d="M169.65,385L365.4,384.4L378.45,384.21L404.55,383.42L417.6,382.05L430.65,379.82L443.7,375.5L456.75,372.56L469.8,370.55L482.85,373.25L495.9,372.29L508.95,337.02L522,370.71" style="vector-effect: none; fill: none; stroke: rgb(92, 184, 92); stroke-opacity: 1; stroke-width: 2px; opacity: 1;"/></g><g class="points"/><g class="text"/></g><g class="trace scatter trace99f62f" style="stroke-miterlimit: 2; opacity: 1;"><g class="fills"/><g class="errorbars"/><g class="lines"><path class="js-line" d="M130.5,385L430.65,384.27L443.7,384.06L469.8,382.96L482.85,380.99L495.9,374.32L508.95,293.01L522,363.23" style="vector-effect: none; fill: none; stroke: rgb(92, 184, 92); stroke-opacity: 1; stroke-width: 2px; opacity: 1;"/></g><g class="points"/><g class="text"/></g><g class="trace scatter tracef24910" style="stroke-miterlimit: 2; opacity: 1;"><g class="fills"/><g class="errorbars"/><g class="lines"><path class="js-line" d="M156.6,385L365.4,384.28L378.45,383.98L391.5,383.48L404.55,381.98L430.65,369.21L443.7,372.14L469.8,374.33L482.85,375.96L495.9,373.17L508.95,340.22L522,372.94" style="vector-effect: none; fill: none; stroke: rgb(92, 184, 92); stroke-opacity: 1; stroke-width: 2px; opacity: 1;"/></g><g class="points"/><g class="text"/></g><g class="trace scatter trace3e4006" style="stroke-miterlimit: 2; opacity: 1;"><g class="fills"/><g class="errorbars"/><g class="lines"><path class="js-line" d="M130.5,385L430.65,384.26L443.7,384.04L469.8,382.88L482.85,380.84L495.9,373.91L508.95,285.34L522,361.75" style="vector-effect: none; fill: none; stroke: rgb(92, 184, 92); stroke-opacity: 1; stroke-width: 2px; opacity: 1;"/></g><g class="points"/><g class="text"/></g><g class="trace scatter trace875cb3" style="stroke-miterlimit: 2; opacity: 1;"><g class="fills"/><g class="errorbars"/><g class="lines"><path class="js-line" d="M156.6,385L352.35,384.33L365.4,384.18L404.55,382.79L417.6,380.87L430.65,378.03L443.7,372.83L469.8,365.6L482.85,369.46L495.9,369.54L508.95,337.42L522,374.53" style="vector-effect: none; fill: none; stroke: rgb(92, 184, 92); stroke-opacity: 1; stroke-width: 2px; opacity: 1;"/></g><g class="points"/><g class="text"/></g><g class="trace scatter traceedce39" style="stroke-miterlimit: 2; opacity: 1;"><g class="fills"/><g class="errorbars"/><g class="lines"><path class="js-line" d="M130.5,385L417.6,384.35L430.65,384.2L456.75,383.49L469.8,382.72L482.85,380.51L495.9,372.99L508.95,278.62L522,361.71" style="vector-effect: none; fill: none; stroke: rgb(92, 184, 92); stroke-opacity: 1; stroke-width: 2px; opacity: 1;"/></g><g class="points"/><g class="text"/></g><g class="trace scatter tracece2333" style="stroke-miterlimit: 2; opacity: 1;"><g class="fills"/><g class="errorbars"/><g class="lines"><path class="js-line" d="M143.55,385L365.4,384.3L378.45,384.09L404.55,383.23L417.6,381.79L430.65,379.07L443.7,372.84L456.75,368.87L469.8,367.81L482.85,371.57L495.9,370.58L508.95,335.16L522,369.89" style="vector-effect: none; fill: none; stroke: rgb(92, 184, 92); stroke-opacity: 1; stroke-width: 2px; opacity: 1;"/></g><g class="points"/><g class="text"/></g><g class="trace scatter traceb93022" style="stroke-miterlimit: 2; opacity: 1;"><g class="fills"/><g class="errorbars"/><g class="lines"><path class="js-line" d="M117.45,385L417.6,384.36L430.65,384.21L469.8,382.78L482.85,380.63L495.9,373.39L508.95,280.54L522,360.57" style="vector-effect: none; fill: none; stroke: rgb(92, 184, 92); stroke-opacity: 1; stroke-width: 2px; opacity: 1;"/></g><g class="points"/><g class="text"/></g><g class="trace scatter trace85a10d" style="stroke-miterlimit: 2; opacity: 1;"><g class="fills"/><g class="errorbars"/><g class="lines"><path class="js-line" d="M156.6,385L365.4,384.27L378.45,383.97L404.55,382.33L417.6,378.05L430.65,369.54L443.7,366.06L456.75,372.99L469.8,375.7L482.85,376.35L495.9,373.44L508.95,338.57L522,372.2" style="vector-effect: none; fill: none; stroke: rgb(92, 184, 92); stroke-opacity: 1; stroke-width: 2px; opacity: 1;"/></g><g class="points"/><g class="text"/></g><g class="trace scatter trace3fdc7f" style="stroke-miterlimit: 2; opacity: 1;"><g class="fills"/><g class="errorbars"/><g class="lines"><path class="js-line" d="M130.5,385L417.6,384.36L430.65,384.2L456.75,383.47L469.8,382.69L482.85,380.43L495.9,372.47L508.95,281.79L522,364.67" style="vector-effect: none; fill: none; stroke: rgb(92, 184, 92); stroke-opacity: 1; stroke-width: 2px; opacity: 1;"/></g><g class="points"/><g class="text"/></g><g class="trace scatter traceff1b71" style="stroke-miterlimit: 2; opacity: 1;"><g class="fills"/><g class="errorbars"/><g class="lines"><path class="js-line" d="M156.6,385L326.25,384.38L339.3,384.21L378.45,382.85L391.5,381.65L404.55,377.78L417.6,359.11L430.65,349.75L443.7,363.66L456.75,369.54L469.8,373.75L482.85,376.22L495.9,373.09L508.95,340.62L522,371.33" style="vector-effect: none; fill: none; stroke: rgb(92, 184, 92); stroke-opacity: 1; stroke-width: 2px; opacity: 1;"/></g><g class="points"/><g class="text"/></g><g class="trace scatter trace56f983" style="stroke-miterlimit: 2; opacity: 1;"><g class="fills"/><g class="errorbars"/><g class="lines"><path class="js-line" d="M130.5,385L391.5,384.29L404.55,384.19L456.75,382.7L469.8,381.58L482.85,378.39L495.9,366.54L508.95,239.36L522,364.62" style="vector-effect: none; fill: none; stroke: rgb(92, 184, 92); stroke-opacity: 1; stroke-width: 2px; opacity: 1;"/></g><g class="points"/><g class="text"/></g><g class="trace scatter trace73e5ff" style="stroke-miterlimit: 2; opacity: 1;"><g class="fills"/><g class="errorbars"/><g class="lines"><path class="js-line" d="M169.65,385L417.6,384.38L430.65,384.22L456.75,383.47L469.8,382.59L482.85,380.67L495.9,375.1L508.95,314.2L522,317.88" style="vector-effect: none; fill: none; stroke: rgb(92, 184, 92); stroke-opacity: 1; stroke-width: 2px; opacity: 1;"/></g><g class="points"/><g class="text"/></g><g class="trace scatter traceb69322" style="stroke-miterlimit: 2; opacity: 1;"><g class="fills"/><g class="errorbars"/><g class="lines"><path class="js-line" d="M117.45,385L430.65,384.38L443.7,384.18L469.8,383.13L482.85,381.59L495.9,377.03L508.95,319.95L522,308.19" style="vector-effect: none; fill: none; stroke: rgb(92, 184, 92); stroke-opacity: 1; stroke-width: 2px; opacity: 1;"/></g><g class="points"/><g class="text"/></g><g class="trace scatter trace0c8a8b" style="stroke-miterlimit: 2; opacity: 1;"><g class="fills"/><g class="errorbars"/><g class="lines"><path class="js-line" d="M169.65,385L430.65,384.27L443.7,384.03L469.8,382.77L482.85,380.95L495.9,375.6L508.95,317.97L522,328.3" style="vector-effect: none; fill: none; stroke: rgb(92, 184, 92); stroke-opacity: 1; stroke-width: 2px; opacity: 1;"/></g><g class="points"/><g class="text"/></g><g class="trace scatter tracebce182" style="stroke-miterlimit: 2; opacity: 1;"><g class="fills"/><g class="errorbars"/><g class="lines"><path class="js-line" d="M117.45,385L430.65,384.42L443.7,384.24L469.8,383.28L482.85,381.86L495.9,377.65L508.95,323.59L522,318.78" style="vector-effect: none; fill: none; stroke: rgb(92, 184, 92); stroke-opacity: 1; stroke-width: 2px; opacity: 1;"/></g><g class="points"/><g class="text"/></g><g class="trace scatter trace80623b" style="stroke-miterlimit: 2; opacity: 1;"><g class="fills"/><g class="errorbars"/><g class="lines"><path class="js-line" d="M156.6,385L339.3,384.39L352.35,384.24L430.65,382.42L443.7,381.57L456.75,379.95L469.8,377.02L482.85,370.73L495.9,352.07L508.95,150.46L522,160.34" style="vector-effect: none; fill: none; stroke: rgb(92, 184, 92); stroke-opacity: 1; stroke-width: 2px; opacity: 1;"/></g><g class="points"/><g class="text"/></g><g class="trace scatter trace9fd548" style="stroke-miterlimit: 2; opacity: 1;"><g class="fills"/><g class="errorbars"/><g class="lines"><path class="js-line" d="M117.45,385L326.25,384.32L339.3,384.22L417.6,383.14L430.65,382.67L456.75,380.54L469.8,378.03L482.85,372.51L495.9,355.91L508.95,168.79L522,136.72" style="vector-effect: none; fill: none; stroke: rgb(92, 184, 92); stroke-opacity: 1; stroke-width: 2px; opacity: 1;"/></g><g class="points"/><g class="text"/></g><g class="trace scatter traced04365" style="stroke-miterlimit: 2; opacity: 1;"><g class="fills"/><g class="errorbars"/><g class="lines"><path class="js-line" d="M169.65,385L430.65,384.26L443.7,384.02L469.8,382.74L482.85,380.91L495.9,375.56L508.95,311.84L522,324.55" style="vector-effect: none; fill: none; stroke: rgb(92, 184, 92); stroke-opacity: 1; stroke-width: 2px; opacity: 1;"/></g><g class="points"/><g class="text"/></g><g class="trace scatter trace5892ed" style="stroke-miterlimit: 2; opacity: 1;"><g class="fills"/><g class="errorbars"/><g class="lines"><path class="js-line" d="M117.45,385L430.65,384.38L443.7,384.2L469.8,383.19L482.85,381.69L495.9,377.21L508.95,317.86L522,315.41" style="vector-effect: none; fill: none; stroke: rgb(92, 184, 92); stroke-opacity: 1; stroke-width: 2px; opacity: 1;"/></g><g class="points"/><g class="text"/></g><g class="trace scatter trace22edf8" style="stroke-miterlimit: 2; opacity: 1;"><g class="fills"/><g class="errorbars"/><g class="lines"><path class="js-line" d="M169.65,385L417.6,384.34L430.65,384.18L456.75,383.4L469.8,382.47L482.85,380.42L495.9,374.34L508.95,305.56L522,320.38" style="vector-effect: none; fill: none; stroke: rgb(92, 184, 92); stroke-opacity: 1; stroke-width: 2px; opacity: 1;"/></g><g class="points"/><g class="text"/></g><g class="trace scatter trace87d416" style="stroke-miterlimit: 2; opacity: 1;"><g class="fills"/><g class="errorbars"/><g class="lines"><path class="js-line" d="M117.45,385L430.65,384.3L443.7,384.09L469.8,382.95L482.85,381.24L495.9,376.11L508.95,311.22L522,311.47" style="vector-effect: none; fill: none; stroke: rgb(92, 184, 92); stroke-opacity: 1; stroke-width: 2px; opacity: 1;"/></g><g class="points"/><g class="text"/></g><g class="trace scatter trace2da0bb" style="stroke-miterlimit: 2; opacity: 1;"><g class="fills"/><g class="errorbars"/><g class="lines"><path class="js-line" d="M156.6,385L430.65,384.3L443.7,384.06L469.8,382.84L482.85,381.01L495.9,375.57L508.95,320.02L522,333.92" style="vector-effect: none; fill: none; stroke: rgb(92, 184, 92); stroke-opacity: 1; stroke-width: 2px; opacity: 1;"/></g><g class="points"/><g class="text"/></g><g class="trace scatter trace69219c" style="stroke-miterlimit: 2; opacity: 1;"><g class="fills"/><g class="errorbars"/><g class="lines"><path class="js-line" d="M117.45,385L430.65,384.39L443.7,384.2L469.8,383.19L482.85,381.67L495.9,377.03L508.95,323.9L522,327.7" style="vector-effect: none; fill: none; stroke: rgb(92, 184, 92); stroke-opacity: 1; stroke-width: 2px; opacity: 1;"/></g><g class="points"/><g class="text"/></g><g class="trace scatter tracedab5c7" style="stroke-miterlimit: 2; opacity: 1;"><g class="fills"/><g class="errorbars"/><g class="lines"><path class="js-line" d="M169.65,385L430.65,384.26L443.7,384.01L469.8,382.7L482.85,380.88L495.9,375.45L508.95,317.32L522,327.61" style="vector-effect: none; fill: none; stroke: rgb(92, 184, 92); stroke-opacity: 1; stroke-width: 2px; opacity: 1;"/></g><g class="points"/><g class="text"/></g><g class="trace scatter trace2710ad" style="stroke-miterlimit: 2; opacity: 1;"><g class="fills"/><g class="errorbars"/><g class="lines"><path class="js-line" d="M117.45,385L430.65,384.39L443.7,384.2L469.8,383.18L482.85,381.68L495.9,377.16L508.95,322.7L522,318.86" style="vector-effect: none; fill: none; stroke: rgb(92, 184, 92); stroke-opacity: 1; stroke-width: 2px; opacity: 1;"/></g><g class="points"/><g class="text"/></g><g class="trace scatter trace9983f3" style="stroke-miterlimit: 2; opacity: 1;"><g class="fills"/><g class="errorbars"/><g class="lines"><path class="js-line" d="M169.65,385L417.6,384.35L430.65,384.16L456.75,383.33L469.8,382.36L482.85,380.14L495.9,373.3L508.95,313.12L522,326.99" style="vector-effect: none; fill: none; stroke: rgb(92, 184, 92); stroke-opacity: 1; stroke-width: 2px; opacity: 1;"/></g><g class="points"/><g class="text"/></g><g class="trace scatter trace7895b0" style="stroke-miterlimit: 2; opacity: 1;"><g class="fills"/><g class="errorbars"/><g class="lines"><path class="js-line" d="M117.45,385L430.65,384.34L443.7,384.13L469.8,383L482.85,381.32L495.9,376.07L508.95,319.81L522,315.13" style="vector-effect: none; fill: none; stroke: rgb(92, 184, 92); stroke-opacity: 1; stroke-width: 2px; opacity: 1;"/></g><g class="points"/><g class="text"/></g><g class="trace scatter trace1341ae" style="stroke-miterlimit: 2; opacity: 1;"><g class="fills"/><g class="errorbars"/><g class="lines"><path class="js-line" d="M143.55,385L417.6,384.36L430.65,384.18L456.75,383.42L469.8,382.54L482.85,380.53L495.9,374.48L508.95,313.06L522,326.68" style="vector-effect: none; fill: none; stroke: rgb(92, 184, 92); stroke-opacity: 1; stroke-width: 2px; opacity: 1;"/></g><g class="points"/><g class="text"/></g><g class="trace scatter trace2cc9a2" style="stroke-miterlimit: 2; opacity: 1;"><g class="fills"/><g class="errorbars"/><g class="lines"><path class="js-line" d="M117.45,385L430.65,384.34L443.7,384.13L469.8,383.05L482.85,381.4L495.9,376.31L508.95,318.74L522,317.26" style="vector-effect: none; fill: none; stroke: rgb(92, 184, 92); stroke-opacity: 1; stroke-width: 2px; opacity: 1;"/></g><g class="points"/><g class="text"/></g><g class="trace scatter trace4c6813" style="stroke-miterlimit: 2; opacity: 1;"><g class="fills"/><g class="errorbars"/><g class="lines"><path class="js-line" d="M169.65,385L417.6,384.39L430.65,384.23L456.75,383.5L469.8,382.62L482.85,380.65L495.9,374.79L508.95,316.31L522,326.54" style="vector-effect: none; fill: none; stroke: rgb(92, 184, 92); stroke-opacity: 1; stroke-width: 2px; opacity: 1;"/></g><g class="points"/><g class="text"/></g><g class="trace scatter trace4df588" style="stroke-miterlimit: 2; opacity: 1;"><g class="fills"/><g class="errorbars"/><g class="lines"><path class="js-line" d="M117.45,385L430.65,384.35L443.7,384.13L469.8,383.01L482.85,381.31L495.9,376.04L508.95,320.58L522,319.84" style="vector-effect: none; fill: none; stroke: rgb(92, 184, 92); stroke-opacity: 1; stroke-width: 2px; opacity: 1;"/></g><g class="points"/><g class="text"/></g><g class="trace scatter trace3d1485" style="stroke-miterlimit: 2; opacity: 1;"><g class="fills"/><g class="errorbars"/><g class="lines"><path class="js-line" d="M156.6,385L404.55,384.35L417.6,384.19L456.75,382.99L469.8,381.84L482.85,379.32L495.9,371.57L508.95,299.77L522,294.88" style="vector-effect: none; fill: none; stroke: rgb(92, 184, 92); stroke-opacity: 1; stroke-width: 2px; opacity: 1;"/></g><g class="points"/><g class="text"/></g><g class="trace scatter trace6c18e7" style="stroke-miterlimit: 2; opacity: 1;"><g class="fills"/><g class="errorbars"/><g class="lines"><path class="js-line" d="M117.45,385L417.6,384.25L430.65,384.06L456.75,383.19L469.8,382.18L482.85,379.94L495.9,373.09L508.95,308.09L522,284.88" style="vector-effect: none; fill: none; stroke: rgb(92, 184, 92); stroke-opacity: 1; stroke-width: 2px; opacity: 1;"/></g><g class="points"/><g class="text"/></g><g class="trace scatter tracea797d1" style="stroke-miterlimit: 2; opacity: 1;"><g class="fills"/><g class="errorbars"/><g class="lines"><path class="js-line" d="M169.65,385L352.35,384.37L365.4,384.18L391.5,383.25L404.55,381.73L417.6,375.64L430.65,366.75L443.7,367.6L456.75,373.69L469.8,375.52L482.85,376.06L495.9,373.38L508.95,337.35L522,367.55" style="vector-effect: none; fill: none; stroke: rgb(92, 184, 92); stroke-opacity: 1; stroke-width: 2px; opacity: 1;"/></g><g class="points"/><g class="text"/></g><g class="trace scatter trace868d87" style="stroke-miterlimit: 2; opacity: 1;"><g class="fills"/><g class="errorbars"/><g class="lines"><path class="js-line" d="M169.65,385L417.6,384.38L430.65,384.22L456.75,383.47L469.8,382.59L482.85,380.67L495.9,375.1L508.95,314.2L522,317.88" style="vector-effect: none; fill: none; stroke: rgb(92, 184, 92); stroke-opacity: 1; stroke-width: 2px; opacity: 1;"/></g><g class="points"/><g class="text"/></g><g class="trace scatter tracee7ba5d" style="stroke-miterlimit: 2; opacity: 1;"><g class="fills"/><g class="errorbars"/><g class="lines"><path class="js-line" d="M130.5,385L417.6,384.38L430.65,384.23L469.8,382.8L482.85,380.67L495.9,373.45L508.95,276.21L522,357.95" style="vector-effect: none; fill: none; stroke: rgb(92, 184, 92); stroke-opacity: 1; stroke-width: 2px; opacity: 1;"/></g><g class="points"/><g class="text"/></g><g class="trace scatter traceb9fd6d" style="stroke-miterlimit: 2; opacity: 1;"><g class="fills"/><g class="errorbars"/><g class="lines"><path class="js-line" d="M117.45,385L430.65,384.38L443.7,384.18L469.8,383.13L482.85,381.59L495.9,377.03L508.95,319.95L522,308.19" style="vector-effect: none; fill: none; stroke: rgb(92, 184, 92); stroke-opacity: 1; stroke-width: 2px; opacity: 1;"/></g><g class="points"/><g class="text"/></g><g class="trace scatter trace71cc09" style="stroke-miterlimit: 2; opacity: 1;"><g class="fills"/><g class="errorbars"/><g class="lines"><path class="js-line" d="M156.6,385L365.4,384.36L378.45,384.13L404.55,382.92L417.6,380.03L430.65,373.72L443.7,369.15L456.75,373.36L469.8,375.26L482.85,375.92L495.9,373L508.95,337.76L522,368.33" style="vector-effect: none; fill: none; stroke: rgb(92, 184, 92); stroke-opacity: 1; stroke-width: 2px; opacity: 1;"/></g><g class="points"/><g class="text"/></g><g class="trace scatter tracefd645b" style="stroke-miterlimit: 2; opacity: 1;"><g class="fills"/><g class="errorbars"/><g class="lines"><path class="js-line" d="M169.65,385L430.65,384.27L443.7,384.03L469.8,382.77L482.85,380.95L495.9,375.6L508.95,317.97L522,328.3" style="vector-effect: none; fill: none; stroke: rgb(92, 184, 92); stroke-opacity: 1; stroke-width: 2px; opacity: 1;"/></g><g class="points"/><g class="text"/></g><g class="trace scatter trace3d5409" style="stroke-miterlimit: 2; opacity: 1;"><g class="fills"/><g class="errorbars"/><g class="lines"><path class="js-line" d="M130.5,385L430.65,384.3L443.7,384.11L469.8,383.04L482.85,381.15L495.9,374.88L508.95,288.33L522,358.75" style="vector-effect: none; fill: none; stroke: rgb(92, 184, 92); stroke-opacity: 1; stroke-width: 2px; opacity: 1;"/></g><g class="points"/><g class="text"/></g><g class="trace scatter tracecbe501" style="stroke-miterlimit: 2; opacity: 1;"><g class="fills"/><g class="errorbars"/><g class="lines"><path class="js-line" d="M117.45,385L430.65,384.42L443.7,384.24L469.8,383.28L482.85,381.86L495.9,377.65L508.95,323.59L522,318.78" style="vector-effect: none; fill: none; stroke: rgb(92, 184, 92); stroke-opacity: 1; stroke-width: 2px; opacity: 1;"/></g><g class="points"/><g class="text"/></g><g class="trace scatter tracefb6bb4" style="stroke-miterlimit: 2; opacity: 1;"><g class="fills"/><g class="errorbars"/><g class="lines"><path class="js-line" d="M156.6,385L287.1,384.36L300.15,384.19L352.35,382.85L365.4,382.22L378.45,380.98L391.5,378.95L404.55,373.05L417.6,347.25L430.65,315.65L443.7,328.07L456.75,341.31L469.8,350.25L482.85,353.35L495.9,347.36L508.95,239.77L522,339.21" style="vector-effect: none; fill: none; stroke: rgb(92, 184, 92); stroke-opacity: 1; stroke-width: 2px; opacity: 1;"/></g><g class="points"/><g class="text"/></g><g class="trace scatter tracec00251" style="stroke-miterlimit: 2; opacity: 1;"><g class="fills"/><g class="errorbars"/><g class="lines"><path class="js-line" d="M156.6,385L339.3,384.39L352.35,384.24L430.65,382.42L443.7,381.57L456.75,379.95L469.8,377.02L482.85,370.73L495.9,352.07L508.95,150.46L522,160.34" style="vector-effect: none; fill: none; stroke: rgb(92, 184, 92); stroke-opacity: 1; stroke-width: 2px; opacity: 1;"/></g><g class="points"/><g class="text"/></g><g class="trace scatter trace43d4f9" style="stroke-miterlimit: 2; opacity: 1;"><g class="fills"/><g class="errorbars"/><g class="lines"><path class="js-line" d="M130.5,385L313.2,384.31L326.25,384.18L404.55,383.11L417.6,382.65L443.7,381.24L456.75,379.52L469.8,376.84L482.85,369.14L495.9,342.19L508.95,19.25L522,308.78" style="vector-effect: none; fill: none; stroke: rgb(92, 184, 92); stroke-opacity: 1; stroke-width: 2px; opacity: 1;"/></g><g class="points"/><g class="text"/></g><g class="trace scatter trace4d4da7" style="stroke-miterlimit: 2; opacity: 1;"><g class="fills"/><g class="errorbars"/><g class="lines"><path class="js-line" d="M117.45,385L326.25,384.32L339.3,384.22L417.6,383.14L430.65,382.67L456.75,380.54L469.8,378.03L482.85,372.51L495.9,355.91L508.95,168.79L522,136.72" style="vector-effect: none; fill: none; stroke: rgb(92, 184, 92); stroke-opacity: 1; stroke-width: 2px; opacity: 1;"/></g><g class="points"/><g class="text"/></g><g class="trace scatter trace8dcc2c" style="stroke-miterlimit: 2; opacity: 1;"><g class="fills"/><g class="errorbars"/><g class="lines"><path class="js-line" d="M156.6,385L365.4,384.36L378.45,384.13L404.55,382.8L417.6,379.28L430.65,372.41L443.7,371.13L456.75,374.6L469.8,375.48L482.85,375.2L495.9,372.24L508.95,329.24L522,366.9" style="vector-effect: none; fill: none; stroke: rgb(92, 184, 92); stroke-opacity: 1; stroke-width: 2px; opacity: 1;"/></g><g class="points"/><g class="text"/></g><g class="trace scatter tracea34aec" style="stroke-miterlimit: 2; opacity: 1;"><g class="fills"/><g class="errorbars"/><g class="lines"><path class="js-line" d="M169.65,385L430.65,384.26L443.7,384.02L469.8,382.74L482.85,380.91L495.9,375.56L508.95,311.84L522,324.55" style="vector-effect: none; fill: none; stroke: rgb(92, 184, 92); stroke-opacity: 1; stroke-width: 2px; opacity: 1;"/></g><g class="points"/><g class="text"/></g><g class="trace scatter traceb839d7" style="stroke-miterlimit: 2; opacity: 1;"><g class="fills"/><g class="errorbars"/><g class="lines"><path class="js-line" d="M130.5,385L430.65,384.27L443.7,384.06L469.8,382.95L482.85,380.97L495.9,374.47L508.95,282.49L522,355.37" style="vector-effect: none; fill: none; stroke: rgb(92, 184, 92); stroke-opacity: 1; stroke-width: 2px; opacity: 1;"/></g><g class="points"/><g class="text"/></g><g class="trace scatter traceb5c54e" style="stroke-miterlimit: 2; opacity: 1;"><g class="fills"/><g class="errorbars"/><g class="lines"><path class="js-line" d="M117.45,385L430.65,384.38L443.7,384.2L469.8,383.19L482.85,381.69L495.9,377.21L508.95,317.86L522,315.41" style="vector-effect: none; fill: none; stroke: rgb(92, 184, 92); stroke-opacity: 1; stroke-width: 2px; opacity: 1;"/></g><g class="points"/><g class="text"/></g><g class="trace scatter trace7dc870" style="stroke-miterlimit: 2; opacity: 1;"><g class="fills"/><g class="errorbars"/><g class="lines"><path class="js-line" d="M156.6,385L365.4,384.29L378.45,384.01L391.5,383.55L404.55,382.22L430.65,370.56L443.7,372.36L456.75,372.05L469.8,373.69L482.85,375.31L495.9,370.92L508.95,327.29L522,366.13" style="vector-effect: none; fill: none; stroke: rgb(92, 184, 92); stroke-opacity: 1; stroke-width: 2px; opacity: 1;"/></g><g class="points"/><g class="text"/></g><g class="trace scatter trace280d09" style="stroke-miterlimit: 2; opacity: 1;"><g class="fills"/><g class="errorbars"/><g class="lines"><path class="js-line" d="M169.65,385L417.6,384.34L430.65,384.18L456.75,383.4L469.8,382.47L482.85,380.42L495.9,374.34L508.95,305.56L522,320.38" style="vector-effect: none; fill: none; stroke: rgb(92, 184, 92); stroke-opacity: 1; stroke-width: 2px; opacity: 1;"/></g><g class="points"/><g class="text"/></g><g class="trace scatter tracef545a3" style="stroke-miterlimit: 2; opacity: 1;"><g class="fills"/><g class="errorbars"/><g class="lines"><path class="js-line" d="M130.5,385L417.6,384.34L430.65,384.17L456.75,383.44L469.8,382.68L482.85,380.43L495.9,372.92L508.95,272.78L522,355.21" style="vector-effect: none; fill: none; stroke: rgb(92, 184, 92); stroke-opacity: 1; stroke-width: 2px; opacity: 1;"/></g><g class="points"/><g class="text"/></g><g class="trace scatter tracec189a5" style="stroke-miterlimit: 2; opacity: 1;"><g class="fills"/><g class="errorbars"/><g class="lines"><path class="js-line" d="M117.45,385L430.65,384.3L443.7,384.09L469.8,382.95L482.85,381.24L495.9,376.11L508.95,311.22L522,311.47" style="vector-effect: none; fill: none; stroke: rgb(92, 184, 92); stroke-opacity: 1; stroke-width: 2px; opacity: 1;"/></g><g class="points"/><g class="text"/></g><g class="trace scatter trace6effd9" style="stroke-miterlimit: 2; opacity: 1;"><g class="fills"/><g class="errorbars"/><g class="lines"><path class="js-line" d="M169.65,385L365.4,384.4L378.45,384.21L404.55,383.42L417.6,382.05L430.65,379.82L443.7,375.5L456.75,372.56L469.8,370.55L482.85,373.25L495.9,372.29L508.95,337.02L522,370.71" style="vector-effect: none; fill: none; stroke: rgb(92, 184, 92); stroke-opacity: 1; stroke-width: 2px; opacity: 1;"/></g><g class="points"/><g class="text"/></g><g class="trace scatter tracea545d3" style="stroke-miterlimit: 2; opacity: 1;"><g class="fills"/><g class="errorbars"/><g class="lines"><path class="js-line" d="M156.6,385L430.65,384.3L443.7,384.06L469.8,382.84L482.85,381.01L495.9,375.57L508.95,320.02L522,333.92" style="vector-effect: none; fill: none; stroke: rgb(92, 184, 92); stroke-opacity: 1; stroke-width: 2px; opacity: 1;"/></g><g class="points"/><g class="text"/></g><g class="trace scatter trace66bfff" style="stroke-miterlimit: 2; opacity: 1;"><g class="fills"/><g class="errorbars"/><g class="lines"><path class="js-line" d="M130.5,385L430.65,384.27L443.7,384.06L469.8,382.96L482.85,380.99L495.9,374.32L508.95,293.01L522,363.23" style="vector-effect: none; fill: none; stroke: rgb(92, 184, 92); stroke-opacity: 1; stroke-width: 2px; opacity: 1;"/></g><g class="points"/><g class="text"/></g><g class="trace scatter trace28afb5" style="stroke-miterlimit: 2; opacity: 1;"><g class="fills"/><g class="errorbars"/><g class="lines"><path class="js-line" d="M117.45,385L430.65,384.39L443.7,384.2L469.8,383.19L482.85,381.67L495.9,377.03L508.95,323.9L522,327.7" style="vector-effect: none; fill: none; stroke: rgb(92, 184, 92); stroke-opacity: 1; stroke-width: 2px; opacity: 1;"/></g><g class="points"/><g class="text"/></g><g class="trace scatter traceef0e14" style="stroke-miterlimit: 2; opacity: 1;"><g class="fills"/><g class="errorbars"/><g class="lines"><path class="js-line" d="M156.6,385L365.4,384.28L378.45,383.98L391.5,383.48L404.55,381.98L430.65,369.21L443.7,372.14L469.8,374.33L482.85,375.96L495.9,373.17L508.95,340.22L522,372.94" style="vector-effect: none; fill: none; stroke: rgb(92, 184, 92); stroke-opacity: 1; stroke-width: 2px; opacity: 1;"/></g><g class="points"/><g class="text"/></g><g class="trace scatter trace4eec25" style="stroke-miterlimit: 2; opacity: 1;"><g class="fills"/><g class="errorbars"/><g class="lines"><path class="js-line" d="M169.65,385L430.65,384.26L443.7,384.01L469.8,382.7L482.85,380.88L495.9,375.45L508.95,317.32L522,327.61" style="vector-effect: none; fill: none; stroke: rgb(92, 184, 92); stroke-opacity: 1; stroke-width: 2px; opacity: 1;"/></g><g class="points"/><g class="text"/></g><g class="trace scatter traced82765" style="stroke-miterlimit: 2; opacity: 1;"><g class="fills"/><g class="errorbars"/><g class="lines"><path class="js-line" d="M130.5,385L430.65,384.26L443.7,384.04L469.8,382.88L482.85,380.84L495.9,373.91L508.95,285.34L522,361.75" style="vector-effect: none; fill: none; stroke: rgb(92, 184, 92); stroke-opacity: 1; stroke-width: 2px; opacity: 1;"/></g><g class="points"/><g class="text"/></g><g class="trace scatter trace123cc7" style="stroke-miterlimit: 2; opacity: 1;"><g class="fills"/><g class="errorbars"/><g class="lines"><path class="js-line" d="M117.45,385L430.65,384.39L443.7,384.2L469.8,383.18L482.85,381.68L495.9,377.16L508.95,322.7L522,318.86" style="vector-effect: none; fill: none; stroke: rgb(92, 184, 92); stroke-opacity: 1; stroke-width: 2px; opacity: 1;"/></g><g class="points"/><g class="text"/></g><g class="trace scatter trace38291b" style="stroke-miterlimit: 2; opacity: 1;"><g class="fills"/><g class="errorbars"/><g class="lines"><path class="js-line" d="M156.6,385L352.35,384.33L365.4,384.18L404.55,382.79L417.6,380.87L430.65,378.03L443.7,372.83L469.8,365.6L482.85,369.46L495.9,369.54L508.95,337.42L522,374.53" style="vector-effect: none; fill: none; stroke: rgb(92, 184, 92); stroke-opacity: 1; stroke-width: 2px; opacity: 1;"/></g><g class="points"/><g class="text"/></g><g class="trace scatter trace377f7a" style="stroke-miterlimit: 2; opacity: 1;"><g class="fills"/><g class="errorbars"/><g class="lines"><path class="js-line" d="M169.65,385L417.6,384.35L430.65,384.16L456.75,383.33L469.8,382.36L482.85,380.14L495.9,373.3L508.95,313.12L522,326.99" style="vector-effect: none; fill: none; stroke: rgb(92, 184, 92); stroke-opacity: 1; stroke-width: 2px; opacity: 1;"/></g><g class="points"/><g class="text"/></g><g class="trace scatter traced8cf6f" style="stroke-miterlimit: 2; opacity: 1;"><g class="fills"/><g class="errorbars"/><g class="lines"><path class="js-line" d="M130.5,385L417.6,384.35L430.65,384.2L456.75,383.49L469.8,382.72L482.85,380.51L495.9,372.99L508.95,278.62L522,361.71" style="vector-effect: none; fill: none; stroke: rgb(92, 184, 92); stroke-opacity: 1; stroke-width: 2px; opacity: 1;"/></g><g class="points"/><g class="text"/></g><g class="trace scatter trace9d1993" style="stroke-miterlimit: 2; opacity: 1;"><g class="fills"/><g class="errorbars"/><g class="lines"><path class="js-line" d="M117.45,385L430.65,384.34L443.7,384.13L469.8,383L482.85,381.32L495.9,376.07L508.95,319.81L522,315.13" style="vector-effect: none; fill: none; stroke: rgb(92, 184, 92); stroke-opacity: 1; stroke-width: 2px; opacity: 1;"/></g><g class="points"/><g class="text"/></g><g class="trace scatter trace471186" style="stroke-miterlimit: 2; opacity: 1;"><g class="fills"/><g class="errorbars"/><g class="lines"><path class="js-line" d="M143.55,385L365.4,384.3L378.45,384.09L404.55,383.23L417.6,381.79L430.65,379.07L443.7,372.84L456.75,368.87L469.8,367.81L482.85,371.57L495.9,370.58L508.95,335.16L522,369.89" style="vector-effect: none; fill: none; stroke: rgb(92, 184, 92); stroke-opacity: 1; stroke-width: 2px; opacity: 1;"/></g><g class="points"/><g class="text"/></g><g class="trace scatter trace8503f1" style="stroke-miterlimit: 2; opacity: 1;"><g class="fills"/><g class="errorbars"/><g class="lines"><path class="js-line" d="M143.55,385L417.6,384.36L430.65,384.18L456.75,383.42L469.8,382.54L482.85,380.53L495.9,374.48L508.95,313.06L522,326.68" style="vector-effect: none; fill: none; stroke: rgb(92, 184, 92); stroke-opacity: 1; stroke-width: 2px; opacity: 1;"/></g><g class="points"/><g class="text"/></g><g class="trace scatter traceed0bf4" style="stroke-miterlimit: 2; opacity: 1;"><g class="fills"/><g class="errorbars"/><g class="lines"><path class="js-line" d="M117.45,385L417.6,384.36L430.65,384.21L469.8,382.78L482.85,380.63L495.9,373.39L508.95,280.54L522,360.57" style="vector-effect: none; fill: none; stroke: rgb(92, 184, 92); stroke-opacity: 1; stroke-width: 2px; opacity: 1;"/></g><g class="points"/><g class="text"/></g><g class="trace scatter trace888e5a" style="stroke-miterlimit: 2; opacity: 1;"><g class="fills"/><g class="errorbars"/><g class="lines"><path class="js-line" d="M117.45,385L430.65,384.34L443.7,384.13L469.8,383.05L482.85,381.4L495.9,376.31L508.95,318.74L522,317.26" style="vector-effect: none; fill: none; stroke: rgb(92, 184, 92); stroke-opacity: 1; stroke-width: 2px; opacity: 1;"/></g><g class="points"/><g class="text"/></g><g class="trace scatter trace5c2992" style="stroke-miterlimit: 2; opacity: 1;"><g class="fills"/><g class="errorbars"/><g class="lines"><path class="js-line" d="M156.6,385L365.4,384.27L378.45,383.97L404.55,382.33L417.6,378.05L430.65,369.54L443.7,366.06L456.75,372.99L469.8,375.7L482.85,376.35L495.9,373.44L508.95,338.57L522,372.2" style="vector-effect: none; fill: none; stroke: rgb(92, 184, 92); stroke-opacity: 1; stroke-width: 2px; opacity: 1;"/></g><g class="points"/><g class="text"/></g><g class="trace scatter tracefd3397" style="stroke-miterlimit: 2; opacity: 1;"><g class="fills"/><g class="errorbars"/><g class="lines"><path class="js-line" d="M169.65,385L417.6,384.39L430.65,384.23L456.75,383.5L469.8,382.62L482.85,380.65L495.9,374.79L508.95,316.31L522,326.54" style="vector-effect: none; fill: none; stroke: rgb(92, 184, 92); stroke-opacity: 1; stroke-width: 2px; opacity: 1;"/></g><g class="points"/><g class="text"/></g><g class="trace scatter tracec4924c" style="stroke-miterlimit: 2; opacity: 1;"><g class="fills"/><g class="errorbars"/><g class="lines"><path class="js-line" d="M130.5,385L417.6,384.36L430.65,384.2L456.75,383.47L469.8,382.69L482.85,380.43L495.9,372.47L508.95,281.79L522,364.67" style="vector-effect: none; fill: none; stroke: rgb(92, 184, 92); stroke-opacity: 1; stroke-width: 2px; opacity: 1;"/></g><g class="points"/><g class="text"/></g><g class="trace scatter tracef145c8" style="stroke-miterlimit: 2; opacity: 1;"><g class="fills"/><g class="errorbars"/><g class="lines"><path class="js-line" d="M117.45,385L430.65,384.35L443.7,384.13L469.8,383.01L482.85,381.31L495.9,376.04L508.95,320.58L522,319.84" style="vector-effect: none; fill: none; stroke: rgb(92, 184, 92); stroke-opacity: 1; stroke-width: 2px; opacity: 1;"/></g><g class="points"/><g class="text"/></g><g class="trace scatter trace44e732" style="stroke-miterlimit: 2; opacity: 1;"><g class="fills"/><g class="errorbars"/><g class="lines"><path class="js-line" d="M156.6,385L326.25,384.38L339.3,384.21L378.45,382.85L391.5,381.65L404.55,377.78L417.6,359.11L430.65,349.75L443.7,363.66L456.75,369.54L469.8,373.75L482.85,376.22L495.9,373.09L508.95,340.62L522,371.33" style="vector-effect: none; fill: none; stroke: rgb(92, 184, 92); stroke-opacity: 1; stroke-width: 2px; opacity: 1;"/></g><g class="points"/><g class="text"/></g><g class="trace scatter trace6ed415" style="stroke-miterlimit: 2; opacity: 1;"><g class="fills"/><g class="errorbars"/><g class="lines"><path class="js-line" d="M156.6,385L404.55,384.35L417.6,384.19L456.75,382.99L469.8,381.84L482.85,379.32L495.9,371.57L508.95,299.77L522,294.88" style="vector-effect: none; fill: none; stroke: rgb(92, 184, 92); stroke-opacity: 1; stroke-width: 2px; opacity: 1;"/></g><g class="points"/><g class="text"/></g><g class="trace scatter tracef645c8" style="stroke-miterlimit: 2; opacity: 1;"><g class="fills"/><g class="errorbars"/><g class="lines"><path class="js-line" d="M130.5,385L391.5,384.29L404.55,384.19L456.75,382.7L469.8,381.58L482.85,378.39L495.9,366.54L508.95,239.36L522,364.62" style="vector-effect: none; fill: none; stroke: rgb(92, 184, 92); stroke-opacity: 1; stroke-width: 2px; opacity: 1;"/></g><g class="points"/><g class="text"/></g><g class="trace scatter trace623b63" style="stroke-miterlimit: 2; opacity: 1;"><g class="fills"/><g class="errorbars"/><g class="lines"><path class="js-line" d="M117.45,385L417.6,384.25L430.65,384.06L456.75,383.19L469.8,382.18L482.85,379.94L495.9,373.09L508.95,308.09L522,284.88" style="vector-effect: none; fill: none; stroke: rgb(92, 184, 92); stroke-opacity: 1; stroke-width: 2px; opacity: 1;"/></g><g class="points"/><g class="text"/></g></g></g></g><g class="zerolinelayer-above"/><path class="xlines-above crisp" d="M0,0" style="fill: none;"/><path class="ylines-above crisp" d="M0,0" style="fill: none;"/><g class="overlines-above"/><g class="xaxislayer-above"><g class="xtick"><text text-anchor="middle" x="0" y="451" transform="translate(60,0)" style="font-family: 'Lucida Grande', 'Open Sans', verdana, arial, sans-serif; font-size: 10px; fill: rgb(0, 0, 0); fill-opacity: 1; white-space: pre;">0</text></g><g class="xtick"><text text-anchor="middle" x="0" y="451" style="font-family: 'Lucida Grande', 'Open Sans', verdana, arial, sans-serif; font-size: 10px; fill: rgb(0, 0, 0); fill-opacity: 1; white-space: pre;" transform="translate(190.5,0)">10</text></g><g class="xtick"><text text-anchor="middle" x="0" y="451" style="font-family: 'Lucida Grande', 'Open Sans', verdana, arial, sans-serif; font-size: 10px; fill: rgb(0, 0, 0); fill-opacity: 1; white-space: pre;" transform="translate(321,0)">20</text></g><g class="xtick"><text text-anchor="middle" x="0" y="451" style="font-family: 'Lucida Grande', 'Open Sans', verdana, arial, sans-serif; font-size: 10px; fill: rgb(0, 0, 0); fill-opacity: 1; white-space: pre;" transform="translate(451.5,0)">30</text></g><g class="xtick"><text text-anchor="middle" x="0" y="451" style="font-family: 'Lucida Grande', 'Open Sans', verdana, arial, sans-serif; font-size: 10px; fill: rgb(0, 0, 0); fill-opacity: 1; white-space: pre;" transform="translate(582,0)">40</text></g></g><g class="yaxislayer-above"><g class="ytick"><text text-anchor="end" x="54" y="3.5" transform="translate(0,435)" style="font-family: 'Lucida Grande', 'Open Sans', verdana, arial, sans-serif; font-size: 10px; fill: rgb(0, 0, 0); fill-opacity: 1; white-space: pre;">0</text></g><g class="ytick"><text text-anchor="end" x="54" y="3.5" style="font-family: 'Lucida Grande', 'Open Sans', verdana, arial, sans-serif; font-size: 10px; fill: rgb(0, 0, 0); fill-opacity: 1; white-space: pre;" transform="translate(0,389.83)">20M</text></g><g class="ytick"><text text-anchor="end" x="54" y="3.5" style="font-family: 'Lucida Grande', 'Open Sans', verdana, arial, sans-serif; font-size: 10px; fill: rgb(0, 0, 0); fill-opacity: 1; white-space: pre;" transform="translate(0,344.66)">40M</text></g><g class="ytick"><text text-anchor="end" x="54" y="3.5" style="font-family: 'Lucida Grande', 'Open Sans', verdana, arial, sans-serif; font-size: 10px; fill: rgb(0, 0, 0); fill-opacity: 1; white-space: pre;" transform="translate(0,299.49)">60M</text></g><g class="ytick"><text text-anchor="end" x="54" y="3.5" style="font-family: 'Lucida Grande', 'Open Sans', verdana, arial, sans-serif; font-size: 10px; fill: rgb(0, 0, 0); fill-opacity: 1; white-space: pre;" transform="translate(0,254.32)">80M</text></g><g class="ytick"><text text-anchor="end" x="54" y="3.5" style="font-family: 'Lucida Grande', 'Open Sans', verdana, arial, sans-serif; font-size: 10px; fill: rgb(0, 0, 0); fill-opacity: 1; white-space: pre;" transform="translate(0,209.15)">100M</text></g><g class="ytick"><text text-anchor="end" x="54" y="3.5" style="font-family: 'Lucida Grande', 'Open Sans', verdana, arial, sans-serif; font-size: 10px; fill: rgb(0, 0, 0); fill-opacity: 1; white-space: pre;" transform="translate(0,163.99)">120M</text></g><g class="ytick"><text text-anchor="end" x="54" y="3.5" style="font-family: 'Lucida Grande', 'Open Sans', verdana, arial, sans-serif; font-size: 10px; fill: rgb(0, 0, 0); fill-opacity: 1; white-space: pre;" transform="translate(0,118.82)">140M</text></g><g class="ytick"><text text-anchor="end" x="54" y="3.5" style="font-family: 'Lucida Grande', 'Open Sans', verdana, arial, sans-serif; font-size: 10px; fill: rgb(0, 0, 0); fill-opacity: 1; white-space: pre;" transform="translate(0,73.65)">160M</text></g></g><g class="overaxes-above"/></g></g><g class="polarlayer"/><g class="smithlayer"/><g class="ternarylayer"/><g class="geolayer"/><g class="funnelarealayer"/><g class="pielayer"/><g class="iciclelayer"/><g class="treemaplayer"/><g class="sunburstlayer"/><g class="glimages"/><defs id="topdefs-49c79e"><g class="clips"/></defs><g class="layer-above"><g class="imagelayer"/><g class="shapelayer"/></g><g class="infolayer"><g class="g-gtitle"><text class="gtitle" x="300" y="25" text-anchor="middle" dy="0em" style="opacity: 1; font-family: 'Lucida Grande', 'Open Sans', verdana, arial, sans-serif; font-size: 20px; fill: rgb(68, 68, 68); fill-opacity: 1; white-space: pre;"><tspan class="line" dy="0em" x="300" y="25">FastQC: Per Sequence Quality Scores</tspan><tspan class="line" dy="1.3em" x="300" y="25">​<tspan style="font-size:70%" dy="-0.6em">88 samples</tspan><tspan dy="0.42em">​</tspan></tspan></text></g><g class="g-xtitle"><text class="xtitle" x="321" y="487" text-anchor="middle" style="opacity: 0.3; font-family: 'Lucida Grande', 'Open Sans', verdana, arial, sans-serif; font-size: 14px; fill: rgb(0, 0, 0); fill-opacity: 1; white-space: pre;">Mean Sequence Quality (Phred Score)</text></g><g class="g-ytitle"><text class="ytitle" transform="rotate(-90,22,242.5)" x="22" y="242.5" text-anchor="middle" style="opacity: 0.3; font-family: 'Lucida Grande', 'Open Sans', verdana, arial, sans-serif; font-size: 14px; fill: rgb(0, 0, 0); fill-opacity: 1; white-space: pre;">Count</text></g></g></svg>