<svg class="main-svg" xmlns="http://www.w3.org/2000/svg" xmlns:xlink="http://www.w3.org/1999/xlink" width="1200" height="1000" style="" viewBox="0 0 600 500"><rect x="0" y="0" width="600" height="500" style="fill: rgb(255, 255, 255); fill-opacity: 1;"/><defs id="defs-4600c1"><g class="clips"><clipPath id="clip4600c1xyplot" class="plotclip"><rect width="514" height="385"/></clipPath><clipPath class="axesclip" id="clip4600c1x"><rect x="60" y="0" width="514" height="500"/></clipPath><clipPath class="axesclip" id="clip4600c1y"><rect x="0" y="50" width="600" height="385"/></clipPath><clipPath class="axesclip" id="clip4600c1xy"><rect x="60" y="50" width="514" height="385"/></clipPath></g><g class="gradients"/><g class="patterns"/></defs><g class="bglayer"/><g class="layer-below"><g class="imagelayer"/><g class="shapelayer"/></g><g class="cartesianlayer"><g class="subplot xy"><g class="layer-subplot"><g class="shapelayer"/><g class="imagelayer"/></g><g class="minor-gridlayer"><g class="x"/><g class="y"/></g><g class="gridlayer"><g class="x"><path class="xgrid crisp" transform="translate(162.8,0)" d="M0,50v385" style="stroke: rgb(0, 0, 0); stroke-opacity: 0.05; stroke-width: 1px;"/><path class="xgrid crisp" transform="translate(265.6,0)" d="M0,50v385" style="stroke: rgb(0, 0, 0); stroke-opacity: 0.05; stroke-width: 1px;"/><path class="xgrid crisp" transform="translate(368.4,0)" d="M0,50v385" style="stroke: rgb(0, 0, 0); stroke-opacity: 0.05; stroke-width: 1px;"/><path class="xgrid crisp" transform="translate(471.2,0)" d="M0,50v385" style="stroke: rgb(0, 0, 0); stroke-opacity: 0.05; stroke-width: 1px;"/></g><g class="y"><path class="ygrid crisp" transform="translate(0,392.87)" d="M60,0h514" style="stroke: rgb(0, 0, 0); stroke-opacity: 0.05; stroke-width: 1px;"/><path class="ygrid crisp" transform="translate(0,350.74)" d="M60,0h514" style="stroke: rgb(0, 0, 0); stroke-opacity: 0.05; stroke-width: 1px;"/><path class="ygrid crisp" transform="translate(0,308.61)" d="M60,0h514" style="stroke: rgb(0, 0, 0); stroke-opacity: 0.05; stroke-width: 1px;"/><path class="ygrid crisp" transform="translate(0,266.47)" d="M60,0h514" style="stroke: rgb(0, 0, 0); stroke-opacity: 0.05; stroke-width: 1px;"/><path class="ygrid crisp" transform="translate(0,224.34)" d="M60,0h514" style="stroke: rgb(0, 0, 0); stroke-opacity: 0.05; stroke-width: 1px;"/><path class="ygrid crisp" transform="translate(0,182.21)" d="M60,0h514" style="stroke: rgb(0, 0, 0); stroke-opacity: 0.05; stroke-width: 1px;"/><path class="ygrid crisp" transform="translate(0,140.07999999999998)" d="M60,0h514" style="stroke: rgb(0, 0, 0); stroke-opacity: 0.05; stroke-width: 1px;"/><path class="ygrid crisp" transform="translate(0,97.95)" d="M60,0h514" style="stroke: rgb(0, 0, 0); stroke-opacity: 0.05; stroke-width: 1px;"/><path class="ygrid crisp" transform="translate(0,55.82)" d="M60,0h514" style="stroke: rgb(0, 0, 0); stroke-opacity: 0.05; stroke-width: 1px;"/></g></g><g class="zerolinelayer"><path class="xzl zl crisp" transform="translate(60,0)" d="M0,50v385" style="stroke: rgb(0, 0, 0); stroke-opacity: 0.05; stroke-width: 1px;"/><path class="yzl zl crisp" transform="translate(0,435)" d="M60,0h514" style="stroke: rgb(0, 0, 0); stroke-opacity: 0.05; stroke-width: 1px;"/></g><g class="layer-between"><g class="shapelayer"/><g class="imagelayer"/></g><path class="xlines-below"/><path class="ylines-below"/><g class="overlines-below"/><g class="xaxislayer-below"/><g class="yaxislayer-below"/><g class="overaxes-below"/><g class="overplot"><g class="xy" transform="translate(60,50)" clip-path="url(#clip4600c1xyplot)"><g class="scatterlayer mlayer"><g class="trace scatter traced36fa5" style="stroke-miterlimit: 2; opacity: 1;"><g class="fills"/><g class="errorbars"/><g class="lines"><path class="js-line" d="M0,385L143.92,384.4L149.06,384.1L169.62,381.93L174.76,381.12L185.04,378.83L190.18,377.12L200.46,372.95L205.6,369.97L215.88,362.16L221.02,356.73L226.16,350.98L231.3,343.81L241.58,324.68L246.72,313.39L257,290.84L262.14,281.43L267.28,276.5L272.42,275.88L277.56,279.5L282.7,287.14L287.84,298.47L292.98,311.78L303.26,339.33L308.4,350.8L313.54,359.53L318.68,366.11L323.82,371.24L328.96,374.81L339.24,379.05L344.38,380.37L359.8,382.7L364.94,383.14L395.78,384.43L400.92,384.54L467.74,385L472.88,385L514,385" style="vector-effect: none; fill: none; stroke: rgb(240, 173, 78); stroke-opacity: 1; stroke-width: 2px; opacity: 1;"/></g><g class="points"/><g class="text"/></g><g class="trace scatter tracee6ed25" style="stroke-miterlimit: 2; opacity: 1;"><g class="fills"/><g class="errorbars"/><g class="lines"><path class="js-line" d="M0,385L143.92,384.41L149.06,384.1L164.48,382.66L169.62,381.89L185.04,378.74L190.18,376.98L200.46,372.76L205.6,369.73L215.88,361.78L221.02,356.27L226.16,350.49L231.3,343.23L241.58,324.69L246.72,313.92L257,293.3L262.14,284.7L267.28,279.94L272.42,278.84L277.56,281.26L282.7,287.43L287.84,297.68L292.98,310.2L303.26,337.51L308.4,349.28L313.54,358.52L318.68,365.52L323.82,370.85L328.96,374.41L339.24,378.67L344.38,380.12L359.8,382.65L364.94,383.12L390.64,384.3L395.78,384.43L452.32,384.98L457.46,384.99L514,384.44" style="vector-effect: none; fill: none; stroke: rgb(240, 173, 78); stroke-opacity: 1; stroke-width: 2px; opacity: 1;"/></g><g class="points"/><g class="text"/></g><g class="trace scatter trace37da90" style="stroke-miterlimit: 2; opacity: 1;"><g class="fills"/><g class="errorbars"/><g class="lines"><path class="js-line" d="M0,385L138.78,384.47L143.92,384.22L164.48,382.03L169.62,381.09L185.04,377.02L190.18,374.94L200.46,370.42L205.6,367.38L215.88,360.34L221.02,355.77L231.3,345.92L236.44,339.46L246.72,326.45L251.86,319.6L262.14,306.98L267.28,303.32L272.42,301.55L277.56,302.38L282.7,305.2L287.84,310.83L298.12,328.87L303.26,339.13L308.4,348.44L313.54,355.91L323.82,367.27L328.96,370.98L339.24,375.82L344.38,377.48L359.8,380.7L364.94,381.47L380.36,383.01L385.5,383.38L421.48,384.66L426.62,384.74L498.58,385L503.72,385L514,385" style="vector-effect: none; fill: none; stroke: rgb(240, 173, 78); stroke-opacity: 1; stroke-width: 2px; opacity: 1;"/></g><g class="points"/><g class="text"/></g><g class="trace scatter traceb7eb74" style="stroke-miterlimit: 2; opacity: 1;"><g class="fills"/><g class="errorbars"/><g class="lines"><path class="js-line" d="M0,385L138.78,384.49L143.92,384.24L159.34,382.81L164.48,382L179.9,378.62L185.04,376.91L200.46,370.12L205.6,367.04L215.88,359.74L221.02,354.81L231.3,344.05L236.44,337.24L257,310.91L262.14,305.9L267.28,303.39L272.42,302.53L277.56,303.62L282.7,307.18L287.84,313.52L292.98,321.85L308.4,350.04L313.54,357.1L323.82,367.87L328.96,371.38L339.24,376L344.38,377.61L354.66,380.05L359.8,380.9L380.36,383.12L385.5,383.42L421.48,384.65L426.62,384.74L498.58,384.99L503.72,384.99L514,384.45" style="vector-effect: none; fill: none; stroke: rgb(240, 173, 78); stroke-opacity: 1; stroke-width: 2px; opacity: 1;"/></g><g class="points"/><g class="text"/></g><g class="trace scatter tracedd2fd2" style="stroke-miterlimit: 2; opacity: 1;"><g class="fills"/><g class="errorbars"/><g class="lines"><path class="js-line" d="M0,385L133.64,384.47L138.78,384.23L154.2,382.21L159.34,381.03L169.62,377.06L174.76,374.48L179.9,371.37L185.04,366.65L195.32,354.97L200.46,347.75L205.6,337.61L210.74,325.63L215.88,312.15L221.02,295.19L226.16,278.51L231.3,258.39L241.58,206.1L246.72,174.75L262.14,75.92L267.28,51.41L272.42,38.06L277.56,36.94L282.7,47.84L287.84,73.16L292.98,108.47L298.12,151.63L308.4,242.36L313.54,276.65L318.68,304.52L323.82,325.86L328.96,340.6L334.1,350.9L339.24,358.06L344.38,363.7L349.52,368.03L354.66,371.31L364.94,376.31L370.08,377.94L385.5,381.27L390.64,381.94L411.2,383.76L416.34,384.02L447.18,384.88L452.32,384.93L514,385" style="vector-effect: none; fill: none; stroke: rgb(240, 173, 78); stroke-opacity: 1; stroke-width: 2px; opacity: 1;"/></g><g class="points"/><g class="text"/></g><g class="trace scatter traceecd465" style="stroke-miterlimit: 2; opacity: 1;"><g class="fills"/><g class="errorbars"/><g class="lines"><path class="js-line" d="M0,385L133.64,384.46L138.78,384.22L154.2,382.22L159.34,381.03L169.62,377.01L174.76,374.44L179.9,371.24L185.04,366.46L195.32,354.52L200.46,347.01L205.6,336.48L210.74,324.16L215.88,310.13L221.02,292.48L226.16,274.92L231.3,252.43L241.58,194.4L246.72,158.93L262.14,59L267.28,40.82L272.42,33.89L277.56,38.73L282.7,56L287.84,86.43L292.98,125.55L298.12,170.58L308.4,255.65L313.54,287.57L318.68,312.65L323.82,331.94L328.96,343.95L334.1,351.47L344.38,365.43L349.52,369.58L359.8,375.33L364.94,377.26L380.36,380.85L385.5,381.55L406.06,383.43L411.2,383.75L447.18,384.87L452.32,384.92L508.86,384.9L514,382.32" style="vector-effect: none; fill: none; stroke: rgb(240, 173, 78); stroke-opacity: 1; stroke-width: 2px; opacity: 1;"/></g><g class="points"/><g class="text"/></g><g class="trace scatter trace77d132" style="stroke-miterlimit: 2; opacity: 1;"><g class="fills"/><g class="errorbars"/><g class="lines"><path class="js-line" d="M0,385L143.92,384.42L149.06,384.13L164.48,382.62L169.62,381.86L185.04,378.58L190.18,376.75L200.46,372.42L205.6,369.34L215.88,361.41L221.02,356.2L226.16,350.58L231.3,343.51L241.58,325.83L246.72,315.33L257,294.62L262.14,286.15L267.28,282.04L272.42,282.07L277.56,285.52L282.7,292.54L292.98,314.94L298.12,327.43L308.4,351.34L313.54,359.82L318.68,366.54L323.82,371.92L328.96,375.63L334.1,378.17L344.38,381.17L349.52,382.08L364.94,383.54L370.08,383.8L416.34,384.76L421.48,384.82L514,385" style="vector-effect: none; fill: none; stroke: rgb(240, 173, 78); stroke-opacity: 1; stroke-width: 2px; opacity: 1;"/></g><g class="points"/><g class="text"/></g><g class="trace scatter trace3fca70" style="stroke-miterlimit: 2; opacity: 1;"><g class="fills"/><g class="errorbars"/><g class="lines"><path class="js-line" d="M0,385L143.92,384.42L149.06,384.12L164.48,382.6L169.62,381.8L179.9,379.89L185.04,378.45L200.46,372.17L205.6,369.02L215.88,360.86L221.02,355.45L226.16,349.83L231.3,342.85L241.58,325.6L246.72,315.65L257,296.55L262.14,288.56L267.28,284.45L272.42,283.83L277.56,286.51L282.7,292.68L287.84,302.4L292.98,313.99L308.4,350.69L313.54,359.49L318.68,366.45L323.82,371.93L328.96,375.54L334.1,377.93L344.38,381.15L349.52,382.04L364.94,383.56L370.08,383.81L416.34,384.77L421.48,384.81L508.86,384.97L514,384.49" style="vector-effect: none; fill: none; stroke: rgb(240, 173, 78); stroke-opacity: 1; stroke-width: 2px; opacity: 1;"/></g><g class="points"/><g class="text"/></g><g class="trace scatter trace1fe8b0" style="stroke-miterlimit: 2; opacity: 1;"><g class="fills"/><g class="errorbars"/><g class="lines"><path class="js-line" d="M0,385L128.5,384.38L133.64,384.05L143.92,382.95L149.06,381.95L159.34,379.45L164.48,377.67L179.9,370.72L185.04,367.52L205.6,352.34L210.74,347.63L221.02,337.26L226.16,332.18L236.44,319.48L241.58,313.04L251.86,299.69L257,293.82L262.14,290.23L267.28,290.27L272.42,293.36L277.56,299.19L282.7,307.1L287.84,317.11L303.26,349.53L308.4,358.46L313.54,365.21L318.68,370.39L323.82,374.43L328.96,377.17L339.24,380.35L344.38,381.34L359.8,383.25L364.94,383.63L390.64,384.58L395.78,384.67L472.88,385L478.02,385L514,385" style="vector-effect: none; fill: none; stroke: rgb(240, 173, 78); stroke-opacity: 1; stroke-width: 2px; opacity: 1;"/></g><g class="points"/><g class="text"/></g><g class="trace scatter trace4cd253" style="stroke-miterlimit: 2; opacity: 1;"><g class="fills"/><g class="errorbars"/><g class="lines"><path class="js-line" d="M0,385L128.5,384.38L133.64,384.05L149.06,381.99L154.2,380.79L164.48,377.6L169.62,375.51L179.9,370.71L185.04,367.43L205.6,351.68L210.74,346.97L221.02,336.5L226.16,331.12L236.44,318.06L241.58,311.53L251.86,298.22L257,292.93L262.14,289.99L267.28,290.78L272.42,294.1L277.56,300.31L282.7,308.55L287.84,318.71L303.26,351.09L308.4,359.72L313.54,366.29L318.68,371.16L323.82,374.89L328.96,377.41L339.24,380.48L344.38,381.59L359.8,383.38L364.94,383.74L395.78,384.68L400.92,384.75L498.58,384.99L503.72,384.99L514,384.42" style="vector-effect: none; fill: none; stroke: rgb(240, 173, 78); stroke-opacity: 1; stroke-width: 2px; opacity: 1;"/></g><g class="points"/><g class="text"/></g><g class="trace scatter trace8602d8" style="stroke-miterlimit: 2; opacity: 1;"><g class="fills"/><g class="errorbars"/><g class="lines"><path class="js-line" d="M0,385L133.64,384.27L138.78,383.93L154.2,381.96L159.34,380.92L174.76,376.33L179.9,374.35L190.18,368.88L195.32,365.63L210.74,354.87L215.88,352.15L226.16,348.08L231.3,346.36L241.58,341.13L246.72,337.14L257,327.56L262.14,322.54L267.28,318.97L272.42,316.86L277.56,316.66L282.7,318.87L287.84,323.83L292.98,330.54L308.4,352.93L313.54,358.54L323.82,366.93L328.96,369.94L339.24,374.43L344.38,376.08L359.8,379.65L364.94,380.52L385.5,382.82L390.64,383.2L421.48,384.57L426.62,384.68L483.16,385L488.3,385L514,385" style="vector-effect: none; fill: none; stroke: rgb(240, 173, 78); stroke-opacity: 1; stroke-width: 2px; opacity: 1;"/></g><g class="points"/><g class="text"/></g><g class="trace scatter tracebc23c1" style="stroke-miterlimit: 2; opacity: 1;"><g class="fills"/><g class="errorbars"/><g class="lines"><path class="js-line" d="M0,385L133.64,384.3L138.78,383.97L154.2,382.07L159.34,381.03L174.76,376.45L179.9,374.45L190.18,368.98L195.32,365.63L210.74,354.55L215.88,351.67L221.02,349.18L226.16,347.53L236.44,343.19L241.58,340.2L262.14,323.16L267.28,320.63L272.42,319.34L277.56,319.43L282.7,321.55L287.84,325.93L298.12,338.5L303.26,345.74L313.54,358.07L318.68,362.57L328.96,369.03L334.1,371.32L349.52,376.86L354.66,378.26L370.08,381.27L375.22,381.91L400.92,383.85L406.06,384.09L447.18,384.93L452.32,384.95L508.86,384.96L514,384.31" style="vector-effect: none; fill: none; stroke: rgb(240, 173, 78); stroke-opacity: 1; stroke-width: 2px; opacity: 1;"/></g><g class="points"/><g class="text"/></g><g class="trace scatter tracea1702b" style="stroke-miterlimit: 2; opacity: 1;"><g class="fills"/><g class="errorbars"/><g class="lines"><path class="js-line" d="M0,385L154.2,384.32L159.34,383.92L169.62,382.46L174.76,381.36L185.04,377.84L190.18,375.13L200.46,368.12L205.6,364.11L215.88,356.49L221.02,353.26L231.3,346.61L236.44,342.39L241.58,337.21L246.72,330.82L262.14,310.58L267.28,305.62L272.42,302.76L277.56,302.28L282.7,304.39L287.84,309.59L292.98,317.32L298.12,326.47L308.4,346.18L313.54,353.98L318.68,360.45L323.82,365.46L334.1,372.08L339.24,374.27L349.52,377.49L354.66,378.63L370.08,381.08L375.22,381.64L395.78,383.25L400.92,383.51L431.76,384.67L436.9,384.77L498.58,385L503.72,385L514,385" style="vector-effect: none; fill: none; stroke: rgb(240, 173, 78); stroke-opacity: 1; stroke-width: 2px; opacity: 1;"/></g><g class="points"/><g class="text"/></g><g class="trace scatter traceb2f2d1" style="stroke-miterlimit: 2; opacity: 1;"><g class="fills"/><g class="errorbars"/><g class="lines"><path class="js-line" d="M0,385L154.2,384.32L159.34,383.91L174.76,381.33L179.9,379.86L190.18,374.98L195.32,371.61L221.02,352.67L226.16,349.52L236.44,341.35L241.58,336.13L262.14,310.14L267.28,305.86L272.42,303.41L277.56,303.19L282.7,305.47L287.84,310.75L292.98,318.41L298.12,327.68L308.4,346.97L313.54,354.6L318.68,360.89L323.82,365.74L334.1,372.24L339.24,374.4L349.52,377.56L354.66,378.72L370.08,381.19L375.22,381.77L395.78,383.28L400.92,383.53L436.9,384.78L442.04,384.86L508.86,384.98L514,384.58" style="vector-effect: none; fill: none; stroke: rgb(240, 173, 78); stroke-opacity: 1; stroke-width: 2px; opacity: 1;"/></g><g class="points"/><g class="text"/></g><g class="trace scatter trace7c1466" style="stroke-miterlimit: 2; opacity: 1;"><g class="fills"/><g class="errorbars"/><g class="lines"><path class="js-line" d="M0,385L133.64,384.36L138.78,384.08L154.2,382.33L159.34,381.34L169.62,378.34L174.76,376.46L185.04,371.33L190.18,368.19L200.46,360.97L205.6,356.09L221.02,341.77L226.16,338.87L231.3,336.53L236.44,332.63L241.58,329.15L246.72,324.73L262.14,313.42L267.28,311.78L272.42,311.75L277.56,313.61L282.7,316.88L287.84,322.67L303.26,344.66L308.4,350.94L318.68,360.08L323.82,364.01L334.1,369.36L339.24,371.43L349.52,374.72L354.66,376L370.08,379.12L375.22,379.92L395.78,382.36L400.92,382.8L426.62,384.34L431.76,384.52L472.88,384.99L478.02,384.99L514,385" style="vector-effect: none; fill: none; stroke: rgb(240, 173, 78); stroke-opacity: 1; stroke-width: 2px; opacity: 1;"/></g><g class="points"/><g class="text"/></g><g class="trace scatter trace79f75a" style="stroke-miterlimit: 2; opacity: 1;"><g class="fills"/><g class="errorbars"/><g class="lines"><path class="js-line" d="M0,385L133.64,384.36L138.78,384.08L154.2,382.35L159.34,381.39L169.62,378.35L174.76,376.46L185.04,371.24L190.18,368.02L200.46,360.53L205.6,355.52L221.02,340.63L226.16,337.49L231.3,334.66L236.44,330.6L246.72,323.6L251.86,321.29L262.14,316.74L267.28,316.06L272.42,316.18L277.56,317.15L282.7,319.62L287.84,324.68L308.4,350.01L313.54,354.97L323.82,362.92L328.96,365.62L344.38,372.27L349.52,374.06L364.94,378.27L370.08,379.31L385.5,381.46L390.64,381.98L421.48,384.12L426.62,384.33L462.6,384.96L467.74,384.97L508.86,384.96L514,384.28" style="vector-effect: none; fill: none; stroke: rgb(92, 184, 92); stroke-opacity: 1; stroke-width: 2px; opacity: 1;"/></g><g class="points"/><g class="text"/></g><g class="trace scatter tracee226c9" style="stroke-miterlimit: 2; opacity: 1;"><g class="fills"/><g class="errorbars"/><g class="lines"><path class="js-line" d="M0,385L154.2,384.36L159.34,384.02L169.62,382.31L174.76,381.12L179.9,379.56L185.04,376.75L190.18,372.32L195.32,365.95L200.46,357.41L205.6,347.26L210.74,338.06L215.88,332.87L221.02,329.61L226.16,329.18L236.44,332.78L241.58,333.89L251.86,330.81L257,328.02L267.28,321.9L272.42,319.75L277.56,318.72L282.7,318.98L287.84,322.47L292.98,328.06L308.4,348.18L313.54,353.18L323.82,361.4L328.96,364.46L339.24,369.57L344.38,371.68L359.8,376.69L364.94,377.97L385.5,381.44L390.64,382L421.48,384.18L426.62,384.39L462.6,384.98L467.74,384.99L514,385" style="vector-effect: none; fill: none; stroke: rgb(240, 173, 78); stroke-opacity: 1; stroke-width: 2px; opacity: 1;"/></g><g class="points"/><g class="text"/></g><g class="trace scatter trace04a817" style="stroke-miterlimit: 2; opacity: 1;"><g class="fills"/><g class="errorbars"/><g class="lines"><path class="js-line" d="M0,385L154.2,384.37L159.34,384.03L169.62,382.33L174.76,381.15L179.9,379.59L185.04,376.76L190.18,372.27L195.32,365.76L200.46,356.95L205.6,346.44L210.74,337.03L215.88,331.73L221.02,328.59L226.16,328.6L236.44,331.96L241.58,332.53L257,326.68L262.14,323.34L267.28,321.13L272.42,319.77L277.56,319.35L282.7,320.98L287.84,325.4L292.98,330.97L308.4,349.21L313.54,354.01L323.82,361.73L328.96,364.42L349.52,373.52L354.66,375.35L364.94,378.21L370.08,379.3L385.5,381.55L390.64,382.08L416.34,383.94L421.48,384.18L457.46,384.95L462.6,384.97L514,384.42" style="vector-effect: none; fill: none; stroke: rgb(240, 173, 78); stroke-opacity: 1; stroke-width: 2px; opacity: 1;"/></g><g class="points"/><g class="text"/></g><g class="trace scatter trace621c85" style="stroke-miterlimit: 2; opacity: 1;"><g class="fills"/><g class="errorbars"/><g class="lines"><path class="js-line" d="M0,385L149.06,384.37L154.2,384.08L164.48,382.91L169.62,381.75L179.9,378.55L185.04,375.4L190.18,370.51L195.32,363.45L205.6,343.24L210.74,333.73L215.88,328.77L221.02,326.46L226.16,326.43L231.3,329.09L236.44,332.3L241.58,334L246.72,332.84L251.86,330.72L267.28,323.95L272.42,322.37L277.56,322.29L282.7,323.53L287.84,327.02L292.98,332.45L308.4,352.07L313.54,357.27L323.82,365.12L328.96,367.96L339.24,372.34L344.38,374.06L359.8,378.23L364.94,379.3L385.5,382.2L390.64,382.67L421.48,384.38L426.62,384.54L472.88,384.99L478.02,385L514,385" style="vector-effect: none; fill: none; stroke: rgb(240, 173, 78); stroke-opacity: 1; stroke-width: 2px; opacity: 1;"/></g><g class="points"/><g class="text"/></g><g class="trace scatter trace0635e4" style="stroke-miterlimit: 2; opacity: 1;"><g class="fills"/><g class="errorbars"/><g class="lines"><path class="js-line" d="M0,385L149.06,384.37L154.2,384.09L164.48,382.91L169.62,381.74L179.9,378.54L185.04,375.33L190.18,370.3L195.32,363L210.74,332.5L215.88,327.55L221.02,325.13L226.16,324.69L236.44,329.11L241.58,331.16L251.86,330.33L257,328.76L267.28,324.37L272.42,323.49L277.56,323.74L282.7,325.57L287.84,329.57L292.98,334.88L308.4,353.28L313.54,358.06L323.82,365.43L328.96,368.05L344.38,374.16L349.52,375.79L364.94,379.67L370.08,380.54L390.64,382.79L395.78,383.16L431.76,384.67L436.9,384.77L498.58,384.99L503.72,384.99L514,384.43" style="vector-effect: none; fill: none; stroke: rgb(240, 173, 78); stroke-opacity: 1; stroke-width: 2px; opacity: 1;"/></g><g class="points"/><g class="text"/></g><g class="trace scatter traced146b5" style="stroke-miterlimit: 2; opacity: 1;"><g class="fills"/><g class="errorbars"/><g class="lines"><path class="js-line" d="M0,385L143.92,384.48L149.06,384.22L164.48,382.5L169.62,381.17L179.9,377.61L185.04,374.18L190.18,369.04L195.32,361.82L200.46,352.19L205.6,340.48L210.74,329.41L215.88,321.96L221.02,315.42L226.16,310.64L236.44,305.1L241.58,303.95L246.72,302.95L251.86,302.73L257,302.69L262.14,301.89L272.42,300.21L277.56,300.26L282.7,301.38L287.84,305.46L298.12,318.7L303.26,327.31L313.54,341.57L318.68,347.98L323.82,353.38L328.96,357.51L339.24,364.2L344.38,367.14L359.8,374.94L364.94,376.96L375.22,379.86L380.36,380.88L395.78,382.76L400.92,383.18L431.76,384.62L436.9,384.74L493.44,385L498.58,385L514,385" style="vector-effect: none; fill: none; stroke: rgb(92, 184, 92); stroke-opacity: 1; stroke-width: 2px; opacity: 1;"/></g><g class="points"/><g class="text"/></g><g class="trace scatter tracea93022" style="stroke-miterlimit: 2; opacity: 1;"><g class="fills"/><g class="errorbars"/><g class="lines"><path class="js-line" d="M0,385L143.92,384.48L149.06,384.22L164.48,382.49L169.62,381.12L179.9,377.52L185.04,373.97L190.18,368.65L195.32,361.13L200.46,351.08L205.6,338.94L210.74,327.37L215.88,319.02L221.02,311.11L226.16,305.43L231.3,302.54L236.44,300.8L257,301.5L262.14,300L272.42,297.74L277.56,298.09L282.7,300.57L287.84,306.28L292.98,313.75L298.12,322.55L308.4,339.24L313.54,346.18L323.82,356.71L328.96,360.12L339.24,366.36L344.38,369.85L354.66,374.75L359.8,376.69L370.08,379.43L375.22,380.41L390.64,382.39L395.78,382.84L426.62,384.48L431.76,384.62L478.02,384.99L483.16,384.99L514,384.29" style="vector-effect: none; fill: none; stroke: rgb(92, 184, 92); stroke-opacity: 1; stroke-width: 2px; opacity: 1;"/></g><g class="points"/><g class="text"/></g><g class="trace scatter trace78b1d1" style="stroke-miterlimit: 2; opacity: 1;"><g class="fills"/><g class="errorbars"/><g class="lines"><path class="js-line" d="M0,385L138.78,384.44L143.92,384.16L159.34,382.58L164.48,381.72L179.9,377.75L185.04,375.71L195.32,370.4L200.46,366.98L210.74,357.84L215.88,352.12L226.16,338.47L231.3,330.24L251.86,293.17L257,284.67L262.14,278.1L267.28,274.42L272.42,273.76L277.56,275.84L282.7,280.69L287.84,287.99L298.12,305.8L303.26,316.51L313.54,338.08L318.68,346.92L323.82,354.37L328.96,360.46L339.24,368.86L344.38,371.85L354.66,375.84L359.8,377.26L375.22,379.82L380.36,380.43L416.34,383.14L421.48,383.44L457.46,384.75L462.6,384.82L514,385" style="vector-effect: none; fill: none; stroke: rgb(92, 184, 92); stroke-opacity: 1; stroke-width: 2px; opacity: 1;"/></g><g class="points"/><g class="text"/></g><g class="trace scatter traced22c50" style="stroke-miterlimit: 2; opacity: 1;"><g class="fills"/><g class="errorbars"/><g class="lines"><path class="js-line" d="M0,385L138.78,384.45L143.92,384.17L164.48,381.71L169.62,380.65L179.9,377.78L185.04,375.74L195.32,370.43L200.46,367.02L210.74,357.88L215.88,352.16L226.16,338.55L231.3,330.3L251.86,293.27L257,284.75L262.14,278.11L267.28,274.57L272.42,273.93L277.56,276.02L282.7,280.8L287.84,288.04L298.12,305.92L303.26,316.55L313.54,338.09L318.68,346.9L323.82,354.37L328.96,360.48L339.24,368.88L344.38,371.86L354.66,375.84L359.8,377.26L375.22,379.82L380.36,380.43L416.34,383.13L421.48,383.44L457.46,384.75L462.6,384.82L508.86,384.96L514,384.44" style="vector-effect: none; fill: none; stroke: rgb(92, 184, 92); stroke-opacity: 1; stroke-width: 2px; opacity: 1;"/></g><g class="points"/><g class="text"/></g><g class="trace scatter trace64364f" style="stroke-miterlimit: 2; opacity: 1;"><g class="fills"/><g class="errorbars"/><g class="lines"><path class="js-line" d="M0,385L138.78,384.38L143.92,384.05L159.34,382.25L164.48,381.23L174.76,378.48L179.9,376.66L190.18,371.8L195.32,368.96L205.6,361.47L210.74,357.25L215.88,352.64L221.02,346.96L231.3,335.47L236.44,328.55L257,306.62L262.14,302.73L267.28,300.96L272.42,300.19L277.56,301L282.7,303.4L287.84,307.67L292.98,313.5L303.26,327.42L308.4,335.33L318.68,350.24L323.82,356.29L328.96,361.02L334.1,364.63L344.38,370.45L349.52,372.35L364.94,376.59L370.08,377.64L390.64,380.48L395.78,380.94L426.62,383.53L431.76,383.82L457.46,384.78L462.6,384.84L514,385" style="vector-effect: none; fill: none; stroke: rgb(92, 184, 92); stroke-opacity: 1; stroke-width: 2px; opacity: 1;"/></g><g class="points"/><g class="text"/></g><g class="trace scatter trace560ca5" style="stroke-miterlimit: 2; opacity: 1;"><g class="fills"/><g class="errorbars"/><g class="lines"><path class="js-line" d="M0,385L138.78,384.4L143.92,384.07L159.34,382.23L164.48,381.21L174.76,378.49L179.9,376.68L190.18,371.83L195.32,368.98L205.6,361.56L210.74,357.32L215.88,352.78L221.02,347.07L231.3,335.56L236.44,328.72L257,306.71L262.14,302.9L267.28,301.14L272.42,300.21L277.56,301.14L282.7,303.62L287.84,307.75L292.98,313.51L303.26,327.44L308.4,335.48L318.68,350.28L323.82,356.3L328.96,361.02L334.1,364.66L344.38,370.37L349.52,372.35L359.8,375.37L364.94,376.56L380.36,379.28L385.5,379.92L421.48,383.21L426.62,383.51L457.46,384.77L462.6,384.83L508.86,384.97L514,384.45" style="vector-effect: none; fill: none; stroke: rgb(92, 184, 92); stroke-opacity: 1; stroke-width: 2px; opacity: 1;"/></g><g class="points"/><g class="text"/></g><g class="trace scatter traced451bf" style="stroke-miterlimit: 2; opacity: 1;"><g class="fills"/><g class="errorbars"/><g class="lines"><path class="js-line" d="M0,385L133.64,384.45L138.78,384.19L149.06,382.92L154.2,381.87L164.48,378.23L169.62,375.52L179.9,367.74L185.04,361.69L195.32,346.16L200.46,335.58L210.74,305.6L215.88,287.51L231.3,214.11L236.44,183.59L246.72,124.12L251.86,92.48L257,64.22L262.14,41.76L267.28,26.68L272.42,19.25L277.56,20.81L282.7,31.63L287.84,51.72L292.98,77.13L298.12,105.46L303.26,138.46L313.54,209.11L318.68,239.72L323.82,266.45L328.96,288.13L339.24,319.23L344.38,330.88L354.66,346.78L359.8,352.21L370.08,359.98L375.22,362.87L385.5,367.23L390.64,368.92L411.2,375.09L416.34,376.41L442.04,381.97L447.18,382.67L467.74,384.4L472.88,384.58L514,384.99" style="vector-effect: none; fill: none; stroke: rgb(92, 184, 92); stroke-opacity: 1; stroke-width: 2px; opacity: 1;"/></g><g class="points"/><g class="text"/></g><g class="trace scatter trace8c0d73" style="stroke-miterlimit: 2; opacity: 1;"><g class="fills"/><g class="errorbars"/><g class="lines"><path class="js-line" d="M0,385L133.64,384.44L138.78,384.18L149.06,382.92L154.2,381.86L164.48,378.19L169.62,375.48L174.76,372.06L179.9,367.7L185.04,361.72L190.18,354.5L195.32,346.22L200.46,335.68L210.74,305.85L215.88,287.74L231.3,214.47L236.44,184.26L246.72,124.19L251.86,92.98L257,65.32L262.14,42.38L267.28,27.26L272.42,19.83L277.56,21.2L282.7,31.77L287.84,51.47L292.98,77.31L303.26,138.43L308.4,173.99L318.68,239.65L323.82,266.47L328.96,288.16L334.1,304.3L339.24,319.25L344.38,330.97L354.66,346.88L359.8,352.33L370.08,360.11L375.22,363.01L385.5,367.3L390.64,369.01L411.2,375.08L416.34,376.42L442.04,381.98L447.18,382.68L467.74,384.39L472.88,384.57L508.86,384.87L514,382.31" style="vector-effect: none; fill: none; stroke: rgb(240, 173, 78); stroke-opacity: 1; stroke-width: 2px; opacity: 1;"/></g><g class="points"/><g class="text"/></g><g class="trace scatter tracef789b5" style="stroke-miterlimit: 2; opacity: 1;"><g class="fills"/><g class="errorbars"/><g class="lines"><path class="js-line" d="M0,385L138.78,384.41L143.92,384.1L159.34,382.4L164.48,381.49L174.76,379.12L179.9,377.49L190.18,372.93L195.32,370.23L205.6,363.01L210.74,358.51L221.02,347.27L226.16,341.08L236.44,325.15L241.58,317.01L257,291.09L262.14,284.42L267.28,280.77L272.42,280.12L277.56,282.11L282.7,286.97L292.98,302.83L298.12,312.32L313.54,344.37L318.68,352.88L323.82,360.22L328.96,366.01L339.24,373.52L344.38,376.01L354.66,379.31L359.8,380.42L375.22,382.28L380.36,382.63L421.48,384.24L426.62,384.38L488.3,384.99L493.44,384.99L514,385" style="vector-effect: none; fill: none; stroke: rgb(92, 184, 92); stroke-opacity: 1; stroke-width: 2px; opacity: 1;"/></g><g class="points"/><g class="text"/></g><g class="trace scatter traceb8648c" style="stroke-miterlimit: 2; opacity: 1;"><g class="fills"/><g class="errorbars"/><g class="lines"><path class="js-line" d="M0,385L138.78,384.41L143.92,384.1L159.34,382.41L164.48,381.5L179.9,377.48L185.04,375.41L195.32,370.21L200.46,367L210.74,358.59L215.88,353.33L226.16,341.09L231.3,333.68L257,291.3L262.14,284.54L267.28,280.87L272.42,280.15L277.56,282.15L282.7,287.04L287.84,294.38L292.98,303.04L303.26,323.19L308.4,334.4L318.68,352.9L323.82,360.24L328.96,366.03L334.1,370.22L344.38,376.03L349.52,377.8L359.8,380.4L364.94,381.22L385.5,382.91L390.64,383.13L431.76,384.5L436.9,384.61L493.44,384.99L498.58,384.99L514,384.49" style="vector-effect: none; fill: none; stroke: rgb(92, 184, 92); stroke-opacity: 1; stroke-width: 2px; opacity: 1;"/></g><g class="points"/><g class="text"/></g><g class="trace scatter trace1cef9d" style="stroke-miterlimit: 2; opacity: 1;"><g class="fills"/><g class="errorbars"/><g class="lines"><path class="js-line" d="M0,385L128.5,384.36L133.64,384.01L143.92,382.78L149.06,381.64L159.34,378.68L164.48,376.58L174.76,371.4L179.9,368.2L190.18,359.9L195.32,355.53L205.6,345.51L210.74,339.77L226.16,321.25L231.3,315L241.58,302.15L246.72,296.8L257,287.7L262.14,285.78L267.28,286.59L272.42,289.57L277.56,294.57L282.7,301.36L298.12,327.06L303.26,336.19L313.54,352.25L318.68,358.66L323.82,363.98L328.96,368.12L339.24,373.79L344.38,375.78L359.8,379.41L364.94,380.2L385.5,382.06L390.64,382.4L431.76,384.23L436.9,384.39L488.3,384.99L493.44,384.99L514,385" style="vector-effect: none; fill: none; stroke: rgb(240, 173, 78); stroke-opacity: 1; stroke-width: 2px; opacity: 1;"/></g><g class="points"/><g class="text"/></g><g class="trace scatter tracece1193" style="stroke-miterlimit: 2; opacity: 1;"><g class="fills"/><g class="errorbars"/><g class="lines"><path class="js-line" d="M0,385L128.5,384.36L133.64,384.01L143.92,382.75L149.06,381.68L159.34,378.62L164.48,376.52L174.76,371.41L179.9,368.29L195.32,355.62L200.46,350.91L215.88,333.99L221.02,327.35L231.3,315.1L236.44,308.22L251.86,291.93L257,287.94L262.14,285.85L267.28,286.64L272.42,289.51L277.56,294.66L282.7,301.52L287.84,309.65L313.54,352.28L318.68,358.64L323.82,363.92L328.96,368.04L339.24,373.81L344.38,375.79L359.8,379.41L364.94,380.21L385.5,382.08L390.64,382.4L431.76,384.22L436.9,384.38L483.16,384.97L488.3,384.98L514,384.42" style="vector-effect: none; fill: none; stroke: rgb(240, 173, 78); stroke-opacity: 1; stroke-width: 2px; opacity: 1;"/></g><g class="points"/><g class="text"/></g><g class="trace scatter traceaaf3e0" style="stroke-miterlimit: 2; opacity: 1;"><g class="fills"/><g class="errorbars"/><g class="lines"><path class="js-line" d="M0,385L133.64,384.26L138.78,383.91L154.2,381.91L159.34,380.82L174.76,375.79L179.9,373.53L190.18,367.35L195.32,363.69L210.74,351.12L215.88,347.89L226.16,342.42L231.3,340.1L246.72,331.07L251.86,327.23L262.14,320.91L267.28,319.15L272.42,318.12L277.56,318.11L282.7,319.46L287.84,322.23L298.12,330.3L303.26,335.4L318.68,351.66L323.82,356.09L334.1,362.56L339.24,365.15L349.52,368.8L354.66,370.24L370.08,373.25L375.22,374.03L436.9,382.82L442.04,383.34L467.74,384.67L472.88,384.77L514,384.99" style="vector-effect: none; fill: none; stroke: rgb(92, 184, 92); stroke-opacity: 1; stroke-width: 2px; opacity: 1;"/></g><g class="points"/><g class="text"/></g><g class="trace scatter trace7a8c6f" style="stroke-miterlimit: 2; opacity: 1;"><g class="fills"/><g class="errorbars"/><g class="lines"><path class="js-line" d="M0,385L133.64,384.29L138.78,383.96L154.2,382.01L159.34,380.92L169.62,377.85L174.76,375.92L185.04,370.82L190.18,367.53L200.46,359.62L205.6,355.21L215.88,347.93L221.02,344.75L236.44,337.38L241.58,334.67L262.14,320.96L267.28,319.15L272.42,318.16L277.56,318.14L282.7,319.41L287.84,322.18L298.12,330.27L303.26,335.39L318.68,351.62L323.82,356.03L334.1,362.56L339.24,365.14L349.52,368.82L354.66,370.26L370.08,373.24L375.22,374.03L442.04,383.32L447.18,383.71L472.88,384.76L478.02,384.83L508.86,384.94L514,384.31" style="vector-effect: none; fill: none; stroke: rgb(92, 184, 92); stroke-opacity: 1; stroke-width: 2px; opacity: 1;"/></g><g class="points"/><g class="text"/></g><g class="trace scatter tracea54f73" style="stroke-miterlimit: 2; opacity: 1;"><g class="fills"/><g class="errorbars"/><g class="lines"><path class="js-line" d="M0,385L149.06,384.55L154.2,384.21L164.48,382.92L169.62,381.86L179.9,378.53L185.04,375.89L195.32,368.46L200.46,363.82L210.74,354.01L215.88,349.87L236.44,334.2L241.58,329.51L257,312.68L262.14,307.7L267.28,303.94L272.42,301.68L277.56,300.94L282.7,302.19L287.84,305.33L292.98,309.87L298.12,315.49L303.26,322.44L318.68,345.2L323.82,351.55L328.96,357L334.1,361.13L344.38,367.58L349.52,369.63L359.8,373.02L364.94,374.31L385.5,377.68L390.64,378.37L431.76,383.24L436.9,383.66L462.6,384.75L467.74,384.84L514,385" style="vector-effect: none; fill: none; stroke: rgb(92, 184, 92); stroke-opacity: 1; stroke-width: 2px; opacity: 1;"/></g><g class="points"/><g class="text"/></g><g class="trace scatter traceaf609b" style="stroke-miterlimit: 2; opacity: 1;"><g class="fills"/><g class="errorbars"/><g class="lines"><path class="js-line" d="M0,385L149.06,384.55L154.2,384.21L164.48,382.9L169.62,381.85L179.9,378.52L185.04,375.91L195.32,368.44L200.46,363.85L210.74,354.03L215.88,350.01L236.44,334.21L241.58,329.58L257,312.74L262.14,307.85L267.28,304.1L272.42,301.8L277.56,301.04L282.7,302.22L287.84,305.37L292.98,309.94L298.12,315.55L303.26,322.38L318.68,345.22L323.82,351.57L328.96,357L334.1,361.14L344.38,367.56L349.52,369.61L359.8,373.01L364.94,374.31L385.5,377.68L390.64,378.38L436.9,383.67L442.04,384.03L472.88,384.89L478.02,384.92L514,384.57" style="vector-effect: none; fill: none; stroke: rgb(92, 184, 92); stroke-opacity: 1; stroke-width: 2px; opacity: 1;"/></g><g class="points"/><g class="text"/></g><g class="trace scatter trace1e6d4a" style="stroke-miterlimit: 2; opacity: 1;"><g class="fills"/><g class="errorbars"/><g class="lines"><path class="js-line" d="M0,385L133.64,384.33L138.78,384.03L154.2,381.96L159.34,380.73L169.62,377.08L174.76,374.65L185.04,367.93L190.18,363.81L200.46,353.88L205.6,347.45L221.02,330.25L226.16,326.52L236.44,320.56L241.58,318.99L262.14,312.72L267.28,313.21L277.56,314.12L282.7,316.1L292.98,323.45L298.12,327.47L323.82,351.62L328.96,354.85L344.38,362.11L349.52,363.81L364.94,367.91L370.08,368.97L442.04,382.79L447.18,383.33L467.74,384.57L472.88,384.7L514,384.99" style="vector-effect: none; fill: none; stroke: rgb(240, 173, 78); stroke-opacity: 1; stroke-width: 2px; opacity: 1;"/></g><g class="points"/><g class="text"/></g><g class="trace scatter trace257d27" style="stroke-miterlimit: 2; opacity: 1;"><g class="fills"/><g class="errorbars"/><g class="lines"><path class="js-line" d="M0,385L133.64,384.33L138.78,384.03L154.2,381.99L159.34,380.77L169.62,377.1L174.76,374.69L179.9,371.78L185.04,368L195.32,359.37L200.46,353.94L210.74,341.56L215.88,336.36L221.02,330.34L226.16,326.64L236.44,320.63L241.58,319.01L262.14,312.79L267.28,313.29L277.56,314.26L282.7,316.2L292.98,323.5L298.12,327.44L323.82,351.63L328.96,354.87L344.38,362.13L349.52,363.85L364.94,367.89L370.08,368.97L442.04,382.78L447.18,383.32L467.74,384.56L472.88,384.69L508.86,384.94L514,384.27" style="vector-effect: none; fill: none; stroke: rgb(240, 173, 78); stroke-opacity: 1; stroke-width: 2px; opacity: 1;"/></g><g class="points"/><g class="text"/></g><g class="trace scatter tracea3ff68" style="stroke-miterlimit: 2; opacity: 1;"><g class="fills"/><g class="errorbars"/><g class="lines"><path class="js-line" d="M0,385L154.2,384.34L159.34,383.95L169.62,382.07L174.76,380.66L179.9,378.67L185.04,375.19L190.18,369.83L195.32,362.12L200.46,351.58L205.6,339.09L210.74,328.76L215.88,323.46L221.02,319.94L226.16,319.01L231.3,320.95L236.44,324.15L241.58,327.37L246.72,327.49L251.86,326.01L257,323.47L262.14,320.91L267.28,319.85L277.56,318.23L282.7,318.92L287.84,321.35L292.98,325.07L303.26,333.76L308.4,338.67L318.68,348.41L323.82,352.41L334.1,357.72L339.24,359.96L349.52,363.55L354.66,365.01L380.36,370.39L385.5,371.41L442.04,382.72L447.18,383.26L467.74,384.55L472.88,384.69L514,384.98" style="vector-effect: none; fill: none; stroke: rgb(240, 173, 78); stroke-opacity: 1; stroke-width: 2px; opacity: 1;"/></g><g class="points"/><g class="text"/></g><g class="trace scatter trace144acd" style="stroke-miterlimit: 2; opacity: 1;"><g class="fills"/><g class="errorbars"/><g class="lines"><path class="js-line" d="M0,385L154.2,384.33L159.34,383.95L169.62,382.08L174.76,380.69L179.9,378.72L185.04,375.24L190.18,369.89L195.32,362.17L200.46,351.62L205.6,339.07L210.74,328.78L215.88,323.55L221.02,319.98L226.16,319.12L231.3,321.12L236.44,324.26L241.58,327.45L246.72,327.53L251.86,326.06L257,323.62L262.14,321.07L267.28,319.99L277.56,318.31L282.7,318.97L287.84,321.39L292.98,325.09L303.26,333.74L308.4,338.66L318.68,348.39L323.82,352.37L334.1,357.8L339.24,360L354.66,365.02L359.8,366.28L431.76,381.12L436.9,381.97L452.32,383.71L457.46,384.09L488.3,384.9L493.44,384.93L514,384.4" style="vector-effect: none; fill: none; stroke: rgb(240, 173, 78); stroke-opacity: 1; stroke-width: 2px; opacity: 1;"/></g><g class="points"/><g class="text"/></g><g class="trace scatter trace08c646" style="stroke-miterlimit: 2; opacity: 1;"><g class="fills"/><g class="errorbars"/><g class="lines"><path class="js-line" d="M0,385L149.06,384.28L154.2,383.92L164.48,382.44L169.62,381.04L174.76,379.12L179.9,376.31L185.04,371.8L190.18,364.83L195.32,354.7L200.46,341.82L205.6,327.57L210.74,316.86L215.88,312.54L221.02,311.36L226.16,312.96L231.3,317.52L236.44,323.4L241.58,328.07L246.72,329.53L251.86,328.68L267.28,322.22L272.42,321.38L277.56,321.58L282.7,322.85L287.84,325.42L292.98,328.97L303.26,337.76L308.4,342.69L318.68,352.12L323.82,356.03L334.1,361.57L339.24,363.83L349.52,367.05L354.66,368.39L375.22,372.33L380.36,373.19L442.04,383L447.18,383.48L467.74,384.6L472.88,384.72L514,384.98" style="vector-effect: none; fill: none; stroke: rgb(217, 83, 79); stroke-opacity: 1; stroke-width: 2px; opacity: 1;"/></g><g class="points"/><g class="text"/></g><g class="trace scatter trace042d40" style="stroke-miterlimit: 2; opacity: 1;"><g class="fills"/><g class="errorbars"/><g class="lines"><path class="js-line" d="M0,385L149.06,384.28L154.2,383.93L164.48,382.44L169.62,381.03L174.76,379.12L179.9,376.36L185.04,371.86L190.18,364.89L195.32,354.72L200.46,341.81L205.6,327.61L210.74,316.91L215.88,312.64L221.02,311.52L226.16,313.1L231.3,317.59L236.44,323.45L241.58,328.17L246.72,329.61L251.86,328.77L267.28,322.26L272.42,321.42L277.56,321.61L282.7,322.87L287.84,325.47L292.98,329.02L303.26,337.74L308.4,342.65L318.68,352.07L323.82,356L334.1,361.59L339.24,363.83L349.52,367.07L354.66,368.39L375.22,372.33L380.36,373.21L442.04,383.01L447.18,383.49L472.88,384.72L478.02,384.8L508.86,384.95L514,384.42" style="vector-effect: none; fill: none; stroke: rgb(217, 83, 79); stroke-opacity: 1; stroke-width: 2px; opacity: 1;"/></g><g class="points"/><g class="text"/></g><g class="trace scatter trace3be4e2" style="stroke-miterlimit: 2; opacity: 1;"><g class="fills"/><g class="errorbars"/><g class="lines"><path class="js-line" d="M0,385L138.78,384.49L143.92,384.2L159.34,382.13L164.48,380.56L169.62,378.31L174.76,375.06L179.9,370.32L185.04,362.93L190.18,352.6L195.32,337.92L205.6,300.81L210.74,285.93L215.88,279.1L221.02,276.04L226.16,276.89L231.3,281.17L241.58,292.71L246.72,296.34L251.86,297.31L257,295.82L262.14,294.18L267.28,294L272.42,294.01L277.56,294.93L282.7,296.76L287.84,299.75L298.12,309.09L303.26,314.66L323.82,337.47L328.96,341.76L344.38,351.52L349.52,353.97L359.8,358.19L364.94,359.88L390.64,367.46L395.78,369.03L426.62,378.14L431.76,379.39L447.18,382.36L452.32,383.04L472.88,384.5L478.02,384.65L514,384.98" style="vector-effect: none; fill: none; stroke: rgb(217, 83, 79); stroke-opacity: 1; stroke-width: 2px; opacity: 1;"/></g><g class="points"/><g class="text"/></g><g class="trace scatter trace12c9f0" style="stroke-miterlimit: 2; opacity: 1;"><g class="fills"/><g class="errorbars"/><g class="lines"><path class="js-line" d="M0,385L138.78,384.49L143.92,384.19L159.34,382.14L164.48,380.56L169.62,378.3L174.76,375.07L179.9,370.38L185.04,363.03L190.18,352.74L195.32,338.06L205.6,301.09L210.74,286.26L215.88,279.4L221.02,276.29L226.16,277.14L231.3,281.3L241.58,292.76L246.72,296.33L251.86,297.4L257,295.88L262.14,294.16L267.28,294.08L272.42,294.11L277.56,295.01L282.7,296.83L287.84,299.74L298.12,309L303.26,314.55L323.82,337.36L328.96,341.74L344.38,351.49L349.52,353.95L359.8,358.17L364.94,359.92L390.64,367.5L395.78,369.06L426.62,378.15L431.76,379.39L447.18,382.36L452.32,383.04L472.88,384.5L478.02,384.65L508.86,384.93L514,384.27" style="vector-effect: none; fill: none; stroke: rgb(217, 83, 79); stroke-opacity: 1; stroke-width: 2px; opacity: 1;"/></g><g class="points"/><g class="text"/></g><g class="trace scatter traceb223d3" style="stroke-miterlimit: 2; opacity: 1;"><g class="fills"/><g class="errorbars"/><g class="lines"><path class="js-line" d="M0,385L143.92,384.4L149.06,384.1L169.62,381.93L174.76,381.12L185.04,378.83L190.18,377.12L200.46,372.95L205.6,369.97L215.88,362.16L221.02,356.73L226.16,350.98L231.3,343.81L241.58,324.68L246.72,313.39L257,290.84L262.14,281.43L267.28,276.5L272.42,275.88L277.56,279.5L282.7,287.14L287.84,298.47L292.98,311.78L303.26,339.33L308.4,350.8L313.54,359.53L318.68,366.11L323.82,371.24L328.96,374.81L339.24,379.05L344.38,380.37L359.8,382.7L364.94,383.14L395.78,384.43L400.92,384.54L467.74,385L472.88,385L514,385" style="vector-effect: none; fill: none; stroke: rgb(240, 173, 78); stroke-opacity: 1; stroke-width: 2px; opacity: 1;"/></g><g class="points"/><g class="text"/></g><g class="trace scatter trace9143ec" style="stroke-miterlimit: 2; opacity: 1;"><g class="fills"/><g class="errorbars"/><g class="lines"><path class="js-line" d="M0,385L138.78,384.44L143.92,384.16L159.34,382.58L164.48,381.72L179.9,377.75L185.04,375.71L195.32,370.4L200.46,366.98L210.74,357.84L215.88,352.12L226.16,338.47L231.3,330.24L251.86,293.17L257,284.67L262.14,278.1L267.28,274.42L272.42,273.76L277.56,275.84L282.7,280.69L287.84,287.99L298.12,305.8L303.26,316.51L313.54,338.08L318.68,346.92L323.82,354.37L328.96,360.46L339.24,368.86L344.38,371.85L354.66,375.84L359.8,377.26L375.22,379.82L380.36,380.43L416.34,383.14L421.48,383.44L457.46,384.75L462.6,384.82L514,385" style="vector-effect: none; fill: none; stroke: rgb(92, 184, 92); stroke-opacity: 1; stroke-width: 2px; opacity: 1;"/></g><g class="points"/><g class="text"/></g><g class="trace scatter trace3025db" style="stroke-miterlimit: 2; opacity: 1;"><g class="fills"/><g class="errorbars"/><g class="lines"><path class="js-line" d="M0,385L143.92,384.41L149.06,384.1L164.48,382.66L169.62,381.89L185.04,378.74L190.18,376.98L200.46,372.76L205.6,369.73L215.88,361.78L221.02,356.27L226.16,350.49L231.3,343.23L241.58,324.69L246.72,313.92L257,293.3L262.14,284.7L267.28,279.94L272.42,278.84L277.56,281.26L282.7,287.43L287.84,297.68L292.98,310.2L303.26,337.51L308.4,349.28L313.54,358.52L318.68,365.52L323.82,370.85L328.96,374.41L339.24,378.67L344.38,380.12L359.8,382.65L364.94,383.12L390.64,384.3L395.78,384.43L452.32,384.98L457.46,384.99L514,384.44" style="vector-effect: none; fill: none; stroke: rgb(240, 173, 78); stroke-opacity: 1; stroke-width: 2px; opacity: 1;"/></g><g class="points"/><g class="text"/></g><g class="trace scatter traceba8a2b" style="stroke-miterlimit: 2; opacity: 1;"><g class="fills"/><g class="errorbars"/><g class="lines"><path class="js-line" d="M0,385L138.78,384.45L143.92,384.17L164.48,381.71L169.62,380.65L179.9,377.78L185.04,375.74L195.32,370.43L200.46,367.02L210.74,357.88L215.88,352.16L226.16,338.55L231.3,330.3L251.86,293.27L257,284.75L262.14,278.11L267.28,274.57L272.42,273.93L277.56,276.02L282.7,280.8L287.84,288.04L298.12,305.92L303.26,316.55L313.54,338.09L318.68,346.9L323.82,354.37L328.96,360.48L339.24,368.88L344.38,371.86L354.66,375.84L359.8,377.26L375.22,379.82L380.36,380.43L416.34,383.13L421.48,383.44L457.46,384.75L462.6,384.82L508.86,384.96L514,384.44" style="vector-effect: none; fill: none; stroke: rgb(92, 184, 92); stroke-opacity: 1; stroke-width: 2px; opacity: 1;"/></g><g class="points"/><g class="text"/></g><g class="trace scatter tracea89181" style="stroke-miterlimit: 2; opacity: 1;"><g class="fills"/><g class="errorbars"/><g class="lines"><path class="js-line" d="M0,385L138.78,384.47L143.92,384.22L164.48,382.03L169.62,381.09L185.04,377.02L190.18,374.94L200.46,370.42L205.6,367.38L215.88,360.34L221.02,355.77L231.3,345.92L236.44,339.46L246.72,326.45L251.86,319.6L262.14,306.98L267.28,303.32L272.42,301.55L277.56,302.38L282.7,305.2L287.84,310.83L298.12,328.87L303.26,339.13L308.4,348.44L313.54,355.91L323.82,367.27L328.96,370.98L339.24,375.82L344.38,377.48L359.8,380.7L364.94,381.47L380.36,383.01L385.5,383.38L421.48,384.66L426.62,384.74L498.58,385L503.72,385L514,385" style="vector-effect: none; fill: none; stroke: rgb(240, 173, 78); stroke-opacity: 1; stroke-width: 2px; opacity: 1;"/></g><g class="points"/><g class="text"/></g><g class="trace scatter trace4f7982" style="stroke-miterlimit: 2; opacity: 1;"><g class="fills"/><g class="errorbars"/><g class="lines"><path class="js-line" d="M0,385L138.78,384.38L143.92,384.05L159.34,382.25L164.48,381.23L174.76,378.48L179.9,376.66L190.18,371.8L195.32,368.96L205.6,361.47L210.74,357.25L215.88,352.64L221.02,346.96L231.3,335.47L236.44,328.55L257,306.62L262.14,302.73L267.28,300.96L272.42,300.19L277.56,301L282.7,303.4L287.84,307.67L292.98,313.5L303.26,327.42L308.4,335.33L318.68,350.24L323.82,356.29L328.96,361.02L334.1,364.63L344.38,370.45L349.52,372.35L364.94,376.59L370.08,377.64L390.64,380.48L395.78,380.94L426.62,383.53L431.76,383.82L457.46,384.78L462.6,384.84L514,385" style="vector-effect: none; fill: none; stroke: rgb(92, 184, 92); stroke-opacity: 1; stroke-width: 2px; opacity: 1;"/></g><g class="points"/><g class="text"/></g><g class="trace scatter trace8fbe7c" style="stroke-miterlimit: 2; opacity: 1;"><g class="fills"/><g class="errorbars"/><g class="lines"><path class="js-line" d="M0,385L138.78,384.49L143.92,384.24L159.34,382.81L164.48,382L179.9,378.62L185.04,376.91L200.46,370.12L205.6,367.04L215.88,359.74L221.02,354.81L231.3,344.05L236.44,337.24L257,310.91L262.14,305.9L267.28,303.39L272.42,302.53L277.56,303.62L282.7,307.18L287.84,313.52L292.98,321.85L308.4,350.04L313.54,357.1L323.82,367.87L328.96,371.38L339.24,376L344.38,377.61L354.66,380.05L359.8,380.9L380.36,383.12L385.5,383.42L421.48,384.65L426.62,384.74L498.58,384.99L503.72,384.99L514,384.45" style="vector-effect: none; fill: none; stroke: rgb(240, 173, 78); stroke-opacity: 1; stroke-width: 2px; opacity: 1;"/></g><g class="points"/><g class="text"/></g><g class="trace scatter tracef4ac46" style="stroke-miterlimit: 2; opacity: 1;"><g class="fills"/><g class="errorbars"/><g class="lines"><path class="js-line" d="M0,385L138.78,384.4L143.92,384.07L159.34,382.23L164.48,381.21L174.76,378.49L179.9,376.68L190.18,371.83L195.32,368.98L205.6,361.56L210.74,357.32L215.88,352.78L221.02,347.07L231.3,335.56L236.44,328.72L257,306.71L262.14,302.9L267.28,301.14L272.42,300.21L277.56,301.14L282.7,303.62L287.84,307.75L292.98,313.51L303.26,327.44L308.4,335.48L318.68,350.28L323.82,356.3L328.96,361.02L334.1,364.66L344.38,370.37L349.52,372.35L359.8,375.37L364.94,376.56L380.36,379.28L385.5,379.92L421.48,383.21L426.62,383.51L457.46,384.77L462.6,384.83L508.86,384.97L514,384.45" style="vector-effect: none; fill: none; stroke: rgb(92, 184, 92); stroke-opacity: 1; stroke-width: 2px; opacity: 1;"/></g><g class="points"/><g class="text"/></g><g class="trace scatter traceafecec" style="stroke-miterlimit: 2; opacity: 1;"><g class="fills"/><g class="errorbars"/><g class="lines"><path class="js-line" d="M0,385L133.64,384.47L138.78,384.23L154.2,382.21L159.34,381.03L169.62,377.06L174.76,374.48L179.9,371.37L185.04,366.65L195.32,354.97L200.46,347.75L205.6,337.61L210.74,325.63L215.88,312.15L221.02,295.19L226.16,278.51L231.3,258.39L241.58,206.1L246.72,174.75L262.14,75.92L267.28,51.41L272.42,38.06L277.56,36.94L282.7,47.84L287.84,73.16L292.98,108.47L298.12,151.63L308.4,242.36L313.54,276.65L318.68,304.52L323.82,325.86L328.96,340.6L334.1,350.9L339.24,358.06L344.38,363.7L349.52,368.03L354.66,371.31L364.94,376.31L370.08,377.94L385.5,381.27L390.64,381.94L411.2,383.76L416.34,384.02L447.18,384.88L452.32,384.93L514,385" style="vector-effect: none; fill: none; stroke: rgb(240, 173, 78); stroke-opacity: 1; stroke-width: 2px; opacity: 1;"/></g><g class="points"/><g class="text"/></g><g class="trace scatter trace8c43a6" style="stroke-miterlimit: 2; opacity: 1;"><g class="fills"/><g class="errorbars"/><g class="lines"><path class="js-line" d="M0,385L133.64,384.45L138.78,384.19L149.06,382.92L154.2,381.87L164.48,378.23L169.62,375.52L179.9,367.74L185.04,361.69L195.32,346.16L200.46,335.58L210.74,305.6L215.88,287.51L231.3,214.11L236.44,183.59L246.72,124.12L251.86,92.48L257,64.22L262.14,41.76L267.28,26.68L272.42,19.25L277.56,20.81L282.7,31.63L287.84,51.72L292.98,77.13L298.12,105.46L303.26,138.46L313.54,209.11L318.68,239.72L323.82,266.45L328.96,288.13L339.24,319.23L344.38,330.88L354.66,346.78L359.8,352.21L370.08,359.98L375.22,362.87L385.5,367.23L390.64,368.92L411.2,375.09L416.34,376.41L442.04,381.97L447.18,382.67L467.74,384.4L472.88,384.58L514,384.99" style="vector-effect: none; fill: none; stroke: rgb(92, 184, 92); stroke-opacity: 1; stroke-width: 2px; opacity: 1;"/></g><g class="points"/><g class="text"/></g><g class="trace scatter traceedde4c" style="stroke-miterlimit: 2; opacity: 1;"><g class="fills"/><g class="errorbars"/><g class="lines"><path class="js-line" d="M0,385L133.64,384.46L138.78,384.22L154.2,382.22L159.34,381.03L169.62,377.01L174.76,374.44L179.9,371.24L185.04,366.46L195.32,354.52L200.46,347.01L205.6,336.48L210.74,324.16L215.88,310.13L221.02,292.48L226.16,274.92L231.3,252.43L241.58,194.4L246.72,158.93L262.14,59L267.28,40.82L272.42,33.89L277.56,38.73L282.7,56L287.84,86.43L292.98,125.55L298.12,170.58L308.4,255.65L313.54,287.57L318.68,312.65L323.82,331.94L328.96,343.95L334.1,351.47L344.38,365.43L349.52,369.58L359.8,375.33L364.94,377.26L380.36,380.85L385.5,381.55L406.06,383.43L411.2,383.75L447.18,384.87L452.32,384.92L508.86,384.9L514,382.32" style="vector-effect: none; fill: none; stroke: rgb(240, 173, 78); stroke-opacity: 1; stroke-width: 2px; opacity: 1;"/></g><g class="points"/><g class="text"/></g><g class="trace scatter trace753207" style="stroke-miterlimit: 2; opacity: 1;"><g class="fills"/><g class="errorbars"/><g class="lines"><path class="js-line" d="M0,385L133.64,384.44L138.78,384.18L149.06,382.92L154.2,381.86L164.48,378.19L169.62,375.48L174.76,372.06L179.9,367.7L185.04,361.72L190.18,354.5L195.32,346.22L200.46,335.68L210.74,305.85L215.88,287.74L231.3,214.47L236.44,184.26L246.72,124.19L251.86,92.98L257,65.32L262.14,42.38L267.28,27.26L272.42,19.83L277.56,21.2L282.7,31.77L287.84,51.47L292.98,77.31L303.26,138.43L308.4,173.99L318.68,239.65L323.82,266.47L328.96,288.16L334.1,304.3L339.24,319.25L344.38,330.97L354.66,346.88L359.8,352.33L370.08,360.11L375.22,363.01L385.5,367.3L390.64,369.01L411.2,375.08L416.34,376.42L442.04,381.98L447.18,382.68L467.74,384.39L472.88,384.57L508.86,384.87L514,382.31" style="vector-effect: none; fill: none; stroke: rgb(240, 173, 78); stroke-opacity: 1; stroke-width: 2px; opacity: 1;"/></g><g class="points"/><g class="text"/></g><g class="trace scatter trace451ba8" style="stroke-miterlimit: 2; opacity: 1;"><g class="fills"/><g class="errorbars"/><g class="lines"><path class="js-line" d="M0,385L143.92,384.42L149.06,384.13L164.48,382.62L169.62,381.86L185.04,378.58L190.18,376.75L200.46,372.42L205.6,369.34L215.88,361.41L221.02,356.2L226.16,350.58L231.3,343.51L241.58,325.83L246.72,315.33L257,294.62L262.14,286.15L267.28,282.04L272.42,282.07L277.56,285.52L282.7,292.54L292.98,314.94L298.12,327.43L308.4,351.34L313.54,359.82L318.68,366.54L323.82,371.92L328.96,375.63L334.1,378.17L344.38,381.17L349.52,382.08L364.94,383.54L370.08,383.8L416.34,384.76L421.48,384.82L514,385" style="vector-effect: none; fill: none; stroke: rgb(240, 173, 78); stroke-opacity: 1; stroke-width: 2px; opacity: 1;"/></g><g class="points"/><g class="text"/></g><g class="trace scatter trace15ae3f" style="stroke-miterlimit: 2; opacity: 1;"><g class="fills"/><g class="errorbars"/><g class="lines"><path class="js-line" d="M0,385L138.78,384.41L143.92,384.1L159.34,382.4L164.48,381.49L174.76,379.12L179.9,377.49L190.18,372.93L195.32,370.23L205.6,363.01L210.74,358.51L221.02,347.27L226.16,341.08L236.44,325.15L241.58,317.01L257,291.09L262.14,284.42L267.28,280.77L272.42,280.12L277.56,282.11L282.7,286.97L292.98,302.83L298.12,312.32L313.54,344.37L318.68,352.88L323.82,360.22L328.96,366.01L339.24,373.52L344.38,376.01L354.66,379.31L359.8,380.42L375.22,382.28L380.36,382.63L421.48,384.24L426.62,384.38L488.3,384.99L493.44,384.99L514,385" style="vector-effect: none; fill: none; stroke: rgb(92, 184, 92); stroke-opacity: 1; stroke-width: 2px; opacity: 1;"/></g><g class="points"/><g class="text"/></g><g class="trace scatter tracef07fe2" style="stroke-miterlimit: 2; opacity: 1;"><g class="fills"/><g class="errorbars"/><g class="lines"><path class="js-line" d="M0,385L143.92,384.42L149.06,384.12L164.48,382.6L169.62,381.8L179.9,379.89L185.04,378.45L200.46,372.17L205.6,369.02L215.88,360.86L221.02,355.45L226.16,349.83L231.3,342.85L241.58,325.6L246.72,315.65L257,296.55L262.14,288.56L267.28,284.45L272.42,283.83L277.56,286.51L282.7,292.68L287.84,302.4L292.98,313.99L308.4,350.69L313.54,359.49L318.68,366.45L323.82,371.93L328.96,375.54L334.1,377.93L344.38,381.15L349.52,382.04L364.94,383.56L370.08,383.81L416.34,384.77L421.48,384.81L508.86,384.97L514,384.49" style="vector-effect: none; fill: none; stroke: rgb(240, 173, 78); stroke-opacity: 1; stroke-width: 2px; opacity: 1;"/></g><g class="points"/><g class="text"/></g><g class="trace scatter trace109ac6" style="stroke-miterlimit: 2; opacity: 1;"><g class="fills"/><g class="errorbars"/><g class="lines"><path class="js-line" d="M0,385L138.78,384.41L143.92,384.1L159.34,382.41L164.48,381.5L179.9,377.48L185.04,375.41L195.32,370.21L200.46,367L210.74,358.59L215.88,353.33L226.16,341.09L231.3,333.68L257,291.3L262.14,284.54L267.28,280.87L272.42,280.15L277.56,282.15L282.7,287.04L287.84,294.38L292.98,303.04L303.26,323.19L308.4,334.4L318.68,352.9L323.82,360.24L328.96,366.03L334.1,370.22L344.38,376.03L349.52,377.8L359.8,380.4L364.94,381.22L385.5,382.91L390.64,383.13L431.76,384.5L436.9,384.61L493.44,384.99L498.58,384.99L514,384.49" style="vector-effect: none; fill: none; stroke: rgb(92, 184, 92); stroke-opacity: 1; stroke-width: 2px; opacity: 1;"/></g><g class="points"/><g class="text"/></g><g class="trace scatter traced88d6e" style="stroke-miterlimit: 2; opacity: 1;"><g class="fills"/><g class="errorbars"/><g class="lines"><path class="js-line" d="M0,385L128.5,384.38L133.64,384.05L143.92,382.95L149.06,381.95L159.34,379.45L164.48,377.67L179.9,370.72L185.04,367.52L205.6,352.34L210.74,347.63L221.02,337.26L226.16,332.18L236.44,319.48L241.58,313.04L251.86,299.69L257,293.82L262.14,290.23L267.28,290.27L272.42,293.36L277.56,299.19L282.7,307.1L287.84,317.11L303.26,349.53L308.4,358.46L313.54,365.21L318.68,370.39L323.82,374.43L328.96,377.17L339.24,380.35L344.38,381.34L359.8,383.25L364.94,383.63L390.64,384.58L395.78,384.67L472.88,385L478.02,385L514,385" style="vector-effect: none; fill: none; stroke: rgb(240, 173, 78); stroke-opacity: 1; stroke-width: 2px; opacity: 1;"/></g><g class="points"/><g class="text"/></g><g class="trace scatter traced33d70" style="stroke-miterlimit: 2; opacity: 1;"><g class="fills"/><g class="errorbars"/><g class="lines"><path class="js-line" d="M0,385L128.5,384.36L133.64,384.01L143.92,382.78L149.06,381.64L159.34,378.68L164.48,376.58L174.76,371.4L179.9,368.2L190.18,359.9L195.32,355.53L205.6,345.51L210.74,339.77L226.16,321.25L231.3,315L241.58,302.15L246.72,296.8L257,287.7L262.14,285.78L267.28,286.59L272.42,289.57L277.56,294.57L282.7,301.36L298.12,327.06L303.26,336.19L313.54,352.25L318.68,358.66L323.82,363.98L328.96,368.12L339.24,373.79L344.38,375.78L359.8,379.41L364.94,380.2L385.5,382.06L390.64,382.4L431.76,384.23L436.9,384.39L488.3,384.99L493.44,384.99L514,385" style="vector-effect: none; fill: none; stroke: rgb(240, 173, 78); stroke-opacity: 1; stroke-width: 2px; opacity: 1;"/></g><g class="points"/><g class="text"/></g><g class="trace scatter tracef3bd87" style="stroke-miterlimit: 2; opacity: 1;"><g class="fills"/><g class="errorbars"/><g class="lines"><path class="js-line" d="M0,385L128.5,384.38L133.64,384.05L149.06,381.99L154.2,380.79L164.48,377.6L169.62,375.51L179.9,370.71L185.04,367.43L205.6,351.68L210.74,346.97L221.02,336.5L226.16,331.12L236.44,318.06L241.58,311.53L251.86,298.22L257,292.93L262.14,289.99L267.28,290.78L272.42,294.1L277.56,300.31L282.7,308.55L287.84,318.71L303.26,351.09L308.4,359.72L313.54,366.29L318.68,371.16L323.82,374.89L328.96,377.41L339.24,380.48L344.38,381.59L359.8,383.38L364.94,383.74L395.78,384.68L400.92,384.75L498.58,384.99L503.72,384.99L514,384.42" style="vector-effect: none; fill: none; stroke: rgb(240, 173, 78); stroke-opacity: 1; stroke-width: 2px; opacity: 1;"/></g><g class="points"/><g class="text"/></g><g class="trace scatter trace3bb0b8" style="stroke-miterlimit: 2; opacity: 1;"><g class="fills"/><g class="errorbars"/><g class="lines"><path class="js-line" d="M0,385L128.5,384.36L133.64,384.01L143.92,382.75L149.06,381.68L159.34,378.62L164.48,376.52L174.76,371.41L179.9,368.29L195.32,355.62L200.46,350.91L215.88,333.99L221.02,327.35L231.3,315.1L236.44,308.22L251.86,291.93L257,287.94L262.14,285.85L267.28,286.64L272.42,289.51L277.56,294.66L282.7,301.52L287.84,309.65L313.54,352.28L318.68,358.64L323.82,363.92L328.96,368.04L339.24,373.81L344.38,375.79L359.8,379.41L364.94,380.21L385.5,382.08L390.64,382.4L431.76,384.22L436.9,384.38L483.16,384.97L488.3,384.98L514,384.42" style="vector-effect: none; fill: none; stroke: rgb(240, 173, 78); stroke-opacity: 1; stroke-width: 2px; opacity: 1;"/></g><g class="points"/><g class="text"/></g><g class="trace scatter traced8291f" style="stroke-miterlimit: 2; opacity: 1;"><g class="fills"/><g class="errorbars"/><g class="lines"><path class="js-line" d="M0,385L133.64,384.27L138.78,383.93L154.2,381.96L159.34,380.92L174.76,376.33L179.9,374.35L190.18,368.88L195.32,365.63L210.74,354.87L215.88,352.15L226.16,348.08L231.3,346.36L241.58,341.13L246.72,337.14L257,327.56L262.14,322.54L267.28,318.97L272.42,316.86L277.56,316.66L282.7,318.87L287.84,323.83L292.98,330.54L308.4,352.93L313.54,358.54L323.82,366.93L328.96,369.94L339.24,374.43L344.38,376.08L359.8,379.65L364.94,380.52L385.5,382.82L390.64,383.2L421.48,384.57L426.62,384.68L483.16,385L488.3,385L514,385" style="vector-effect: none; fill: none; stroke: rgb(240, 173, 78); stroke-opacity: 1; stroke-width: 2px; opacity: 1;"/></g><g class="points"/><g class="text"/></g><g class="trace scatter trace84b750" style="stroke-miterlimit: 2; opacity: 1;"><g class="fills"/><g class="errorbars"/><g class="lines"><path class="js-line" d="M0,385L133.64,384.26L138.78,383.91L154.2,381.91L159.34,380.82L174.76,375.79L179.9,373.53L190.18,367.35L195.32,363.69L210.74,351.12L215.88,347.89L226.16,342.42L231.3,340.1L246.72,331.07L251.86,327.23L262.14,320.91L267.28,319.15L272.42,318.12L277.56,318.11L282.7,319.46L287.84,322.23L298.12,330.3L303.26,335.4L318.68,351.66L323.82,356.09L334.1,362.56L339.24,365.15L349.52,368.8L354.66,370.24L370.08,373.25L375.22,374.03L436.9,382.82L442.04,383.34L467.74,384.67L472.88,384.77L514,384.99" style="vector-effect: none; fill: none; stroke: rgb(92, 184, 92); stroke-opacity: 1; stroke-width: 2px; opacity: 1;"/></g><g class="points"/><g class="text"/></g><g class="trace scatter traced0f232" style="stroke-miterlimit: 2; opacity: 1;"><g class="fills"/><g class="errorbars"/><g class="lines"><path class="js-line" d="M0,385L133.64,384.3L138.78,383.97L154.2,382.07L159.34,381.03L174.76,376.45L179.9,374.45L190.18,368.98L195.32,365.63L210.74,354.55L215.88,351.67L221.02,349.18L226.16,347.53L236.44,343.19L241.58,340.2L262.14,323.16L267.28,320.63L272.42,319.34L277.56,319.43L282.7,321.55L287.84,325.93L298.12,338.5L303.26,345.74L313.54,358.07L318.68,362.57L328.96,369.03L334.1,371.32L349.52,376.86L354.66,378.26L370.08,381.27L375.22,381.91L400.92,383.85L406.06,384.09L447.18,384.93L452.32,384.95L508.86,384.96L514,384.31" style="vector-effect: none; fill: none; stroke: rgb(240, 173, 78); stroke-opacity: 1; stroke-width: 2px; opacity: 1;"/></g><g class="points"/><g class="text"/></g><g class="trace scatter trace81c4e2" style="stroke-miterlimit: 2; opacity: 1;"><g class="fills"/><g class="errorbars"/><g class="lines"><path class="js-line" d="M0,385L133.64,384.29L138.78,383.96L154.2,382.01L159.34,380.92L169.62,377.85L174.76,375.92L185.04,370.82L190.18,367.53L200.46,359.62L205.6,355.21L215.88,347.93L221.02,344.75L236.44,337.38L241.58,334.67L262.14,320.96L267.28,319.15L272.42,318.16L277.56,318.14L282.7,319.41L287.84,322.18L298.12,330.27L303.26,335.39L318.68,351.62L323.82,356.03L334.1,362.56L339.24,365.14L349.52,368.82L354.66,370.26L370.08,373.24L375.22,374.03L442.04,383.32L447.18,383.71L472.88,384.76L478.02,384.83L508.86,384.94L514,384.31" style="vector-effect: none; fill: none; stroke: rgb(92, 184, 92); stroke-opacity: 1; stroke-width: 2px; opacity: 1;"/></g><g class="points"/><g class="text"/></g><g class="trace scatter trace8baf6e" style="stroke-miterlimit: 2; opacity: 1;"><g class="fills"/><g class="errorbars"/><g class="lines"><path class="js-line" d="M0,385L154.2,384.32L159.34,383.92L169.62,382.46L174.76,381.36L185.04,377.84L190.18,375.13L200.46,368.12L205.6,364.11L215.88,356.49L221.02,353.26L231.3,346.61L236.44,342.39L241.58,337.21L246.72,330.82L262.14,310.58L267.28,305.62L272.42,302.76L277.56,302.28L282.7,304.39L287.84,309.59L292.98,317.32L298.12,326.47L308.4,346.18L313.54,353.98L318.68,360.45L323.82,365.46L334.1,372.08L339.24,374.27L349.52,377.49L354.66,378.63L370.08,381.08L375.22,381.64L395.78,383.25L400.92,383.51L431.76,384.67L436.9,384.77L498.58,385L503.72,385L514,385" style="vector-effect: none; fill: none; stroke: rgb(240, 173, 78); stroke-opacity: 1; stroke-width: 2px; opacity: 1;"/></g><g class="points"/><g class="text"/></g><g class="trace scatter trace17e144" style="stroke-miterlimit: 2; opacity: 1;"><g class="fills"/><g class="errorbars"/><g class="lines"><path class="js-line" d="M0,385L149.06,384.55L154.2,384.21L164.48,382.92L169.62,381.86L179.9,378.53L185.04,375.89L195.32,368.46L200.46,363.82L210.74,354.01L215.88,349.87L236.44,334.2L241.58,329.51L257,312.68L262.14,307.7L267.28,303.94L272.42,301.68L277.56,300.94L282.7,302.19L287.84,305.33L292.98,309.87L298.12,315.49L303.26,322.44L318.68,345.2L323.82,351.55L328.96,357L334.1,361.13L344.38,367.58L349.52,369.63L359.8,373.02L364.94,374.31L385.5,377.68L390.64,378.37L431.76,383.24L436.9,383.66L462.6,384.75L467.74,384.84L514,385" style="vector-effect: none; fill: none; stroke: rgb(92, 184, 92); stroke-opacity: 1; stroke-width: 2px; opacity: 1;"/></g><g class="points"/><g class="text"/></g><g class="trace scatter tracee5d87f" style="stroke-miterlimit: 2; opacity: 1;"><g class="fills"/><g class="errorbars"/><g class="lines"><path class="js-line" d="M0,385L154.2,384.32L159.34,383.91L174.76,381.33L179.9,379.86L190.18,374.98L195.32,371.61L221.02,352.67L226.16,349.52L236.44,341.35L241.58,336.13L262.14,310.14L267.28,305.86L272.42,303.41L277.56,303.19L282.7,305.47L287.84,310.75L292.98,318.41L298.12,327.68L308.4,346.97L313.54,354.6L318.68,360.89L323.82,365.74L334.1,372.24L339.24,374.4L349.52,377.56L354.66,378.72L370.08,381.19L375.22,381.77L395.78,383.28L400.92,383.53L436.9,384.78L442.04,384.86L508.86,384.98L514,384.58" style="vector-effect: none; fill: none; stroke: rgb(240, 173, 78); stroke-opacity: 1; stroke-width: 2px; opacity: 1;"/></g><g class="points"/><g class="text"/></g><g class="trace scatter trace4e197d" style="stroke-miterlimit: 2; opacity: 1;"><g class="fills"/><g class="errorbars"/><g class="lines"><path class="js-line" d="M0,385L149.06,384.55L154.2,384.21L164.48,382.9L169.62,381.85L179.9,378.52L185.04,375.91L195.32,368.44L200.46,363.85L210.74,354.03L215.88,350.01L236.44,334.21L241.58,329.58L257,312.74L262.14,307.85L267.28,304.1L272.42,301.8L277.56,301.04L282.7,302.22L287.84,305.37L292.98,309.94L298.12,315.55L303.26,322.38L318.68,345.22L323.82,351.57L328.96,357L334.1,361.14L344.38,367.56L349.52,369.61L359.8,373.01L364.94,374.31L385.5,377.68L390.64,378.38L436.9,383.67L442.04,384.03L472.88,384.89L478.02,384.92L514,384.57" style="vector-effect: none; fill: none; stroke: rgb(92, 184, 92); stroke-opacity: 1; stroke-width: 2px; opacity: 1;"/></g><g class="points"/><g class="text"/></g><g class="trace scatter tracec17be2" style="stroke-miterlimit: 2; opacity: 1;"><g class="fills"/><g class="errorbars"/><g class="lines"><path class="js-line" d="M0,385L133.64,384.36L138.78,384.08L154.2,382.33L159.34,381.34L169.62,378.34L174.76,376.46L185.04,371.33L190.18,368.19L200.46,360.97L205.6,356.09L221.02,341.77L226.16,338.87L231.3,336.53L236.44,332.63L241.58,329.15L246.72,324.73L262.14,313.42L267.28,311.78L272.42,311.75L277.56,313.61L282.7,316.88L287.84,322.67L303.26,344.66L308.4,350.94L318.68,360.08L323.82,364.01L334.1,369.36L339.24,371.43L349.52,374.72L354.66,376L370.08,379.12L375.22,379.92L395.78,382.36L400.92,382.8L426.62,384.34L431.76,384.52L472.88,384.99L478.02,384.99L514,385" style="vector-effect: none; fill: none; stroke: rgb(240, 173, 78); stroke-opacity: 1; stroke-width: 2px; opacity: 1;"/></g><g class="points"/><g class="text"/></g><g class="trace scatter traceb7db91" style="stroke-miterlimit: 2; opacity: 1;"><g class="fills"/><g class="errorbars"/><g class="lines"><path class="js-line" d="M0,385L133.64,384.33L138.78,384.03L154.2,381.96L159.34,380.73L169.62,377.08L174.76,374.65L185.04,367.93L190.18,363.81L200.46,353.88L205.6,347.45L221.02,330.25L226.16,326.52L236.44,320.56L241.58,318.99L262.14,312.72L267.28,313.21L277.56,314.12L282.7,316.1L292.98,323.45L298.12,327.47L323.82,351.62L328.96,354.85L344.38,362.11L349.52,363.81L364.94,367.91L370.08,368.97L442.04,382.79L447.18,383.33L467.74,384.57L472.88,384.7L514,384.99" style="vector-effect: none; fill: none; stroke: rgb(240, 173, 78); stroke-opacity: 1; stroke-width: 2px; opacity: 1;"/></g><g class="points"/><g class="text"/></g><g class="trace scatter tracea557c7" style="stroke-miterlimit: 2; opacity: 1;"><g class="fills"/><g class="errorbars"/><g class="lines"><path class="js-line" d="M0,385L133.64,384.36L138.78,384.08L154.2,382.35L159.34,381.39L169.62,378.35L174.76,376.46L185.04,371.24L190.18,368.02L200.46,360.53L205.6,355.52L221.02,340.63L226.16,337.49L231.3,334.66L236.44,330.6L246.72,323.6L251.86,321.29L262.14,316.74L267.28,316.06L272.42,316.18L277.56,317.15L282.7,319.62L287.84,324.68L308.4,350.01L313.54,354.97L323.82,362.92L328.96,365.62L344.38,372.27L349.52,374.06L364.94,378.27L370.08,379.31L385.5,381.46L390.64,381.98L421.48,384.12L426.62,384.33L462.6,384.96L467.74,384.97L508.86,384.96L514,384.28" style="vector-effect: none; fill: none; stroke: rgb(92, 184, 92); stroke-opacity: 1; stroke-width: 2px; opacity: 1;"/></g><g class="points"/><g class="text"/></g><g class="trace scatter trace7a7a1a" style="stroke-miterlimit: 2; opacity: 1;"><g class="fills"/><g class="errorbars"/><g class="lines"><path class="js-line" d="M0,385L133.64,384.33L138.78,384.03L154.2,381.99L159.34,380.77L169.62,377.1L174.76,374.69L179.9,371.78L185.04,368L195.32,359.37L200.46,353.94L210.74,341.56L215.88,336.36L221.02,330.34L226.16,326.64L236.44,320.63L241.58,319.01L262.14,312.79L267.28,313.29L277.56,314.26L282.7,316.2L292.98,323.5L298.12,327.44L323.82,351.63L328.96,354.87L344.38,362.13L349.52,363.85L364.94,367.89L370.08,368.97L442.04,382.78L447.18,383.32L467.74,384.56L472.88,384.69L508.86,384.94L514,384.27" style="vector-effect: none; fill: none; stroke: rgb(240, 173, 78); stroke-opacity: 1; stroke-width: 2px; opacity: 1;"/></g><g class="points"/><g class="text"/></g><g class="trace scatter trace1484bc" style="stroke-miterlimit: 2; opacity: 1;"><g class="fills"/><g class="errorbars"/><g class="lines"><path class="js-line" d="M0,385L154.2,384.36L159.34,384.02L169.62,382.31L174.76,381.12L179.9,379.56L185.04,376.75L190.18,372.32L195.32,365.95L200.46,357.41L205.6,347.26L210.74,338.06L215.88,332.87L221.02,329.61L226.16,329.18L236.44,332.78L241.58,333.89L251.86,330.81L257,328.02L267.28,321.9L272.42,319.75L277.56,318.72L282.7,318.98L287.84,322.47L292.98,328.06L308.4,348.18L313.54,353.18L323.82,361.4L328.96,364.46L339.24,369.57L344.38,371.68L359.8,376.69L364.94,377.97L385.5,381.44L390.64,382L421.48,384.18L426.62,384.39L462.6,384.98L467.74,384.99L514,385" style="vector-effect: none; fill: none; stroke: rgb(240, 173, 78); stroke-opacity: 1; stroke-width: 2px; opacity: 1;"/></g><g class="points"/><g class="text"/></g><g class="trace scatter tracec9e978" style="stroke-miterlimit: 2; opacity: 1;"><g class="fills"/><g class="errorbars"/><g class="lines"><path class="js-line" d="M0,385L154.2,384.34L159.34,383.95L169.62,382.07L174.76,380.66L179.9,378.67L185.04,375.19L190.18,369.83L195.32,362.12L200.46,351.58L205.6,339.09L210.74,328.76L215.88,323.46L221.02,319.94L226.16,319.01L231.3,320.95L236.44,324.15L241.58,327.37L246.72,327.49L251.86,326.01L257,323.47L262.14,320.91L267.28,319.85L277.56,318.23L282.7,318.92L287.84,321.35L292.98,325.07L303.26,333.76L308.4,338.67L318.68,348.41L323.82,352.41L334.1,357.72L339.24,359.96L349.52,363.55L354.66,365.01L380.36,370.39L385.5,371.41L442.04,382.72L447.18,383.26L467.74,384.55L472.88,384.69L514,384.98" style="vector-effect: none; fill: none; stroke: rgb(240, 173, 78); stroke-opacity: 1; stroke-width: 2px; opacity: 1;"/></g><g class="points"/><g class="text"/></g><g class="trace scatter trace5966c2" style="stroke-miterlimit: 2; opacity: 1;"><g class="fills"/><g class="errorbars"/><g class="lines"><path class="js-line" d="M0,385L154.2,384.37L159.34,384.03L169.62,382.33L174.76,381.15L179.9,379.59L185.04,376.76L190.18,372.27L195.32,365.76L200.46,356.95L205.6,346.44L210.74,337.03L215.88,331.73L221.02,328.59L226.16,328.6L236.44,331.96L241.58,332.53L257,326.68L262.14,323.34L267.28,321.13L272.42,319.77L277.56,319.35L282.7,320.98L287.84,325.4L292.98,330.97L308.4,349.21L313.54,354.01L323.82,361.73L328.96,364.42L349.52,373.52L354.66,375.35L364.94,378.21L370.08,379.3L385.5,381.55L390.64,382.08L416.34,383.94L421.48,384.18L457.46,384.95L462.6,384.97L514,384.42" style="vector-effect: none; fill: none; stroke: rgb(240, 173, 78); stroke-opacity: 1; stroke-width: 2px; opacity: 1;"/></g><g class="points"/><g class="text"/></g><g class="trace scatter trace7823a2" style="stroke-miterlimit: 2; opacity: 1;"><g class="fills"/><g class="errorbars"/><g class="lines"><path class="js-line" d="M0,385L154.2,384.33L159.34,383.95L169.62,382.08L174.76,380.69L179.9,378.72L185.04,375.24L190.18,369.89L195.32,362.17L200.46,351.62L205.6,339.07L210.74,328.78L215.88,323.55L221.02,319.98L226.16,319.12L231.3,321.12L236.44,324.26L241.58,327.45L246.72,327.53L251.86,326.06L257,323.62L262.14,321.07L267.28,319.99L277.56,318.31L282.7,318.97L287.84,321.39L292.98,325.09L303.26,333.74L308.4,338.66L318.68,348.39L323.82,352.37L334.1,357.8L339.24,360L354.66,365.02L359.8,366.28L431.76,381.12L436.9,381.97L452.32,383.71L457.46,384.09L488.3,384.9L493.44,384.93L514,384.4" style="vector-effect: none; fill: none; stroke: rgb(240, 173, 78); stroke-opacity: 1; stroke-width: 2px; opacity: 1;"/></g><g class="points"/><g class="text"/></g><g class="trace scatter trace2de9ae" style="stroke-miterlimit: 2; opacity: 1;"><g class="fills"/><g class="errorbars"/><g class="lines"><path class="js-line" d="M0,385L149.06,384.37L154.2,384.08L164.48,382.91L169.62,381.75L179.9,378.55L185.04,375.4L190.18,370.51L195.32,363.45L205.6,343.24L210.74,333.73L215.88,328.77L221.02,326.46L226.16,326.43L231.3,329.09L236.44,332.3L241.58,334L246.72,332.84L251.86,330.72L267.28,323.95L272.42,322.37L277.56,322.29L282.7,323.53L287.84,327.02L292.98,332.45L308.4,352.07L313.54,357.27L323.82,365.12L328.96,367.96L339.24,372.34L344.38,374.06L359.8,378.23L364.94,379.3L385.5,382.2L390.64,382.67L421.48,384.38L426.62,384.54L472.88,384.99L478.02,385L514,385" style="vector-effect: none; fill: none; stroke: rgb(240, 173, 78); stroke-opacity: 1; stroke-width: 2px; opacity: 1;"/></g><g class="points"/><g class="text"/></g><g class="trace scatter trace896657" style="stroke-miterlimit: 2; opacity: 1;"><g class="fills"/><g class="errorbars"/><g class="lines"><path class="js-line" d="M0,385L149.06,384.28L154.2,383.92L164.48,382.44L169.62,381.04L174.76,379.12L179.9,376.31L185.04,371.8L190.18,364.83L195.32,354.7L200.46,341.82L205.6,327.57L210.74,316.86L215.88,312.54L221.02,311.36L226.16,312.96L231.3,317.52L236.44,323.4L241.58,328.07L246.72,329.53L251.86,328.68L267.28,322.22L272.42,321.38L277.56,321.58L282.7,322.85L287.84,325.42L292.98,328.97L303.26,337.76L308.4,342.69L318.68,352.12L323.82,356.03L334.1,361.57L339.24,363.83L349.52,367.05L354.66,368.39L375.22,372.33L380.36,373.19L442.04,383L447.18,383.48L467.74,384.6L472.88,384.72L514,384.98" style="vector-effect: none; fill: none; stroke: rgb(217, 83, 79); stroke-opacity: 1; stroke-width: 2px; opacity: 1;"/></g><g class="points"/><g class="text"/></g><g class="trace scatter trace068078" style="stroke-miterlimit: 2; opacity: 1;"><g class="fills"/><g class="errorbars"/><g class="lines"><path class="js-line" d="M0,385L149.06,384.37L154.2,384.09L164.48,382.91L169.62,381.74L179.9,378.54L185.04,375.33L190.18,370.3L195.32,363L210.74,332.5L215.88,327.55L221.02,325.13L226.16,324.69L236.44,329.11L241.58,331.16L251.86,330.33L257,328.76L267.28,324.37L272.42,323.49L277.56,323.74L282.7,325.57L287.84,329.57L292.98,334.88L308.4,353.28L313.54,358.06L323.82,365.43L328.96,368.05L344.38,374.16L349.52,375.79L364.94,379.67L370.08,380.54L390.64,382.79L395.78,383.16L431.76,384.67L436.9,384.77L498.58,384.99L503.72,384.99L514,384.43" style="vector-effect: none; fill: none; stroke: rgb(240, 173, 78); stroke-opacity: 1; stroke-width: 2px; opacity: 1;"/></g><g class="points"/><g class="text"/></g><g class="trace scatter trace591f72" style="stroke-miterlimit: 2; opacity: 1;"><g class="fills"/><g class="errorbars"/><g class="lines"><path class="js-line" d="M0,385L149.06,384.28L154.2,383.93L164.48,382.44L169.62,381.03L174.76,379.12L179.9,376.36L185.04,371.86L190.18,364.89L195.32,354.72L200.46,341.81L205.6,327.61L210.74,316.91L215.88,312.64L221.02,311.52L226.16,313.1L231.3,317.59L236.44,323.45L241.58,328.17L246.72,329.61L251.86,328.77L267.28,322.26L272.42,321.42L277.56,321.61L282.7,322.87L287.84,325.47L292.98,329.02L303.26,337.74L308.4,342.65L318.68,352.07L323.82,356L334.1,361.59L339.24,363.83L349.52,367.07L354.66,368.39L375.22,372.33L380.36,373.21L442.04,383.01L447.18,383.49L472.88,384.72L478.02,384.8L508.86,384.95L514,384.42" style="vector-effect: none; fill: none; stroke: rgb(217, 83, 79); stroke-opacity: 1; stroke-width: 2px; opacity: 1;"/></g><g class="points"/><g class="text"/></g><g class="trace scatter trace3c83da" style="stroke-miterlimit: 2; opacity: 1;"><g class="fills"/><g class="errorbars"/><g class="lines"><path class="js-line" d="M0,385L143.92,384.48L149.06,384.22L164.48,382.5L169.62,381.17L179.9,377.61L185.04,374.18L190.18,369.04L195.32,361.82L200.46,352.19L205.6,340.48L210.74,329.41L215.88,321.96L221.02,315.42L226.16,310.64L236.44,305.1L241.58,303.95L246.72,302.95L251.86,302.73L257,302.69L262.14,301.89L272.42,300.21L277.56,300.26L282.7,301.38L287.84,305.46L298.12,318.7L303.26,327.31L313.54,341.57L318.68,347.98L323.82,353.38L328.96,357.51L339.24,364.2L344.38,367.14L359.8,374.94L364.94,376.96L375.22,379.86L380.36,380.88L395.78,382.76L400.92,383.18L431.76,384.62L436.9,384.74L493.44,385L498.58,385L514,385" style="vector-effect: none; fill: none; stroke: rgb(92, 184, 92); stroke-opacity: 1; stroke-width: 2px; opacity: 1;"/></g><g class="points"/><g class="text"/></g><g class="trace scatter trace1eefe2" style="stroke-miterlimit: 2; opacity: 1;"><g class="fills"/><g class="errorbars"/><g class="lines"><path class="js-line" d="M0,385L138.78,384.49L143.92,384.2L159.34,382.13L164.48,380.56L169.62,378.31L174.76,375.06L179.9,370.32L185.04,362.93L190.18,352.6L195.32,337.92L205.6,300.81L210.74,285.93L215.88,279.1L221.02,276.04L226.16,276.89L231.3,281.17L241.58,292.71L246.72,296.34L251.86,297.31L257,295.82L262.14,294.18L267.28,294L272.42,294.01L277.56,294.93L282.7,296.76L287.84,299.75L298.12,309.09L303.26,314.66L323.82,337.47L328.96,341.76L344.38,351.52L349.52,353.97L359.8,358.19L364.94,359.88L390.64,367.46L395.78,369.03L426.62,378.14L431.76,379.39L447.18,382.36L452.32,383.04L472.88,384.5L478.02,384.65L514,384.98" style="vector-effect: none; fill: none; stroke: rgb(217, 83, 79); stroke-opacity: 1; stroke-width: 2px; opacity: 1;"/></g><g class="points"/><g class="text"/></g><g class="trace scatter tracef249e6" style="stroke-miterlimit: 2; opacity: 1;"><g class="fills"/><g class="errorbars"/><g class="lines"><path class="js-line" d="M0,385L143.92,384.48L149.06,384.22L164.48,382.49L169.62,381.12L179.9,377.52L185.04,373.97L190.18,368.65L195.32,361.13L200.46,351.08L205.6,338.94L210.74,327.37L215.88,319.02L221.02,311.11L226.16,305.43L231.3,302.54L236.44,300.8L257,301.5L262.14,300L272.42,297.74L277.56,298.09L282.7,300.57L287.84,306.28L292.98,313.75L298.12,322.55L308.4,339.24L313.54,346.18L323.82,356.71L328.96,360.12L339.24,366.36L344.38,369.85L354.66,374.75L359.8,376.69L370.08,379.43L375.22,380.41L390.64,382.39L395.78,382.84L426.62,384.48L431.76,384.62L478.02,384.99L483.16,384.99L514,384.29" style="vector-effect: none; fill: none; stroke: rgb(92, 184, 92); stroke-opacity: 1; stroke-width: 2px; opacity: 1;"/></g><g class="points"/><g class="text"/></g><g class="trace scatter trace1b0f6d" style="stroke-miterlimit: 2; opacity: 1;"><g class="fills"/><g class="errorbars"/><g class="lines"><path class="js-line" d="M0,385L138.78,384.49L143.92,384.19L159.34,382.14L164.48,380.56L169.62,378.3L174.76,375.07L179.9,370.38L185.04,363.03L190.18,352.74L195.32,338.06L205.6,301.09L210.74,286.26L215.88,279.4L221.02,276.29L226.16,277.14L231.3,281.3L241.58,292.76L246.72,296.33L251.86,297.4L257,295.88L262.14,294.16L267.28,294.08L272.42,294.11L277.56,295.01L282.7,296.83L287.84,299.74L298.12,309L303.26,314.55L323.82,337.36L328.96,341.74L344.38,351.49L349.52,353.95L359.8,358.17L364.94,359.92L390.64,367.5L395.78,369.06L426.62,378.15L431.76,379.39L447.18,382.36L452.32,383.04L472.88,384.5L478.02,384.65L508.86,384.93L514,384.27" style="vector-effect: none; fill: none; stroke: rgb(217, 83, 79); stroke-opacity: 1; stroke-width: 2px; opacity: 1;"/></g><g class="points"/><g class="text"/></g></g></g></g><g class="zerolinelayer-above"/><path class="xlines-above crisp" d="M0,0" style="fill: none;"/><path class="ylines-above crisp" d="M0,0" style="fill: none;"/><g class="overlines-above"/><g class="xaxislayer-above"><g class="xtick"><text text-anchor="middle" x="0" y="451" transform="translate(60,0)" style="font-family: 'Lucida Grande', 'Open Sans', verdana, arial, sans-serif; font-size: 10px; fill: rgb(0, 0, 0); fill-opacity: 1; white-space: pre;">0%</text></g><g class="xtick"><text text-anchor="middle" x="0" y="451" style="font-family: 'Lucida Grande', 'Open Sans', verdana, arial, sans-serif; font-size: 10px; fill: rgb(0, 0, 0); fill-opacity: 1; white-space: pre;" transform="translate(162.8,0)">20%</text></g><g class="xtick"><text text-anchor="middle" x="0" y="451" style="font-family: 'Lucida Grande', 'Open Sans', verdana, arial, sans-serif; font-size: 10px; fill: rgb(0, 0, 0); fill-opacity: 1; white-space: pre;" transform="translate(265.6,0)">40%</text></g><g class="xtick"><text text-anchor="middle" x="0" y="451" style="font-family: 'Lucida Grande', 'Open Sans', verdana, arial, sans-serif; font-size: 10px; fill: rgb(0, 0, 0); fill-opacity: 1; white-space: pre;" transform="translate(368.4,0)">60%</text></g><g class="xtick"><text text-anchor="middle" x="0" y="451" style="font-family: 'Lucida Grande', 'Open Sans', verdana, arial, sans-serif; font-size: 10px; fill: rgb(0, 0, 0); fill-opacity: 1; white-space: pre;" transform="translate(471.2,0)">80%</text></g><g class="xtick"><text text-anchor="middle" x="0" y="451" style="font-family: 'Lucida Grande', 'Open Sans', verdana, arial, sans-serif; font-size: 10px; fill: rgb(0, 0, 0); fill-opacity: 1; white-space: pre;" transform="translate(574,0)">100%</text></g></g><g class="yaxislayer-above"><g class="ytick"><text text-anchor="end" x="54" y="3.5" transform="translate(0,435)" style="font-family: 'Lucida Grande', 'Open Sans', verdana, arial, sans-serif; font-size: 10px; fill: rgb(0, 0, 0); fill-opacity: 1; white-space: pre;">0</text></g><g class="ytick"><text text-anchor="end" x="54" y="3.5" style="font-family: 'Lucida Grande', 'Open Sans', verdana, arial, sans-serif; font-size: 10px; fill: rgb(0, 0, 0); fill-opacity: 1; white-space: pre;" transform="translate(0,392.87)">2M</text></g><g class="ytick"><text text-anchor="end" x="54" y="3.5" style="font-family: 'Lucida Grande', 'Open Sans', verdana, arial, sans-serif; font-size: 10px; fill: rgb(0, 0, 0); fill-opacity: 1; white-space: pre;" transform="translate(0,350.74)">4M</text></g><g class="ytick"><text text-anchor="end" x="54" y="3.5" style="font-family: 'Lucida Grande', 'Open Sans', verdana, arial, sans-serif; font-size: 10px; fill: rgb(0, 0, 0); fill-opacity: 1; white-space: pre;" transform="translate(0,308.61)">6M</text></g><g class="ytick"><text text-anchor="end" x="54" y="3.5" style="font-family: 'Lucida Grande', 'Open Sans', verdana, arial, sans-serif; font-size: 10px; fill: rgb(0, 0, 0); fill-opacity: 1; white-space: pre;" transform="translate(0,266.47)">8M</text></g><g class="ytick"><text text-anchor="end" x="54" y="3.5" style="font-family: 'Lucida Grande', 'Open Sans', verdana, arial, sans-serif; font-size: 10px; fill: rgb(0, 0, 0); fill-opacity: 1; white-space: pre;" transform="translate(0,224.34)">10M</text></g><g class="ytick"><text text-anchor="end" x="54" y="3.5" style="font-family: 'Lucida Grande', 'Open Sans', verdana, arial, sans-serif; font-size: 10px; fill: rgb(0, 0, 0); fill-opacity: 1; white-space: pre;" transform="translate(0,182.21)">12M</text></g><g class="ytick"><text text-anchor="end" x="54" y="3.5" style="font-family: 'Lucida Grande', 'Open Sans', verdana, arial, sans-serif; font-size: 10px; fill: rgb(0, 0, 0); fill-opacity: 1; white-space: pre;" transform="translate(0,140.07999999999998)">14M</text></g><g class="ytick"><text text-anchor="end" x="54" y="3.5" style="font-family: 'Lucida Grande', 'Open Sans', verdana, arial, sans-serif; font-size: 10px; fill: rgb(0, 0, 0); fill-opacity: 1; white-space: pre;" transform="translate(0,97.95)">16M</text></g><g class="ytick"><text text-anchor="end" x="54" y="3.5" style="font-family: 'Lucida Grande', 'Open Sans', verdana, arial, sans-serif; font-size: 10px; fill: rgb(0, 0, 0); fill-opacity: 1; white-space: pre;" transform="translate(0,55.82)">18M</text></g></g><g class="overaxes-above"/></g></g><g class="polarlayer"/><g class="smithlayer"/><g class="ternarylayer"/><g class="geolayer"/><g class="funnelarealayer"/><g class="pielayer"/><g class="iciclelayer"/><g class="treemaplayer"/><g class="sunburstlayer"/><g class="glimages"/><defs id="topdefs-4600c1"><g class="clips"/></defs><g class="layer-above"><g class="imagelayer"/><g class="shapelayer"/></g><g class="infolayer"><g class="g-gtitle"><text class="gtitle" x="300" y="25" text-anchor="middle" dy="0em" style="opacity: 1; font-family: 'Lucida Grande', 'Open Sans', verdana, arial, sans-serif; font-size: 20px; fill: rgb(68, 68, 68); fill-opacity: 1; white-space: pre;"><tspan class="line" dy="0em" x="300" y="25">FastQC: Per Sequence GC Content</tspan><tspan class="line" dy="1.3em" x="300" y="25">​<tspan style="font-size:70%" dy="-0.6em">Counts, 88 samples</tspan><tspan dy="0.42em">​</tspan></tspan></text></g><g class="g-xtitle"><text class="xtitle" x="317" y="487" text-anchor="middle" style="opacity: 0.3; font-family: 'Lucida Grande', 'Open Sans', verdana, arial, sans-serif; font-size: 14px; fill: rgb(0, 0, 0); fill-opacity: 1; white-space: pre;">% GC</text></g><g class="g-ytitle"><text class="ytitle" transform="rotate(-90,22,242.5)" x="22" y="242.5" text-anchor="middle" style="opacity: 0.3; font-family: 'Lucida Grande', 'Open Sans', verdana, arial, sans-serif; font-size: 14px; fill: rgb(0, 0, 0); fill-opacity: 1; white-space: pre;">Count</text></g></g></svg>