<svg class="main-svg" xmlns="http://www.w3.org/2000/svg" xmlns:xlink="http://www.w3.org/1999/xlink" width="1200" height="1000" style="" viewBox="0 0 600 500"><rect x="0" y="0" width="600" height="500" style="fill: rgb(255, 255, 255); fill-opacity: 1;"/><defs id="defs-63c32c"><g class="clips"><clipPath id="clip63c32cxyplot" class="plotclip"><rect width="514" height="385"/></clipPath><clipPath class="axesclip" id="clip63c32cx"><rect x="60" y="0" width="514" height="500"/></clipPath><clipPath class="axesclip" id="clip63c32cy"><rect x="0" y="50" width="600" height="385"/></clipPath><clipPath class="axesclip" id="clip63c32cxy"><rect x="60" y="50" width="514" height="385"/></clipPath></g><g class="gradients"/><g class="patterns"/></defs><g class="bglayer"/><g class="layer-below"><g class="imagelayer"/><g class="shapelayer"/></g><g class="cartesianlayer"><g class="subplot xy"><g class="layer-subplot"><g class="shapelayer"/><g class="imagelayer"/></g><g class="minor-gridlayer"><g class="x"/><g class="y"/></g><g class="gridlayer"><g class="x"><path class="xgrid crisp" transform="translate(162.8,0)" d="M0,50v385" style="stroke: rgb(0, 0, 0); stroke-opacity: 0.05; stroke-width: 1px;"/><path class="xgrid crisp" transform="translate(265.6,0)" d="M0,50v385" style="stroke: rgb(0, 0, 0); stroke-opacity: 0.05; stroke-width: 1px;"/><path class="xgrid crisp" transform="translate(368.4,0)" d="M0,50v385" style="stroke: rgb(0, 0, 0); stroke-opacity: 0.05; stroke-width: 1px;"/><path class="xgrid crisp" transform="translate(471.2,0)" d="M0,50v385" style="stroke: rgb(0, 0, 0); stroke-opacity: 0.05; stroke-width: 1px;"/></g><g class="y"><path class="ygrid crisp" transform="translate(0,384.61)" d="M60,0h514" style="stroke: rgb(0, 0, 0); stroke-opacity: 0.05; stroke-width: 1px;"/><path class="ygrid crisp" transform="translate(0,334.21)" d="M60,0h514" style="stroke: rgb(0, 0, 0); stroke-opacity: 0.05; stroke-width: 1px;"/><path class="ygrid crisp" transform="translate(0,283.82)" d="M60,0h514" style="stroke: rgb(0, 0, 0); stroke-opacity: 0.05; stroke-width: 1px;"/><path class="ygrid crisp" transform="translate(0,233.43)" d="M60,0h514" style="stroke: rgb(0, 0, 0); stroke-opacity: 0.05; stroke-width: 1px;"/><path class="ygrid crisp" transform="translate(0,183.04)" d="M60,0h514" style="stroke: rgb(0, 0, 0); stroke-opacity: 0.05; stroke-width: 1px;"/><path class="ygrid crisp" transform="translate(0,132.64)" d="M60,0h514" style="stroke: rgb(0, 0, 0); stroke-opacity: 0.05; stroke-width: 1px;"/><path class="ygrid crisp" transform="translate(0,82.25)" d="M60,0h514" style="stroke: rgb(0, 0, 0); stroke-opacity: 0.05; stroke-width: 1px;"/></g></g><g class="zerolinelayer"><path class="xzl zl crisp" transform="translate(60,0)" d="M0,50v385" style="stroke: rgb(0, 0, 0); stroke-opacity: 0.05; stroke-width: 1px;"/><path class="yzl zl crisp" transform="translate(0,435)" d="M60,0h514" style="stroke: rgb(0, 0, 0); stroke-opacity: 0.05; stroke-width: 1px;"/></g><g class="layer-between"><g class="shapelayer"/><g class="imagelayer"/></g><path class="xlines-below"/><path class="ylines-below"/><g class="overlines-below"/><g class="xaxislayer-below"/><g class="yaxislayer-below"/><g class="overaxes-below"/><g class="overplot"><g class="xy" transform="translate(60,50)" clip-path="url(#clip63c32cxyplot)"><g class="scatterlayer mlayer"><g class="trace scatter tracef8479a" style="stroke-miterlimit: 2; opacity: 1;"><g class="fills"/><g class="errorbars"/><g class="lines"><path class="js-line" d="M0,385L128.5,384.35L133.64,384.04L143.92,382.98L149.06,381.99L159.34,379.33L164.48,377.24L179.9,368.83L185.04,364.31L195.32,352.25L200.46,344.61L205.6,334.63L210.74,322.79L215.88,308.45L221.02,290.25L226.16,270.98L231.3,246.94L241.58,182.82L246.72,144.97L257,69.4L262.14,37.86L267.28,21.34L272.42,19.25L277.56,31.37L282.7,57L287.84,94.97L292.98,139.57L303.26,231.93L308.4,270.37L313.54,299.62L318.68,321.67L323.82,338.89L328.96,350.85L334.1,359.09L339.24,365.06L344.38,369.47L349.52,372.75L359.8,377.28L364.94,378.77L380.36,381.55L385.5,382.15L411.2,384.01L416.34,384.22L457.46,384.97L462.6,384.98L514,385" style="vector-effect: none; fill: none; stroke: rgb(240, 173, 78); stroke-opacity: 1; stroke-width: 2px; opacity: 1;"/></g><g class="points"/><g class="text"/></g><g class="trace scatter trace6e86f4" style="stroke-miterlimit: 2; opacity: 1;"><g class="fills"/><g class="errorbars"/><g class="lines"><path class="js-line" d="M0,385L128.5,384.35L133.64,384.04L143.92,383.01L149.06,381.98L159.34,379.3L164.48,377.14L179.9,368.65L185.04,364.02L195.32,351.7L200.46,343.96L205.6,333.82L210.74,321.67L215.88,307.15L221.02,288.68L226.16,269.28L231.3,244.93L241.58,182.77L246.72,146.67L257,77.52L262.14,48.69L267.28,32.73L272.42,29.06L277.56,37.15L282.7,57.83L287.84,92.23L292.98,134.2L303.26,225.76L308.4,265.22L313.54,296.22L318.68,319.69L323.82,337.54L328.96,349.5L334.1,357.55L339.24,363.78L344.38,368.64L349.52,372.19L359.8,377.13L364.94,378.71L380.36,381.6L385.5,382.19L411.2,384.02L416.34,384.22L457.46,384.95L462.6,384.97L508.86,384.9L514,383.13" style="vector-effect: none; fill: none; stroke: rgb(240, 173, 78); stroke-opacity: 1; stroke-width: 2px; opacity: 1;"/></g><g class="points"/><g class="text"/></g><g class="trace scatter tracecbca97" style="stroke-miterlimit: 2; opacity: 1;"><g class="fills"/><g class="errorbars"/><g class="lines"><path class="js-line" d="M0,385L123.36,384.52L128.5,384.15L143.92,382.12L149.06,380.78L159.34,376.97L164.48,374L174.76,366.33L179.9,361.59L185.04,355.4L190.18,347.69L200.46,330.94L205.6,319.67L215.88,293.58L221.02,276.63L226.16,259.92L231.3,240.12L251.86,142.53L257,117.2L262.14,95.75L267.28,82.18L272.42,75.59L277.56,78.7L282.7,89.14L287.84,110L292.98,140.9L298.12,176.91L308.4,249.47L313.54,277.14L318.68,300.2L323.82,319.27L328.96,333.01L334.1,343.04L339.24,350.98L344.38,357.14L354.66,365.78L359.8,369.07L370.08,374.38L375.22,376.1L390.64,379.99L395.78,380.79L421.48,383.72L426.62,384.04L457.46,384.94L462.6,384.96L514,385" style="vector-effect: none; fill: none; stroke: rgb(240, 173, 78); stroke-opacity: 1; stroke-width: 2px; opacity: 1;"/></g><g class="points"/><g class="text"/></g><g class="trace scatter trace8345e8" style="stroke-miterlimit: 2; opacity: 1;"><g class="fills"/><g class="errorbars"/><g class="lines"><path class="js-line" d="M0,385L123.36,384.5L128.5,384.16L143.92,382.18L149.06,380.83L159.34,376.89L164.48,373.87L174.76,366.18L179.9,361.35L185.04,355L190.18,347.12L200.46,329.81L205.6,318.4L215.88,291.31L221.02,273.04L226.16,254.65L231.3,233.11L251.86,132.98L257,110.19L262.14,91.61L267.28,82.31L272.42,79.13L277.56,83.18L282.7,96.37L287.84,119.87L292.98,150.76L298.12,186.39L308.4,255.34L313.54,281.53L318.68,303.46L323.82,321.47L328.96,334.5L334.1,344.41L344.38,357.61L349.52,362.64L359.8,369.79L364.94,372.51L375.22,376.58L380.36,378.04L395.78,381.05L400.92,381.65L426.62,384.02L431.76,384.29L462.6,384.93L467.74,384.95L508.86,384.89L514,382.95" style="vector-effect: none; fill: none; stroke: rgb(240, 173, 78); stroke-opacity: 1; stroke-width: 2px; opacity: 1;"/></g><g class="points"/><g class="text"/></g><g class="trace scatter trace5b770c" style="stroke-miterlimit: 2; opacity: 1;"><g class="fills"/><g class="errorbars"/><g class="lines"><path class="js-line" d="M0,385L133.64,384.47L138.78,384.23L154.2,382.19L159.34,381L169.62,377.01L174.76,374.41L179.9,371.29L185.04,366.53L195.32,354.77L200.46,347.51L205.6,337.31L210.74,325.25L215.88,311.68L221.02,294.61L226.16,277.83L231.3,257.58L241.58,204.95L246.72,173.4L262.14,73.93L267.28,49.27L272.42,35.83L277.56,34.71L282.7,45.67L287.84,71.16L292.98,106.7L298.12,150.14L308.4,241.45L313.54,275.95L318.68,304L323.82,325.48L328.96,340.31L334.1,350.69L339.24,357.88L344.38,363.57L349.52,367.92L354.66,371.22L364.94,376.26L370.08,377.89L385.5,381.24L390.64,381.92L411.2,383.76L416.34,384.01L447.18,384.88L452.32,384.93L514,385" style="vector-effect: none; fill: none; stroke: rgb(240, 173, 78); stroke-opacity: 1; stroke-width: 2px; opacity: 1;"/></g><g class="points"/><g class="text"/></g><g class="trace scatter trace460c89" style="stroke-miterlimit: 2; opacity: 1;"><g class="fills"/><g class="errorbars"/><g class="lines"><path class="js-line" d="M0,385L133.64,384.46L138.78,384.22L154.2,382.2L159.34,381.01L169.62,376.96L174.76,374.37L179.9,371.15L185.04,366.34L195.32,354.31L200.46,346.75L205.6,336.14L210.74,323.73L215.88,309.61L221.02,291.84L226.16,274.15L231.3,251.51L241.58,193.08L246.72,157.36L262.14,56.73L267.28,38.43L272.42,31.45L277.56,36.33L282.7,53.71L287.84,84.35L292.98,123.75L298.12,169.1L308.4,254.75L313.54,286.89L318.68,312.15L323.82,331.58L328.96,343.67L334.1,351.24L344.38,365.3L349.52,369.47L359.8,375.26L364.94,377.2L380.36,380.82L385.5,381.53L406.06,383.42L411.2,383.74L442.04,384.8L447.18,384.87L508.86,384.9L514,382.31" style="vector-effect: none; fill: none; stroke: rgb(240, 173, 78); stroke-opacity: 1; stroke-width: 2px; opacity: 1;"/></g><g class="points"/><g class="text"/></g><g class="trace scatter traceda45db" style="stroke-miterlimit: 2; opacity: 1;"><g class="fills"/><g class="errorbars"/><g class="lines"><path class="js-line" d="M0,385L128.5,384.38L133.64,384.08L143.92,382.98L149.06,381.98L159.34,379.02L164.48,376.75L174.76,371.11L179.9,367.64L185.04,362.72L190.18,356.37L195.32,349.56L200.46,341.34L205.6,330.66L210.74,318.13L215.88,303.16L221.02,285.06L226.16,265.57L231.3,241.02L241.58,179.67L246.72,143.25L257,71.39L262.14,42L267.28,27.74L272.42,27.84L277.56,39.81L282.7,64.18L287.84,100.37L292.98,141.91L308.4,268.19L313.54,297.63L318.68,320.94L323.82,339.63L328.96,352.48L334.1,361.31L339.24,367.38L344.38,371.71L354.66,377.15L359.8,378.84L375.22,381.48L380.36,381.99L411.2,384L416.34,384.18L457.46,384.97L462.6,384.98L514,385" style="vector-effect: none; fill: none; stroke: rgb(240, 173, 78); stroke-opacity: 1; stroke-width: 2px; opacity: 1;"/></g><g class="points"/><g class="text"/></g><g class="trace scatter trace6d6bc0" style="stroke-miterlimit: 2; opacity: 1;"><g class="fills"/><g class="errorbars"/><g class="lines"><path class="js-line" d="M0,385L128.5,384.41L133.64,384.09L143.92,382.98L149.06,381.96L159.34,378.99L164.48,376.67L174.76,370.91L179.9,367.26L185.04,362.26L190.18,355.88L195.32,348.81L200.46,340.45L205.6,329.52L210.74,316.6L215.88,301.22L221.02,282.41L226.16,262.91L231.3,238.68L241.58,178.83L246.72,144.28L257,77.98L262.14,50.24L267.28,35.97L272.42,33.82L277.56,43.14L282.7,64.55L287.84,98.28L292.98,138.54L308.4,265.9L313.54,296.46L318.68,320.61L323.82,339.62L328.96,352.15L334.1,360.47L339.24,366.83L344.38,371.64L354.66,377L359.8,378.78L370.08,380.86L375.22,381.49L395.78,383.22L400.92,383.53L436.9,384.76L442.04,384.83L508.86,384.9L514,383.24" style="vector-effect: none; fill: none; stroke: rgb(240, 173, 78); stroke-opacity: 1; stroke-width: 2px; opacity: 1;"/></g><g class="points"/><g class="text"/></g><g class="trace scatter traced3c4f7" style="stroke-miterlimit: 2; opacity: 1;"><g class="fills"/><g class="errorbars"/><g class="lines"><path class="js-line" d="M0,385L118.22,384.3L123.36,383.79L133.64,381.96L138.78,380.58L143.92,378.44L149.06,375.23L159.34,367.24L164.48,361.55L174.76,347.54L179.9,339.28L190.18,317.28L195.32,305.9L200.46,294.63L205.6,280.47L215.88,250.16L221.02,232.21L231.3,197.41L236.44,175.31L257,93.2L262.14,81.71L267.28,81.84L272.42,91.73L277.56,110.37L282.7,135.69L292.98,203.38L298.12,238.43L308.4,300.07L313.54,321.68L318.68,338.25L323.82,351.16L328.96,359.94L334.1,365.86L339.24,370.13L344.38,373.29L354.66,377.82L359.8,379.4L375.22,382.32L380.36,382.9L406.06,384.36L411.2,384.49L462.6,384.99L467.74,385L514,385" style="vector-effect: none; fill: none; stroke: rgb(240, 173, 78); stroke-opacity: 1; stroke-width: 2px; opacity: 1;"/></g><g class="points"/><g class="text"/></g><g class="trace scatter traced4609f" style="stroke-miterlimit: 2; opacity: 1;"><g class="fills"/><g class="errorbars"/><g class="lines"><path class="js-line" d="M0,385L118.22,384.33L123.36,383.81L133.64,381.96L138.78,380.5L143.92,378.35L149.06,375.35L159.34,367.04L164.48,361.32L174.76,347.42L179.9,339.25L190.18,316.71L195.32,305.13L200.46,292.92L205.6,278.32L215.88,247.89L221.02,229.73L231.3,192.85L236.44,170.69L251.86,107.18L257,90.24L262.14,80.81L267.28,83.34L272.42,93.98L277.56,113.85L282.7,140.23L287.84,172.78L303.26,276.44L308.4,304.07L313.54,325.11L318.68,340.68L323.82,352.64L328.96,360.69L339.24,370.53L344.38,374.07L354.66,378.34L359.8,379.83L375.22,382.53L380.36,383.03L406.06,384.37L411.2,384.5L467.74,384.98L472.88,384.98L508.86,384.91L514,383.13" style="vector-effect: none; fill: none; stroke: rgb(240, 173, 78); stroke-opacity: 1; stroke-width: 2px; opacity: 1;"/></g><g class="points"/><g class="text"/></g><g class="trace scatter trace0ca59c" style="stroke-miterlimit: 2; opacity: 1;"><g class="fills"/><g class="errorbars"/><g class="lines"><path class="js-line" d="M0,385L118.22,384.27L123.36,383.81L133.64,382.12L138.78,380.79L149.06,376.32L154.2,373.06L159.34,368.98L164.48,363.82L174.76,350.92L179.9,343.16L190.18,321.64L195.32,308.9L210.74,266.59L215.88,255.9L221.02,246.48L226.16,239.94L231.3,233.14L236.44,223.51L241.58,212.61L246.72,196.94L257,159.27L262.14,139.57L267.28,125.54L272.42,117.25L277.56,116.44L282.7,125.14L287.84,144.63L292.98,171.01L308.4,258.96L313.54,281.03L318.68,298.9L323.82,313.99L328.96,325.84L334.1,335.54L339.24,343.45L344.38,349.95L354.66,359.99L359.8,363.98L370.08,370.15L375.22,372.5L385.5,376.44L390.64,377.92L406.06,381.39L411.2,382.13L431.76,384.1L436.9,384.4L467.74,384.97L472.88,384.98L514,385" style="vector-effect: none; fill: none; stroke: rgb(240, 173, 78); stroke-opacity: 1; stroke-width: 2px; opacity: 1;"/></g><g class="points"/><g class="text"/></g><g class="trace scatter trace4bf642" style="stroke-miterlimit: 2; opacity: 1;"><g class="fills"/><g class="errorbars"/><g class="lines"><path class="js-line" d="M0,385L118.22,384.32L123.36,383.89L133.64,382.25L138.78,380.96L149.06,376.64L154.2,373.46L159.34,369.39L164.48,364.28L174.76,351.39L179.9,343.54L185.04,333.67L190.18,322.03L200.46,294.25L205.6,279.19L210.74,265.3L215.88,253.97L221.02,244.18L226.16,237.7L231.3,230.66L236.44,220.62L241.58,208.86L246.72,192.59L262.14,141.88L267.28,131.92L272.42,126.85L277.56,127.22L282.7,135.56L287.84,152.76L292.98,175.3L298.12,202.17L308.4,257.12L313.54,279.11L318.68,296.82L323.82,311.19L328.96,322.21L334.1,331.21L344.38,346.57L349.52,353.01L359.8,363.22L364.94,367.15L375.22,372.86L380.36,374.94L395.78,379.41L400.92,380.5L416.34,382.75L421.48,383.29L442.04,384.57L447.18,384.71L493.44,384.96L498.58,384.95L508.86,384.84L514,382.29" style="vector-effect: none; fill: none; stroke: rgb(240, 173, 78); stroke-opacity: 1; stroke-width: 2px; opacity: 1;"/></g><g class="points"/><g class="text"/></g><g class="trace scatter traceb622a3" style="stroke-miterlimit: 2; opacity: 1;"><g class="fills"/><g class="errorbars"/><g class="lines"><path class="js-line" d="M0,385L138.78,384.57L143.92,384.19L154.2,382.51L159.34,381.04L164.48,378.82L169.62,375.68L174.76,371.65L179.9,366.25L185.04,358.7L190.18,348.78L200.46,323.06L205.6,308.32L215.88,280.37L221.02,268.49L226.16,257.2L231.3,244.09L236.44,228.61L241.58,209.6L257,136.4L262.14,111.86L267.28,93.66L272.42,83.16L277.56,81.42L282.7,89.15L287.84,108.22L292.98,136.59L303.26,207.58L308.4,242.54L313.54,271.17L318.68,294.89L323.82,313.27L328.96,327.03L334.1,337.57L339.24,345.64L344.38,352.17L349.52,357.43L359.8,365.34L364.94,368.33L380.36,374.65L385.5,376.25L406.06,380.59L411.2,381.44L431.76,383.79L436.9,384.17L462.6,384.93L467.74,384.97L514,385" style="vector-effect: none; fill: none; stroke: rgb(240, 173, 78); stroke-opacity: 1; stroke-width: 2px; opacity: 1;"/></g><g class="points"/><g class="text"/></g><g class="trace scatter trace06fd75" style="stroke-miterlimit: 2; opacity: 1;"><g class="fills"/><g class="errorbars"/><g class="lines"><path class="js-line" d="M0,385L138.78,384.57L143.92,384.19L154.2,382.52L159.34,381.01L164.48,378.76L169.62,375.6L174.76,371.53L179.9,366.12L185.04,358.49L190.18,348.21L200.46,321.79L205.6,306.49L215.88,278.4L221.02,266.32L226.16,254.76L231.3,241.24L236.44,224.77L241.58,205.6L262.14,110.19L267.28,94.48L272.42,85.48L277.56,84.66L282.7,93.03L287.84,112.42L292.98,140.55L298.12,174.58L308.4,245.39L313.54,273.41L318.68,296.5L323.82,314.29L328.96,327.65L334.1,338.16L339.24,346.08L344.38,352.57L354.66,361.96L359.8,365.82L370.08,371.02L375.22,373.15L385.5,376.45L390.64,377.67L416.34,382.17L421.48,382.86L447.18,384.66L452.32,384.79L508.86,384.92L514,383.44" style="vector-effect: none; fill: none; stroke: rgb(240, 173, 78); stroke-opacity: 1; stroke-width: 2px; opacity: 1;"/></g><g class="points"/><g class="text"/></g><g class="trace scatter trace69979b" style="stroke-miterlimit: 2; opacity: 1;"><g class="fills"/><g class="errorbars"/><g class="lines"><path class="js-line" d="M0,385L118.22,384.48L123.36,384.13L138.78,381.81L143.92,380.34L154.2,375.75L159.34,372.35L164.48,367.73L169.62,361.96L179.9,347.91L185.04,337.71L195.32,315.58L200.46,301.86L221.02,235.45L226.16,225.4L231.3,217.3L236.44,203.83L241.58,191.79L246.72,176.48L257,149.69L262.14,137.36L267.28,131.66L272.42,131.57L277.56,138L282.7,149.31L287.84,169.36L292.98,195.56L303.26,245.43L308.4,267.16L318.68,298.8L323.82,312.37L328.96,322.49L334.1,330.89L344.38,344.25L349.52,349.42L359.8,357.93L364.94,361.56L380.36,370L385.5,372.22L400.92,377.4L406.06,378.84L421.48,381.94L426.62,382.7L442.04,384.22L447.18,384.49L478.02,384.98L483.16,384.99L514,385" style="vector-effect: none; fill: none; stroke: rgb(240, 173, 78); stroke-opacity: 1; stroke-width: 2px; opacity: 1;"/></g><g class="points"/><g class="text"/></g><g class="trace scatter trace6217c9" style="stroke-miterlimit: 2; opacity: 1;"><g class="fills"/><g class="errorbars"/><g class="lines"><path class="js-line" d="M0,385L118.22,384.48L123.36,384.14L138.78,381.82L143.92,380.36L154.2,375.83L159.34,372.49L164.48,367.78L169.62,361.97L179.9,347.8L185.04,337.37L195.32,314.45L200.46,300.3L221.02,231.43L226.16,220.53L231.3,210.76L236.44,196.69L246.72,172.46L251.86,164.46L262.14,148.72L267.28,146.36L272.42,146.78L277.56,150.14L282.7,158.69L287.84,176.21L308.4,263.88L313.54,281.04L323.82,308.57L328.96,317.93L344.38,340.92L349.52,347.15L359.8,357.57L364.94,361.69L375.22,368.27L380.36,370.66L390.64,374.54L395.78,376.14L411.2,380.12L416.34,381.07L431.76,383.32L436.9,383.84L457.46,384.78L462.6,384.86L508.86,384.85L514,382.5" style="vector-effect: none; fill: none; stroke: rgb(92, 184, 92); stroke-opacity: 1; stroke-width: 2px; opacity: 1;"/></g><g class="points"/><g class="text"/></g><g class="trace scatter trace692c1a" style="stroke-miterlimit: 2; opacity: 1;"><g class="fills"/><g class="errorbars"/><g class="lines"><path class="js-line" d="M0,385L138.78,384.46L143.92,384.1L154.2,382.78L159.34,381.57L164.48,379.18L169.62,375.61L174.76,371.45L179.9,366L185.04,356.2L190.18,340.74L195.32,318.48L200.46,288.67L210.74,221.13L215.88,202.98L221.02,191.6L226.16,190.1L236.44,202.68L241.58,206.57L246.72,202.15L251.86,195.8L257,186.06L262.14,173.96L267.28,164.68L272.42,157.2L277.56,153.58L282.7,154.5L287.84,166.68L292.98,186.21L308.4,256.45L313.54,273.91L323.82,302.61L328.96,313.3L339.24,331.13L344.38,338.48L354.66,350.85L359.8,356L370.08,364.14L375.22,367.43L385.5,372.57L390.64,374.51L406.06,379.07L411.2,380.26L431.76,383.47L436.9,383.96L457.46,384.84L462.6,384.91L514,385" style="vector-effect: none; fill: none; stroke: rgb(240, 173, 78); stroke-opacity: 1; stroke-width: 2px; opacity: 1;"/></g><g class="points"/><g class="text"/></g><g class="trace scatter trace171ac2" style="stroke-miterlimit: 2; opacity: 1;"><g class="fills"/><g class="errorbars"/><g class="lines"><path class="js-line" d="M0,385L138.78,384.47L143.92,384.13L154.2,382.8L159.34,381.61L164.48,379.24L169.62,375.67L174.76,371.55L179.9,366.11L185.04,356.23L190.18,340.53L195.32,317.79L200.46,287.03L210.74,217.47L215.88,198.96L221.02,187.99L226.16,187.99L231.3,194.97L236.44,199.75L241.58,201.72L246.72,195.3L251.86,189.55L257,181.31L262.14,169.64L267.28,161.93L272.42,157.17L277.56,155.69L282.7,161.38L287.84,176.81L298.12,218.2L303.26,240.29L313.54,276.75L318.68,291.17L323.82,303.71L328.96,313.12L349.52,344.91L354.66,351.3L364.94,361.29L370.08,365.09L380.36,370.88L385.5,372.95L400.92,377.88L406.06,379.16L421.48,382.15L426.62,382.86L447.18,384.54L452.32,384.71L498.58,384.96L503.72,384.95L508.86,384.89L514,382.96" style="vector-effect: none; fill: none; stroke: rgb(240, 173, 78); stroke-opacity: 1; stroke-width: 2px; opacity: 1;"/></g><g class="points"/><g class="text"/></g><g class="trace scatter trace240e99" style="stroke-miterlimit: 2; opacity: 1;"><g class="fills"/><g class="errorbars"/><g class="lines"><path class="js-line" d="M0,385L133.64,384.28L138.78,383.97L154.2,381.71L159.34,380.22L164.48,377.5L169.62,373.33L174.76,368.46L179.9,361.85L185.04,350.56L190.18,333L195.32,307.65L200.46,274.12L210.74,201L215.88,183.21L221.02,174.89L226.16,174.78L231.3,184.36L236.44,195.88L241.58,201.94L246.72,197.78L257,181.8L262.14,173.49L267.28,165.9L272.42,160.23L277.56,159.93L282.7,164.37L287.84,176.92L292.98,196.39L308.4,266.8L313.54,285.46L323.82,313.63L328.96,323.83L339.24,339.55L344.38,345.73L354.66,356.19L359.8,360.69L370.08,367.76L375.22,370.52L385.5,374.95L390.64,376.63L406.06,380.47L411.2,381.42L431.76,383.82L436.9,384.19L462.6,384.93L467.74,384.96L514,385" style="vector-effect: none; fill: none; stroke: rgb(240, 173, 78); stroke-opacity: 1; stroke-width: 2px; opacity: 1;"/></g><g class="points"/><g class="text"/></g><g class="trace scatter tracea1a855" style="stroke-miterlimit: 2; opacity: 1;"><g class="fills"/><g class="errorbars"/><g class="lines"><path class="js-line" d="M0,385L133.64,384.29L138.78,384L149.06,382.75L154.2,381.73L159.34,380.25L164.48,377.5L174.76,368.41L179.9,361.8L185.04,350.29L190.18,332.23L195.32,306.02L200.46,271.2L210.74,196.49L215.88,178.73L221.02,170.03L226.16,168.48L231.3,175.07L236.44,184.34L241.58,191.7L246.72,191.08L251.86,188.72L257,183.07L262.14,174.09L267.28,167.31L272.42,164.16L277.56,165.06L282.7,171.62L287.84,185.97L292.98,205.05L298.12,227.35L308.4,271.1L313.54,288.29L323.82,314.73L328.96,324.15L339.24,339.46L344.38,346.09L354.66,357.23L359.8,361.96L370.08,368.97L375.22,371.55L385.5,375.56L390.64,377.07L406.06,380.56L411.2,381.43L431.76,383.81L436.9,384.19L462.6,384.9L467.74,384.93L508.86,384.9L514,382.97" style="vector-effect: none; fill: none; stroke: rgb(240, 173, 78); stroke-opacity: 1; stroke-width: 2px; opacity: 1;"/></g><g class="points"/><g class="text"/></g><g class="trace scatter trace685f31" style="stroke-miterlimit: 2; opacity: 1;"><g class="fills"/><g class="errorbars"/><g class="lines"><path class="js-line" d="M0,385L133.64,384.34L138.78,384.09L154.2,382.07L159.34,380.8L164.48,378.47L169.62,374.98L174.76,370.91L179.9,365.66L185.04,356.68L190.18,343.23L195.32,324.35L200.46,299.14L210.74,239.54L215.88,220.03L221.02,202.92L226.16,190.41L236.44,175.93L241.58,172.91L246.72,170.28L251.86,169.72L257,169.63L262.14,167.52L272.42,163.13L277.56,163.26L282.7,166.19L287.84,176.87L292.98,192.72L298.12,211.51L308.4,253.84L313.54,271.36L318.68,288.14L323.82,302.27L334.1,322.32L339.24,330.57L354.66,352.4L359.8,358.68L364.94,363.96L370.08,368.15L380.36,374.22L385.5,376.23L400.92,380.23L406.06,381.18L426.62,383.63L431.76,384.01L457.46,384.89L462.6,384.94L514,385" style="vector-effect: none; fill: none; stroke: rgb(92, 184, 92); stroke-opacity: 1; stroke-width: 2px; opacity: 1;"/></g><g class="points"/><g class="text"/></g><g class="trace scatter trace4e49af" style="stroke-miterlimit: 2; opacity: 1;"><g class="fills"/><g class="errorbars"/><g class="lines"><path class="js-line" d="M0,385L133.64,384.33L138.78,384.09L154.2,382.08L159.34,380.81L164.48,378.43L169.62,374.85L174.76,370.74L179.9,365.42L185.04,356.14L190.18,342.19L195.32,322.52L200.46,296.22L210.74,234.15L215.88,212.29L221.02,191.59L226.16,176.71L231.3,169.15L236.44,164.6L246.72,165.08L251.86,167.11L257,166.42L262.14,162.51L267.28,158.86L272.42,156.59L277.56,157.51L282.7,164L287.84,178.94L292.98,198.5L308.4,265.21L313.54,283.37L318.68,298.35L323.82,310.96L328.96,319.88L334.1,327.11L344.38,345.33L349.52,352.21L359.8,363.24L364.94,367.23L375.22,372.99L380.36,375.1L390.64,378.17L395.78,379.35L411.2,382.01L416.34,382.65L436.9,384.32L442.04,384.54L478.02,384.96L483.16,384.96L508.86,384.9L514,383.15" style="vector-effect: none; fill: none; stroke: rgb(92, 184, 92); stroke-opacity: 1; stroke-width: 2px; opacity: 1;"/></g><g class="points"/><g class="text"/></g><g class="trace scatter trace5a1edc" style="stroke-miterlimit: 2; opacity: 1;"><g class="fills"/><g class="errorbars"/><g class="lines"><path class="js-line" d="M0,385L128.5,384.35L133.64,384L143.92,382.8L149.06,381.69L159.34,378.64L164.48,376.37L174.76,370.14L179.9,365.93L185.04,360.59L190.18,354.04L195.32,346.62L200.46,337.63L210.74,313.62L215.88,298.56L226.16,262.68L231.3,241.07L251.86,143.63L257,121.28L262.14,104L267.28,94.33L272.42,92.59L277.56,98.06L282.7,110.81L287.84,130L298.12,176.81L303.26,204.96L313.54,261.68L318.68,284.9L323.82,304.49L328.96,320.5L339.24,342.58L344.38,350.44L354.66,360.92L359.8,364.64L370.08,369.58L375.22,371.39L385.5,374.27L390.64,375.29L421.48,380.91L426.62,381.61L452.32,384.07L457.46,384.34L488.3,384.93L493.44,384.96L514,384.99" style="vector-effect: none; fill: none; stroke: rgb(92, 184, 92); stroke-opacity: 1; stroke-width: 2px; opacity: 1;"/></g><g class="points"/><g class="text"/></g><g class="trace scatter trace7373c9" style="stroke-miterlimit: 2; opacity: 1;"><g class="fills"/><g class="errorbars"/><g class="lines"><path class="js-line" d="M0,385L128.5,384.35L133.64,384L143.92,382.82L149.06,381.69L159.34,378.63L164.48,376.34L174.76,370.15L179.9,366.01L185.04,360.65L190.18,354.06L195.32,346.68L200.46,337.7L210.74,313.66L215.88,298.62L226.16,262.83L231.3,241.15L251.86,143.75L257,121.34L262.14,103.88L267.28,94.55L272.42,92.86L277.56,98.37L282.7,110.94L287.84,129.98L298.12,177.01L303.26,204.97L313.54,261.62L318.68,284.78L323.82,304.44L328.96,320.5L339.24,342.59L344.38,350.44L354.66,360.9L359.8,364.66L370.08,369.57L375.22,371.38L385.5,374.25L390.64,375.25L421.48,380.89L426.62,381.6L452.32,384.06L457.46,384.33L488.3,384.92L493.44,384.94L508.86,384.9L514,383.52" style="vector-effect: none; fill: none; stroke: rgb(92, 184, 92); stroke-opacity: 1; stroke-width: 2px; opacity: 1;"/></g><g class="points"/><g class="text"/></g><g class="trace scatter trace64d843" style="stroke-miterlimit: 2; opacity: 1;"><g class="fills"/><g class="errorbars"/><g class="lines"><path class="js-line" d="M0,385L123.36,384.53L128.5,384.19L143.92,382.1L149.06,380.69L159.34,376.62L164.48,373.51L169.62,369.84L174.76,365.15L179.9,359.62L185.04,352.79L195.32,336.19L200.46,325.79L210.74,300.56L215.88,286.52L231.3,234.29L236.44,213.22L257,146.49L262.14,134.67L267.28,129.27L272.42,126.93L277.56,129.39L282.7,136.68L287.84,149.68L292.98,167.43L303.26,209.8L308.4,233.86L318.68,279.22L323.82,297.64L328.96,312.04L334.1,323.01L339.24,332.97L344.38,340.73L354.66,351.5L359.8,355.7L370.08,362.62L375.22,365.3L385.5,369.66L390.64,371.26L421.48,379.57L426.62,380.52L447.18,383.51L452.32,383.97L472.88,384.78L478.02,384.86L514,385" style="vector-effect: none; fill: none; stroke: rgb(92, 184, 92); stroke-opacity: 1; stroke-width: 2px; opacity: 1;"/></g><g class="points"/><g class="text"/></g><g class="trace scatter trace610556" style="stroke-miterlimit: 2; opacity: 1;"><g class="fills"/><g class="errorbars"/><g class="lines"><path class="js-line" d="M0,385L123.36,384.52L128.5,384.19L138.78,383.16L143.92,382.16L154.2,378.89L159.34,376.57L169.62,369.76L174.76,365.17L179.9,359.65L185.04,352.81L195.32,336.21L200.46,325.89L210.74,300.73L215.88,286.89L231.3,234.46L236.44,213.61L257,146.59L262.14,135L267.28,129.65L272.42,126.79L277.56,129.64L282.7,137.19L287.84,149.77L292.98,167.31L303.26,209.72L308.4,234.21L318.68,279.28L323.82,297.62L328.96,311.96L334.1,323.06L339.24,332.77L344.38,340.46L354.66,351.57L359.8,355.68L370.08,362.49L375.22,365.25L385.5,369.53L390.64,371.19L416.34,378.48L421.48,379.55L447.18,383.49L452.32,383.95L472.88,384.75L478.02,384.83L508.86,384.9L514,383.31" style="vector-effect: none; fill: none; stroke: rgb(92, 184, 92); stroke-opacity: 1; stroke-width: 2px; opacity: 1;"/></g><g class="points"/><g class="text"/></g><g class="trace scatter trace769b36" style="stroke-miterlimit: 2; opacity: 1;"><g class="fills"/><g class="errorbars"/><g class="lines"><path class="js-line" d="M0,385L138.78,384.37L143.92,383.98L154.2,382.54L159.34,381.38L169.62,377.56L174.76,374.86L179.9,371.45L185.04,366.71L195.32,354.52L200.46,346.21L210.74,322.68L215.88,308.48L231.3,250.88L236.44,226.93L246.72,180.25L251.86,155.42L257,133.24L262.14,115.61L267.28,103.77L272.42,97.94L277.56,99.16L282.7,107.65L287.84,123.43L292.98,143.37L298.12,165.6L303.26,191.5L313.54,246.95L318.68,270.98L323.82,291.95L328.96,308.97L339.24,333.38L344.38,342.53L354.66,355.01L359.8,359.27L370.08,365.36L375.22,367.63L385.5,371.05L390.64,372.38L411.2,377.22L416.34,378.26L447.18,383.17L452.32,383.65L472.88,384.67L478.02,384.77L514,384.99" style="vector-effect: none; fill: none; stroke: rgb(92, 184, 92); stroke-opacity: 1; stroke-width: 2px; opacity: 1;"/></g><g class="points"/><g class="text"/></g><g class="trace scatter trace44b84e" style="stroke-miterlimit: 2; opacity: 1;"><g class="fills"/><g class="errorbars"/><g class="lines"><path class="js-line" d="M0,385L138.78,384.36L143.92,383.97L154.2,382.54L159.34,381.37L169.62,377.52L174.76,374.84L179.9,371.41L185.04,366.71L195.32,354.54L200.46,346.26L210.74,322.83L215.88,308.61L231.3,251.06L236.44,227.32L246.72,180.14L251.86,155.62L257,133.9L262.14,115.88L267.28,104L272.42,98.17L277.56,99.25L282.7,107.54L287.84,123.02L292.98,143.32L303.26,191.32L308.4,219.25L318.68,270.83L323.82,291.9L328.96,308.94L334.1,321.61L339.24,333.36L344.38,342.56L354.66,355.06L359.8,359.34L370.08,365.45L375.22,367.73L385.5,371.1L390.64,372.44L411.2,377.21L416.34,378.26L442.04,382.63L447.18,383.18L467.74,384.52L472.88,384.66L508.86,384.9L514,382.89" style="vector-effect: none; fill: none; stroke: rgb(240, 173, 78); stroke-opacity: 1; stroke-width: 2px; opacity: 1;"/></g><g class="points"/><g class="text"/></g><g class="trace scatter trace26f2ab" style="stroke-miterlimit: 2; opacity: 1;"><g class="fills"/><g class="errorbars"/><g class="lines"><path class="js-line" d="M0,385L128.5,384.25L133.64,383.86L143.92,382.39L149.06,381.1L159.34,377.49L164.48,374.87L174.76,368.01L179.9,363.33L185.04,357.37L190.18,350.15L195.32,342.34L200.46,332.99L210.74,308.51L215.88,293.38L226.16,258.18L231.3,236.52L257,113.87L262.14,94.6L267.28,84.06L272.42,82.2L277.56,87.94L282.7,101.96L287.84,123.12L292.98,147.76L298.12,175.14L303.26,206.65L313.54,267.7L318.68,292.26L323.82,313.46L328.96,330.16L334.1,342.21L339.24,351.86L344.38,359.03L349.52,364.26L354.66,368.57L359.8,371.78L370.08,375.82L375.22,377.15L390.64,379.63L395.78,380.34L426.62,383.2L431.76,383.54L462.6,384.78L467.74,384.85L514,385" style="vector-effect: none; fill: none; stroke: rgb(92, 184, 92); stroke-opacity: 1; stroke-width: 2px; opacity: 1;"/></g><g class="points"/><g class="text"/></g><g class="trace scatter tracedad610" style="stroke-miterlimit: 2; opacity: 1;"><g class="fills"/><g class="errorbars"/><g class="lines"><path class="js-line" d="M0,385L128.5,384.27L133.64,383.88L143.92,382.39L149.06,381.09L159.34,377.51L164.48,374.88L174.76,367.98L179.9,363.28L190.18,350.17L195.32,342.27L200.46,333.01L205.6,321.63L210.74,308.7L215.88,293.51L226.16,258.16L231.3,236.76L257,114.32L262.14,94.8L267.28,84.2L272.42,82.11L277.56,87.9L282.7,102.01L287.84,123.23L292.98,148.22L303.26,206.44L308.4,238.84L313.54,267.73L318.68,292.27L323.82,313.47L328.96,330.2L334.1,342.29L339.24,351.96L344.38,359.08L349.52,364.21L354.66,368.47L359.8,371.72L370.08,375.78L375.22,377.09L390.64,379.59L395.78,380.32L421.48,382.78L426.62,383.18L457.46,384.69L462.6,384.77L508.86,384.91L514,383.54" style="vector-effect: none; fill: none; stroke: rgb(92, 184, 92); stroke-opacity: 1; stroke-width: 2px; opacity: 1;"/></g><g class="points"/><g class="text"/></g><g class="trace scatter tracedf33a1" style="stroke-miterlimit: 2; opacity: 1;"><g class="fills"/><g class="errorbars"/><g class="lines"><path class="js-line" d="M0,385L118.22,384.39L123.36,383.95L133.64,382.36L138.78,381.1L143.92,379.08L149.06,376.03L159.34,368.13L164.48,362.53L174.76,348.72L179.9,340.17L190.18,318.01L195.32,306.36L200.46,294.28L205.6,279.62L215.88,248.69L221.02,230.66L231.3,198.21L236.44,179.41L246.72,149.65L251.86,136.48L257,125.37L262.14,120.25L267.28,122.4L272.42,130.35L277.56,143.7L282.7,161.8L298.12,230.39L303.26,254.77L313.54,297.61L318.68,314.71L323.82,328.92L328.96,339.94L339.24,355.08L344.38,360.4L354.66,367.49L359.8,370.07L370.08,373.84L375.22,375.22L395.78,378.91L400.92,379.61L431.76,382.94L436.9,383.37L462.6,384.64L467.74,384.75L514,385" style="vector-effect: none; fill: none; stroke: rgb(240, 173, 78); stroke-opacity: 1; stroke-width: 2px; opacity: 1;"/></g><g class="points"/><g class="text"/></g><g class="trace scatter trace17bf08" style="stroke-miterlimit: 2; opacity: 1;"><g class="fills"/><g class="errorbars"/><g class="lines"><path class="js-line" d="M0,385L118.22,384.41L123.36,383.97L133.64,382.35L138.78,381.03L143.92,379L149.06,376.13L159.34,367.97L164.48,362.37L174.76,348.73L179.9,340.37L190.18,318.14L195.32,306.55L200.46,293.99L205.6,279.28L215.88,248.79L221.02,231.08L231.3,198.37L236.44,179.99L246.72,149.45L251.86,136.5L257,125.84L262.14,120.27L267.28,122.38L272.42,130.04L277.56,143.78L282.7,162.1L298.12,230.35L303.26,254.94L313.54,297.65L318.68,314.61L323.82,328.72L328.96,339.72L339.24,355.11L344.38,360.4L354.66,367.48L359.8,370.09L370.08,373.85L375.22,375.22L390.64,378.06L395.78,378.89L426.62,382.48L431.76,382.92L457.46,384.49L462.6,384.63L503.72,384.95L508.86,384.91L514,383.44" style="vector-effect: none; fill: none; stroke: rgb(240, 173, 78); stroke-opacity: 1; stroke-width: 2px; opacity: 1;"/></g><g class="points"/><g class="text"/></g><g class="trace scatter trace2847f3" style="stroke-miterlimit: 2; opacity: 1;"><g class="fills"/><g class="errorbars"/><g class="lines"><path class="js-line" d="M0,385L118.22,384.38L123.36,384L133.64,382.61L138.78,381.51L149.06,377.82L154.2,375.07L159.34,371.57L164.48,367.03L174.76,355.44L179.9,348.18L190.18,328.35L195.32,316.59L210.74,276.25L215.88,265.87L221.02,255.78L226.16,248.3L231.3,240.87L236.44,231.74L241.58,223.26L246.72,211.86L257,188.41L262.14,179.25L267.28,173.62L272.42,170.3L277.56,170.28L282.7,174.6L287.84,183.49L292.98,195.59L298.12,209.39L303.26,225.78L313.54,262L318.68,277.96L323.82,292.19L328.96,303.85L339.24,321.26L344.38,327.86L354.66,337.6L359.8,341.33L370.08,347.27L375.22,349.79L426.62,374.09L431.76,376.1L442.04,379.68L447.18,380.93L462.6,383.47L467.74,383.93L493.44,384.85L498.58,384.92L514,384.96" style="vector-effect: none; fill: none; stroke: rgb(92, 184, 92); stroke-opacity: 1; stroke-width: 2px; opacity: 1;"/></g><g class="points"/><g class="text"/></g><g class="trace scatter trace82ccf0" style="stroke-miterlimit: 2; opacity: 1;"><g class="fills"/><g class="errorbars"/><g class="lines"><path class="js-line" d="M0,385L118.22,384.42L123.36,384.06L138.78,381.65L143.92,380.13L154.2,375.4L159.34,371.9L169.62,362.03L174.76,355.85L179.9,348.54L185.04,339.44L195.32,316.92L200.46,303.48L210.74,276.52L215.88,265.9L221.02,255.69L226.16,248.47L231.3,241.19L236.44,232.03L241.58,223.3L246.72,211.69L257,188.69L262.14,179.26L267.28,173.47L272.42,170.29L277.56,170.21L282.7,174.29L287.84,183.19L292.98,195.28L298.12,209.18L303.26,225.63L318.68,277.77L323.82,291.93L328.96,303.77L334.1,312.92L339.24,321.22L344.38,327.84L354.66,337.65L359.8,341.31L370.08,347.22L375.22,349.75L426.62,374.04L431.76,376.05L442.04,379.61L447.18,380.87L462.6,383.43L467.74,383.9L493.44,384.82L498.58,384.87L508.86,384.81L514,382.77" style="vector-effect: none; fill: none; stroke: rgb(92, 184, 92); stroke-opacity: 1; stroke-width: 2px; opacity: 1;"/></g><g class="points"/><g class="text"/></g><g class="trace scatter traceef220e" style="stroke-miterlimit: 2; opacity: 1;"><g class="fills"/><g class="errorbars"/><g class="lines"><path class="js-line" d="M0,385L143.92,384.28L149.06,383.65L159.34,381.12L164.48,378.8L169.62,375.65L174.76,371.48L179.9,365.72L185.04,357.88L190.18,347.81L195.32,335.74L215.88,280.37L221.02,268.72L231.3,246.5L236.44,233.69L241.58,219.75L246.72,202.49L257,169.61L262.14,154.78L267.28,143.59L272.42,136.84L277.56,134.63L282.7,138.36L287.84,147.71L292.98,161.24L298.12,177.99L303.26,198.68L318.68,266.48L323.82,285.38L328.96,301.61L334.1,313.91L339.24,324.87L344.38,333.13L354.66,344.72L359.8,349.32L370.08,356.09L375.22,358.78L395.78,367.28L400.92,369.44L421.48,376.68L426.62,378.33L442.04,382.09L447.18,382.87L467.74,384.53L472.88,384.69L514,384.99" style="vector-effect: none; fill: none; stroke: rgb(92, 184, 92); stroke-opacity: 1; stroke-width: 2px; opacity: 1;"/></g><g class="points"/><g class="text"/></g><g class="trace scatter tracefd9b43" style="stroke-miterlimit: 2; opacity: 1;"><g class="fills"/><g class="errorbars"/><g class="lines"><path class="js-line" d="M0,385L143.92,384.27L149.06,383.65L159.34,381.1L164.48,378.75L169.62,375.6L174.76,371.43L179.9,365.7L185.04,357.9L190.18,347.75L195.32,335.65L215.88,280.72L221.02,269.05L231.3,246.67L236.44,233.64L241.58,219.84L246.72,202.73L257,169.66L262.14,155.11L267.28,143.9L272.42,137.06L277.56,134.79L282.7,138.3L287.84,147.71L292.98,161.32L298.12,178.03L303.26,198.4L313.54,245.91L318.68,266.45L328.96,301.55L334.1,313.9L339.24,324.8L344.38,333.03L354.66,344.66L359.8,349.27L370.08,356.15L375.22,358.84L395.78,367.24L400.92,369.43L421.48,376.71L426.62,378.34L442.04,382.11L447.18,382.86L467.74,384.5L472.88,384.67L508.86,384.91L514,383.72" style="vector-effect: none; fill: none; stroke: rgb(92, 184, 92); stroke-opacity: 1; stroke-width: 2px; opacity: 1;"/></g><g class="points"/><g class="text"/></g><g class="trace scatter traceaac4ed" style="stroke-miterlimit: 2; opacity: 1;"><g class="fills"/><g class="errorbars"/><g class="lines"><path class="js-line" d="M0,385L123.36,384.29L128.5,383.81L138.78,382.37L143.92,381.05L154.2,376.79L159.34,373.46L169.62,363.59L174.76,357.02L179.9,349.07L185.04,338.86L195.32,315.55L200.46,300.85L210.74,267.14L215.88,253.04L221.02,236.97L226.16,226.88L231.3,219.55L236.44,210.76L262.14,189.56L267.28,190.9L272.42,191.46L277.56,193.35L282.7,198.7L287.84,207.84L298.12,229.44L303.26,242.47L318.68,283.37L323.82,294.73L328.96,303.47L334.1,310.41L344.38,323.12L349.52,327.7L359.8,335.56L364.94,338.79L426.62,372.48L431.76,374.89L442.04,379.03L447.18,380.49L457.46,382.65L462.6,383.32L478.02,384.44L483.16,384.59L514,384.96" style="vector-effect: none; fill: none; stroke: rgb(240, 173, 78); stroke-opacity: 1; stroke-width: 2px; opacity: 1;"/></g><g class="points"/><g class="text"/></g><g class="trace scatter trace96426f" style="stroke-miterlimit: 2; opacity: 1;"><g class="fills"/><g class="errorbars"/><g class="lines"><path class="js-line" d="M0,385L123.36,384.3L128.5,383.83L138.78,382.37L143.92,381.06L154.2,376.84L159.34,373.57L169.62,363.62L174.76,357.11L179.9,349.22L185.04,338.99L195.32,315.66L200.46,300.95L210.74,267.46L215.88,253.38L221.02,237.12L226.16,227.1L231.3,219.72L236.44,210.83L262.14,189.61L267.28,190.96L272.42,191.68L277.56,193.6L282.7,198.83L287.84,207.89L298.12,229.25L303.26,242.39L318.68,283.35L323.82,294.7L328.96,303.48L334.1,310.5L344.38,323.13L349.52,327.77L359.8,335.5L364.94,338.71L385.5,349.74L390.64,352.32L431.76,374.82L436.9,377.07L447.18,380.45L452.32,381.67L467.74,383.8L472.88,384.17L503.72,384.88L508.86,384.83L514,383.02" style="vector-effect: none; fill: none; stroke: rgb(240, 173, 78); stroke-opacity: 1; stroke-width: 2px; opacity: 1;"/></g><g class="points"/><g class="text"/></g><g class="trace scatter trace57cdd9" style="stroke-miterlimit: 2; opacity: 1;"><g class="fills"/><g class="errorbars"/><g class="lines"><path class="js-line" d="M0,385L143.92,384.25L149.06,383.78L159.34,382.07L164.48,379.94L174.76,372.84L179.9,367.25L185.04,357.49L190.18,342.48L195.32,320.85L200.46,291.3L205.6,256.3L210.74,227.34L215.88,212.47L221.02,202.6L226.16,200L231.3,205.44L241.58,223.43L246.72,223.78L251.86,219.61L257,212.51L262.14,205.32L267.28,202.34L272.42,199.32L277.56,197.8L282.7,199.76L287.84,206.56L298.12,228.56L303.26,241.34L318.68,282.43L323.82,293.63L328.96,302.2L334.1,308.52L344.38,320.3L349.52,324.85L359.8,332.39L364.94,335.55L406.06,359.41L411.2,362.62L426.62,371.63L431.76,374.15L442.04,378.6L447.18,380.12L462.6,383.2L467.74,383.74L488.3,384.74L493.44,384.84L514,384.95" style="vector-effect: none; fill: none; stroke: rgb(240, 173, 78); stroke-opacity: 1; stroke-width: 2px; opacity: 1;"/></g><g class="points"/><g class="text"/></g><g class="trace scatter tracedcb7da" style="stroke-miterlimit: 2; opacity: 1;"><g class="fills"/><g class="errorbars"/><g class="lines"><path class="js-line" d="M0,385L143.92,384.26L149.06,383.8L159.34,382.07L164.48,379.96L174.76,372.92L179.9,367.37L185.04,357.61L190.18,342.6L195.32,320.94L200.46,291.37L205.6,256.15L210.74,227.27L215.88,212.61L221.02,202.59L226.16,200.17L231.3,205.78L241.58,223.56L246.72,223.78L251.86,219.64L257,212.81L262.14,205.65L267.28,202.63L272.42,199.53L277.56,197.9L282.7,199.75L287.84,206.54L298.12,228.4L303.26,241.18L318.68,282.3L323.82,293.45L328.96,302.23L334.1,308.7L344.38,320.28L349.52,324.83L359.8,332.47L364.94,335.58L406.06,359.39L411.2,362.59L426.62,371.62L431.76,374.13L442.04,378.58L447.18,380.09L457.46,382.44L462.6,383.18L478.02,384.38L483.16,384.57L508.86,384.86L514,383.32" style="vector-effect: none; fill: none; stroke: rgb(240, 173, 78); stroke-opacity: 1; stroke-width: 2px; opacity: 1;"/></g><g class="points"/><g class="text"/></g><g class="trace scatter traceac64ed" style="stroke-miterlimit: 2; opacity: 1;"><g class="fills"/><g class="errorbars"/><g class="lines"><path class="js-line" d="M0,385L133.64,384.39L138.78,384.12L149.06,382.95L154.2,381.94L159.34,380.43L164.48,377.74L169.62,373.74L174.76,368.29L179.9,360.34L185.04,347.54L190.18,327.74L195.32,298.99L205.6,221.96L210.74,191.55L215.88,179.29L221.02,175.93L226.16,180.46L231.3,193.42L236.44,210.11L241.58,223.38L246.72,227.52L251.86,225.12L262.14,211.23L267.28,206.78L272.42,204.38L277.56,204.96L282.7,208.56L287.84,215.86L292.98,225.93L298.12,237.68L318.68,291.66L323.82,302.77L328.96,311.65L334.1,318.48L339.24,324.89L344.38,330.01L354.66,337.83L359.8,341.09L375.22,349.02L380.36,351.47L431.76,375.62L436.9,377.56L447.18,380.68L452.32,381.82L467.74,383.87L472.88,384.2L498.58,384.92L503.72,384.94L514,384.96" style="vector-effect: none; fill: none; stroke: rgb(217, 83, 79); stroke-opacity: 1; stroke-width: 2px; opacity: 1;"/></g><g class="points"/><g class="text"/></g><g class="trace scatter tracec61838" style="stroke-miterlimit: 2; opacity: 1;"><g class="fills"/><g class="errorbars"/><g class="lines"><path class="js-line" d="M0,385L133.64,384.4L138.78,384.14L149.06,382.96L154.2,381.95L159.34,380.43L164.48,377.73L169.62,373.72L174.76,368.3L179.9,360.44L185.04,347.67L190.18,327.88L195.32,299L205.6,221.98L210.74,191.59L215.88,179.45L221.02,176.27L226.16,180.75L231.3,193.5L236.44,210.15L241.58,223.57L246.72,227.65L251.86,225.26L262.14,211.34L267.28,206.77L272.42,204.4L277.56,204.94L282.7,208.51L287.84,215.88L298.12,237.64L303.26,250.75L318.68,291.46L323.82,302.62L328.96,311.61L334.1,318.49L339.24,324.85L344.38,329.99L354.66,337.83L359.8,341.11L375.22,349.02L380.36,351.5L431.76,375.67L436.9,377.61L447.18,380.7L452.32,381.82L467.74,383.86L472.88,384.2L503.72,384.9L508.86,384.87L514,383.36" style="vector-effect: none; fill: none; stroke: rgb(217, 83, 79); stroke-opacity: 1; stroke-width: 2px; opacity: 1;"/></g><g class="points"/><g class="text"/></g><g class="trace scatter trace768ec9" style="stroke-miterlimit: 2; opacity: 1;"><g class="fills"/><g class="errorbars"/><g class="lines"><path class="js-line" d="M0,385L133.64,384.34L138.78,384.06L149.06,382.68L154.2,381.49L159.34,379.71L164.48,376.81L169.62,372.66L174.76,366.66L179.9,357.92L185.04,344.29L190.18,325.24L195.32,298.16L205.6,229.7L210.74,202.25L215.88,189.66L221.02,184.01L226.16,185.58L231.3,193.48L241.58,214.77L246.72,221.46L251.86,223.25L257,220.49L262.14,217.47L267.28,217.14L272.42,217.15L277.56,218.85L282.7,222.23L287.84,227.75L292.98,235.6L298.12,244.97L313.54,277.38L318.68,287.93L328.96,305.24L334.1,311.44L344.38,323.25L349.52,327.77L359.8,335.54L364.94,338.67L380.36,347.38L385.5,350.06L400.92,358.56L406.06,361.5L426.62,372.35L431.76,374.65L442.04,378.7L447.18,380.12L457.46,382.4L462.6,383.11L478.02,384.35L483.16,384.54L514,384.96" style="vector-effect: none; fill: none; stroke: rgb(217, 83, 79); stroke-opacity: 1; stroke-width: 2px; opacity: 1;"/></g><g class="points"/><g class="text"/></g><g class="trace scatter trace055227" style="stroke-miterlimit: 2; opacity: 1;"><g class="fills"/><g class="errorbars"/><g class="lines"><path class="js-line" d="M0,385L133.64,384.34L138.78,384.05L149.06,382.68L154.2,381.49L159.34,379.73L164.48,376.81L169.62,372.64L174.76,366.67L179.9,358.02L185.04,344.44L190.18,325.45L195.32,298.36L205.6,230.12L210.74,202.75L215.88,190.08L221.02,184.35L226.16,185.91L231.3,193.6L241.58,214.74L246.72,221.33L251.86,223.3L257,220.5L262.14,217.33L267.28,217.18L272.42,217.23L277.56,218.9L282.7,222.26L287.84,227.63L292.98,235.41L298.12,244.72L308.4,265.57L313.54,277.26L323.82,297.07L328.96,305.16L344.38,323.15L349.52,327.69L359.8,335.48L364.94,338.7L380.36,347.43L385.5,350.13L400.92,358.61L406.06,361.53L426.62,372.36L431.76,374.65L442.04,378.71L447.18,380.13L457.46,382.4L462.6,383.1L478.02,384.35L483.16,384.54L508.86,384.87L514,383.66" style="vector-effect: none; fill: none; stroke: rgb(217, 83, 79); stroke-opacity: 1; stroke-width: 2px; opacity: 1;"/></g><g class="points"/><g class="text"/></g><g class="trace scatter trace76d7cb" style="stroke-miterlimit: 2; opacity: 1;"><g class="fills"/><g class="errorbars"/><g class="lines"><path class="js-line" d="M0,385L128.5,384.35L133.64,384.04L143.92,382.98L149.06,381.99L159.34,379.33L164.48,377.24L179.9,368.83L185.04,364.31L195.32,352.25L200.46,344.61L205.6,334.63L210.74,322.79L215.88,308.45L221.02,290.25L226.16,270.98L231.3,246.94L241.58,182.82L246.72,144.97L257,69.4L262.14,37.86L267.28,21.34L272.42,19.25L277.56,31.37L282.7,57L287.84,94.97L292.98,139.57L303.26,231.93L308.4,270.37L313.54,299.62L318.68,321.67L323.82,338.89L328.96,350.85L334.1,359.09L339.24,365.06L344.38,369.47L349.52,372.75L359.8,377.28L364.94,378.77L380.36,381.55L385.5,382.15L411.2,384.01L416.34,384.22L457.46,384.97L462.6,384.98L514,385" style="vector-effect: none; fill: none; stroke: rgb(240, 173, 78); stroke-opacity: 1; stroke-width: 2px; opacity: 1;"/></g><g class="points"/><g class="text"/></g><g class="trace scatter tracefaf857" style="stroke-miterlimit: 2; opacity: 1;"><g class="fills"/><g class="errorbars"/><g class="lines"><path class="js-line" d="M0,385L128.5,384.35L133.64,384L143.92,382.8L149.06,381.69L159.34,378.64L164.48,376.37L174.76,370.14L179.9,365.93L185.04,360.59L190.18,354.04L195.32,346.62L200.46,337.63L210.74,313.62L215.88,298.56L226.16,262.68L231.3,241.07L251.86,143.63L257,121.28L262.14,104L267.28,94.33L272.42,92.59L277.56,98.06L282.7,110.81L287.84,130L298.12,176.81L303.26,204.96L313.54,261.68L318.68,284.9L323.82,304.49L328.96,320.5L339.24,342.58L344.38,350.44L354.66,360.92L359.8,364.64L370.08,369.58L375.22,371.39L385.5,374.27L390.64,375.29L421.48,380.91L426.62,381.61L452.32,384.07L457.46,384.34L488.3,384.93L493.44,384.96L514,384.99" style="vector-effect: none; fill: none; stroke: rgb(92, 184, 92); stroke-opacity: 1; stroke-width: 2px; opacity: 1;"/></g><g class="points"/><g class="text"/></g><g class="trace scatter tracea41161" style="stroke-miterlimit: 2; opacity: 1;"><g class="fills"/><g class="errorbars"/><g class="lines"><path class="js-line" d="M0,385L128.5,384.35L133.64,384.04L143.92,383.01L149.06,381.98L159.34,379.3L164.48,377.14L179.9,368.65L185.04,364.02L195.32,351.7L200.46,343.96L205.6,333.82L210.74,321.67L215.88,307.15L221.02,288.68L226.16,269.28L231.3,244.93L241.58,182.77L246.72,146.67L257,77.52L262.14,48.69L267.28,32.73L272.42,29.06L277.56,37.15L282.7,57.83L287.84,92.23L292.98,134.2L303.26,225.76L308.4,265.22L313.54,296.22L318.68,319.69L323.82,337.54L328.96,349.5L334.1,357.55L339.24,363.78L344.38,368.64L349.52,372.19L359.8,377.13L364.94,378.71L380.36,381.6L385.5,382.19L411.2,384.02L416.34,384.22L457.46,384.95L462.6,384.97L508.86,384.9L514,383.13" style="vector-effect: none; fill: none; stroke: rgb(240, 173, 78); stroke-opacity: 1; stroke-width: 2px; opacity: 1;"/></g><g class="points"/><g class="text"/></g><g class="trace scatter traceac576f" style="stroke-miterlimit: 2; opacity: 1;"><g class="fills"/><g class="errorbars"/><g class="lines"><path class="js-line" d="M0,385L128.5,384.35L133.64,384L143.92,382.82L149.06,381.69L159.34,378.63L164.48,376.34L174.76,370.15L179.9,366.01L185.04,360.65L190.18,354.06L195.32,346.68L200.46,337.7L210.74,313.66L215.88,298.62L226.16,262.83L231.3,241.15L251.86,143.75L257,121.34L262.14,103.88L267.28,94.55L272.42,92.86L277.56,98.37L282.7,110.94L287.84,129.98L298.12,177.01L303.26,204.97L313.54,261.62L318.68,284.78L323.82,304.44L328.96,320.5L339.24,342.59L344.38,350.44L354.66,360.9L359.8,364.66L370.08,369.57L375.22,371.38L385.5,374.25L390.64,375.25L421.48,380.89L426.62,381.6L452.32,384.06L457.46,384.33L488.3,384.92L493.44,384.94L508.86,384.9L514,383.52" style="vector-effect: none; fill: none; stroke: rgb(92, 184, 92); stroke-opacity: 1; stroke-width: 2px; opacity: 1;"/></g><g class="points"/><g class="text"/></g><g class="trace scatter trace3830f3" style="stroke-miterlimit: 2; opacity: 1;"><g class="fills"/><g class="errorbars"/><g class="lines"><path class="js-line" d="M0,385L123.36,384.52L128.5,384.15L143.92,382.12L149.06,380.78L159.34,376.97L164.48,374L174.76,366.33L179.9,361.59L185.04,355.4L190.18,347.69L200.46,330.94L205.6,319.67L215.88,293.58L221.02,276.63L226.16,259.92L231.3,240.12L251.86,142.53L257,117.2L262.14,95.75L267.28,82.18L272.42,75.59L277.56,78.7L282.7,89.14L287.84,110L292.98,140.9L298.12,176.91L308.4,249.47L313.54,277.14L318.68,300.2L323.82,319.27L328.96,333.01L334.1,343.04L339.24,350.98L344.38,357.14L354.66,365.78L359.8,369.07L370.08,374.38L375.22,376.1L390.64,379.99L395.78,380.79L421.48,383.72L426.62,384.04L457.46,384.94L462.6,384.96L514,385" style="vector-effect: none; fill: none; stroke: rgb(240, 173, 78); stroke-opacity: 1; stroke-width: 2px; opacity: 1;"/></g><g class="points"/><g class="text"/></g><g class="trace scatter trace1b3149" style="stroke-miterlimit: 2; opacity: 1;"><g class="fills"/><g class="errorbars"/><g class="lines"><path class="js-line" d="M0,385L123.36,384.53L128.5,384.19L143.92,382.1L149.06,380.69L159.34,376.62L164.48,373.51L169.62,369.84L174.76,365.15L179.9,359.62L185.04,352.79L195.32,336.19L200.46,325.79L210.74,300.56L215.88,286.52L231.3,234.29L236.44,213.22L257,146.49L262.14,134.67L267.28,129.27L272.42,126.93L277.56,129.39L282.7,136.68L287.84,149.68L292.98,167.43L303.26,209.8L308.4,233.86L318.68,279.22L323.82,297.64L328.96,312.04L334.1,323.01L339.24,332.97L344.38,340.73L354.66,351.5L359.8,355.7L370.08,362.62L375.22,365.3L385.5,369.66L390.64,371.26L421.48,379.57L426.62,380.52L447.18,383.51L452.32,383.97L472.88,384.78L478.02,384.86L514,385" style="vector-effect: none; fill: none; stroke: rgb(92, 184, 92); stroke-opacity: 1; stroke-width: 2px; opacity: 1;"/></g><g class="points"/><g class="text"/></g><g class="trace scatter traced0b580" style="stroke-miterlimit: 2; opacity: 1;"><g class="fills"/><g class="errorbars"/><g class="lines"><path class="js-line" d="M0,385L123.36,384.5L128.5,384.16L143.92,382.18L149.06,380.83L159.34,376.89L164.48,373.87L174.76,366.18L179.9,361.35L185.04,355L190.18,347.12L200.46,329.81L205.6,318.4L215.88,291.31L221.02,273.04L226.16,254.65L231.3,233.11L251.86,132.98L257,110.19L262.14,91.61L267.28,82.31L272.42,79.13L277.56,83.18L282.7,96.37L287.84,119.87L292.98,150.76L298.12,186.39L308.4,255.34L313.54,281.53L318.68,303.46L323.82,321.47L328.96,334.5L334.1,344.41L344.38,357.61L349.52,362.64L359.8,369.79L364.94,372.51L375.22,376.58L380.36,378.04L395.78,381.05L400.92,381.65L426.62,384.02L431.76,384.29L462.6,384.93L467.74,384.95L508.86,384.89L514,382.95" style="vector-effect: none; fill: none; stroke: rgb(240, 173, 78); stroke-opacity: 1; stroke-width: 2px; opacity: 1;"/></g><g class="points"/><g class="text"/></g><g class="trace scatter trace70111c" style="stroke-miterlimit: 2; opacity: 1;"><g class="fills"/><g class="errorbars"/><g class="lines"><path class="js-line" d="M0,385L123.36,384.52L128.5,384.19L138.78,383.16L143.92,382.16L154.2,378.89L159.34,376.57L169.62,369.76L174.76,365.17L179.9,359.65L185.04,352.81L195.32,336.21L200.46,325.89L210.74,300.73L215.88,286.89L231.3,234.46L236.44,213.61L257,146.59L262.14,135L267.28,129.65L272.42,126.79L277.56,129.64L282.7,137.19L287.84,149.77L292.98,167.31L303.26,209.72L308.4,234.21L318.68,279.28L323.82,297.62L328.96,311.96L334.1,323.06L339.24,332.77L344.38,340.46L354.66,351.57L359.8,355.68L370.08,362.49L375.22,365.25L385.5,369.53L390.64,371.19L416.34,378.48L421.48,379.55L447.18,383.49L452.32,383.95L472.88,384.75L478.02,384.83L508.86,384.9L514,383.31" style="vector-effect: none; fill: none; stroke: rgb(92, 184, 92); stroke-opacity: 1; stroke-width: 2px; opacity: 1;"/></g><g class="points"/><g class="text"/></g><g class="trace scatter tracefb2fde" style="stroke-miterlimit: 2; opacity: 1;"><g class="fills"/><g class="errorbars"/><g class="lines"><path class="js-line" d="M0,385L133.64,384.47L138.78,384.23L154.2,382.19L159.34,381L169.62,377.01L174.76,374.41L179.9,371.29L185.04,366.53L195.32,354.77L200.46,347.51L205.6,337.31L210.74,325.25L215.88,311.68L221.02,294.61L226.16,277.83L231.3,257.58L241.58,204.95L246.72,173.4L262.14,73.93L267.28,49.27L272.42,35.83L277.56,34.71L282.7,45.67L287.84,71.16L292.98,106.7L298.12,150.14L308.4,241.45L313.54,275.95L318.68,304L323.82,325.48L328.96,340.31L334.1,350.69L339.24,357.88L344.38,363.57L349.52,367.92L354.66,371.22L364.94,376.26L370.08,377.89L385.5,381.24L390.64,381.92L411.2,383.76L416.34,384.01L447.18,384.88L452.32,384.93L514,385" style="vector-effect: none; fill: none; stroke: rgb(240, 173, 78); stroke-opacity: 1; stroke-width: 2px; opacity: 1;"/></g><g class="points"/><g class="text"/></g><g class="trace scatter trace7c063c" style="stroke-miterlimit: 2; opacity: 1;"><g class="fills"/><g class="errorbars"/><g class="lines"><path class="js-line" d="M0,385L138.78,384.37L143.92,383.98L154.2,382.54L159.34,381.38L169.62,377.56L174.76,374.86L179.9,371.45L185.04,366.71L195.32,354.52L200.46,346.21L210.74,322.68L215.88,308.48L231.3,250.88L236.44,226.93L246.72,180.25L251.86,155.42L257,133.24L262.14,115.61L267.28,103.77L272.42,97.94L277.56,99.16L282.7,107.65L287.84,123.43L292.98,143.37L298.12,165.6L303.26,191.5L313.54,246.95L318.68,270.98L323.82,291.95L328.96,308.97L339.24,333.38L344.38,342.53L354.66,355.01L359.8,359.27L370.08,365.36L375.22,367.63L385.5,371.05L390.64,372.38L411.2,377.22L416.34,378.26L447.18,383.17L452.32,383.65L472.88,384.67L478.02,384.77L514,384.99" style="vector-effect: none; fill: none; stroke: rgb(92, 184, 92); stroke-opacity: 1; stroke-width: 2px; opacity: 1;"/></g><g class="points"/><g class="text"/></g><g class="trace scatter trace41442e" style="stroke-miterlimit: 2; opacity: 1;"><g class="fills"/><g class="errorbars"/><g class="lines"><path class="js-line" d="M0,385L133.64,384.46L138.78,384.22L154.2,382.2L159.34,381.01L169.62,376.96L174.76,374.37L179.9,371.15L185.04,366.34L195.32,354.31L200.46,346.75L205.6,336.14L210.74,323.73L215.88,309.61L221.02,291.84L226.16,274.15L231.3,251.51L241.58,193.08L246.72,157.36L262.14,56.73L267.28,38.43L272.42,31.45L277.56,36.33L282.7,53.71L287.84,84.35L292.98,123.75L298.12,169.1L308.4,254.75L313.54,286.89L318.68,312.15L323.82,331.58L328.96,343.67L334.1,351.24L344.38,365.3L349.52,369.47L359.8,375.26L364.94,377.2L380.36,380.82L385.5,381.53L406.06,383.42L411.2,383.74L442.04,384.8L447.18,384.87L508.86,384.9L514,382.31" style="vector-effect: none; fill: none; stroke: rgb(240, 173, 78); stroke-opacity: 1; stroke-width: 2px; opacity: 1;"/></g><g class="points"/><g class="text"/></g><g class="trace scatter trace08b44e" style="stroke-miterlimit: 2; opacity: 1;"><g class="fills"/><g class="errorbars"/><g class="lines"><path class="js-line" d="M0,385L138.78,384.36L143.92,383.97L154.2,382.54L159.34,381.37L169.62,377.52L174.76,374.84L179.9,371.41L185.04,366.71L195.32,354.54L200.46,346.26L210.74,322.83L215.88,308.61L231.3,251.06L236.44,227.32L246.72,180.14L251.86,155.62L257,133.9L262.14,115.88L267.28,104L272.42,98.17L277.56,99.25L282.7,107.54L287.84,123.02L292.98,143.32L303.26,191.32L308.4,219.25L318.68,270.83L323.82,291.9L328.96,308.94L334.1,321.61L339.24,333.36L344.38,342.56L354.66,355.06L359.8,359.34L370.08,365.45L375.22,367.73L385.5,371.1L390.64,372.44L411.2,377.21L416.34,378.26L442.04,382.63L447.18,383.18L467.74,384.52L472.88,384.66L508.86,384.9L514,382.89" style="vector-effect: none; fill: none; stroke: rgb(240, 173, 78); stroke-opacity: 1; stroke-width: 2px; opacity: 1;"/></g><g class="points"/><g class="text"/></g><g class="trace scatter traced9619a" style="stroke-miterlimit: 2; opacity: 1;"><g class="fills"/><g class="errorbars"/><g class="lines"><path class="js-line" d="M0,385L128.5,384.38L133.64,384.08L143.92,382.98L149.06,381.98L159.34,379.02L164.48,376.75L174.76,371.11L179.9,367.64L185.04,362.72L190.18,356.37L195.32,349.56L200.46,341.34L205.6,330.66L210.74,318.13L215.88,303.16L221.02,285.06L226.16,265.57L231.3,241.02L241.58,179.67L246.72,143.25L257,71.39L262.14,42L267.28,27.74L272.42,27.84L277.56,39.81L282.7,64.18L287.84,100.37L292.98,141.91L308.4,268.19L313.54,297.63L318.68,320.94L323.82,339.63L328.96,352.48L334.1,361.31L339.24,367.38L344.38,371.71L354.66,377.15L359.8,378.84L375.22,381.48L380.36,381.99L411.2,384L416.34,384.18L457.46,384.97L462.6,384.98L514,385" style="vector-effect: none; fill: none; stroke: rgb(240, 173, 78); stroke-opacity: 1; stroke-width: 2px; opacity: 1;"/></g><g class="points"/><g class="text"/></g><g class="trace scatter trace7c0872" style="stroke-miterlimit: 2; opacity: 1;"><g class="fills"/><g class="errorbars"/><g class="lines"><path class="js-line" d="M0,385L128.5,384.25L133.64,383.86L143.92,382.39L149.06,381.1L159.34,377.49L164.48,374.87L174.76,368.01L179.9,363.33L185.04,357.37L190.18,350.15L195.32,342.34L200.46,332.99L210.74,308.51L215.88,293.38L226.16,258.18L231.3,236.52L257,113.87L262.14,94.6L267.28,84.06L272.42,82.2L277.56,87.94L282.7,101.96L287.84,123.12L292.98,147.76L298.12,175.14L303.26,206.65L313.54,267.7L318.68,292.26L323.82,313.46L328.96,330.16L334.1,342.21L339.24,351.86L344.38,359.03L349.52,364.26L354.66,368.57L359.8,371.78L370.08,375.82L375.22,377.15L390.64,379.63L395.78,380.34L426.62,383.2L431.76,383.54L462.6,384.78L467.74,384.85L514,385" style="vector-effect: none; fill: none; stroke: rgb(92, 184, 92); stroke-opacity: 1; stroke-width: 2px; opacity: 1;"/></g><g class="points"/><g class="text"/></g><g class="trace scatter trace519d26" style="stroke-miterlimit: 2; opacity: 1;"><g class="fills"/><g class="errorbars"/><g class="lines"><path class="js-line" d="M0,385L128.5,384.41L133.64,384.09L143.92,382.98L149.06,381.96L159.34,378.99L164.48,376.67L174.76,370.91L179.9,367.26L185.04,362.26L190.18,355.88L195.32,348.81L200.46,340.45L205.6,329.52L210.74,316.6L215.88,301.22L221.02,282.41L226.16,262.91L231.3,238.68L241.58,178.83L246.72,144.28L257,77.98L262.14,50.24L267.28,35.97L272.42,33.82L277.56,43.14L282.7,64.55L287.84,98.28L292.98,138.54L308.4,265.9L313.54,296.46L318.68,320.61L323.82,339.62L328.96,352.15L334.1,360.47L339.24,366.83L344.38,371.64L354.66,377L359.8,378.78L370.08,380.86L375.22,381.49L395.78,383.22L400.92,383.53L436.9,384.76L442.04,384.83L508.86,384.9L514,383.24" style="vector-effect: none; fill: none; stroke: rgb(240, 173, 78); stroke-opacity: 1; stroke-width: 2px; opacity: 1;"/></g><g class="points"/><g class="text"/></g><g class="trace scatter traceb74723" style="stroke-miterlimit: 2; opacity: 1;"><g class="fills"/><g class="errorbars"/><g class="lines"><path class="js-line" d="M0,385L128.5,384.27L133.64,383.88L143.92,382.39L149.06,381.09L159.34,377.51L164.48,374.88L174.76,367.98L179.9,363.28L190.18,350.17L195.32,342.27L200.46,333.01L205.6,321.63L210.74,308.7L215.88,293.51L226.16,258.16L231.3,236.76L257,114.32L262.14,94.8L267.28,84.2L272.42,82.11L277.56,87.9L282.7,102.01L287.84,123.23L292.98,148.22L303.26,206.44L308.4,238.84L313.54,267.73L318.68,292.27L323.82,313.47L328.96,330.2L334.1,342.29L339.24,351.96L344.38,359.08L349.52,364.21L354.66,368.47L359.8,371.72L370.08,375.78L375.22,377.09L390.64,379.59L395.78,380.32L421.48,382.78L426.62,383.18L457.46,384.69L462.6,384.77L508.86,384.91L514,383.54" style="vector-effect: none; fill: none; stroke: rgb(92, 184, 92); stroke-opacity: 1; stroke-width: 2px; opacity: 1;"/></g><g class="points"/><g class="text"/></g><g class="trace scatter trace45c321" style="stroke-miterlimit: 2; opacity: 1;"><g class="fills"/><g class="errorbars"/><g class="lines"><path class="js-line" d="M0,385L118.22,384.3L123.36,383.79L133.64,381.96L138.78,380.58L143.92,378.44L149.06,375.23L159.34,367.24L164.48,361.55L174.76,347.54L179.9,339.28L190.18,317.28L195.32,305.9L200.46,294.63L205.6,280.47L215.88,250.16L221.02,232.21L231.3,197.41L236.44,175.31L257,93.2L262.14,81.71L267.28,81.84L272.42,91.73L277.56,110.37L282.7,135.69L292.98,203.38L298.12,238.43L308.4,300.07L313.54,321.68L318.68,338.25L323.82,351.16L328.96,359.94L334.1,365.86L339.24,370.13L344.38,373.29L354.66,377.82L359.8,379.4L375.22,382.32L380.36,382.9L406.06,384.36L411.2,384.49L462.6,384.99L467.74,385L514,385" style="vector-effect: none; fill: none; stroke: rgb(240, 173, 78); stroke-opacity: 1; stroke-width: 2px; opacity: 1;"/></g><g class="points"/><g class="text"/></g><g class="trace scatter tracebe8fad" style="stroke-miterlimit: 2; opacity: 1;"><g class="fills"/><g class="errorbars"/><g class="lines"><path class="js-line" d="M0,385L118.22,384.39L123.36,383.95L133.64,382.36L138.78,381.1L143.92,379.08L149.06,376.03L159.34,368.13L164.48,362.53L174.76,348.72L179.9,340.17L190.18,318.01L195.32,306.36L200.46,294.28L205.6,279.62L215.88,248.69L221.02,230.66L231.3,198.21L236.44,179.41L246.72,149.65L251.86,136.48L257,125.37L262.14,120.25L267.28,122.4L272.42,130.35L277.56,143.7L282.7,161.8L298.12,230.39L303.26,254.77L313.54,297.61L318.68,314.71L323.82,328.92L328.96,339.94L339.24,355.08L344.38,360.4L354.66,367.49L359.8,370.07L370.08,373.84L375.22,375.22L395.78,378.91L400.92,379.61L431.76,382.94L436.9,383.37L462.6,384.64L467.74,384.75L514,385" style="vector-effect: none; fill: none; stroke: rgb(240, 173, 78); stroke-opacity: 1; stroke-width: 2px; opacity: 1;"/></g><g class="points"/><g class="text"/></g><g class="trace scatter tracedb8ca1" style="stroke-miterlimit: 2; opacity: 1;"><g class="fills"/><g class="errorbars"/><g class="lines"><path class="js-line" d="M0,385L118.22,384.33L123.36,383.81L133.64,381.96L138.78,380.5L143.92,378.35L149.06,375.35L159.34,367.04L164.48,361.32L174.76,347.42L179.9,339.25L190.18,316.71L195.32,305.13L200.46,292.92L205.6,278.32L215.88,247.89L221.02,229.73L231.3,192.85L236.44,170.69L251.86,107.18L257,90.24L262.14,80.81L267.28,83.34L272.42,93.98L277.56,113.85L282.7,140.23L287.84,172.78L303.26,276.44L308.4,304.07L313.54,325.11L318.68,340.68L323.82,352.64L328.96,360.69L339.24,370.53L344.38,374.07L354.66,378.34L359.8,379.83L375.22,382.53L380.36,383.03L406.06,384.37L411.2,384.5L467.74,384.98L472.88,384.98L508.86,384.91L514,383.13" style="vector-effect: none; fill: none; stroke: rgb(240, 173, 78); stroke-opacity: 1; stroke-width: 2px; opacity: 1;"/></g><g class="points"/><g class="text"/></g><g class="trace scatter trace4b4113" style="stroke-miterlimit: 2; opacity: 1;"><g class="fills"/><g class="errorbars"/><g class="lines"><path class="js-line" d="M0,385L118.22,384.41L123.36,383.97L133.64,382.35L138.78,381.03L143.92,379L149.06,376.13L159.34,367.97L164.48,362.37L174.76,348.73L179.9,340.37L190.18,318.14L195.32,306.55L200.46,293.99L205.6,279.28L215.88,248.79L221.02,231.08L231.3,198.37L236.44,179.99L246.72,149.45L251.86,136.5L257,125.84L262.14,120.27L267.28,122.38L272.42,130.04L277.56,143.78L282.7,162.1L298.12,230.35L303.26,254.94L313.54,297.65L318.68,314.61L323.82,328.72L328.96,339.72L339.24,355.11L344.38,360.4L354.66,367.48L359.8,370.09L370.08,373.85L375.22,375.22L390.64,378.06L395.78,378.89L426.62,382.48L431.76,382.92L457.46,384.49L462.6,384.63L503.72,384.95L508.86,384.91L514,383.44" style="vector-effect: none; fill: none; stroke: rgb(240, 173, 78); stroke-opacity: 1; stroke-width: 2px; opacity: 1;"/></g><g class="points"/><g class="text"/></g><g class="trace scatter trace88983e" style="stroke-miterlimit: 2; opacity: 1;"><g class="fills"/><g class="errorbars"/><g class="lines"><path class="js-line" d="M0,385L118.22,384.27L123.36,383.81L133.64,382.12L138.78,380.79L149.06,376.32L154.2,373.06L159.34,368.98L164.48,363.82L174.76,350.92L179.9,343.16L190.18,321.64L195.32,308.9L210.74,266.59L215.88,255.9L221.02,246.48L226.16,239.94L231.3,233.14L236.44,223.51L241.58,212.61L246.72,196.94L257,159.27L262.14,139.57L267.28,125.54L272.42,117.25L277.56,116.44L282.7,125.14L287.84,144.63L292.98,171.01L308.4,258.96L313.54,281.03L318.68,298.9L323.82,313.99L328.96,325.84L334.1,335.54L339.24,343.45L344.38,349.95L354.66,359.99L359.8,363.98L370.08,370.15L375.22,372.5L385.5,376.44L390.64,377.92L406.06,381.39L411.2,382.13L431.76,384.1L436.9,384.4L467.74,384.97L472.88,384.98L514,385" style="vector-effect: none; fill: none; stroke: rgb(240, 173, 78); stroke-opacity: 1; stroke-width: 2px; opacity: 1;"/></g><g class="points"/><g class="text"/></g><g class="trace scatter traced17f28" style="stroke-miterlimit: 2; opacity: 1;"><g class="fills"/><g class="errorbars"/><g class="lines"><path class="js-line" d="M0,385L118.22,384.38L123.36,384L133.64,382.61L138.78,381.51L149.06,377.82L154.2,375.07L159.34,371.57L164.48,367.03L174.76,355.44L179.9,348.18L190.18,328.35L195.32,316.59L210.74,276.25L215.88,265.87L221.02,255.78L226.16,248.3L231.3,240.87L236.44,231.74L241.58,223.26L246.72,211.86L257,188.41L262.14,179.25L267.28,173.62L272.42,170.3L277.56,170.28L282.7,174.6L287.84,183.49L292.98,195.59L298.12,209.39L303.26,225.78L313.54,262L318.68,277.96L323.82,292.19L328.96,303.85L339.24,321.26L344.38,327.86L354.66,337.6L359.8,341.33L370.08,347.27L375.22,349.79L426.62,374.09L431.76,376.1L442.04,379.68L447.18,380.93L462.6,383.47L467.74,383.93L493.44,384.85L498.58,384.92L514,384.96" style="vector-effect: none; fill: none; stroke: rgb(92, 184, 92); stroke-opacity: 1; stroke-width: 2px; opacity: 1;"/></g><g class="points"/><g class="text"/></g><g class="trace scatter tracec7b86a" style="stroke-miterlimit: 2; opacity: 1;"><g class="fills"/><g class="errorbars"/><g class="lines"><path class="js-line" d="M0,385L118.22,384.32L123.36,383.89L133.64,382.25L138.78,380.96L149.06,376.64L154.2,373.46L159.34,369.39L164.48,364.28L174.76,351.39L179.9,343.54L185.04,333.67L190.18,322.03L200.46,294.25L205.6,279.19L210.74,265.3L215.88,253.97L221.02,244.18L226.16,237.7L231.3,230.66L236.44,220.62L241.58,208.86L246.72,192.59L262.14,141.88L267.28,131.92L272.42,126.85L277.56,127.22L282.7,135.56L287.84,152.76L292.98,175.3L298.12,202.17L308.4,257.12L313.54,279.11L318.68,296.82L323.82,311.19L328.96,322.21L334.1,331.21L344.38,346.57L349.52,353.01L359.8,363.22L364.94,367.15L375.22,372.86L380.36,374.94L395.78,379.41L400.92,380.5L416.34,382.75L421.48,383.29L442.04,384.57L447.18,384.71L493.44,384.96L498.58,384.95L508.86,384.84L514,382.29" style="vector-effect: none; fill: none; stroke: rgb(240, 173, 78); stroke-opacity: 1; stroke-width: 2px; opacity: 1;"/></g><g class="points"/><g class="text"/></g><g class="trace scatter trace3b547d" style="stroke-miterlimit: 2; opacity: 1;"><g class="fills"/><g class="errorbars"/><g class="lines"><path class="js-line" d="M0,385L118.22,384.42L123.36,384.06L138.78,381.65L143.92,380.13L154.2,375.4L159.34,371.9L169.62,362.03L174.76,355.85L179.9,348.54L185.04,339.44L195.32,316.92L200.46,303.48L210.74,276.52L215.88,265.9L221.02,255.69L226.16,248.47L231.3,241.19L236.44,232.03L241.58,223.3L246.72,211.69L257,188.69L262.14,179.26L267.28,173.47L272.42,170.29L277.56,170.21L282.7,174.29L287.84,183.19L292.98,195.28L298.12,209.18L303.26,225.63L318.68,277.77L323.82,291.93L328.96,303.77L334.1,312.92L339.24,321.22L344.38,327.84L354.66,337.65L359.8,341.31L370.08,347.22L375.22,349.75L426.62,374.04L431.76,376.05L442.04,379.61L447.18,380.87L462.6,383.43L467.74,383.9L493.44,384.82L498.58,384.87L508.86,384.81L514,382.77" style="vector-effect: none; fill: none; stroke: rgb(92, 184, 92); stroke-opacity: 1; stroke-width: 2px; opacity: 1;"/></g><g class="points"/><g class="text"/></g><g class="trace scatter tracedd0935" style="stroke-miterlimit: 2; opacity: 1;"><g class="fills"/><g class="errorbars"/><g class="lines"><path class="js-line" d="M0,385L138.78,384.57L143.92,384.19L154.2,382.51L159.34,381.04L164.48,378.82L169.62,375.68L174.76,371.65L179.9,366.25L185.04,358.7L190.18,348.78L200.46,323.06L205.6,308.32L215.88,280.37L221.02,268.49L226.16,257.2L231.3,244.09L236.44,228.61L241.58,209.6L257,136.4L262.14,111.86L267.28,93.66L272.42,83.16L277.56,81.42L282.7,89.15L287.84,108.22L292.98,136.59L303.26,207.58L308.4,242.54L313.54,271.17L318.68,294.89L323.82,313.27L328.96,327.03L334.1,337.57L339.24,345.64L344.38,352.17L349.52,357.43L359.8,365.34L364.94,368.33L380.36,374.65L385.5,376.25L406.06,380.59L411.2,381.44L431.76,383.79L436.9,384.17L462.6,384.93L467.74,384.97L514,385" style="vector-effect: none; fill: none; stroke: rgb(240, 173, 78); stroke-opacity: 1; stroke-width: 2px; opacity: 1;"/></g><g class="points"/><g class="text"/></g><g class="trace scatter trace9ed8b2" style="stroke-miterlimit: 2; opacity: 1;"><g class="fills"/><g class="errorbars"/><g class="lines"><path class="js-line" d="M0,385L143.92,384.28L149.06,383.65L159.34,381.12L164.48,378.8L169.62,375.65L174.76,371.48L179.9,365.72L185.04,357.88L190.18,347.81L195.32,335.74L215.88,280.37L221.02,268.72L231.3,246.5L236.44,233.69L241.58,219.75L246.72,202.49L257,169.61L262.14,154.78L267.28,143.59L272.42,136.84L277.56,134.63L282.7,138.36L287.84,147.71L292.98,161.24L298.12,177.99L303.26,198.68L318.68,266.48L323.82,285.38L328.96,301.61L334.1,313.91L339.24,324.87L344.38,333.13L354.66,344.72L359.8,349.32L370.08,356.09L375.22,358.78L395.78,367.28L400.92,369.44L421.48,376.68L426.62,378.33L442.04,382.09L447.18,382.87L467.74,384.53L472.88,384.69L514,384.99" style="vector-effect: none; fill: none; stroke: rgb(92, 184, 92); stroke-opacity: 1; stroke-width: 2px; opacity: 1;"/></g><g class="points"/><g class="text"/></g><g class="trace scatter traceccfba7" style="stroke-miterlimit: 2; opacity: 1;"><g class="fills"/><g class="errorbars"/><g class="lines"><path class="js-line" d="M0,385L138.78,384.57L143.92,384.19L154.2,382.52L159.34,381.01L164.48,378.76L169.62,375.6L174.76,371.53L179.9,366.12L185.04,358.49L190.18,348.21L200.46,321.79L205.6,306.49L215.88,278.4L221.02,266.32L226.16,254.76L231.3,241.24L236.44,224.77L241.58,205.6L262.14,110.19L267.28,94.48L272.42,85.48L277.56,84.66L282.7,93.03L287.84,112.42L292.98,140.55L298.12,174.58L308.4,245.39L313.54,273.41L318.68,296.5L323.82,314.29L328.96,327.65L334.1,338.16L339.24,346.08L344.38,352.57L354.66,361.96L359.8,365.82L370.08,371.02L375.22,373.15L385.5,376.45L390.64,377.67L416.34,382.17L421.48,382.86L447.18,384.66L452.32,384.79L508.86,384.92L514,383.44" style="vector-effect: none; fill: none; stroke: rgb(240, 173, 78); stroke-opacity: 1; stroke-width: 2px; opacity: 1;"/></g><g class="points"/><g class="text"/></g><g class="trace scatter trace6c0931" style="stroke-miterlimit: 2; opacity: 1;"><g class="fills"/><g class="errorbars"/><g class="lines"><path class="js-line" d="M0,385L143.92,384.27L149.06,383.65L159.34,381.1L164.48,378.75L169.62,375.6L174.76,371.43L179.9,365.7L185.04,357.9L190.18,347.75L195.32,335.65L215.88,280.72L221.02,269.05L231.3,246.67L236.44,233.64L241.58,219.84L246.72,202.73L257,169.66L262.14,155.11L267.28,143.9L272.42,137.06L277.56,134.79L282.7,138.3L287.84,147.71L292.98,161.32L298.12,178.03L303.26,198.4L313.54,245.91L318.68,266.45L328.96,301.55L334.1,313.9L339.24,324.8L344.38,333.03L354.66,344.66L359.8,349.27L370.08,356.15L375.22,358.84L395.78,367.24L400.92,369.43L421.48,376.71L426.62,378.34L442.04,382.11L447.18,382.86L467.74,384.5L472.88,384.67L508.86,384.91L514,383.72" style="vector-effect: none; fill: none; stroke: rgb(92, 184, 92); stroke-opacity: 1; stroke-width: 2px; opacity: 1;"/></g><g class="points"/><g class="text"/></g><g class="trace scatter trace6935a8" style="stroke-miterlimit: 2; opacity: 1;"><g class="fills"/><g class="errorbars"/><g class="lines"><path class="js-line" d="M0,385L118.22,384.48L123.36,384.13L138.78,381.81L143.92,380.34L154.2,375.75L159.34,372.35L164.48,367.73L169.62,361.96L179.9,347.91L185.04,337.71L195.32,315.58L200.46,301.86L221.02,235.45L226.16,225.4L231.3,217.3L236.44,203.83L241.58,191.79L246.72,176.48L257,149.69L262.14,137.36L267.28,131.66L272.42,131.57L277.56,138L282.7,149.31L287.84,169.36L292.98,195.56L303.26,245.43L308.4,267.16L318.68,298.8L323.82,312.37L328.96,322.49L334.1,330.89L344.38,344.25L349.52,349.42L359.8,357.93L364.94,361.56L380.36,370L385.5,372.22L400.92,377.4L406.06,378.84L421.48,381.94L426.62,382.7L442.04,384.22L447.18,384.49L478.02,384.98L483.16,384.99L514,385" style="vector-effect: none; fill: none; stroke: rgb(240, 173, 78); stroke-opacity: 1; stroke-width: 2px; opacity: 1;"/></g><g class="points"/><g class="text"/></g><g class="trace scatter trace4c8268" style="stroke-miterlimit: 2; opacity: 1;"><g class="fills"/><g class="errorbars"/><g class="lines"><path class="js-line" d="M0,385L123.36,384.29L128.5,383.81L138.78,382.37L143.92,381.05L154.2,376.79L159.34,373.46L169.62,363.59L174.76,357.02L179.9,349.07L185.04,338.86L195.32,315.55L200.46,300.85L210.74,267.14L215.88,253.04L221.02,236.97L226.16,226.88L231.3,219.55L236.44,210.76L262.14,189.56L267.28,190.9L272.42,191.46L277.56,193.35L282.7,198.7L287.84,207.84L298.12,229.44L303.26,242.47L318.68,283.37L323.82,294.73L328.96,303.47L334.1,310.41L344.38,323.12L349.52,327.7L359.8,335.56L364.94,338.79L426.62,372.48L431.76,374.89L442.04,379.03L447.18,380.49L457.46,382.65L462.6,383.32L478.02,384.44L483.16,384.59L514,384.96" style="vector-effect: none; fill: none; stroke: rgb(240, 173, 78); stroke-opacity: 1; stroke-width: 2px; opacity: 1;"/></g><g class="points"/><g class="text"/></g><g class="trace scatter traced8a244" style="stroke-miterlimit: 2; opacity: 1;"><g class="fills"/><g class="errorbars"/><g class="lines"><path class="js-line" d="M0,385L118.22,384.48L123.36,384.14L138.78,381.82L143.92,380.36L154.2,375.83L159.34,372.49L164.48,367.78L169.62,361.97L179.9,347.8L185.04,337.37L195.32,314.45L200.46,300.3L221.02,231.43L226.16,220.53L231.3,210.76L236.44,196.69L246.72,172.46L251.86,164.46L262.14,148.72L267.28,146.36L272.42,146.78L277.56,150.14L282.7,158.69L287.84,176.21L308.4,263.88L313.54,281.04L323.82,308.57L328.96,317.93L344.38,340.92L349.52,347.15L359.8,357.57L364.94,361.69L375.22,368.27L380.36,370.66L390.64,374.54L395.78,376.14L411.2,380.12L416.34,381.07L431.76,383.32L436.9,383.84L457.46,384.78L462.6,384.86L508.86,384.85L514,382.5" style="vector-effect: none; fill: none; stroke: rgb(92, 184, 92); stroke-opacity: 1; stroke-width: 2px; opacity: 1;"/></g><g class="points"/><g class="text"/></g><g class="trace scatter trace617676" style="stroke-miterlimit: 2; opacity: 1;"><g class="fills"/><g class="errorbars"/><g class="lines"><path class="js-line" d="M0,385L123.36,384.3L128.5,383.83L138.78,382.37L143.92,381.06L154.2,376.84L159.34,373.57L169.62,363.62L174.76,357.11L179.9,349.22L185.04,338.99L195.32,315.66L200.46,300.95L210.74,267.46L215.88,253.38L221.02,237.12L226.16,227.1L231.3,219.72L236.44,210.83L262.14,189.61L267.28,190.96L272.42,191.68L277.56,193.6L282.7,198.83L287.84,207.89L298.12,229.25L303.26,242.39L318.68,283.35L323.82,294.7L328.96,303.48L334.1,310.5L344.38,323.13L349.52,327.77L359.8,335.5L364.94,338.71L385.5,349.74L390.64,352.32L431.76,374.82L436.9,377.07L447.18,380.45L452.32,381.67L467.74,383.8L472.88,384.17L503.72,384.88L508.86,384.83L514,383.02" style="vector-effect: none; fill: none; stroke: rgb(240, 173, 78); stroke-opacity: 1; stroke-width: 2px; opacity: 1;"/></g><g class="points"/><g class="text"/></g><g class="trace scatter trace3f2369" style="stroke-miterlimit: 2; opacity: 1;"><g class="fills"/><g class="errorbars"/><g class="lines"><path class="js-line" d="M0,385L138.78,384.46L143.92,384.1L154.2,382.78L159.34,381.57L164.48,379.18L169.62,375.61L174.76,371.45L179.9,366L185.04,356.2L190.18,340.74L195.32,318.48L200.46,288.67L210.74,221.13L215.88,202.98L221.02,191.6L226.16,190.1L236.44,202.68L241.58,206.57L246.72,202.15L251.86,195.8L257,186.06L262.14,173.96L267.28,164.68L272.42,157.2L277.56,153.58L282.7,154.5L287.84,166.68L292.98,186.21L308.4,256.45L313.54,273.91L323.82,302.61L328.96,313.3L339.24,331.13L344.38,338.48L354.66,350.85L359.8,356L370.08,364.14L375.22,367.43L385.5,372.57L390.64,374.51L406.06,379.07L411.2,380.26L431.76,383.47L436.9,383.96L457.46,384.84L462.6,384.91L514,385" style="vector-effect: none; fill: none; stroke: rgb(240, 173, 78); stroke-opacity: 1; stroke-width: 2px; opacity: 1;"/></g><g class="points"/><g class="text"/></g><g class="trace scatter tracee7055e" style="stroke-miterlimit: 2; opacity: 1;"><g class="fills"/><g class="errorbars"/><g class="lines"><path class="js-line" d="M0,385L143.92,384.25L149.06,383.78L159.34,382.07L164.48,379.94L174.76,372.84L179.9,367.25L185.04,357.49L190.18,342.48L195.32,320.85L200.46,291.3L205.6,256.3L210.74,227.34L215.88,212.47L221.02,202.6L226.16,200L231.3,205.44L241.58,223.43L246.72,223.78L251.86,219.61L257,212.51L262.14,205.32L267.28,202.34L272.42,199.32L277.56,197.8L282.7,199.76L287.84,206.56L298.12,228.56L303.26,241.34L318.68,282.43L323.82,293.63L328.96,302.2L334.1,308.52L344.38,320.3L349.52,324.85L359.8,332.39L364.94,335.55L406.06,359.41L411.2,362.62L426.62,371.63L431.76,374.15L442.04,378.6L447.18,380.12L462.6,383.2L467.74,383.74L488.3,384.74L493.44,384.84L514,384.95" style="vector-effect: none; fill: none; stroke: rgb(240, 173, 78); stroke-opacity: 1; stroke-width: 2px; opacity: 1;"/></g><g class="points"/><g class="text"/></g><g class="trace scatter trace9abfba" style="stroke-miterlimit: 2; opacity: 1;"><g class="fills"/><g class="errorbars"/><g class="lines"><path class="js-line" d="M0,385L138.78,384.47L143.92,384.13L154.2,382.8L159.34,381.61L164.48,379.24L169.62,375.67L174.76,371.55L179.9,366.11L185.04,356.23L190.18,340.53L195.32,317.79L200.46,287.03L210.74,217.47L215.88,198.96L221.02,187.99L226.16,187.99L231.3,194.97L236.44,199.75L241.58,201.72L246.72,195.3L251.86,189.55L257,181.31L262.14,169.64L267.28,161.93L272.42,157.17L277.56,155.69L282.7,161.38L287.84,176.81L298.12,218.2L303.26,240.29L313.54,276.75L318.68,291.17L323.82,303.71L328.96,313.12L349.52,344.91L354.66,351.3L364.94,361.29L370.08,365.09L380.36,370.88L385.5,372.95L400.92,377.88L406.06,379.16L421.48,382.15L426.62,382.86L447.18,384.54L452.32,384.71L498.58,384.96L503.72,384.95L508.86,384.89L514,382.96" style="vector-effect: none; fill: none; stroke: rgb(240, 173, 78); stroke-opacity: 1; stroke-width: 2px; opacity: 1;"/></g><g class="points"/><g class="text"/></g><g class="trace scatter trace9cd3ea" style="stroke-miterlimit: 2; opacity: 1;"><g class="fills"/><g class="errorbars"/><g class="lines"><path class="js-line" d="M0,385L143.92,384.26L149.06,383.8L159.34,382.07L164.48,379.96L174.76,372.92L179.9,367.37L185.04,357.61L190.18,342.6L195.32,320.94L200.46,291.37L205.6,256.15L210.74,227.27L215.88,212.61L221.02,202.59L226.16,200.17L231.3,205.78L241.58,223.56L246.72,223.78L251.86,219.64L257,212.81L262.14,205.65L267.28,202.63L272.42,199.53L277.56,197.9L282.7,199.75L287.84,206.54L298.12,228.4L303.26,241.18L318.68,282.3L323.82,293.45L328.96,302.23L334.1,308.7L344.38,320.28L349.52,324.83L359.8,332.47L364.94,335.58L406.06,359.39L411.2,362.59L426.62,371.62L431.76,374.13L442.04,378.58L447.18,380.09L457.46,382.44L462.6,383.18L478.02,384.38L483.16,384.57L508.86,384.86L514,383.32" style="vector-effect: none; fill: none; stroke: rgb(240, 173, 78); stroke-opacity: 1; stroke-width: 2px; opacity: 1;"/></g><g class="points"/><g class="text"/></g><g class="trace scatter trace036e51" style="stroke-miterlimit: 2; opacity: 1;"><g class="fills"/><g class="errorbars"/><g class="lines"><path class="js-line" d="M0,385L133.64,384.28L138.78,383.97L154.2,381.71L159.34,380.22L164.48,377.5L169.62,373.33L174.76,368.46L179.9,361.85L185.04,350.56L190.18,333L195.32,307.65L200.46,274.12L210.74,201L215.88,183.21L221.02,174.89L226.16,174.78L231.3,184.36L236.44,195.88L241.58,201.94L246.72,197.78L257,181.8L262.14,173.49L267.28,165.9L272.42,160.23L277.56,159.93L282.7,164.37L287.84,176.92L292.98,196.39L308.4,266.8L313.54,285.46L323.82,313.63L328.96,323.83L339.24,339.55L344.38,345.73L354.66,356.19L359.8,360.69L370.08,367.76L375.22,370.52L385.5,374.95L390.64,376.63L406.06,380.47L411.2,381.42L431.76,383.82L436.9,384.19L462.6,384.93L467.74,384.96L514,385" style="vector-effect: none; fill: none; stroke: rgb(240, 173, 78); stroke-opacity: 1; stroke-width: 2px; opacity: 1;"/></g><g class="points"/><g class="text"/></g><g class="trace scatter traced1a501" style="stroke-miterlimit: 2; opacity: 1;"><g class="fills"/><g class="errorbars"/><g class="lines"><path class="js-line" d="M0,385L133.64,384.39L138.78,384.12L149.06,382.95L154.2,381.94L159.34,380.43L164.48,377.74L169.62,373.74L174.76,368.29L179.9,360.34L185.04,347.54L190.18,327.74L195.32,298.99L205.6,221.96L210.74,191.55L215.88,179.29L221.02,175.93L226.16,180.46L231.3,193.42L236.44,210.11L241.58,223.38L246.72,227.52L251.86,225.12L262.14,211.23L267.28,206.78L272.42,204.38L277.56,204.96L282.7,208.56L287.84,215.86L292.98,225.93L298.12,237.68L318.68,291.66L323.82,302.77L328.96,311.65L334.1,318.48L339.24,324.89L344.38,330.01L354.66,337.83L359.8,341.09L375.22,349.02L380.36,351.47L431.76,375.62L436.9,377.56L447.18,380.68L452.32,381.82L467.74,383.87L472.88,384.2L498.58,384.92L503.72,384.94L514,384.96" style="vector-effect: none; fill: none; stroke: rgb(217, 83, 79); stroke-opacity: 1; stroke-width: 2px; opacity: 1;"/></g><g class="points"/><g class="text"/></g><g class="trace scatter trace4ce79d" style="stroke-miterlimit: 2; opacity: 1;"><g class="fills"/><g class="errorbars"/><g class="lines"><path class="js-line" d="M0,385L133.64,384.29L138.78,384L149.06,382.75L154.2,381.73L159.34,380.25L164.48,377.5L174.76,368.41L179.9,361.8L185.04,350.29L190.18,332.23L195.32,306.02L200.46,271.2L210.74,196.49L215.88,178.73L221.02,170.03L226.16,168.48L231.3,175.07L236.44,184.34L241.58,191.7L246.72,191.08L251.86,188.72L257,183.07L262.14,174.09L267.28,167.31L272.42,164.16L277.56,165.06L282.7,171.62L287.84,185.97L292.98,205.05L298.12,227.35L308.4,271.1L313.54,288.29L323.82,314.73L328.96,324.15L339.24,339.46L344.38,346.09L354.66,357.23L359.8,361.96L370.08,368.97L375.22,371.55L385.5,375.56L390.64,377.07L406.06,380.56L411.2,381.43L431.76,383.81L436.9,384.19L462.6,384.9L467.74,384.93L508.86,384.9L514,382.97" style="vector-effect: none; fill: none; stroke: rgb(240, 173, 78); stroke-opacity: 1; stroke-width: 2px; opacity: 1;"/></g><g class="points"/><g class="text"/></g><g class="trace scatter trace8f00d4" style="stroke-miterlimit: 2; opacity: 1;"><g class="fills"/><g class="errorbars"/><g class="lines"><path class="js-line" d="M0,385L133.64,384.4L138.78,384.14L149.06,382.96L154.2,381.95L159.34,380.43L164.48,377.73L169.62,373.72L174.76,368.3L179.9,360.44L185.04,347.67L190.18,327.88L195.32,299L205.6,221.98L210.74,191.59L215.88,179.45L221.02,176.27L226.16,180.75L231.3,193.5L236.44,210.15L241.58,223.57L246.72,227.65L251.86,225.26L262.14,211.34L267.28,206.77L272.42,204.4L277.56,204.94L282.7,208.51L287.84,215.88L298.12,237.64L303.26,250.75L318.68,291.46L323.82,302.62L328.96,311.61L334.1,318.49L339.24,324.85L344.38,329.99L354.66,337.83L359.8,341.11L375.22,349.02L380.36,351.5L431.76,375.67L436.9,377.61L447.18,380.7L452.32,381.82L467.74,383.86L472.88,384.2L503.72,384.9L508.86,384.87L514,383.36" style="vector-effect: none; fill: none; stroke: rgb(217, 83, 79); stroke-opacity: 1; stroke-width: 2px; opacity: 1;"/></g><g class="points"/><g class="text"/></g><g class="trace scatter trace1233f1" style="stroke-miterlimit: 2; opacity: 1;"><g class="fills"/><g class="errorbars"/><g class="lines"><path class="js-line" d="M0,385L133.64,384.34L138.78,384.09L154.2,382.07L159.34,380.8L164.48,378.47L169.62,374.98L174.76,370.91L179.9,365.66L185.04,356.68L190.18,343.23L195.32,324.35L200.46,299.14L210.74,239.54L215.88,220.03L221.02,202.92L226.16,190.41L236.44,175.93L241.58,172.91L246.72,170.28L251.86,169.72L257,169.63L262.14,167.52L272.42,163.13L277.56,163.26L282.7,166.19L287.84,176.87L292.98,192.72L298.12,211.51L308.4,253.84L313.54,271.36L318.68,288.14L323.82,302.27L334.1,322.32L339.24,330.57L354.66,352.4L359.8,358.68L364.94,363.96L370.08,368.15L380.36,374.22L385.5,376.23L400.92,380.23L406.06,381.18L426.62,383.63L431.76,384.01L457.46,384.89L462.6,384.94L514,385" style="vector-effect: none; fill: none; stroke: rgb(92, 184, 92); stroke-opacity: 1; stroke-width: 2px; opacity: 1;"/></g><g class="points"/><g class="text"/></g><g class="trace scatter trace288726" style="stroke-miterlimit: 2; opacity: 1;"><g class="fills"/><g class="errorbars"/><g class="lines"><path class="js-line" d="M0,385L133.64,384.34L138.78,384.06L149.06,382.68L154.2,381.49L159.34,379.71L164.48,376.81L169.62,372.66L174.76,366.66L179.9,357.92L185.04,344.29L190.18,325.24L195.32,298.16L205.6,229.7L210.74,202.25L215.88,189.66L221.02,184.01L226.16,185.58L231.3,193.48L241.58,214.77L246.72,221.46L251.86,223.25L257,220.49L262.14,217.47L267.28,217.14L272.42,217.15L277.56,218.85L282.7,222.23L287.84,227.75L292.98,235.6L298.12,244.97L313.54,277.38L318.68,287.93L328.96,305.24L334.1,311.44L344.38,323.25L349.52,327.77L359.8,335.54L364.94,338.67L380.36,347.38L385.5,350.06L400.92,358.56L406.06,361.5L426.62,372.35L431.76,374.65L442.04,378.7L447.18,380.12L457.46,382.4L462.6,383.11L478.02,384.35L483.16,384.54L514,384.96" style="vector-effect: none; fill: none; stroke: rgb(217, 83, 79); stroke-opacity: 1; stroke-width: 2px; opacity: 1;"/></g><g class="points"/><g class="text"/></g><g class="trace scatter tracebca00d" style="stroke-miterlimit: 2; opacity: 1;"><g class="fills"/><g class="errorbars"/><g class="lines"><path class="js-line" d="M0,385L133.64,384.33L138.78,384.09L154.2,382.08L159.34,380.81L164.48,378.43L169.62,374.85L174.76,370.74L179.9,365.42L185.04,356.14L190.18,342.19L195.32,322.52L200.46,296.22L210.74,234.15L215.88,212.29L221.02,191.59L226.16,176.71L231.3,169.15L236.44,164.6L246.72,165.08L251.86,167.11L257,166.42L262.14,162.51L267.28,158.86L272.42,156.59L277.56,157.51L282.7,164L287.84,178.94L292.98,198.5L308.4,265.21L313.54,283.37L318.68,298.35L323.82,310.96L328.96,319.88L334.1,327.11L344.38,345.33L349.52,352.21L359.8,363.24L364.94,367.23L375.22,372.99L380.36,375.1L390.64,378.17L395.78,379.35L411.2,382.01L416.34,382.65L436.9,384.32L442.04,384.54L478.02,384.96L483.16,384.96L508.86,384.9L514,383.15" style="vector-effect: none; fill: none; stroke: rgb(92, 184, 92); stroke-opacity: 1; stroke-width: 2px; opacity: 1;"/></g><g class="points"/><g class="text"/></g><g class="trace scatter traceb1f9d8" style="stroke-miterlimit: 2; opacity: 1;"><g class="fills"/><g class="errorbars"/><g class="lines"><path class="js-line" d="M0,385L133.64,384.34L138.78,384.05L149.06,382.68L154.2,381.49L159.34,379.73L164.48,376.81L169.62,372.64L174.76,366.67L179.9,358.02L185.04,344.44L190.18,325.45L195.32,298.36L205.6,230.12L210.74,202.75L215.88,190.08L221.02,184.35L226.16,185.91L231.3,193.6L241.58,214.74L246.72,221.33L251.86,223.3L257,220.5L262.14,217.33L267.28,217.18L272.42,217.23L277.56,218.9L282.7,222.26L287.84,227.63L292.98,235.41L298.12,244.72L308.4,265.57L313.54,277.26L323.82,297.07L328.96,305.16L344.38,323.15L349.52,327.69L359.8,335.48L364.94,338.7L380.36,347.43L385.5,350.13L400.92,358.61L406.06,361.53L426.62,372.36L431.76,374.65L442.04,378.71L447.18,380.13L457.46,382.4L462.6,383.1L478.02,384.35L483.16,384.54L508.86,384.87L514,383.66" style="vector-effect: none; fill: none; stroke: rgb(217, 83, 79); stroke-opacity: 1; stroke-width: 2px; opacity: 1;"/></g><g class="points"/><g class="text"/></g></g></g></g><g class="zerolinelayer-above"/><path class="xlines-above crisp" d="M0,0" style="fill: none;"/><path class="ylines-above crisp" d="M0,0" style="fill: none;"/><g class="overlines-above"/><g class="xaxislayer-above"><g class="xtick"><text text-anchor="middle" x="0" y="451" transform="translate(60,0)" style="font-family: 'Lucida Grande', 'Open Sans', verdana, arial, sans-serif; font-size: 10px; fill: rgb(0, 0, 0); fill-opacity: 1; white-space: pre;">0%</text></g><g class="xtick"><text text-anchor="middle" x="0" y="451" style="font-family: 'Lucida Grande', 'Open Sans', verdana, arial, sans-serif; font-size: 10px; fill: rgb(0, 0, 0); fill-opacity: 1; white-space: pre;" transform="translate(162.8,0)">20%</text></g><g class="xtick"><text text-anchor="middle" x="0" y="451" style="font-family: 'Lucida Grande', 'Open Sans', verdana, arial, sans-serif; font-size: 10px; fill: rgb(0, 0, 0); fill-opacity: 1; white-space: pre;" transform="translate(265.6,0)">40%</text></g><g class="xtick"><text text-anchor="middle" x="0" y="451" style="font-family: 'Lucida Grande', 'Open Sans', verdana, arial, sans-serif; font-size: 10px; fill: rgb(0, 0, 0); fill-opacity: 1; white-space: pre;" transform="translate(368.4,0)">60%</text></g><g class="xtick"><text text-anchor="middle" x="0" y="451" style="font-family: 'Lucida Grande', 'Open Sans', verdana, arial, sans-serif; font-size: 10px; fill: rgb(0, 0, 0); fill-opacity: 1; white-space: pre;" transform="translate(471.2,0)">80%</text></g><g class="xtick"><text text-anchor="middle" x="0" y="451" style="font-family: 'Lucida Grande', 'Open Sans', verdana, arial, sans-serif; font-size: 10px; fill: rgb(0, 0, 0); fill-opacity: 1; white-space: pre;" transform="translate(574,0)">100%</text></g></g><g class="yaxislayer-above"><g class="ytick"><text text-anchor="end" x="54" y="3.5" transform="translate(0,435)" style="font-family: 'Lucida Grande', 'Open Sans', verdana, arial, sans-serif; font-size: 10px; fill: rgb(0, 0, 0); fill-opacity: 1; white-space: pre;">0%</text></g><g class="ytick"><text text-anchor="end" x="54" y="3.5" style="font-family: 'Lucida Grande', 'Open Sans', verdana, arial, sans-serif; font-size: 10px; fill: rgb(0, 0, 0); fill-opacity: 1; white-space: pre;" transform="translate(0,384.61)">1%</text></g><g class="ytick"><text text-anchor="end" x="54" y="3.5" style="font-family: 'Lucida Grande', 'Open Sans', verdana, arial, sans-serif; font-size: 10px; fill: rgb(0, 0, 0); fill-opacity: 1; white-space: pre;" transform="translate(0,334.21)">2%</text></g><g class="ytick"><text text-anchor="end" x="54" y="3.5" style="font-family: 'Lucida Grande', 'Open Sans', verdana, arial, sans-serif; font-size: 10px; fill: rgb(0, 0, 0); fill-opacity: 1; white-space: pre;" transform="translate(0,283.82)">3%</text></g><g class="ytick"><text text-anchor="end" x="54" y="3.5" style="font-family: 'Lucida Grande', 'Open Sans', verdana, arial, sans-serif; font-size: 10px; fill: rgb(0, 0, 0); fill-opacity: 1; white-space: pre;" transform="translate(0,233.43)">4%</text></g><g class="ytick"><text text-anchor="end" x="54" y="3.5" style="font-family: 'Lucida Grande', 'Open Sans', verdana, arial, sans-serif; font-size: 10px; fill: rgb(0, 0, 0); fill-opacity: 1; white-space: pre;" transform="translate(0,183.04)">5%</text></g><g class="ytick"><text text-anchor="end" x="54" y="3.5" style="font-family: 'Lucida Grande', 'Open Sans', verdana, arial, sans-serif; font-size: 10px; fill: rgb(0, 0, 0); fill-opacity: 1; white-space: pre;" transform="translate(0,132.64)">6%</text></g><g class="ytick"><text text-anchor="end" x="54" y="3.5" style="font-family: 'Lucida Grande', 'Open Sans', verdana, arial, sans-serif; font-size: 10px; fill: rgb(0, 0, 0); fill-opacity: 1; white-space: pre;" transform="translate(0,82.25)">7%</text></g></g><g class="overaxes-above"/></g></g><g class="polarlayer"/><g class="smithlayer"/><g class="ternarylayer"/><g class="geolayer"/><g class="funnelarealayer"/><g class="pielayer"/><g class="iciclelayer"/><g class="treemaplayer"/><g class="sunburstlayer"/><g class="glimages"/><defs id="topdefs-63c32c"><g class="clips"/></defs><g class="layer-above"><g class="imagelayer"/><g class="shapelayer"/></g><g class="infolayer"><g class="g-gtitle"><text class="gtitle" x="300" y="25" text-anchor="middle" dy="0em" style="opacity: 1; font-family: 'Lucida Grande', 'Open Sans', verdana, arial, sans-serif; font-size: 20px; fill: rgb(68, 68, 68); fill-opacity: 1; white-space: pre;"><tspan class="line" dy="0em" x="300" y="25">FastQC: Per Sequence GC Content</tspan><tspan class="line" dy="1.3em" x="300" y="25">​<tspan style="font-size:70%" dy="-0.6em">Percentages, 88 samples</tspan><tspan dy="0.42em">​</tspan></tspan></text></g><g class="g-xtitle"><text class="xtitle" x="317" y="487" text-anchor="middle" style="opacity: 0.3; font-family: 'Lucida Grande', 'Open Sans', verdana, arial, sans-serif; font-size: 14px; fill: rgb(0, 0, 0); fill-opacity: 1; white-space: pre;">% GC</text></g><g class="g-ytitle"><text class="ytitle" transform="rotate(-90,22,242.5)" x="22" y="242.5" text-anchor="middle" style="opacity: 0.3; font-family: 'Lucida Grande', 'Open Sans', verdana, arial, sans-serif; font-size: 14px; fill: rgb(0, 0, 0); fill-opacity: 1; white-space: pre;">Percentage</text></g></g></svg>